<?xml version="1.0" encoding="utf-8" standalone="no"?>
<!DOCTYPE svg PUBLIC "-//W3C//DTD SVG 1.1//EN"
  "http://www.w3.org/Graphics/SVG/1.1/DTD/svg11.dtd">
<svg xmlns:xlink="http://www.w3.org/1999/xlink" width="419.973025pt" height="351.99625pt" viewBox="0 0 419.973025 351.99625" xmlns="http://www.w3.org/2000/svg" version="1.1">
 <metadata>
  <rdf:RDF xmlns:dc="http://purl.org/dc/elements/1.1/" xmlns:cc="http://creativecommons.org/ns#" xmlns:rdf="http://www.w3.org/1999/02/22-rdf-syntax-ns#">
   <cc:Work>
    <dc:type rdf:resource="http://purl.org/dc/dcmitype/StillImage"/>
    <dc:date>2023-11-07T10:14:24.264624</dc:date>
    <dc:format>image/svg+xml</dc:format>
    <dc:creator>
     <cc:Agent>
      <dc:title>Matplotlib v3.7.2, https://matplotlib.org/</dc:title>
     </cc:Agent>
    </dc:creator>
   </cc:Work>
  </rdf:RDF>
 </metadata>
 <defs>
  <style type="text/css">*{stroke-linejoin: round; stroke-linecap: butt}</style>
 </defs>
 <g id="figure_1">
  <g id="patch_1">
   <path d="M 0 351.99625 
L 419.973025 351.99625 
L 419.973025 0 
L 0 0 
z
" style="fill: #ffffff"/>
  </g>
  <g id="axes_1">
   <g id="patch_2">
    <path d="M 47.1875 314.44 
L 341.634825 314.44 
L 341.634825 7.2 
L 47.1875 7.2 
z
" style="fill: #ffffff"/>
   </g>
   <g id="PathCollection_1">
    <defs>
     <path id="m2078c5160d" d="M 0 3 
C 0.795609 3 1.55874 2.683901 2.12132 2.12132 
C 2.683901 1.55874 3 0.795609 3 0 
C 3 -0.795609 2.683901 -1.55874 2.12132 -2.12132 
C 1.55874 -2.683901 0.795609 -3 0 -3 
C -0.795609 -3 -1.55874 -2.683901 -2.12132 -2.12132 
C -2.683901 -1.55874 -3 -0.795609 -3 0 
C -3 0.795609 -2.683901 1.55874 -2.12132 2.12132 
C -1.55874 2.683901 -0.795609 3 0 3 
z
" style="stroke: #1f77b4; stroke-opacity: 0.8"/>
    </defs>
    <g clip-path="url(#pd97a792729)">
     <use xlink:href="#m2078c5160d" x="60.571469" y="254.515088" style="fill: #1f77b4; fill-opacity: 0.8; stroke: #1f77b4; stroke-opacity: 0.8"/>
     <use xlink:href="#m2078c5160d" x="87.726508" y="238.36717" style="fill: #1f77b4; fill-opacity: 0.8; stroke: #1f77b4; stroke-opacity: 0.8"/>
     <use xlink:href="#m2078c5160d" x="114.881546" y="213.52422" style="fill: #1f77b4; fill-opacity: 0.8; stroke: #1f77b4; stroke-opacity: 0.8"/>
     <use xlink:href="#m2078c5160d" x="142.017229" y="188.68127" style="fill: #1f77b4; fill-opacity: 0.8; stroke: #1f77b4; stroke-opacity: 0.8"/>
     <use xlink:href="#m2078c5160d" x="169.172267" y="162.596172" style="fill: #1f77b4; fill-opacity: 0.8; stroke: #1f77b4; stroke-opacity: 0.8"/>
     <use xlink:href="#m2078c5160d" x="196.327306" y="140.237517" style="fill: #1f77b4; fill-opacity: 0.8; stroke: #1f77b4; stroke-opacity: 0.8"/>
     <use xlink:href="#m2078c5160d" x="223.462989" y="116.636715" style="fill: #1f77b4; fill-opacity: 0.8; stroke: #1f77b4; stroke-opacity: 0.8"/>
     <use xlink:href="#m2078c5160d" x="250.618027" y="93.035912" style="fill: #1f77b4; fill-opacity: 0.8; stroke: #1f77b4; stroke-opacity: 0.8"/>
     <use xlink:href="#m2078c5160d" x="277.75371" y="71.919405" style="fill: #1f77b4; fill-opacity: 0.8; stroke: #1f77b4; stroke-opacity: 0.8"/>
     <use xlink:href="#m2078c5160d" x="304.908749" y="47.076454" style="fill: #1f77b4; fill-opacity: 0.8; stroke: #1f77b4; stroke-opacity: 0.8"/>
     <use xlink:href="#m2078c5160d" x="142.017229" y="201.102745" style="fill: #1f77b4; fill-opacity: 0.8; stroke: #1f77b4; stroke-opacity: 0.8"/>
     <use xlink:href="#m2078c5160d" x="142.017229" y="232.156433" style="fill: #1f77b4; fill-opacity: 0.8; stroke: #1f77b4; stroke-opacity: 0.8"/>
     <use xlink:href="#m2078c5160d" x="169.172267" y="172.533352" style="fill: #1f77b4; fill-opacity: 0.8; stroke: #1f77b4; stroke-opacity: 0.8"/>
     <use xlink:href="#m2078c5160d" x="196.327306" y="167.564762" style="fill: #1f77b4; fill-opacity: 0.8; stroke: #1f77b4; stroke-opacity: 0.8"/>
     <use xlink:href="#m2078c5160d" x="223.462989" y="161.354025" style="fill: #1f77b4; fill-opacity: 0.8; stroke: #1f77b4; stroke-opacity: 0.8"/>
     <use xlink:href="#m2078c5160d" x="180.707836" y="109.18383" style="fill: #1f77b4; fill-opacity: 0.8; stroke: #1f77b4; stroke-opacity: 0.8"/>
     <use xlink:href="#m2078c5160d" x="207.862874" y="84.34088" style="fill: #1f77b4; fill-opacity: 0.8; stroke: #1f77b4; stroke-opacity: 0.8"/>
     <use xlink:href="#m2078c5160d" x="262.153596" y="61.982225" style="fill: #1f77b4; fill-opacity: 0.8; stroke: #1f77b4; stroke-opacity: 0.8"/>
    </g>
   </g>
   <g id="PolyCollection_1">
    <path d="M 60.571469 251.198177 
L 60.571469 287.300806 
L 63.039523 284.839948 
L 65.507576 282.37909 
L 67.975629 279.871071 
L 70.443683 277.102861 
L 72.911736 274.614341 
L 75.379789 272.125821 
L 77.847843 269.750855 
L 80.315896 267.376898 
L 82.783949 265.002605 
L 85.252003 262.584496 
L 87.720056 260.047846 
L 90.188109 257.520239 
L 92.656163 255.089513 
L 95.124216 252.617445 
L 97.592269 249.890152 
L 100.060323 247.349687 
L 102.528376 244.809221 
L 104.996429 242.344445 
L 107.464483 239.757943 
L 109.932536 237.257723 
L 112.400589 234.694878 
L 114.868643 232.16785 
L 117.336696 229.572031 
L 119.804749 227.051799 
L 122.272802 224.491562 
L 124.740856 221.954257 
L 127.208909 219.510883 
L 129.676962 217.131943 
L 132.145016 214.4602 
L 134.613069 211.843388 
L 137.081122 209.55699 
L 139.549176 207.156741 
L 142.017229 204.425442 
L 144.485282 202.035042 
L 146.953336 199.710647 
L 149.421389 197.442003 
L 151.889442 195.030212 
L 154.357496 192.828067 
L 156.825549 190.354287 
L 159.293602 187.947875 
L 161.761656 185.346954 
L 164.229709 182.880738 
L 166.697762 180.581405 
L 169.165816 178.244076 
L 171.633869 175.853489 
L 174.101922 173.397958 
L 176.569976 171.166536 
L 179.038029 168.98101 
L 181.506082 166.657667 
L 183.974136 164.451819 
L 186.442189 162.126284 
L 188.910242 159.924163 
L 191.378296 157.642876 
L 193.846349 155.317296 
L 196.314402 153.038923 
L 198.782456 150.771979 
L 201.250509 148.559762 
L 203.718562 146.373523 
L 206.186616 144.183416 
L 208.654669 142.092743 
L 211.122722 139.860928 
L 213.590776 137.778155 
L 216.058829 135.763115 
L 218.526882 133.485177 
L 220.994936 131.164938 
L 223.462989 128.908467 
L 225.931042 126.654987 
L 228.399096 124.462528 
L 230.867149 122.323275 
L 233.335202 120.293504 
L 235.803256 118.252956 
L 238.271309 116.02211 
L 240.739362 113.925056 
L 243.207416 111.953513 
L 245.675469 109.981969 
L 248.143522 108.010425 
L 250.611575 106.038714 
L 253.079629 104.037341 
L 255.547682 102.046232 
L 258.015735 99.99469 
L 260.483789 97.879719 
L 262.951842 95.846095 
L 265.419895 93.773811 
L 267.887949 91.734697 
L 270.356002 89.797222 
L 272.824055 87.859747 
L 275.292109 85.858784 
L 277.760162 83.71877 
L 280.228215 81.534316 
L 282.696269 79.347486 
L 285.164322 77.204546 
L 287.632375 75.23403 
L 290.100429 73.291196 
L 292.568482 71.288772 
L 295.036535 69.320119 
L 297.504589 67.351467 
L 299.972642 65.382814 
L 302.440695 63.413562 
L 304.908749 61.442723 
L 304.908749 21.165455 
L 304.908749 21.165455 
L 302.440695 23.589057 
L 299.972642 26.070219 
L 297.504589 28.632255 
L 295.036535 31.134509 
L 292.568482 33.644498 
L 290.100429 36.223862 
L 287.632375 38.803227 
L 285.164322 41.31806 
L 282.696269 43.822453 
L 280.228215 46.325882 
L 277.760162 48.822158 
L 275.292109 51.322383 
L 272.824055 53.886806 
L 270.356002 56.592487 
L 267.887949 59.1337 
L 265.419895 61.617732 
L 262.951842 64.083998 
L 260.483789 66.534973 
L 258.015735 68.906298 
L 255.547682 71.444855 
L 253.079629 73.949064 
L 250.611575 76.41533 
L 248.143522 79.01204 
L 245.675469 81.692671 
L 243.207416 84.135173 
L 240.739362 86.730516 
L 238.271309 89.082764 
L 235.803256 91.43883 
L 233.335202 94.046202 
L 230.867149 96.578055 
L 228.399096 99.119384 
L 225.931042 101.596752 
L 223.462989 103.996499 
L 220.994936 106.316788 
L 218.526882 108.69655 
L 216.058829 111.123114 
L 213.590776 113.398328 
L 211.122722 115.711832 
L 208.654669 118.293749 
L 206.186616 120.693571 
L 203.718562 123.038005 
L 201.250509 125.345918 
L 198.782456 127.590845 
L 196.314402 129.947634 
L 193.846349 132.244317 
L 191.378296 134.548792 
L 188.910242 136.81417 
L 186.442189 139.17453 
L 183.974136 141.570256 
L 181.506082 143.842345 
L 179.038029 146.108514 
L 176.569976 148.426999 
L 174.101922 150.778666 
L 171.633869 152.998181 
L 169.165816 155.184727 
L 166.697762 157.450641 
L 164.229709 159.719137 
L 161.761656 161.991798 
L 159.293602 164.341399 
L 156.825549 166.691001 
L 154.357496 169.043766 
L 151.889442 171.350539 
L 149.421389 173.593949 
L 146.953336 175.754741 
L 144.485282 178.083621 
L 142.017229 180.292322 
L 139.549176 182.47428 
L 137.081122 184.745728 
L 134.613069 186.938277 
L 132.145016 189.223545 
L 129.676962 191.47385 
L 127.208909 193.592593 
L 124.740856 195.705631 
L 122.272802 197.878645 
L 119.804749 199.979949 
L 117.336696 202.090681 
L 114.868643 204.268133 
L 112.400589 206.447883 
L 109.932536 208.676518 
L 107.464483 210.832141 
L 104.996429 212.986639 
L 102.528376 215.16637 
L 100.060323 217.345694 
L 97.592269 219.525629 
L 95.124216 221.705565 
L 92.656163 223.885455 
L 90.188109 226.039086 
L 87.720056 228.16988 
L 85.252003 230.383125 
L 82.783949 232.429772 
L 80.315896 234.50647 
L 77.847843 236.620961 
L 75.379789 238.703108 
L 72.911736 240.749267 
L 70.443683 242.855816 
L 67.975629 245.002311 
L 65.507576 247.143694 
L 63.039523 249.17028 
L 60.571469 251.198177 
z
" clip-path="url(#pd97a792729)" style="fill: #1f77b4; fill-opacity: 0.15"/>
   </g>
   <g id="PathCollection_2">
    <defs>
     <path id="m30c91b72e1" d="M 0 3 
C 0.795609 3 1.55874 2.683901 2.12132 2.12132 
C 2.683901 1.55874 3 0.795609 3 0 
C 3 -0.795609 2.683901 -1.55874 2.12132 -2.12132 
C 1.55874 -2.683901 0.795609 -3 0 -3 
C -0.795609 -3 -1.55874 -2.683901 -2.12132 -2.12132 
C -2.683901 -1.55874 -3 -0.795609 -3 0 
C -3 0.795609 -2.683901 1.55874 -2.12132 2.12132 
C -1.55874 2.683901 -0.795609 3 0 3 
z
" style="stroke: #ff7f0e; stroke-opacity: 0.8"/>
    </defs>
    <g clip-path="url(#pd97a792729)">
     <use xlink:href="#m30c91b72e1" x="138.204298" y="290.537365" style="fill: #ff7f0e; fill-opacity: 0.8; stroke: #ff7f0e; stroke-opacity: 0.8"/>
     <use xlink:href="#m30c91b72e1" x="165.359336" y="249.546498" style="fill: #ff7f0e; fill-opacity: 0.8; stroke: #ff7f0e; stroke-opacity: 0.8"/>
     <use xlink:href="#m30c91b72e1" x="192.514374" y="213.52422" style="fill: #ff7f0e; fill-opacity: 0.8; stroke: #ff7f0e; stroke-opacity: 0.8"/>
     <use xlink:href="#m30c91b72e1" x="219.650058" y="178.74409" style="fill: #ff7f0e; fill-opacity: 0.8; stroke: #ff7f0e; stroke-opacity: 0.8"/>
     <use xlink:href="#m30c91b72e1" x="246.805096" y="147.690402" style="fill: #ff7f0e; fill-opacity: 0.8; stroke: #ff7f0e; stroke-opacity: 0.8"/>
     <use xlink:href="#m30c91b72e1" x="273.960134" y="119.12101" style="fill: #ff7f0e; fill-opacity: 0.8; stroke: #ff7f0e; stroke-opacity: 0.8"/>
     <use xlink:href="#m30c91b72e1" x="301.095817" y="91.793765" style="fill: #ff7f0e; fill-opacity: 0.8; stroke: #ff7f0e; stroke-opacity: 0.8"/>
     <use xlink:href="#m30c91b72e1" x="328.250856" y="66.950815" style="fill: #ff7f0e; fill-opacity: 0.8; stroke: #ff7f0e; stroke-opacity: 0.8"/>
     <use xlink:href="#m30c91b72e1" x="165.359336" y="256.999383" style="fill: #ff7f0e; fill-opacity: 0.8; stroke: #ff7f0e; stroke-opacity: 0.8"/>
     <use xlink:href="#m30c91b72e1" x="219.650058" y="189.923418" style="fill: #ff7f0e; fill-opacity: 0.8; stroke: #ff7f0e; stroke-opacity: 0.8"/>
     <use xlink:href="#m30c91b72e1" x="138.204298" y="300.474545" style="fill: #ff7f0e; fill-opacity: 0.8; stroke: #ff7f0e; stroke-opacity: 0.8"/>
     <use xlink:href="#m30c91b72e1" x="192.514374" y="235.882875" style="fill: #ff7f0e; fill-opacity: 0.8; stroke: #ff7f0e; stroke-opacity: 0.8"/>
    </g>
   </g>
   <g id="PolyCollection_2">
    <path d="M 138.204298 281.364149 
L 138.204298 297.37535 
L 140.12396 294.891139 
L 142.043622 292.34083 
L 143.963284 289.929844 
L 145.882947 287.452896 
L 147.802609 284.990282 
L 149.722271 282.574512 
L 151.641933 280.143989 
L 153.561595 277.590737 
L 155.481258 275.039053 
L 157.40092 272.539298 
L 159.320582 270.142763 
L 161.240244 267.743754 
L 163.159906 265.339509 
L 165.079569 262.772587 
L 166.999231 260.32084 
L 168.918893 257.902723 
L 170.838555 255.40116 
L 172.758217 252.89891 
L 174.67788 250.395013 
L 176.597542 247.942994 
L 178.517204 245.533904 
L 180.436866 243.12286 
L 182.356528 240.656157 
L 184.276191 238.257443 
L 186.195853 235.803929 
L 188.115515 233.377221 
L 190.035177 230.950982 
L 191.954839 228.556624 
L 193.874502 226.173728 
L 195.794164 223.758171 
L 197.713826 221.365273 
L 199.633488 218.968322 
L 201.55315 216.580422 
L 203.472813 214.188981 
L 205.392475 211.79754 
L 207.312137 209.51295 
L 209.231799 207.169901 
L 211.151461 204.737219 
L 213.071124 202.303727 
L 214.990786 199.910005 
L 216.910448 197.565847 
L 218.83011 195.219498 
L 220.749772 192.879385 
L 222.669435 190.536555 
L 224.589097 188.193072 
L 226.508759 185.848627 
L 228.428421 183.474207 
L 230.348083 181.092564 
L 232.267746 178.709164 
L 234.187408 176.319947 
L 236.10707 173.94422 
L 238.026732 171.561459 
L 239.946394 169.21842 
L 241.866057 166.878477 
L 243.785719 164.516998 
L 245.705381 162.181025 
L 247.625043 159.882325 
L 249.544705 157.573127 
L 251.464368 155.26155 
L 253.38403 152.983063 
L 255.303692 150.692031 
L 257.223354 148.3502 
L 259.143016 146.011137 
L 261.062679 143.701908 
L 262.982341 141.393387 
L 264.902003 139.094033 
L 266.821665 136.808917 
L 268.741327 134.505947 
L 270.66099 132.174461 
L 272.580652 129.842951 
L 274.500314 127.537753 
L 276.419976 125.247219 
L 278.339638 122.967928 
L 280.259301 120.68826 
L 282.178963 118.409846 
L 284.098625 116.11527 
L 286.018287 113.779797 
L 287.937949 111.441151 
L 289.857612 109.148478 
L 291.777274 106.879765 
L 293.696936 104.588641 
L 295.616598 102.270441 
L 297.53626 99.977113 
L 299.455923 97.697267 
L 301.375585 95.406232 
L 303.295247 93.138836 
L 305.214909 90.888124 
L 307.134571 88.62901 
L 309.054234 86.389943 
L 310.973896 84.141533 
L 312.893558 81.899168 
L 314.81322 79.651351 
L 316.732882 77.414391 
L 318.652545 75.148091 
L 320.572207 72.894904 
L 322.491869 70.645578 
L 324.411531 68.396668 
L 326.331193 66.135235 
L 328.250856 63.878177 
L 328.250856 39.833695 
L 328.250856 39.833695 
L 326.331193 42.395569 
L 324.411531 44.957442 
L 322.491869 47.519316 
L 320.572207 50.08119 
L 318.652545 52.643064 
L 316.732882 55.204937 
L 314.81322 57.766811 
L 312.893558 60.328685 
L 310.973896 62.884855 
L 309.054234 65.418882 
L 307.134571 67.952909 
L 305.214909 70.487817 
L 303.295247 73.023356 
L 301.375585 75.596361 
L 299.455923 78.199676 
L 297.53626 80.804139 
L 295.616598 83.390535 
L 293.696936 85.95348 
L 291.777274 88.516424 
L 289.857612 91.079369 
L 287.937949 93.621912 
L 286.018287 96.202503 
L 284.098625 98.763297 
L 282.178963 101.324092 
L 280.259301 103.884887 
L 278.339638 106.445682 
L 276.419976 109.006477 
L 274.500314 111.567221 
L 272.580652 114.070558 
L 270.66099 116.575012 
L 268.741327 119.079465 
L 266.821665 121.584199 
L 264.902003 124.090356 
L 262.982341 126.596512 
L 261.062679 129.179227 
L 259.143016 131.801911 
L 257.223354 134.427404 
L 255.303692 137.0568 
L 253.38403 139.738533 
L 251.464368 142.307858 
L 249.544705 144.88695 
L 247.625043 147.451323 
L 245.705381 150.083528 
L 243.785719 152.725829 
L 241.866057 155.368129 
L 239.946394 157.898696 
L 238.026732 160.365037 
L 236.10707 162.840051 
L 234.187408 165.387468 
L 232.267746 167.947974 
L 230.348083 170.351136 
L 228.428421 172.808255 
L 226.508759 175.177615 
L 224.589097 177.765482 
L 222.669435 180.1259 
L 220.749772 182.661271 
L 218.83011 184.9347 
L 216.910448 187.392098 
L 214.990786 189.770383 
L 213.071124 192.219656 
L 211.151461 194.642754 
L 209.231799 196.962324 
L 207.312137 199.297098 
L 205.392475 201.667553 
L 203.472813 203.995864 
L 201.55315 206.281184 
L 199.633488 208.737617 
L 197.713826 211.046631 
L 195.794164 213.364776 
L 193.874502 215.761323 
L 191.954839 218.110061 
L 190.035177 220.313453 
L 188.115515 222.60129 
L 186.195853 224.828045 
L 184.276191 227.096351 
L 182.356528 229.389094 
L 180.436866 231.607199 
L 178.517204 233.93459 
L 176.597542 236.197939 
L 174.67788 238.413547 
L 172.758217 240.629997 
L 170.838555 242.912924 
L 168.918893 245.214334 
L 166.999231 247.515744 
L 165.079569 249.817155 
L 163.159906 252.118565 
L 161.240244 254.380182 
L 159.320582 256.635275 
L 157.40092 258.890369 
L 155.481258 261.145463 
L 153.561595 263.400556 
L 151.641933 265.65565 
L 149.722271 267.911277 
L 147.802609 270.168236 
L 145.882947 272.415733 
L 143.963284 274.656895 
L 142.043622 276.898057 
L 140.12396 279.138478 
L 138.204298 281.364149 
z
" clip-path="url(#pd97a792729)" style="fill: #ff7f0e; fill-opacity: 0.15"/>
   </g>
   <g id="matplotlib.axis_1">
    <g id="xtick_1">
     <g id="line2d_1">
      <defs>
       <path id="m3c3dee6326" d="M 0 0 
L 0 3.5 
" style="stroke: #000000; stroke-width: 0.8"/>
      </defs>
      <g>
       <use xlink:href="#m3c3dee6326" x="75.978034" y="314.44" style="stroke: #000000; stroke-width: 0.8"/>
      </g>
     </g>
     <g id="text_1">
      <!-- 40 -->
      <g transform="translate(69.615534 329.038437) scale(0.1 -0.1)">
       <defs>
        <path id="DejaVuSans-34" d="M 2419 4116 
L 825 1625 
L 2419 1625 
L 2419 4116 
z
M 2253 4666 
L 3047 4666 
L 3047 1625 
L 3713 1625 
L 3713 1100 
L 3047 1100 
L 3047 0 
L 2419 0 
L 2419 1100 
L 313 1100 
L 313 1709 
L 2253 4666 
z
" transform="scale(0.015625)"/>
        <path id="DejaVuSans-30" d="M 2034 4250 
Q 1547 4250 1301 3770 
Q 1056 3291 1056 2328 
Q 1056 1369 1301 889 
Q 1547 409 2034 409 
Q 2525 409 2770 889 
Q 3016 1369 3016 2328 
Q 3016 3291 2770 3770 
Q 2525 4250 2034 4250 
z
M 2034 4750 
Q 2819 4750 3233 4129 
Q 3647 3509 3647 2328 
Q 3647 1150 3233 529 
Q 2819 -91 2034 -91 
Q 1250 -91 836 529 
Q 422 1150 422 2328 
Q 422 3509 836 4129 
Q 1250 4750 2034 4750 
z
" transform="scale(0.015625)"/>
       </defs>
       <use xlink:href="#DejaVuSans-34"/>
       <use xlink:href="#DejaVuSans-30" x="63.623047"/>
      </g>
     </g>
    </g>
    <g id="xtick_2">
     <g id="line2d_2">
      <g>
       <use xlink:href="#m3c3dee6326" x="114.687996" y="314.44" style="stroke: #000000; stroke-width: 0.8"/>
      </g>
     </g>
     <g id="text_2">
      <!-- 60 -->
      <g transform="translate(108.325496 329.038437) scale(0.1 -0.1)">
       <defs>
        <path id="DejaVuSans-36" d="M 2113 2584 
Q 1688 2584 1439 2293 
Q 1191 2003 1191 1497 
Q 1191 994 1439 701 
Q 1688 409 2113 409 
Q 2538 409 2786 701 
Q 3034 994 3034 1497 
Q 3034 2003 2786 2293 
Q 2538 2584 2113 2584 
z
M 3366 4563 
L 3366 3988 
Q 3128 4100 2886 4159 
Q 2644 4219 2406 4219 
Q 1781 4219 1451 3797 
Q 1122 3375 1075 2522 
Q 1259 2794 1537 2939 
Q 1816 3084 2150 3084 
Q 2853 3084 3261 2657 
Q 3669 2231 3669 1497 
Q 3669 778 3244 343 
Q 2819 -91 2113 -91 
Q 1303 -91 875 529 
Q 447 1150 447 2328 
Q 447 3434 972 4092 
Q 1497 4750 2381 4750 
Q 2619 4750 2861 4703 
Q 3103 4656 3366 4563 
z
" transform="scale(0.015625)"/>
       </defs>
       <use xlink:href="#DejaVuSans-36"/>
       <use xlink:href="#DejaVuSans-30" x="63.623047"/>
      </g>
     </g>
    </g>
    <g id="xtick_3">
     <g id="line2d_3">
      <g>
       <use xlink:href="#m3c3dee6326" x="153.397958" y="314.44" style="stroke: #000000; stroke-width: 0.8"/>
      </g>
     </g>
     <g id="text_3">
      <!-- 80 -->
      <g transform="translate(147.035458 329.038437) scale(0.1 -0.1)">
       <defs>
        <path id="DejaVuSans-38" d="M 2034 2216 
Q 1584 2216 1326 1975 
Q 1069 1734 1069 1313 
Q 1069 891 1326 650 
Q 1584 409 2034 409 
Q 2484 409 2743 651 
Q 3003 894 3003 1313 
Q 3003 1734 2745 1975 
Q 2488 2216 2034 2216 
z
M 1403 2484 
Q 997 2584 770 2862 
Q 544 3141 544 3541 
Q 544 4100 942 4425 
Q 1341 4750 2034 4750 
Q 2731 4750 3128 4425 
Q 3525 4100 3525 3541 
Q 3525 3141 3298 2862 
Q 3072 2584 2669 2484 
Q 3125 2378 3379 2068 
Q 3634 1759 3634 1313 
Q 3634 634 3220 271 
Q 2806 -91 2034 -91 
Q 1263 -91 848 271 
Q 434 634 434 1313 
Q 434 1759 690 2068 
Q 947 2378 1403 2484 
z
M 1172 3481 
Q 1172 3119 1398 2916 
Q 1625 2713 2034 2713 
Q 2441 2713 2670 2916 
Q 2900 3119 2900 3481 
Q 2900 3844 2670 4047 
Q 2441 4250 2034 4250 
Q 1625 4250 1398 4047 
Q 1172 3844 1172 3481 
z
" transform="scale(0.015625)"/>
       </defs>
       <use xlink:href="#DejaVuSans-38"/>
       <use xlink:href="#DejaVuSans-30" x="63.623047"/>
      </g>
     </g>
    </g>
    <g id="xtick_4">
     <g id="line2d_4">
      <g>
       <use xlink:href="#m3c3dee6326" x="192.10792" y="314.44" style="stroke: #000000; stroke-width: 0.8"/>
      </g>
     </g>
     <g id="text_4">
      <!-- 100 -->
      <g transform="translate(182.56417 329.038437) scale(0.1 -0.1)">
       <defs>
        <path id="DejaVuSans-31" d="M 794 531 
L 1825 531 
L 1825 4091 
L 703 3866 
L 703 4441 
L 1819 4666 
L 2450 4666 
L 2450 531 
L 3481 531 
L 3481 0 
L 794 0 
L 794 531 
z
" transform="scale(0.015625)"/>
       </defs>
       <use xlink:href="#DejaVuSans-31"/>
       <use xlink:href="#DejaVuSans-30" x="63.623047"/>
       <use xlink:href="#DejaVuSans-30" x="127.246094"/>
      </g>
     </g>
    </g>
    <g id="xtick_5">
     <g id="line2d_5">
      <g>
       <use xlink:href="#m3c3dee6326" x="230.817882" y="314.44" style="stroke: #000000; stroke-width: 0.8"/>
      </g>
     </g>
     <g id="text_5">
      <!-- 120 -->
      <g transform="translate(221.274132 329.038437) scale(0.1 -0.1)">
       <defs>
        <path id="DejaVuSans-32" d="M 1228 531 
L 3431 531 
L 3431 0 
L 469 0 
L 469 531 
Q 828 903 1448 1529 
Q 2069 2156 2228 2338 
Q 2531 2678 2651 2914 
Q 2772 3150 2772 3378 
Q 2772 3750 2511 3984 
Q 2250 4219 1831 4219 
Q 1534 4219 1204 4116 
Q 875 4013 500 3803 
L 500 4441 
Q 881 4594 1212 4672 
Q 1544 4750 1819 4750 
Q 2544 4750 2975 4387 
Q 3406 4025 3406 3419 
Q 3406 3131 3298 2873 
Q 3191 2616 2906 2266 
Q 2828 2175 2409 1742 
Q 1991 1309 1228 531 
z
" transform="scale(0.015625)"/>
       </defs>
       <use xlink:href="#DejaVuSans-31"/>
       <use xlink:href="#DejaVuSans-32" x="63.623047"/>
       <use xlink:href="#DejaVuSans-30" x="127.246094"/>
      </g>
     </g>
    </g>
    <g id="xtick_6">
     <g id="line2d_6">
      <g>
       <use xlink:href="#m3c3dee6326" x="269.527844" y="314.44" style="stroke: #000000; stroke-width: 0.8"/>
      </g>
     </g>
     <g id="text_6">
      <!-- 140 -->
      <g transform="translate(259.984094 329.038437) scale(0.1 -0.1)">
       <use xlink:href="#DejaVuSans-31"/>
       <use xlink:href="#DejaVuSans-34" x="63.623047"/>
       <use xlink:href="#DejaVuSans-30" x="127.246094"/>
      </g>
     </g>
    </g>
    <g id="xtick_7">
     <g id="line2d_7">
      <g>
       <use xlink:href="#m3c3dee6326" x="308.237805" y="314.44" style="stroke: #000000; stroke-width: 0.8"/>
      </g>
     </g>
     <g id="text_7">
      <!-- 160 -->
      <g transform="translate(298.694055 329.038437) scale(0.1 -0.1)">
       <use xlink:href="#DejaVuSans-31"/>
       <use xlink:href="#DejaVuSans-36" x="63.623047"/>
       <use xlink:href="#DejaVuSans-30" x="127.246094"/>
      </g>
     </g>
    </g>
    <g id="text_8">
     <!-- MW, g/mol -->
     <g transform="translate(167.797881 342.716562) scale(0.1 -0.1)">
      <defs>
       <path id="DejaVuSans-4d" d="M 628 4666 
L 1569 4666 
L 2759 1491 
L 3956 4666 
L 4897 4666 
L 4897 0 
L 4281 0 
L 4281 4097 
L 3078 897 
L 2444 897 
L 1241 4097 
L 1241 0 
L 628 0 
L 628 4666 
z
" transform="scale(0.015625)"/>
       <path id="DejaVuSans-57" d="M 213 4666 
L 850 4666 
L 1831 722 
L 2809 4666 
L 3519 4666 
L 4500 722 
L 5478 4666 
L 6119 4666 
L 4947 0 
L 4153 0 
L 3169 4050 
L 2175 0 
L 1381 0 
L 213 4666 
z
" transform="scale(0.015625)"/>
       <path id="DejaVuSans-2c" d="M 750 794 
L 1409 794 
L 1409 256 
L 897 -744 
L 494 -744 
L 750 256 
L 750 794 
z
" transform="scale(0.015625)"/>
       <path id="DejaVuSans-20" transform="scale(0.015625)"/>
       <path id="DejaVuSans-67" d="M 2906 1791 
Q 2906 2416 2648 2759 
Q 2391 3103 1925 3103 
Q 1463 3103 1205 2759 
Q 947 2416 947 1791 
Q 947 1169 1205 825 
Q 1463 481 1925 481 
Q 2391 481 2648 825 
Q 2906 1169 2906 1791 
z
M 3481 434 
Q 3481 -459 3084 -895 
Q 2688 -1331 1869 -1331 
Q 1566 -1331 1297 -1286 
Q 1028 -1241 775 -1147 
L 775 -588 
Q 1028 -725 1275 -790 
Q 1522 -856 1778 -856 
Q 2344 -856 2625 -561 
Q 2906 -266 2906 331 
L 2906 616 
Q 2728 306 2450 153 
Q 2172 0 1784 0 
Q 1141 0 747 490 
Q 353 981 353 1791 
Q 353 2603 747 3093 
Q 1141 3584 1784 3584 
Q 2172 3584 2450 3431 
Q 2728 3278 2906 2969 
L 2906 3500 
L 3481 3500 
L 3481 434 
z
" transform="scale(0.015625)"/>
       <path id="DejaVuSans-2f" d="M 1625 4666 
L 2156 4666 
L 531 -594 
L 0 -594 
L 1625 4666 
z
" transform="scale(0.015625)"/>
       <path id="DejaVuSans-6d" d="M 3328 2828 
Q 3544 3216 3844 3400 
Q 4144 3584 4550 3584 
Q 5097 3584 5394 3201 
Q 5691 2819 5691 2113 
L 5691 0 
L 5113 0 
L 5113 2094 
Q 5113 2597 4934 2840 
Q 4756 3084 4391 3084 
Q 3944 3084 3684 2787 
Q 3425 2491 3425 1978 
L 3425 0 
L 2847 0 
L 2847 2094 
Q 2847 2600 2669 2842 
Q 2491 3084 2119 3084 
Q 1678 3084 1418 2786 
Q 1159 2488 1159 1978 
L 1159 0 
L 581 0 
L 581 3500 
L 1159 3500 
L 1159 2956 
Q 1356 3278 1631 3431 
Q 1906 3584 2284 3584 
Q 2666 3584 2933 3390 
Q 3200 3197 3328 2828 
z
" transform="scale(0.015625)"/>
       <path id="DejaVuSans-6f" d="M 1959 3097 
Q 1497 3097 1228 2736 
Q 959 2375 959 1747 
Q 959 1119 1226 758 
Q 1494 397 1959 397 
Q 2419 397 2687 759 
Q 2956 1122 2956 1747 
Q 2956 2369 2687 2733 
Q 2419 3097 1959 3097 
z
M 1959 3584 
Q 2709 3584 3137 3096 
Q 3566 2609 3566 1747 
Q 3566 888 3137 398 
Q 2709 -91 1959 -91 
Q 1206 -91 779 398 
Q 353 888 353 1747 
Q 353 2609 779 3096 
Q 1206 3584 1959 3584 
z
" transform="scale(0.015625)"/>
       <path id="DejaVuSans-6c" d="M 603 4863 
L 1178 4863 
L 1178 0 
L 603 0 
L 603 4863 
z
" transform="scale(0.015625)"/>
      </defs>
      <use xlink:href="#DejaVuSans-4d"/>
      <use xlink:href="#DejaVuSans-57" x="86.279297"/>
      <use xlink:href="#DejaVuSans-2c" x="185.15625"/>
      <use xlink:href="#DejaVuSans-20" x="216.943359"/>
      <use xlink:href="#DejaVuSans-67" x="248.730469"/>
      <use xlink:href="#DejaVuSans-2f" x="312.207031"/>
      <use xlink:href="#DejaVuSans-6d" x="345.898438"/>
      <use xlink:href="#DejaVuSans-6f" x="443.310547"/>
      <use xlink:href="#DejaVuSans-6c" x="504.492188"/>
     </g>
    </g>
   </g>
   <g id="matplotlib.axis_2">
    <g id="ytick_1">
     <g id="line2d_8">
      <defs>
       <path id="m74404a860d" d="M 0 0 
L -3.5 0 
" style="stroke: #000000; stroke-width: 0.8"/>
      </defs>
      <g>
       <use xlink:href="#m74404a860d" x="47.1875" y="273.1473" style="stroke: #000000; stroke-width: 0.8"/>
      </g>
     </g>
     <g id="text_9">
      <!-- 50 -->
      <g transform="translate(27.4625 276.946519) scale(0.1 -0.1)">
       <defs>
        <path id="DejaVuSans-35" d="M 691 4666 
L 3169 4666 
L 3169 4134 
L 1269 4134 
L 1269 2991 
Q 1406 3038 1543 3061 
Q 1681 3084 1819 3084 
Q 2600 3084 3056 2656 
Q 3513 2228 3513 1497 
Q 3513 744 3044 326 
Q 2575 -91 1722 -91 
Q 1428 -91 1123 -41 
Q 819 9 494 109 
L 494 744 
Q 775 591 1075 516 
Q 1375 441 1709 441 
Q 2250 441 2565 725 
Q 2881 1009 2881 1497 
Q 2881 1984 2565 2268 
Q 2250 2553 1709 2553 
Q 1456 2553 1204 2497 
Q 953 2441 691 2322 
L 691 4666 
z
" transform="scale(0.015625)"/>
       </defs>
       <use xlink:href="#DejaVuSans-35"/>
       <use xlink:href="#DejaVuSans-30" x="63.623047"/>
      </g>
     </g>
    </g>
    <g id="ytick_2">
     <g id="line2d_9">
      <g>
       <use xlink:href="#m74404a860d" x="47.1875" y="211.039925" style="stroke: #000000; stroke-width: 0.8"/>
      </g>
     </g>
     <g id="text_10">
      <!-- 100 -->
      <g transform="translate(21.1 214.839144) scale(0.1 -0.1)">
       <use xlink:href="#DejaVuSans-31"/>
       <use xlink:href="#DejaVuSans-30" x="63.623047"/>
       <use xlink:href="#DejaVuSans-30" x="127.246094"/>
      </g>
     </g>
    </g>
    <g id="ytick_3">
     <g id="line2d_10">
      <g>
       <use xlink:href="#m74404a860d" x="47.1875" y="148.93255" style="stroke: #000000; stroke-width: 0.8"/>
      </g>
     </g>
     <g id="text_11">
      <!-- 150 -->
      <g transform="translate(21.1 152.731769) scale(0.1 -0.1)">
       <use xlink:href="#DejaVuSans-31"/>
       <use xlink:href="#DejaVuSans-35" x="63.623047"/>
       <use xlink:href="#DejaVuSans-30" x="127.246094"/>
      </g>
     </g>
    </g>
    <g id="ytick_4">
     <g id="line2d_11">
      <g>
       <use xlink:href="#m74404a860d" x="47.1875" y="86.825175" style="stroke: #000000; stroke-width: 0.8"/>
      </g>
     </g>
     <g id="text_12">
      <!-- 200 -->
      <g transform="translate(21.1 90.624393) scale(0.1 -0.1)">
       <use xlink:href="#DejaVuSans-32"/>
       <use xlink:href="#DejaVuSans-30" x="63.623047"/>
       <use xlink:href="#DejaVuSans-30" x="127.246094"/>
      </g>
     </g>
    </g>
    <g id="ytick_5">
     <g id="line2d_12">
      <g>
       <use xlink:href="#m74404a860d" x="47.1875" y="24.717799" style="stroke: #000000; stroke-width: 0.8"/>
      </g>
     </g>
     <g id="text_13">
      <!-- 250 -->
      <g transform="translate(21.1 28.517018) scale(0.1 -0.1)">
       <use xlink:href="#DejaVuSans-32"/>
       <use xlink:href="#DejaVuSans-35" x="63.623047"/>
       <use xlink:href="#DejaVuSans-30" x="127.246094"/>
      </g>
     </g>
    </g>
    <g id="text_14">
     <!-- bp, $^o$C -->
     <g transform="translate(15 176.17) rotate(-90) scale(0.1 -0.1)">
      <defs>
       <path id="DejaVuSans-62" d="M 3116 1747 
Q 3116 2381 2855 2742 
Q 2594 3103 2138 3103 
Q 1681 3103 1420 2742 
Q 1159 2381 1159 1747 
Q 1159 1113 1420 752 
Q 1681 391 2138 391 
Q 2594 391 2855 752 
Q 3116 1113 3116 1747 
z
M 1159 2969 
Q 1341 3281 1617 3432 
Q 1894 3584 2278 3584 
Q 2916 3584 3314 3078 
Q 3713 2572 3713 1747 
Q 3713 922 3314 415 
Q 2916 -91 2278 -91 
Q 1894 -91 1617 61 
Q 1341 213 1159 525 
L 1159 0 
L 581 0 
L 581 4863 
L 1159 4863 
L 1159 2969 
z
" transform="scale(0.015625)"/>
       <path id="DejaVuSans-70" d="M 1159 525 
L 1159 -1331 
L 581 -1331 
L 581 3500 
L 1159 3500 
L 1159 2969 
Q 1341 3281 1617 3432 
Q 1894 3584 2278 3584 
Q 2916 3584 3314 3078 
Q 3713 2572 3713 1747 
Q 3713 922 3314 415 
Q 2916 -91 2278 -91 
Q 1894 -91 1617 61 
Q 1341 213 1159 525 
z
M 3116 1747 
Q 3116 2381 2855 2742 
Q 2594 3103 2138 3103 
Q 1681 3103 1420 2742 
Q 1159 2381 1159 1747 
Q 1159 1113 1420 752 
Q 1681 391 2138 391 
Q 2594 391 2855 752 
Q 3116 1113 3116 1747 
z
" transform="scale(0.015625)"/>
       <path id="DejaVuSans-Oblique-6f" d="M 1625 -91 
Q 1009 -91 651 289 
Q 294 669 294 1325 
Q 294 1706 417 2101 
Q 541 2497 738 2766 
Q 1047 3184 1428 3384 
Q 1809 3584 2291 3584 
Q 2888 3584 3255 3212 
Q 3622 2841 3622 2241 
Q 3622 1825 3500 1412 
Q 3378 1000 3181 728 
Q 2875 309 2494 109 
Q 2113 -91 1625 -91 
z
M 891 1344 
Q 891 869 1089 633 
Q 1288 397 1691 397 
Q 2269 397 2648 901 
Q 3028 1406 3028 2181 
Q 3028 2634 2825 2865 
Q 2622 3097 2228 3097 
Q 1903 3097 1650 2945 
Q 1397 2794 1197 2484 
Q 1050 2253 970 1956 
Q 891 1659 891 1344 
z
" transform="scale(0.015625)"/>
       <path id="DejaVuSans-43" d="M 4122 4306 
L 4122 3641 
Q 3803 3938 3442 4084 
Q 3081 4231 2675 4231 
Q 1875 4231 1450 3742 
Q 1025 3253 1025 2328 
Q 1025 1406 1450 917 
Q 1875 428 2675 428 
Q 3081 428 3442 575 
Q 3803 722 4122 1019 
L 4122 359 
Q 3791 134 3420 21 
Q 3050 -91 2638 -91 
Q 1578 -91 968 557 
Q 359 1206 359 2328 
Q 359 3453 968 4101 
Q 1578 4750 2638 4750 
Q 3056 4750 3426 4639 
Q 3797 4528 4122 4306 
z
" transform="scale(0.015625)"/>
      </defs>
      <use xlink:href="#DejaVuSans-62" transform="translate(0 0.51875)"/>
      <use xlink:href="#DejaVuSans-70" transform="translate(63.476562 0.51875)"/>
      <use xlink:href="#DejaVuSans-2c" transform="translate(126.953125 0.51875)"/>
      <use xlink:href="#DejaVuSans-20" transform="translate(158.740234 0.51875)"/>
      <use xlink:href="#DejaVuSans-Oblique-6f" transform="translate(191.484375 38.8) scale(0.7)"/>
      <use xlink:href="#DejaVuSans-43" transform="translate(237.045898 0.51875)"/>
     </g>
    </g>
   </g>
   <g id="line2d_13">
    <path d="M 60.571469 265.061469 
L 63.039523 262.818922 
L 65.507576 260.576375 
L 67.975629 258.333828 
L 70.443683 256.091281 
L 72.911736 253.848735 
L 75.379789 251.606188 
L 77.847843 249.363641 
L 80.315896 247.121094 
L 82.783949 244.878547 
L 85.252003 242.636 
L 87.720056 240.393453 
L 90.188109 238.150906 
L 92.656163 235.908359 
L 95.124216 233.665812 
L 97.592269 231.423265 
L 100.060323 229.180718 
L 102.528376 226.938171 
L 104.996429 224.695624 
L 107.464483 222.453077 
L 109.932536 220.21053 
L 112.400589 217.967983 
L 114.868643 215.725436 
L 117.336696 213.482889 
L 119.804749 211.240342 
L 122.272802 208.997795 
L 124.740856 206.755248 
L 127.208909 204.512701 
L 129.676962 202.270154 
L 132.145016 200.027607 
L 134.613069 197.78506 
L 137.081122 195.542513 
L 139.549176 193.299966 
L 142.017229 191.057419 
L 144.485282 188.814872 
L 146.953336 186.572325 
L 149.421389 184.329778 
L 151.889442 182.087231 
L 154.357496 179.844684 
L 156.825549 177.602137 
L 159.293602 175.35959 
L 161.761656 173.117043 
L 164.229709 170.874496 
L 166.697762 168.631949 
L 169.165816 166.389402 
L 171.633869 164.146855 
L 174.101922 161.904308 
L 176.569976 159.661761 
L 179.038029 157.419214 
L 181.506082 155.176667 
L 183.974136 152.93412 
L 186.442189 150.691573 
L 188.910242 148.449026 
L 191.378296 146.206479 
L 193.846349 143.963932 
L 196.314402 141.721385 
L 198.782456 139.478838 
L 201.250509 137.236291 
L 203.718562 134.993744 
L 206.186616 132.751197 
L 208.654669 130.50865 
L 211.122722 128.266103 
L 213.590776 126.023556 
L 216.058829 123.781009 
L 218.526882 121.538462 
L 220.994936 119.295915 
L 223.462989 117.053368 
L 225.931042 114.810822 
L 228.399096 112.568275 
L 230.867149 110.325728 
L 233.335202 108.083181 
L 235.803256 105.840634 
L 238.271309 103.598087 
L 240.739362 101.35554 
L 243.207416 99.112993 
L 245.675469 96.870446 
L 248.143522 94.627899 
L 250.611575 92.385352 
L 253.079629 90.142805 
L 255.547682 87.900258 
L 258.015735 85.657711 
L 260.483789 83.415164 
L 262.951842 81.172617 
L 265.419895 78.93007 
L 267.887949 76.687523 
L 270.356002 74.444976 
L 272.824055 72.202429 
L 275.292109 69.959882 
L 277.760162 67.717335 
L 280.228215 65.474788 
L 282.696269 63.232241 
L 285.164322 60.989694 
L 287.632375 58.747147 
L 290.100429 56.5046 
L 292.568482 54.262053 
L 295.036535 52.019506 
L 297.504589 49.776959 
L 299.972642 47.534412 
L 302.440695 45.291865 
L 304.908749 43.049318 
" clip-path="url(#pd97a792729)" style="fill: none; stroke: #1f77b4; stroke-width: 2.25; stroke-linecap: square"/>
   </g>
   <g id="line2d_14">
    <path d="M 138.204298 289.254141 
L 140.12396 286.904544 
L 142.043622 284.554946 
L 143.963284 282.205349 
L 145.882947 279.855751 
L 147.802609 277.506154 
L 149.722271 275.156557 
L 151.641933 272.806959 
L 153.561595 270.457362 
L 155.481258 268.107764 
L 157.40092 265.758167 
L 159.320582 263.40857 
L 161.240244 261.058972 
L 163.159906 258.709375 
L 165.079569 256.359777 
L 166.999231 254.01018 
L 168.918893 251.660583 
L 170.838555 249.310985 
L 172.758217 246.961388 
L 174.67788 244.61179 
L 176.597542 242.262193 
L 178.517204 239.912596 
L 180.436866 237.562998 
L 182.356528 235.213401 
L 184.276191 232.863803 
L 186.195853 230.514206 
L 188.115515 228.164608 
L 190.035177 225.815011 
L 191.954839 223.465414 
L 193.874502 221.115816 
L 195.794164 218.766219 
L 197.713826 216.416621 
L 199.633488 214.067024 
L 201.55315 211.717427 
L 203.472813 209.367829 
L 205.392475 207.018232 
L 207.312137 204.668634 
L 209.231799 202.319037 
L 211.151461 199.96944 
L 213.071124 197.619842 
L 214.990786 195.270245 
L 216.910448 192.920647 
L 218.83011 190.57105 
L 220.749772 188.221453 
L 222.669435 185.871855 
L 224.589097 183.522258 
L 226.508759 181.17266 
L 228.428421 178.823063 
L 230.348083 176.473466 
L 232.267746 174.123868 
L 234.187408 171.774271 
L 236.10707 169.424673 
L 238.026732 167.075076 
L 239.946394 164.725478 
L 241.866057 162.375881 
L 243.785719 160.026284 
L 245.705381 157.676686 
L 247.625043 155.327089 
L 249.544705 152.977491 
L 251.464368 150.627894 
L 253.38403 148.278297 
L 255.303692 145.928699 
L 257.223354 143.579102 
L 259.143016 141.229504 
L 261.062679 138.879907 
L 262.982341 136.53031 
L 264.902003 134.180712 
L 266.821665 131.831115 
L 268.741327 129.481517 
L 270.66099 127.13192 
L 272.580652 124.782323 
L 274.500314 122.432725 
L 276.419976 120.083128 
L 278.339638 117.73353 
L 280.259301 115.383933 
L 282.178963 113.034335 
L 284.098625 110.684738 
L 286.018287 108.335141 
L 287.937949 105.985543 
L 289.857612 103.635946 
L 291.777274 101.286348 
L 293.696936 98.936751 
L 295.616598 96.587154 
L 297.53626 94.237556 
L 299.455923 91.887959 
L 301.375585 89.538361 
L 303.295247 87.188764 
L 305.214909 84.839167 
L 307.134571 82.489569 
L 309.054234 80.139972 
L 310.973896 77.790374 
L 312.893558 75.440777 
L 314.81322 73.09118 
L 316.732882 70.741582 
L 318.652545 68.391985 
L 320.572207 66.042387 
L 322.491869 63.69279 
L 324.411531 61.343193 
L 326.331193 58.993595 
L 328.250856 56.643998 
" clip-path="url(#pd97a792729)" style="fill: none; stroke: #ff7f0e; stroke-width: 2.25; stroke-linecap: square"/>
   </g>
   <g id="patch_3">
    <path d="M 47.1875 314.44 
L 47.1875 7.2 
" style="fill: none; stroke: #000000; stroke-width: 0.8; stroke-linejoin: miter; stroke-linecap: square"/>
   </g>
   <g id="patch_4">
    <path d="M 47.1875 314.44 
L 341.634825 314.44 
" style="fill: none; stroke: #000000; stroke-width: 0.8; stroke-linejoin: miter; stroke-linecap: square"/>
   </g>
  </g>
  <g id="legend_1">
   <g id="text_15">
    <!-- type -->
    <g transform="translate(367.923806 164.079375) scale(0.1 -0.1)">
     <defs>
      <path id="DejaVuSans-74" d="M 1172 4494 
L 1172 3500 
L 2356 3500 
L 2356 3053 
L 1172 3053 
L 1172 1153 
Q 1172 725 1289 603 
Q 1406 481 1766 481 
L 2356 481 
L 2356 0 
L 1766 0 
Q 1100 0 847 248 
Q 594 497 594 1153 
L 594 3053 
L 172 3053 
L 172 3500 
L 594 3500 
L 594 4494 
L 1172 4494 
z
" transform="scale(0.015625)"/>
      <path id="DejaVuSans-79" d="M 2059 -325 
Q 1816 -950 1584 -1140 
Q 1353 -1331 966 -1331 
L 506 -1331 
L 506 -850 
L 844 -850 
Q 1081 -850 1212 -737 
Q 1344 -625 1503 -206 
L 1606 56 
L 191 3500 
L 800 3500 
L 1894 763 
L 2988 3500 
L 3597 3500 
L 2059 -325 
z
" transform="scale(0.015625)"/>
      <path id="DejaVuSans-65" d="M 3597 1894 
L 3597 1613 
L 953 1613 
Q 991 1019 1311 708 
Q 1631 397 2203 397 
Q 2534 397 2845 478 
Q 3156 559 3463 722 
L 3463 178 
Q 3153 47 2828 -22 
Q 2503 -91 2169 -91 
Q 1331 -91 842 396 
Q 353 884 353 1716 
Q 353 2575 817 3079 
Q 1281 3584 2069 3584 
Q 2775 3584 3186 3129 
Q 3597 2675 3597 1894 
z
M 3022 2063 
Q 3016 2534 2758 2815 
Q 2500 3097 2075 3097 
Q 1594 3097 1305 2825 
Q 1016 2553 972 2059 
L 3022 2063 
z
" transform="scale(0.015625)"/>
     </defs>
     <use xlink:href="#DejaVuSans-74"/>
     <use xlink:href="#DejaVuSans-79" x="39.208984"/>
     <use xlink:href="#DejaVuSans-70" x="98.388672"/>
     <use xlink:href="#DejaVuSans-65" x="161.865234"/>
    </g>
   </g>
   <g id="PathCollection_3">
    <g>
     <use xlink:href="#m2078c5160d" x="357.215213" y="176.1325" style="fill: #1f77b4; fill-opacity: 0.8; stroke: #1f77b4; stroke-opacity: 0.8"/>
    </g>
   </g>
   <g id="text_16">
    <!-- alcohol -->
    <g transform="translate(375.215213 178.7575) scale(0.1 -0.1)">
     <defs>
      <path id="DejaVuSans-61" d="M 2194 1759 
Q 1497 1759 1228 1600 
Q 959 1441 959 1056 
Q 959 750 1161 570 
Q 1363 391 1709 391 
Q 2188 391 2477 730 
Q 2766 1069 2766 1631 
L 2766 1759 
L 2194 1759 
z
M 3341 1997 
L 3341 0 
L 2766 0 
L 2766 531 
Q 2569 213 2275 61 
Q 1981 -91 1556 -91 
Q 1019 -91 701 211 
Q 384 513 384 1019 
Q 384 1609 779 1909 
Q 1175 2209 1959 2209 
L 2766 2209 
L 2766 2266 
Q 2766 2663 2505 2880 
Q 2244 3097 1772 3097 
Q 1472 3097 1187 3025 
Q 903 2953 641 2809 
L 641 3341 
Q 956 3463 1253 3523 
Q 1550 3584 1831 3584 
Q 2591 3584 2966 3190 
Q 3341 2797 3341 1997 
z
" transform="scale(0.015625)"/>
      <path id="DejaVuSans-63" d="M 3122 3366 
L 3122 2828 
Q 2878 2963 2633 3030 
Q 2388 3097 2138 3097 
Q 1578 3097 1268 2742 
Q 959 2388 959 1747 
Q 959 1106 1268 751 
Q 1578 397 2138 397 
Q 2388 397 2633 464 
Q 2878 531 3122 666 
L 3122 134 
Q 2881 22 2623 -34 
Q 2366 -91 2075 -91 
Q 1284 -91 818 406 
Q 353 903 353 1747 
Q 353 2603 823 3093 
Q 1294 3584 2113 3584 
Q 2378 3584 2631 3529 
Q 2884 3475 3122 3366 
z
" transform="scale(0.015625)"/>
      <path id="DejaVuSans-68" d="M 3513 2113 
L 3513 0 
L 2938 0 
L 2938 2094 
Q 2938 2591 2744 2837 
Q 2550 3084 2163 3084 
Q 1697 3084 1428 2787 
Q 1159 2491 1159 1978 
L 1159 0 
L 581 0 
L 581 4863 
L 1159 4863 
L 1159 2956 
Q 1366 3272 1645 3428 
Q 1925 3584 2291 3584 
Q 2894 3584 3203 3211 
Q 3513 2838 3513 2113 
z
" transform="scale(0.015625)"/>
     </defs>
     <use xlink:href="#DejaVuSans-61"/>
     <use xlink:href="#DejaVuSans-6c" x="61.279297"/>
     <use xlink:href="#DejaVuSans-63" x="89.0625"/>
     <use xlink:href="#DejaVuSans-6f" x="144.042969"/>
     <use xlink:href="#DejaVuSans-68" x="205.224609"/>
     <use xlink:href="#DejaVuSans-6f" x="268.603516"/>
     <use xlink:href="#DejaVuSans-6c" x="329.785156"/>
    </g>
   </g>
   <g id="PathCollection_4">
    <g>
     <use xlink:href="#m30c91b72e1" x="357.215213" y="190.810625" style="fill: #ff7f0e; fill-opacity: 0.8; stroke: #ff7f0e; stroke-opacity: 0.8"/>
    </g>
   </g>
   <g id="text_17">
    <!-- alkane -->
    <g transform="translate(375.215213 193.435625) scale(0.1 -0.1)">
     <defs>
      <path id="DejaVuSans-6b" d="M 581 4863 
L 1159 4863 
L 1159 1991 
L 2875 3500 
L 3609 3500 
L 1753 1863 
L 3688 0 
L 2938 0 
L 1159 1709 
L 1159 0 
L 581 0 
L 581 4863 
z
" transform="scale(0.015625)"/>
      <path id="DejaVuSans-6e" d="M 3513 2113 
L 3513 0 
L 2938 0 
L 2938 2094 
Q 2938 2591 2744 2837 
Q 2550 3084 2163 3084 
Q 1697 3084 1428 2787 
Q 1159 2491 1159 1978 
L 1159 0 
L 581 0 
L 581 3500 
L 1159 3500 
L 1159 2956 
Q 1366 3272 1645 3428 
Q 1925 3584 2291 3584 
Q 2894 3584 3203 3211 
Q 3513 2838 3513 2113 
z
" transform="scale(0.015625)"/>
     </defs>
     <use xlink:href="#DejaVuSans-61"/>
     <use xlink:href="#DejaVuSans-6c" x="61.279297"/>
     <use xlink:href="#DejaVuSans-6b" x="89.0625"/>
     <use xlink:href="#DejaVuSans-61" x="145.222656"/>
     <use xlink:href="#DejaVuSans-6e" x="206.501953"/>
     <use xlink:href="#DejaVuSans-65" x="269.880859"/>
    </g>
   </g>
  </g>
 </g>
 <defs>
  <clipPath id="pd97a792729">
   <rect x="47.1875" y="7.2" width="294.447325" height="307.24"/>
  </clipPath>
 </defs>
</svg>