<?xml version="1.0" encoding="utf-8" standalone="no"?>
<!DOCTYPE svg PUBLIC "-//W3C//DTD SVG 1.1//EN"
  "http://www.w3.org/Graphics/SVG/1.1/DTD/svg11.dtd">
<svg xmlns:xlink="http://www.w3.org/1999/xlink" width="411.285625pt" height="310.86825pt" viewBox="0 0 411.285625 310.86825" xmlns="http://www.w3.org/2000/svg" version="1.1">
 <metadata>
  <rdf:RDF xmlns:dc="http://purl.org/dc/elements/1.1/" xmlns:cc="http://creativecommons.org/ns#" xmlns:rdf="http://www.w3.org/1999/02/22-rdf-syntax-ns#">
   <cc:Work>
    <dc:type rdf:resource="http://purl.org/dc/dcmitype/StillImage"/>
    <dc:date>2023-11-07T10:14:23.625005</dc:date>
    <dc:format>image/svg+xml</dc:format>
    <dc:creator>
     <cc:Agent>
      <dc:title>Matplotlib v3.7.2, https://matplotlib.org/</dc:title>
     </cc:Agent>
    </dc:creator>
   </cc:Work>
  </rdf:RDF>
 </metadata>
 <defs>
  <style type="text/css">*{stroke-linejoin: round; stroke-linecap: butt}</style>
 </defs>
 <g id="figure_1">
  <g id="patch_1">
   <path d="M 0 310.86825 
L 411.285625 310.86825 
L 411.285625 0 
L 0 0 
z
" style="fill: #ffffff"/>
  </g>
  <g id="axes_1">
   <g id="patch_2">
    <path d="M 46.965625 273.312 
L 404.085625 273.312 
L 404.085625 7.2 
L 46.965625 7.2 
z
" style="fill: #ffffff"/>
   </g>
   <g id="PathCollection_1">
    <defs>
     <path id="mdd0b855a27" d="M 0 3 
C 0.795609 3 1.55874 2.683901 2.12132 2.12132 
C 2.683901 1.55874 3 0.795609 3 0 
C 3 -0.795609 2.683901 -1.55874 2.12132 -2.12132 
C 1.55874 -2.683901 0.795609 -3 0 -3 
C -0.795609 -3 -1.55874 -2.683901 -2.12132 -2.12132 
C -2.683901 -1.55874 -3 -0.795609 -3 0 
C -3 0.795609 -2.683901 1.55874 -2.12132 2.12132 
C -1.55874 2.683901 -0.795609 3 0 3 
z
" style="stroke: #1f77b4; stroke-opacity: 0.8"/>
    </defs>
    <g clip-path="url(#p34930159c9)">
     <use xlink:href="#mdd0b855a27" x="63.198352" y="198.615011" style="fill: #1f77b4; fill-opacity: 0.8; stroke: #1f77b4; stroke-opacity: 0.8"/>
     <use xlink:href="#mdd0b855a27" x="96.1333" y="186.016318" style="fill: #1f77b4; fill-opacity: 0.8; stroke: #1f77b4; stroke-opacity: 0.8"/>
     <use xlink:href="#mdd0b855a27" x="129.068248" y="166.633713" style="fill: #1f77b4; fill-opacity: 0.8; stroke: #1f77b4; stroke-opacity: 0.8"/>
     <use xlink:href="#mdd0b855a27" x="161.979721" y="147.251108" style="fill: #1f77b4; fill-opacity: 0.8; stroke: #1f77b4; stroke-opacity: 0.8"/>
     <use xlink:href="#mdd0b855a27" x="194.914669" y="126.899373" style="fill: #1f77b4; fill-opacity: 0.8; stroke: #1f77b4; stroke-opacity: 0.8"/>
     <use xlink:href="#mdd0b855a27" x="227.849616" y="109.455029" style="fill: #1f77b4; fill-opacity: 0.8; stroke: #1f77b4; stroke-opacity: 0.8"/>
     <use xlink:href="#mdd0b855a27" x="260.761089" y="91.041555" style="fill: #1f77b4; fill-opacity: 0.8; stroke: #1f77b4; stroke-opacity: 0.8"/>
     <use xlink:href="#mdd0b855a27" x="293.696037" y="72.62808" style="fill: #1f77b4; fill-opacity: 0.8; stroke: #1f77b4; stroke-opacity: 0.8"/>
     <use xlink:href="#mdd0b855a27" x="326.60751" y="56.152867" style="fill: #1f77b4; fill-opacity: 0.8; stroke: #1f77b4; stroke-opacity: 0.8"/>
     <use xlink:href="#mdd0b855a27" x="359.542458" y="36.770262" style="fill: #1f77b4; fill-opacity: 0.8; stroke: #1f77b4; stroke-opacity: 0.8"/>
     <use xlink:href="#mdd0b855a27" x="157.355213" y="226.719787" style="fill: #1f77b4; fill-opacity: 0.8; stroke: #1f77b4; stroke-opacity: 0.8"/>
     <use xlink:href="#mdd0b855a27" x="190.290161" y="194.73849" style="fill: #1f77b4; fill-opacity: 0.8; stroke: #1f77b4; stroke-opacity: 0.8"/>
     <use xlink:href="#mdd0b855a27" x="223.225108" y="166.633713" style="fill: #1f77b4; fill-opacity: 0.8; stroke: #1f77b4; stroke-opacity: 0.8"/>
     <use xlink:href="#mdd0b855a27" x="256.136581" y="139.498067" style="fill: #1f77b4; fill-opacity: 0.8; stroke: #1f77b4; stroke-opacity: 0.8"/>
     <use xlink:href="#mdd0b855a27" x="289.071529" y="115.269811" style="fill: #1f77b4; fill-opacity: 0.8; stroke: #1f77b4; stroke-opacity: 0.8"/>
     <use xlink:href="#mdd0b855a27" x="322.006477" y="92.979815" style="fill: #1f77b4; fill-opacity: 0.8; stroke: #1f77b4; stroke-opacity: 0.8"/>
     <use xlink:href="#mdd0b855a27" x="354.91795" y="71.65895" style="fill: #1f77b4; fill-opacity: 0.8; stroke: #1f77b4; stroke-opacity: 0.8"/>
     <use xlink:href="#mdd0b855a27" x="387.852898" y="52.276346" style="fill: #1f77b4; fill-opacity: 0.8; stroke: #1f77b4; stroke-opacity: 0.8"/>
     <use xlink:href="#mdd0b855a27" x="190.290161" y="200.553271" style="fill: #1f77b4; fill-opacity: 0.8; stroke: #1f77b4; stroke-opacity: 0.8"/>
     <use xlink:href="#mdd0b855a27" x="256.136581" y="148.220239" style="fill: #1f77b4; fill-opacity: 0.8; stroke: #1f77b4; stroke-opacity: 0.8"/>
     <use xlink:href="#mdd0b855a27" x="157.355213" y="234.472829" style="fill: #1f77b4; fill-opacity: 0.8; stroke: #1f77b4; stroke-opacity: 0.8"/>
     <use xlink:href="#mdd0b855a27" x="223.225108" y="184.078057" style="fill: #1f77b4; fill-opacity: 0.8; stroke: #1f77b4; stroke-opacity: 0.8"/>
     <use xlink:href="#mdd0b855a27" x="161.979721" y="156.942411" style="fill: #1f77b4; fill-opacity: 0.8; stroke: #1f77b4; stroke-opacity: 0.8"/>
     <use xlink:href="#mdd0b855a27" x="161.979721" y="181.170666" style="fill: #1f77b4; fill-opacity: 0.8; stroke: #1f77b4; stroke-opacity: 0.8"/>
     <use xlink:href="#mdd0b855a27" x="194.914669" y="134.652415" style="fill: #1f77b4; fill-opacity: 0.8; stroke: #1f77b4; stroke-opacity: 0.8"/>
     <use xlink:href="#mdd0b855a27" x="227.849616" y="130.775894" style="fill: #1f77b4; fill-opacity: 0.8; stroke: #1f77b4; stroke-opacity: 0.8"/>
     <use xlink:href="#mdd0b855a27" x="260.761089" y="125.930243" style="fill: #1f77b4; fill-opacity: 0.8; stroke: #1f77b4; stroke-opacity: 0.8"/>
     <use xlink:href="#mdd0b855a27" x="208.905566" y="85.226773" style="fill: #1f77b4; fill-opacity: 0.8; stroke: #1f77b4; stroke-opacity: 0.8"/>
     <use xlink:href="#mdd0b855a27" x="241.840514" y="65.844169" style="fill: #1f77b4; fill-opacity: 0.8; stroke: #1f77b4; stroke-opacity: 0.8"/>
     <use xlink:href="#mdd0b855a27" x="307.686934" y="48.399825" style="fill: #1f77b4; fill-opacity: 0.8; stroke: #1f77b4; stroke-opacity: 0.8"/>
    </g>
   </g>
   <g id="PolyCollection_1">
    <path d="M 63.198352 204.081626 
L 63.198352 261.216 
L 66.477691 258.820706 
L 69.75703 256.425413 
L 73.036369 254.030119 
L 76.315708 251.465397 
L 79.595046 248.752013 
L 82.874385 246.309523 
L 86.153724 243.871923 
L 89.433063 241.434323 
L 92.712402 239.023007 
L 95.991741 236.56366 
L 99.27108 234.130533 
L 102.550418 231.741157 
L 105.829757 229.382738 
L 109.109096 227.024319 
L 112.388435 224.665901 
L 115.667774 222.325648 
L 118.947113 219.991307 
L 122.226451 217.656965 
L 125.50579 215.322623 
L 128.785129 212.987412 
L 132.064468 210.777178 
L 135.343807 208.576302 
L 138.623146 206.167253 
L 141.902485 203.789667 
L 145.181823 201.423651 
L 148.461162 199.008014 
L 151.740501 196.643012 
L 155.01984 194.310252 
L 158.299179 191.974788 
L 161.578518 189.637379 
L 164.857856 187.299969 
L 168.137195 184.96484 
L 171.416534 182.657803 
L 174.695873 180.401844 
L 177.975212 177.989703 
L 181.254551 175.719529 
L 184.533889 173.621222 
L 187.813228 171.45113 
L 191.092567 169.398606 
L 194.371906 167.283725 
L 197.651245 164.971253 
L 200.930584 162.690353 
L 204.209923 160.687035 
L 207.489261 158.458395 
L 210.7686 156.485125 
L 214.047939 154.399455 
L 217.327278 151.961178 
L 220.606617 149.913022 
L 223.885956 147.670272 
L 227.165294 145.584271 
L 230.444633 143.371453 
L 233.723972 141.530179 
L 237.003311 139.748862 
L 240.28265 137.720002 
L 243.561989 135.555161 
L 246.841327 133.437478 
L 250.120666 131.409989 
L 253.400005 129.566297 
L 256.679344 127.551677 
L 259.958683 125.436502 
L 263.238022 123.332585 
L 266.517361 121.428684 
L 269.796699 119.426085 
L 273.076038 117.661154 
L 276.355377 115.955381 
L 279.634716 114.086516 
L 282.914055 112.466976 
L 286.193394 110.762493 
L 289.472732 109.155055 
L 292.752071 107.347045 
L 296.03141 105.491493 
L 299.310749 103.797985 
L 302.590088 101.986257 
L 305.869427 100.183269 
L 309.148765 98.583049 
L 312.428104 96.95529 
L 315.707443 95.210974 
L 318.986782 93.554074 
L 322.266121 91.960766 
L 325.54546 90.228237 
L 328.824799 88.492107 
L 332.104137 86.792933 
L 335.383476 85.166047 
L 338.662815 83.576874 
L 341.942154 81.956887 
L 345.221493 80.375196 
L 348.500832 78.769879 
L 351.78017 77.060954 
L 355.059509 75.462265 
L 358.338848 73.863577 
L 361.618187 72.264889 
L 364.897526 70.66157 
L 368.176865 68.889769 
L 371.456204 67.070412 
L 374.735542 65.437452 
L 378.014881 63.832278 
L 381.29422 62.227105 
L 384.573559 60.621392 
L 387.852898 59.062828 
L 387.852898 19.296 
L 387.852898 19.296 
L 384.573559 21.593506 
L 381.29422 24.323783 
L 378.014881 26.648278 
L 374.735542 28.736356 
L 371.456204 30.828508 
L 368.176865 33.308263 
L 364.897526 35.97513 
L 361.618187 38.328626 
L 358.338848 40.401004 
L 355.059509 42.482417 
L 351.78017 44.662197 
L 348.500832 46.620773 
L 345.221493 48.57526 
L 341.942154 50.76094 
L 338.662815 52.989546 
L 335.383476 55.236945 
L 332.104137 57.291223 
L 328.824799 59.555092 
L 325.54546 61.728908 
L 322.266121 63.842667 
L 318.986782 65.909681 
L 315.707443 68.231991 
L 312.428104 70.55454 
L 309.148765 72.524858 
L 305.869427 74.627468 
L 302.590088 76.635577 
L 299.310749 78.751121 
L 296.03141 80.935589 
L 292.752071 82.847809 
L 289.472732 84.841513 
L 286.193394 87.065526 
L 282.914055 88.909843 
L 279.634716 91.075191 
L 276.355377 93.00194 
L 273.076038 94.965957 
L 269.796699 96.827145 
L 266.517361 98.67122 
L 263.238022 100.673879 
L 259.958683 102.510101 
L 256.679344 104.400061 
L 253.400005 106.361704 
L 250.120666 108.328123 
L 246.841327 110.038107 
L 243.561989 111.85818 
L 240.28265 113.552471 
L 237.003311 115.321978 
L 233.723972 117.143249 
L 230.444633 118.968164 
L 227.165294 120.800148 
L 223.885956 122.632553 
L 220.606617 124.244635 
L 217.327278 125.885506 
L 214.047939 127.785503 
L 210.7686 129.653763 
L 207.489261 131.604534 
L 204.209923 133.350762 
L 200.930584 134.937913 
L 197.651245 136.57811 
L 194.371906 138.174095 
L 191.092567 139.860049 
L 187.813228 141.551021 
L 184.533889 143.33172 
L 181.254551 145.001272 
L 177.975212 146.643763 
L 174.695873 148.468546 
L 171.416534 150.209001 
L 168.137195 152.02257 
L 164.857856 153.77174 
L 161.578518 155.321744 
L 158.299179 156.84619 
L 155.01984 158.429804 
L 151.740501 160.116405 
L 148.461162 161.807097 
L 145.181823 163.493247 
L 141.902485 165.129014 
L 138.623146 166.621915 
L 135.343807 168.224222 
L 132.064468 169.830492 
L 128.785129 171.436761 
L 125.50579 173.045093 
L 122.226451 174.73903 
L 118.947113 176.427746 
L 115.667774 177.952467 
L 112.388435 179.685248 
L 109.109096 181.418854 
L 105.829757 183.035538 
L 102.550418 184.598896 
L 99.27108 186.163803 
L 95.991741 187.83299 
L 92.712402 189.501758 
L 89.433063 191.089984 
L 86.153724 192.677581 
L 82.874385 194.263337 
L 79.595046 195.883386 
L 76.315708 197.523323 
L 73.036369 199.16333 
L 69.75703 200.744493 
L 66.477691 202.397191 
L 63.198352 204.081626 
z
" clip-path="url(#p34930159c9)" style="fill: #1f77b4; fill-opacity: 0.15"/>
   </g>
   <g id="matplotlib.axis_1">
    <g id="xtick_1">
     <g id="line2d_1">
      <defs>
       <path id="mde16a70009" d="M 0 0 
L 0 3.5 
" style="stroke: #000000; stroke-width: 0.8"/>
      </defs>
      <g>
       <use xlink:href="#mde16a70009" x="81.884181" y="273.312" style="stroke: #000000; stroke-width: 0.8"/>
      </g>
     </g>
     <g id="text_1">
      <!-- 40 -->
      <g transform="translate(75.521681 287.910437) scale(0.1 -0.1)">
       <defs>
        <path id="DejaVuSans-34" d="M 2419 4116 
L 825 1625 
L 2419 1625 
L 2419 4116 
z
M 2253 4666 
L 3047 4666 
L 3047 1625 
L 3713 1625 
L 3713 1100 
L 3047 1100 
L 3047 0 
L 2419 0 
L 2419 1100 
L 313 1100 
L 313 1709 
L 2253 4666 
z
" transform="scale(0.015625)"/>
        <path id="DejaVuSans-30" d="M 2034 4250 
Q 1547 4250 1301 3770 
Q 1056 3291 1056 2328 
Q 1056 1369 1301 889 
Q 1547 409 2034 409 
Q 2525 409 2770 889 
Q 3016 1369 3016 2328 
Q 3016 3291 2770 3770 
Q 2525 4250 2034 4250 
z
M 2034 4750 
Q 2819 4750 3233 4129 
Q 3647 3509 3647 2328 
Q 3647 1150 3233 529 
Q 2819 -91 2034 -91 
Q 1250 -91 836 529 
Q 422 1150 422 2328 
Q 422 3509 836 4129 
Q 1250 4750 2034 4750 
z
" transform="scale(0.015625)"/>
       </defs>
       <use xlink:href="#DejaVuSans-34"/>
       <use xlink:href="#DejaVuSans-30" x="63.623047"/>
      </g>
     </g>
    </g>
    <g id="xtick_2">
     <g id="line2d_2">
      <g>
       <use xlink:href="#mde16a70009" x="128.833501" y="273.312" style="stroke: #000000; stroke-width: 0.8"/>
      </g>
     </g>
     <g id="text_2">
      <!-- 60 -->
      <g transform="translate(122.471001 287.910437) scale(0.1 -0.1)">
       <defs>
        <path id="DejaVuSans-36" d="M 2113 2584 
Q 1688 2584 1439 2293 
Q 1191 2003 1191 1497 
Q 1191 994 1439 701 
Q 1688 409 2113 409 
Q 2538 409 2786 701 
Q 3034 994 3034 1497 
Q 3034 2003 2786 2293 
Q 2538 2584 2113 2584 
z
M 3366 4563 
L 3366 3988 
Q 3128 4100 2886 4159 
Q 2644 4219 2406 4219 
Q 1781 4219 1451 3797 
Q 1122 3375 1075 2522 
Q 1259 2794 1537 2939 
Q 1816 3084 2150 3084 
Q 2853 3084 3261 2657 
Q 3669 2231 3669 1497 
Q 3669 778 3244 343 
Q 2819 -91 2113 -91 
Q 1303 -91 875 529 
Q 447 1150 447 2328 
Q 447 3434 972 4092 
Q 1497 4750 2381 4750 
Q 2619 4750 2861 4703 
Q 3103 4656 3366 4563 
z
" transform="scale(0.015625)"/>
       </defs>
       <use xlink:href="#DejaVuSans-36"/>
       <use xlink:href="#DejaVuSans-30" x="63.623047"/>
      </g>
     </g>
    </g>
    <g id="xtick_3">
     <g id="line2d_3">
      <g>
       <use xlink:href="#mde16a70009" x="175.782821" y="273.312" style="stroke: #000000; stroke-width: 0.8"/>
      </g>
     </g>
     <g id="text_3">
      <!-- 80 -->
      <g transform="translate(169.420321 287.910437) scale(0.1 -0.1)">
       <defs>
        <path id="DejaVuSans-38" d="M 2034 2216 
Q 1584 2216 1326 1975 
Q 1069 1734 1069 1313 
Q 1069 891 1326 650 
Q 1584 409 2034 409 
Q 2484 409 2743 651 
Q 3003 894 3003 1313 
Q 3003 1734 2745 1975 
Q 2488 2216 2034 2216 
z
M 1403 2484 
Q 997 2584 770 2862 
Q 544 3141 544 3541 
Q 544 4100 942 4425 
Q 1341 4750 2034 4750 
Q 2731 4750 3128 4425 
Q 3525 4100 3525 3541 
Q 3525 3141 3298 2862 
Q 3072 2584 2669 2484 
Q 3125 2378 3379 2068 
Q 3634 1759 3634 1313 
Q 3634 634 3220 271 
Q 2806 -91 2034 -91 
Q 1263 -91 848 271 
Q 434 634 434 1313 
Q 434 1759 690 2068 
Q 947 2378 1403 2484 
z
M 1172 3481 
Q 1172 3119 1398 2916 
Q 1625 2713 2034 2713 
Q 2441 2713 2670 2916 
Q 2900 3119 2900 3481 
Q 2900 3844 2670 4047 
Q 2441 4250 2034 4250 
Q 1625 4250 1398 4047 
Q 1172 3844 1172 3481 
z
" transform="scale(0.015625)"/>
       </defs>
       <use xlink:href="#DejaVuSans-38"/>
       <use xlink:href="#DejaVuSans-30" x="63.623047"/>
      </g>
     </g>
    </g>
    <g id="xtick_4">
     <g id="line2d_4">
      <g>
       <use xlink:href="#mde16a70009" x="222.73214" y="273.312" style="stroke: #000000; stroke-width: 0.8"/>
      </g>
     </g>
     <g id="text_4">
      <!-- 100 -->
      <g transform="translate(213.18839 287.910437) scale(0.1 -0.1)">
       <defs>
        <path id="DejaVuSans-31" d="M 794 531 
L 1825 531 
L 1825 4091 
L 703 3866 
L 703 4441 
L 1819 4666 
L 2450 4666 
L 2450 531 
L 3481 531 
L 3481 0 
L 794 0 
L 794 531 
z
" transform="scale(0.015625)"/>
       </defs>
       <use xlink:href="#DejaVuSans-31"/>
       <use xlink:href="#DejaVuSans-30" x="63.623047"/>
       <use xlink:href="#DejaVuSans-30" x="127.246094"/>
      </g>
     </g>
    </g>
    <g id="xtick_5">
     <g id="line2d_5">
      <g>
       <use xlink:href="#mde16a70009" x="269.68146" y="273.312" style="stroke: #000000; stroke-width: 0.8"/>
      </g>
     </g>
     <g id="text_5">
      <!-- 120 -->
      <g transform="translate(260.13771 287.910437) scale(0.1 -0.1)">
       <defs>
        <path id="DejaVuSans-32" d="M 1228 531 
L 3431 531 
L 3431 0 
L 469 0 
L 469 531 
Q 828 903 1448 1529 
Q 2069 2156 2228 2338 
Q 2531 2678 2651 2914 
Q 2772 3150 2772 3378 
Q 2772 3750 2511 3984 
Q 2250 4219 1831 4219 
Q 1534 4219 1204 4116 
Q 875 4013 500 3803 
L 500 4441 
Q 881 4594 1212 4672 
Q 1544 4750 1819 4750 
Q 2544 4750 2975 4387 
Q 3406 4025 3406 3419 
Q 3406 3131 3298 2873 
Q 3191 2616 2906 2266 
Q 2828 2175 2409 1742 
Q 1991 1309 1228 531 
z
" transform="scale(0.015625)"/>
       </defs>
       <use xlink:href="#DejaVuSans-31"/>
       <use xlink:href="#DejaVuSans-32" x="63.623047"/>
       <use xlink:href="#DejaVuSans-30" x="127.246094"/>
      </g>
     </g>
    </g>
    <g id="xtick_6">
     <g id="line2d_6">
      <g>
       <use xlink:href="#mde16a70009" x="316.63078" y="273.312" style="stroke: #000000; stroke-width: 0.8"/>
      </g>
     </g>
     <g id="text_6">
      <!-- 140 -->
      <g transform="translate(307.08703 287.910437) scale(0.1 -0.1)">
       <use xlink:href="#DejaVuSans-31"/>
       <use xlink:href="#DejaVuSans-34" x="63.623047"/>
       <use xlink:href="#DejaVuSans-30" x="127.246094"/>
      </g>
     </g>
    </g>
    <g id="xtick_7">
     <g id="line2d_7">
      <g>
       <use xlink:href="#mde16a70009" x="363.580099" y="273.312" style="stroke: #000000; stroke-width: 0.8"/>
      </g>
     </g>
     <g id="text_7">
      <!-- 160 -->
      <g transform="translate(354.036349 287.910437) scale(0.1 -0.1)">
       <use xlink:href="#DejaVuSans-31"/>
       <use xlink:href="#DejaVuSans-36" x="63.623047"/>
       <use xlink:href="#DejaVuSans-30" x="127.246094"/>
      </g>
     </g>
    </g>
    <g id="text_8">
     <!-- MW -->
     <g transform="translate(216.267813 301.588562) scale(0.1 -0.1)">
      <defs>
       <path id="DejaVuSans-4d" d="M 628 4666 
L 1569 4666 
L 2759 1491 
L 3956 4666 
L 4897 4666 
L 4897 0 
L 4281 0 
L 4281 4097 
L 3078 897 
L 2444 897 
L 1241 4097 
L 1241 0 
L 628 0 
L 628 4666 
z
" transform="scale(0.015625)"/>
       <path id="DejaVuSans-57" d="M 213 4666 
L 850 4666 
L 1831 722 
L 2809 4666 
L 3519 4666 
L 4500 722 
L 5478 4666 
L 6119 4666 
L 4947 0 
L 4153 0 
L 3169 4050 
L 2175 0 
L 1381 0 
L 213 4666 
z
" transform="scale(0.015625)"/>
      </defs>
      <use xlink:href="#DejaVuSans-4d"/>
      <use xlink:href="#DejaVuSans-57" x="86.279297"/>
     </g>
    </g>
   </g>
   <g id="matplotlib.axis_2">
    <g id="ytick_1">
     <g id="line2d_8">
      <defs>
       <path id="mb8c649993d" d="M 0 0 
L -3.5 0 
" style="stroke: #000000; stroke-width: 0.8"/>
      </defs>
      <g>
       <use xlink:href="#mb8c649993d" x="46.965625" y="261.608476" style="stroke: #000000; stroke-width: 0.8"/>
      </g>
     </g>
     <g id="text_9">
      <!-- 0 -->
      <g transform="translate(33.603125 265.407695) scale(0.1 -0.1)">
       <use xlink:href="#DejaVuSans-30"/>
      </g>
     </g>
    </g>
    <g id="ytick_2">
     <g id="line2d_9">
      <g>
       <use xlink:href="#mb8c649993d" x="46.965625" y="213.151964" style="stroke: #000000; stroke-width: 0.8"/>
      </g>
     </g>
     <g id="text_10">
      <!-- 50 -->
      <g transform="translate(27.240625 216.951183) scale(0.1 -0.1)">
       <defs>
        <path id="DejaVuSans-35" d="M 691 4666 
L 3169 4666 
L 3169 4134 
L 1269 4134 
L 1269 2991 
Q 1406 3038 1543 3061 
Q 1681 3084 1819 3084 
Q 2600 3084 3056 2656 
Q 3513 2228 3513 1497 
Q 3513 744 3044 326 
Q 2575 -91 1722 -91 
Q 1428 -91 1123 -41 
Q 819 9 494 109 
L 494 744 
Q 775 591 1075 516 
Q 1375 441 1709 441 
Q 2250 441 2565 725 
Q 2881 1009 2881 1497 
Q 2881 1984 2565 2268 
Q 2250 2553 1709 2553 
Q 1456 2553 1204 2497 
Q 953 2441 691 2322 
L 691 4666 
z
" transform="scale(0.015625)"/>
       </defs>
       <use xlink:href="#DejaVuSans-35"/>
       <use xlink:href="#DejaVuSans-30" x="63.623047"/>
      </g>
     </g>
    </g>
    <g id="ytick_3">
     <g id="line2d_10">
      <g>
       <use xlink:href="#mb8c649993d" x="46.965625" y="164.695453" style="stroke: #000000; stroke-width: 0.8"/>
      </g>
     </g>
     <g id="text_11">
      <!-- 100 -->
      <g transform="translate(20.878125 168.494671) scale(0.1 -0.1)">
       <use xlink:href="#DejaVuSans-31"/>
       <use xlink:href="#DejaVuSans-30" x="63.623047"/>
       <use xlink:href="#DejaVuSans-30" x="127.246094"/>
      </g>
     </g>
    </g>
    <g id="ytick_4">
     <g id="line2d_11">
      <g>
       <use xlink:href="#mb8c649993d" x="46.965625" y="116.238941" style="stroke: #000000; stroke-width: 0.8"/>
      </g>
     </g>
     <g id="text_12">
      <!-- 150 -->
      <g transform="translate(20.878125 120.03816) scale(0.1 -0.1)">
       <use xlink:href="#DejaVuSans-31"/>
       <use xlink:href="#DejaVuSans-35" x="63.623047"/>
       <use xlink:href="#DejaVuSans-30" x="127.246094"/>
      </g>
     </g>
    </g>
    <g id="ytick_5">
     <g id="line2d_12">
      <g>
       <use xlink:href="#mb8c649993d" x="46.965625" y="67.782429" style="stroke: #000000; stroke-width: 0.8"/>
      </g>
     </g>
     <g id="text_13">
      <!-- 200 -->
      <g transform="translate(20.878125 71.581648) scale(0.1 -0.1)">
       <use xlink:href="#DejaVuSans-32"/>
       <use xlink:href="#DejaVuSans-30" x="63.623047"/>
       <use xlink:href="#DejaVuSans-30" x="127.246094"/>
      </g>
     </g>
    </g>
    <g id="ytick_6">
     <g id="line2d_13">
      <g>
       <use xlink:href="#mb8c649993d" x="46.965625" y="19.325918" style="stroke: #000000; stroke-width: 0.8"/>
      </g>
     </g>
     <g id="text_14">
      <!-- 250 -->
      <g transform="translate(20.878125 23.125136) scale(0.1 -0.1)">
       <use xlink:href="#DejaVuSans-32"/>
       <use xlink:href="#DejaVuSans-35" x="63.623047"/>
       <use xlink:href="#DejaVuSans-30" x="127.246094"/>
      </g>
     </g>
    </g>
    <g id="text_15">
     <!-- bp -->
     <g transform="translate(14.798438 146.604437) rotate(-90) scale(0.1 -0.1)">
      <defs>
       <path id="DejaVuSans-62" d="M 3116 1747 
Q 3116 2381 2855 2742 
Q 2594 3103 2138 3103 
Q 1681 3103 1420 2742 
Q 1159 2381 1159 1747 
Q 1159 1113 1420 752 
Q 1681 391 2138 391 
Q 2594 391 2855 752 
Q 3116 1113 3116 1747 
z
M 1159 2969 
Q 1341 3281 1617 3432 
Q 1894 3584 2278 3584 
Q 2916 3584 3314 3078 
Q 3713 2572 3713 1747 
Q 3713 922 3314 415 
Q 2916 -91 2278 -91 
Q 1894 -91 1617 61 
Q 1341 213 1159 525 
L 1159 0 
L 581 0 
L 581 4863 
L 1159 4863 
L 1159 2969 
z
" transform="scale(0.015625)"/>
       <path id="DejaVuSans-70" d="M 1159 525 
L 1159 -1331 
L 581 -1331 
L 581 3500 
L 1159 3500 
L 1159 2969 
Q 1341 3281 1617 3432 
Q 1894 3584 2278 3584 
Q 2916 3584 3314 3078 
Q 3713 2572 3713 1747 
Q 3713 922 3314 415 
Q 2916 -91 2278 -91 
Q 1894 -91 1617 61 
Q 1341 213 1159 525 
z
M 3116 1747 
Q 3116 2381 2855 2742 
Q 2594 3103 2138 3103 
Q 1681 3103 1420 2742 
Q 1159 2381 1159 1747 
Q 1159 1113 1420 752 
Q 1681 391 2138 391 
Q 2594 391 2855 752 
Q 3116 1113 3116 1747 
z
" transform="scale(0.015625)"/>
      </defs>
      <use xlink:href="#DejaVuSans-62"/>
      <use xlink:href="#DejaVuSans-70" x="63.476562"/>
     </g>
    </g>
   </g>
   <g id="line2d_14">
    <path d="M 63.198352 227.700612 
L 66.477691 225.806219 
L 69.75703 223.911826 
L 73.036369 222.017433 
L 76.315708 220.12304 
L 79.595046 218.228647 
L 82.874385 216.334253 
L 86.153724 214.43986 
L 89.433063 212.545467 
L 92.712402 210.651074 
L 95.991741 208.756681 
L 99.27108 206.862288 
L 102.550418 204.967895 
L 105.829757 203.073502 
L 109.109096 201.179109 
L 112.388435 199.284716 
L 115.667774 197.390322 
L 118.947113 195.495929 
L 122.226451 193.601536 
L 125.50579 191.707143 
L 128.785129 189.81275 
L 132.064468 187.918357 
L 135.343807 186.023964 
L 138.623146 184.129571 
L 141.902485 182.235178 
L 145.181823 180.340784 
L 148.461162 178.446391 
L 151.740501 176.551998 
L 155.01984 174.657605 
L 158.299179 172.763212 
L 161.578518 170.868819 
L 164.857856 168.974426 
L 168.137195 167.080033 
L 171.416534 165.18564 
L 174.695873 163.291247 
L 177.975212 161.396853 
L 181.254551 159.50246 
L 184.533889 157.608067 
L 187.813228 155.713674 
L 191.092567 153.819281 
L 194.371906 151.924888 
L 197.651245 150.030495 
L 200.930584 148.136102 
L 204.209923 146.241709 
L 207.489261 144.347315 
L 210.7686 142.452922 
L 214.047939 140.558529 
L 217.327278 138.664136 
L 220.606617 136.769743 
L 223.885956 134.87535 
L 227.165294 132.980957 
L 230.444633 131.086564 
L 233.723972 129.192171 
L 237.003311 127.297778 
L 240.28265 125.403384 
L 243.561989 123.508991 
L 246.841327 121.614598 
L 250.120666 119.720205 
L 253.400005 117.825812 
L 256.679344 115.931419 
L 259.958683 114.037026 
L 263.238022 112.142633 
L 266.517361 110.24824 
L 269.796699 108.353847 
L 273.076038 106.459453 
L 276.355377 104.56506 
L 279.634716 102.670667 
L 282.914055 100.776274 
L 286.193394 98.881881 
L 289.472732 96.987488 
L 292.752071 95.093095 
L 296.03141 93.198702 
L 299.310749 91.304309 
L 302.590088 89.409915 
L 305.869427 87.515522 
L 309.148765 85.621129 
L 312.428104 83.726736 
L 315.707443 81.832343 
L 318.986782 79.93795 
L 322.266121 78.043557 
L 325.54546 76.149164 
L 328.824799 74.254771 
L 332.104137 72.360378 
L 335.383476 70.465984 
L 338.662815 68.571591 
L 341.942154 66.677198 
L 345.221493 64.782805 
L 348.500832 62.888412 
L 351.78017 60.994019 
L 355.059509 59.099626 
L 358.338848 57.205233 
L 361.618187 55.31084 
L 364.897526 53.416446 
L 368.176865 51.522053 
L 371.456204 49.62766 
L 374.735542 47.733267 
L 378.014881 45.838874 
L 381.29422 43.944481 
L 384.573559 42.050088 
L 387.852898 40.155695 
" clip-path="url(#p34930159c9)" style="fill: none; stroke: #1f77b4; stroke-width: 2.25; stroke-linecap: square"/>
   </g>
   <g id="patch_3">
    <path d="M 46.965625 273.312 
L 46.965625 7.2 
" style="fill: none; stroke: #000000; stroke-width: 0.8; stroke-linejoin: miter; stroke-linecap: square"/>
   </g>
   <g id="patch_4">
    <path d="M 404.085625 273.312 
L 404.085625 7.2 
" style="fill: none; stroke: #000000; stroke-width: 0.8; stroke-linejoin: miter; stroke-linecap: square"/>
   </g>
   <g id="patch_5">
    <path d="M 46.965625 273.312 
L 404.085625 273.312 
" style="fill: none; stroke: #000000; stroke-width: 0.8; stroke-linejoin: miter; stroke-linecap: square"/>
   </g>
   <g id="patch_6">
    <path d="M 46.965625 7.2 
L 404.085625 7.2 
" style="fill: none; stroke: #000000; stroke-width: 0.8; stroke-linejoin: miter; stroke-linecap: square"/>
   </g>
  </g>
 </g>
 <defs>
  <clipPath id="p34930159c9">
   <rect x="46.965625" y="7.2" width="357.12" height="266.112"/>
  </clipPath>
 </defs>
</svg>