<?xml version="1.0" encoding="utf-8" standalone="no"?>
<!DOCTYPE svg PUBLIC "-//W3C//DTD SVG 1.1//EN"
  "http://www.w3.org/Graphics/SVG/1.1/DTD/svg11.dtd">
<svg xmlns:xlink="http://www.w3.org/1999/xlink" width="435.935312pt" height="423.99625pt" viewBox="0 0 435.935312 423.99625" xmlns="http://www.w3.org/2000/svg" version="1.1">
 <metadata>
  <rdf:RDF xmlns:dc="http://purl.org/dc/elements/1.1/" xmlns:cc="http://creativecommons.org/ns#" xmlns:rdf="http://www.w3.org/1999/02/22-rdf-syntax-ns#">
   <cc:Work>
    <dc:type rdf:resource="http://purl.org/dc/dcmitype/StillImage"/>
    <dc:date>2023-11-07T10:14:30.400565</dc:date>
    <dc:format>image/svg+xml</dc:format>
    <dc:creator>
     <cc:Agent>
      <dc:title>Matplotlib v3.7.2, https://matplotlib.org/</dc:title>
     </cc:Agent>
    </dc:creator>
   </cc:Work>
  </rdf:RDF>
 </metadata>
 <defs>
  <style type="text/css">*{stroke-linejoin: round; stroke-linecap: butt}</style>
 </defs>
 <g id="figure_1">
  <g id="patch_1">
   <path d="M 0 423.99625 
L 435.935312 423.99625 
L 435.935312 0 
L 0 0 
z
" style="fill: #ffffff"/>
  </g>
  <g id="axes_1">
   <g id="patch_2">
    <path d="M 55.345313 386.44 
L 364.725598 386.44 
L 364.725598 72.212571 
L 55.345313 72.212571 
z
" style="fill: #ffffff"/>
   </g>
   <g id="matplotlib.axis_1">
    <g id="xtick_1">
     <g id="line2d_1">
      <defs>
       <path id="mfa9610258d" d="M 0 0 
L 0 3.5 
" style="stroke: #000000; stroke-width: 0.8"/>
      </defs>
      <g>
       <use xlink:href="#mfa9610258d" x="89.260603" y="386.44" style="stroke: #000000; stroke-width: 0.8"/>
      </g>
     </g>
     <g id="text_1">
      <!-- −200 -->
      <g transform="translate(75.527009 401.038437) scale(0.1 -0.1)">
       <defs>
        <path id="DejaVuSans-2212" d="M 678 2272 
L 4684 2272 
L 4684 1741 
L 678 1741 
L 678 2272 
z
" transform="scale(0.015625)"/>
        <path id="DejaVuSans-32" d="M 1228 531 
L 3431 531 
L 3431 0 
L 469 0 
L 469 531 
Q 828 903 1448 1529 
Q 2069 2156 2228 2338 
Q 2531 2678 2651 2914 
Q 2772 3150 2772 3378 
Q 2772 3750 2511 3984 
Q 2250 4219 1831 4219 
Q 1534 4219 1204 4116 
Q 875 4013 500 3803 
L 500 4441 
Q 881 4594 1212 4672 
Q 1544 4750 1819 4750 
Q 2544 4750 2975 4387 
Q 3406 4025 3406 3419 
Q 3406 3131 3298 2873 
Q 3191 2616 2906 2266 
Q 2828 2175 2409 1742 
Q 1991 1309 1228 531 
z
" transform="scale(0.015625)"/>
        <path id="DejaVuSans-30" d="M 2034 4250 
Q 1547 4250 1301 3770 
Q 1056 3291 1056 2328 
Q 1056 1369 1301 889 
Q 1547 409 2034 409 
Q 2525 409 2770 889 
Q 3016 1369 3016 2328 
Q 3016 3291 2770 3770 
Q 2525 4250 2034 4250 
z
M 2034 4750 
Q 2819 4750 3233 4129 
Q 3647 3509 3647 2328 
Q 3647 1150 3233 529 
Q 2819 -91 2034 -91 
Q 1250 -91 836 529 
Q 422 1150 422 2328 
Q 422 3509 836 4129 
Q 1250 4750 2034 4750 
z
" transform="scale(0.015625)"/>
       </defs>
       <use xlink:href="#DejaVuSans-2212"/>
       <use xlink:href="#DejaVuSans-32" x="83.789062"/>
       <use xlink:href="#DejaVuSans-30" x="147.412109"/>
       <use xlink:href="#DejaVuSans-30" x="211.035156"/>
      </g>
     </g>
    </g>
    <g id="xtick_2">
     <g id="line2d_2">
      <g>
       <use xlink:href="#mfa9610258d" x="148.902505" y="386.44" style="stroke: #000000; stroke-width: 0.8"/>
      </g>
     </g>
     <g id="text_2">
      <!-- −100 -->
      <g transform="translate(135.168912 401.038437) scale(0.1 -0.1)">
       <defs>
        <path id="DejaVuSans-31" d="M 794 531 
L 1825 531 
L 1825 4091 
L 703 3866 
L 703 4441 
L 1819 4666 
L 2450 4666 
L 2450 531 
L 3481 531 
L 3481 0 
L 794 0 
L 794 531 
z
" transform="scale(0.015625)"/>
       </defs>
       <use xlink:href="#DejaVuSans-2212"/>
       <use xlink:href="#DejaVuSans-31" x="83.789062"/>
       <use xlink:href="#DejaVuSans-30" x="147.412109"/>
       <use xlink:href="#DejaVuSans-30" x="211.035156"/>
      </g>
     </g>
    </g>
    <g id="xtick_3">
     <g id="line2d_3">
      <g>
       <use xlink:href="#mfa9610258d" x="208.544408" y="386.44" style="stroke: #000000; stroke-width: 0.8"/>
      </g>
     </g>
     <g id="text_3">
      <!-- 0 -->
      <g transform="translate(205.363158 401.038437) scale(0.1 -0.1)">
       <use xlink:href="#DejaVuSans-30"/>
      </g>
     </g>
    </g>
    <g id="xtick_4">
     <g id="line2d_4">
      <g>
       <use xlink:href="#mfa9610258d" x="268.18631" y="386.44" style="stroke: #000000; stroke-width: 0.8"/>
      </g>
     </g>
     <g id="text_4">
      <!-- 100 -->
      <g transform="translate(258.64256 401.038437) scale(0.1 -0.1)">
       <use xlink:href="#DejaVuSans-31"/>
       <use xlink:href="#DejaVuSans-30" x="63.623047"/>
       <use xlink:href="#DejaVuSans-30" x="127.246094"/>
      </g>
     </g>
    </g>
    <g id="xtick_5">
     <g id="line2d_5">
      <g>
       <use xlink:href="#mfa9610258d" x="327.828213" y="386.44" style="stroke: #000000; stroke-width: 0.8"/>
      </g>
     </g>
     <g id="text_5">
      <!-- 200 -->
      <g transform="translate(318.284463 401.038437) scale(0.1 -0.1)">
       <use xlink:href="#DejaVuSans-32"/>
       <use xlink:href="#DejaVuSans-30" x="63.623047"/>
       <use xlink:href="#DejaVuSans-30" x="127.246094"/>
      </g>
     </g>
    </g>
    <g id="text_6">
     <!-- X Distance, au -->
     <g transform="translate(173.747955 414.716562) scale(0.1 -0.1)">
      <defs>
       <path id="DejaVuSans-58" d="M 403 4666 
L 1081 4666 
L 2241 2931 
L 3406 4666 
L 4084 4666 
L 2584 2425 
L 4184 0 
L 3506 0 
L 2194 1984 
L 872 0 
L 191 0 
L 1856 2491 
L 403 4666 
z
" transform="scale(0.015625)"/>
       <path id="DejaVuSans-20" transform="scale(0.015625)"/>
       <path id="DejaVuSans-44" d="M 1259 4147 
L 1259 519 
L 2022 519 
Q 2988 519 3436 956 
Q 3884 1394 3884 2338 
Q 3884 3275 3436 3711 
Q 2988 4147 2022 4147 
L 1259 4147 
z
M 628 4666 
L 1925 4666 
Q 3281 4666 3915 4102 
Q 4550 3538 4550 2338 
Q 4550 1131 3912 565 
Q 3275 0 1925 0 
L 628 0 
L 628 4666 
z
" transform="scale(0.015625)"/>
       <path id="DejaVuSans-69" d="M 603 3500 
L 1178 3500 
L 1178 0 
L 603 0 
L 603 3500 
z
M 603 4863 
L 1178 4863 
L 1178 4134 
L 603 4134 
L 603 4863 
z
" transform="scale(0.015625)"/>
       <path id="DejaVuSans-73" d="M 2834 3397 
L 2834 2853 
Q 2591 2978 2328 3040 
Q 2066 3103 1784 3103 
Q 1356 3103 1142 2972 
Q 928 2841 928 2578 
Q 928 2378 1081 2264 
Q 1234 2150 1697 2047 
L 1894 2003 
Q 2506 1872 2764 1633 
Q 3022 1394 3022 966 
Q 3022 478 2636 193 
Q 2250 -91 1575 -91 
Q 1294 -91 989 -36 
Q 684 19 347 128 
L 347 722 
Q 666 556 975 473 
Q 1284 391 1588 391 
Q 1994 391 2212 530 
Q 2431 669 2431 922 
Q 2431 1156 2273 1281 
Q 2116 1406 1581 1522 
L 1381 1569 
Q 847 1681 609 1914 
Q 372 2147 372 2553 
Q 372 3047 722 3315 
Q 1072 3584 1716 3584 
Q 2034 3584 2315 3537 
Q 2597 3491 2834 3397 
z
" transform="scale(0.015625)"/>
       <path id="DejaVuSans-74" d="M 1172 4494 
L 1172 3500 
L 2356 3500 
L 2356 3053 
L 1172 3053 
L 1172 1153 
Q 1172 725 1289 603 
Q 1406 481 1766 481 
L 2356 481 
L 2356 0 
L 1766 0 
Q 1100 0 847 248 
Q 594 497 594 1153 
L 594 3053 
L 172 3053 
L 172 3500 
L 594 3500 
L 594 4494 
L 1172 4494 
z
" transform="scale(0.015625)"/>
       <path id="DejaVuSans-61" d="M 2194 1759 
Q 1497 1759 1228 1600 
Q 959 1441 959 1056 
Q 959 750 1161 570 
Q 1363 391 1709 391 
Q 2188 391 2477 730 
Q 2766 1069 2766 1631 
L 2766 1759 
L 2194 1759 
z
M 3341 1997 
L 3341 0 
L 2766 0 
L 2766 531 
Q 2569 213 2275 61 
Q 1981 -91 1556 -91 
Q 1019 -91 701 211 
Q 384 513 384 1019 
Q 384 1609 779 1909 
Q 1175 2209 1959 2209 
L 2766 2209 
L 2766 2266 
Q 2766 2663 2505 2880 
Q 2244 3097 1772 3097 
Q 1472 3097 1187 3025 
Q 903 2953 641 2809 
L 641 3341 
Q 956 3463 1253 3523 
Q 1550 3584 1831 3584 
Q 2591 3584 2966 3190 
Q 3341 2797 3341 1997 
z
" transform="scale(0.015625)"/>
       <path id="DejaVuSans-6e" d="M 3513 2113 
L 3513 0 
L 2938 0 
L 2938 2094 
Q 2938 2591 2744 2837 
Q 2550 3084 2163 3084 
Q 1697 3084 1428 2787 
Q 1159 2491 1159 1978 
L 1159 0 
L 581 0 
L 581 3500 
L 1159 3500 
L 1159 2956 
Q 1366 3272 1645 3428 
Q 1925 3584 2291 3584 
Q 2894 3584 3203 3211 
Q 3513 2838 3513 2113 
z
" transform="scale(0.015625)"/>
       <path id="DejaVuSans-63" d="M 3122 3366 
L 3122 2828 
Q 2878 2963 2633 3030 
Q 2388 3097 2138 3097 
Q 1578 3097 1268 2742 
Q 959 2388 959 1747 
Q 959 1106 1268 751 
Q 1578 397 2138 397 
Q 2388 397 2633 464 
Q 2878 531 3122 666 
L 3122 134 
Q 2881 22 2623 -34 
Q 2366 -91 2075 -91 
Q 1284 -91 818 406 
Q 353 903 353 1747 
Q 353 2603 823 3093 
Q 1294 3584 2113 3584 
Q 2378 3584 2631 3529 
Q 2884 3475 3122 3366 
z
" transform="scale(0.015625)"/>
       <path id="DejaVuSans-65" d="M 3597 1894 
L 3597 1613 
L 953 1613 
Q 991 1019 1311 708 
Q 1631 397 2203 397 
Q 2534 397 2845 478 
Q 3156 559 3463 722 
L 3463 178 
Q 3153 47 2828 -22 
Q 2503 -91 2169 -91 
Q 1331 -91 842 396 
Q 353 884 353 1716 
Q 353 2575 817 3079 
Q 1281 3584 2069 3584 
Q 2775 3584 3186 3129 
Q 3597 2675 3597 1894 
z
M 3022 2063 
Q 3016 2534 2758 2815 
Q 2500 3097 2075 3097 
Q 1594 3097 1305 2825 
Q 1016 2553 972 2059 
L 3022 2063 
z
" transform="scale(0.015625)"/>
       <path id="DejaVuSans-2c" d="M 750 794 
L 1409 794 
L 1409 256 
L 897 -744 
L 494 -744 
L 750 256 
L 750 794 
z
" transform="scale(0.015625)"/>
       <path id="DejaVuSans-75" d="M 544 1381 
L 544 3500 
L 1119 3500 
L 1119 1403 
Q 1119 906 1312 657 
Q 1506 409 1894 409 
Q 2359 409 2629 706 
Q 2900 1003 2900 1516 
L 2900 3500 
L 3475 3500 
L 3475 0 
L 2900 0 
L 2900 538 
Q 2691 219 2414 64 
Q 2138 -91 1772 -91 
Q 1169 -91 856 284 
Q 544 659 544 1381 
z
M 1991 3584 
L 1991 3584 
z
" transform="scale(0.015625)"/>
      </defs>
      <use xlink:href="#DejaVuSans-58"/>
      <use xlink:href="#DejaVuSans-20" x="68.505859"/>
      <use xlink:href="#DejaVuSans-44" x="100.292969"/>
      <use xlink:href="#DejaVuSans-69" x="177.294922"/>
      <use xlink:href="#DejaVuSans-73" x="205.078125"/>
      <use xlink:href="#DejaVuSans-74" x="257.177734"/>
      <use xlink:href="#DejaVuSans-61" x="296.386719"/>
      <use xlink:href="#DejaVuSans-6e" x="357.666016"/>
      <use xlink:href="#DejaVuSans-63" x="421.044922"/>
      <use xlink:href="#DejaVuSans-65" x="476.025391"/>
      <use xlink:href="#DejaVuSans-2c" x="537.548828"/>
      <use xlink:href="#DejaVuSans-20" x="569.335938"/>
      <use xlink:href="#DejaVuSans-61" x="601.123047"/>
      <use xlink:href="#DejaVuSans-75" x="662.402344"/>
     </g>
    </g>
   </g>
   <g id="matplotlib.axis_2">
    <g id="ytick_1">
     <g id="line2d_6">
      <defs>
       <path id="m8208946c69" d="M 0 0 
L -3.5 0 
" style="stroke: #000000; stroke-width: 0.8"/>
      </defs>
      <g>
       <use xlink:href="#m8208946c69" x="55.345313" y="349.665214" style="stroke: #000000; stroke-width: 0.8"/>
      </g>
     </g>
     <g id="text_7">
      <!-- −200 -->
      <g transform="translate(20.878125 353.464432) scale(0.1 -0.1)">
       <use xlink:href="#DejaVuSans-2212"/>
       <use xlink:href="#DejaVuSans-32" x="83.789062"/>
       <use xlink:href="#DejaVuSans-30" x="147.412109"/>
       <use xlink:href="#DejaVuSans-30" x="211.035156"/>
      </g>
     </g>
    </g>
    <g id="ytick_2">
     <g id="line2d_7">
      <g>
       <use xlink:href="#m8208946c69" x="55.345313" y="287.794299" style="stroke: #000000; stroke-width: 0.8"/>
      </g>
     </g>
     <g id="text_8">
      <!-- −100 -->
      <g transform="translate(20.878125 291.593518) scale(0.1 -0.1)">
       <use xlink:href="#DejaVuSans-2212"/>
       <use xlink:href="#DejaVuSans-31" x="83.789062"/>
       <use xlink:href="#DejaVuSans-30" x="147.412109"/>
       <use xlink:href="#DejaVuSans-30" x="211.035156"/>
      </g>
     </g>
    </g>
    <g id="ytick_3">
     <g id="line2d_8">
      <g>
       <use xlink:href="#m8208946c69" x="55.345313" y="225.923385" style="stroke: #000000; stroke-width: 0.8"/>
      </g>
     </g>
     <g id="text_9">
      <!-- 0 -->
      <g transform="translate(41.982813 229.722604) scale(0.1 -0.1)">
       <use xlink:href="#DejaVuSans-30"/>
      </g>
     </g>
    </g>
    <g id="ytick_4">
     <g id="line2d_9">
      <g>
       <use xlink:href="#m8208946c69" x="55.345313" y="164.052471" style="stroke: #000000; stroke-width: 0.8"/>
      </g>
     </g>
     <g id="text_10">
      <!-- 100 -->
      <g transform="translate(29.257813 167.85169) scale(0.1 -0.1)">
       <use xlink:href="#DejaVuSans-31"/>
       <use xlink:href="#DejaVuSans-30" x="63.623047"/>
       <use xlink:href="#DejaVuSans-30" x="127.246094"/>
      </g>
     </g>
    </g>
    <g id="ytick_5">
     <g id="line2d_10">
      <g>
       <use xlink:href="#m8208946c69" x="55.345313" y="102.181557" style="stroke: #000000; stroke-width: 0.8"/>
      </g>
     </g>
     <g id="text_11">
      <!-- 200 -->
      <g transform="translate(29.257813 105.980776) scale(0.1 -0.1)">
       <use xlink:href="#DejaVuSans-32"/>
       <use xlink:href="#DejaVuSans-30" x="63.623047"/>
       <use xlink:href="#DejaVuSans-30" x="127.246094"/>
      </g>
     </g>
    </g>
    <g id="text_12">
     <!-- Y Distance, au -->
     <g transform="translate(14.798438 265.242692) rotate(-90) scale(0.1 -0.1)">
      <defs>
       <path id="DejaVuSans-59" d="M -13 4666 
L 666 4666 
L 1959 2747 
L 3244 4666 
L 3922 4666 
L 2272 2222 
L 2272 0 
L 1638 0 
L 1638 2222 
L -13 4666 
z
" transform="scale(0.015625)"/>
      </defs>
      <use xlink:href="#DejaVuSans-59"/>
      <use xlink:href="#DejaVuSans-20" x="61.083984"/>
      <use xlink:href="#DejaVuSans-44" x="92.871094"/>
      <use xlink:href="#DejaVuSans-69" x="169.873047"/>
      <use xlink:href="#DejaVuSans-73" x="197.65625"/>
      <use xlink:href="#DejaVuSans-74" x="249.755859"/>
      <use xlink:href="#DejaVuSans-61" x="288.964844"/>
      <use xlink:href="#DejaVuSans-6e" x="350.244141"/>
      <use xlink:href="#DejaVuSans-63" x="413.623047"/>
      <use xlink:href="#DejaVuSans-65" x="468.603516"/>
      <use xlink:href="#DejaVuSans-2c" x="530.126953"/>
      <use xlink:href="#DejaVuSans-20" x="561.914062"/>
      <use xlink:href="#DejaVuSans-61" x="593.701172"/>
      <use xlink:href="#DejaVuSans-75" x="654.980469"/>
     </g>
    </g>
   </g>
   <g id="PathCollection_1">
    <path d="M 210.812793 314.190568 
L 212.367468 314.617919 
L 213.922142 314.952182 
L 215.476817 315.189095 
L 217.031492 315.325584 
L 218.586167 315.36003 
L 220.140842 315.293416 
L 221.695516 315.131105 
L 223.250191 314.884848 
L 224.804866 314.574238 
L 226.359541 314.226394 
L 227.914216 313.8726 
L 228.244535 313.804514 
L 229.46889 313.548564 
L 231.023565 313.26376 
L 232.57824 313.017719 
L 234.132915 312.795668 
L 235.68759 312.572918 
L 237.242264 312.323999 
L 237.753988 312.225482 
L 238.796939 312.030786 
L 240.351614 311.683236 
L 241.906289 311.277006 
L 243.460964 310.810558 
L 243.939297 310.646449 
L 245.015638 310.281987 
L 246.570313 309.691949 
L 248.049717 309.067417 
L 248.124988 309.035213 
L 249.679663 308.29914 
L 251.234338 307.488385 
L 251.234338 307.488385 
L 252.789012 306.571358 
L 253.820716 305.909352 
L 254.343687 305.550633 
L 255.898362 304.399832 
L 255.986457 304.33032 
L 257.453037 303.068209 
L 257.798609 302.751288 
L 259.007712 301.536978 
L 259.352512 301.172256 
L 260.562386 299.789139 
L 260.72752 299.593223 
L 261.997023 298.014191 
L 262.117061 297.863073 
L 263.226872 296.435159 
L 263.671736 295.870577 
L 264.461987 294.856126 
L 265.226411 293.901078 
L 265.724107 293.277094 
L 266.781086 291.986735 
L 267.01822 291.698062 
L 268.33576 290.125163 
L 268.340942 290.119029 
L 269.702301 288.539997 
L 269.890435 288.324041 
L 271.093445 286.960965 
L 271.44511 286.566094 
L 272.519463 285.381933 
L 272.999785 284.856955 
L 273.984243 283.8029 
L 274.55446 283.194585 
L 275.482373 282.223868 
L 276.109134 281.563194 
L 276.995704 280.644836 
L 277.663809 279.935845 
L 278.497256 279.065803 
L 279.218484 278.27994 
L 279.95927 277.486771 
L 280.773159 276.5612 
L 281.359362 275.907739 
L 282.327834 274.744958 
L 282.682132 274.328706 
L 283.882508 272.794399 
L 283.918215 272.749674 
L 285.087326 271.170642 
L 285.437183 270.652728 
L 286.166472 269.591609 
L 286.991858 268.277661 
L 287.159499 268.012577 
L 288.097723 266.433545 
L 288.546533 265.633746 
L 288.983614 264.854513 
L 289.839278 263.27548 
L 290.101208 262.785776 
L 290.683639 261.696448 
L 291.523683 260.117416 
L 291.655882 259.870503 
L 292.372341 258.538383 
L 293.210557 256.982231 
L 293.222945 256.959351 
L 294.074131 255.380319 
L 294.765232 254.070304 
L 294.906579 253.801286 
L 295.700475 252.222254 
L 296.319907 250.894043 
L 296.433947 250.643222 
L 297.086733 249.06419 
L 297.65005 247.485157 
L 297.874582 246.757835 
L 298.125599 245.906125 
L 298.522057 244.327093 
L 298.849377 242.74806 
L 299.118838 241.169028 
L 299.339071 239.589996 
L 299.429257 238.805632 
L 299.521621 238.010963 
L 299.666616 236.431931 
L 299.763969 234.852899 
L 299.807985 233.273866 
L 299.792515 231.694834 
L 299.711839 230.115802 
L 299.561102 228.53677 
L 299.429257 227.605617 
L 299.346915 226.957737 
L 299.08029 225.378705 
L 298.744473 223.799673 
L 298.337392 222.22064 
L 297.874582 220.696031 
L 297.858873 220.641608 
L 297.357908 219.062576 
L 296.788011 217.483543 
L 296.319907 216.305321 
L 296.160609 215.904511 
L 295.499776 214.325479 
L 294.771919 212.746447 
L 294.765232 212.732005 
L 294.014468 211.167414 
L 293.210557 209.610553 
L 293.198638 209.588382 
L 292.369113 208.00935 
L 291.655882 206.679903 
L 291.522597 206.430317 
L 290.721445 204.851285 
L 290.101208 203.584778 
L 289.959647 203.272253 
L 289.290849 201.69322 
L 288.656859 200.114188 
L 288.546533 199.828317 
L 288.103732 198.535156 
L 287.577182 196.956123 
L 287.056096 195.377091 
L 286.991858 195.176873 
L 286.583438 193.798059 
L 286.113615 192.219027 
L 285.636569 190.639994 
L 285.437183 189.971369 
L 285.169541 189.060962 
L 284.689327 187.48193 
L 284.154164 185.902897 
L 283.882508 185.179764 
L 283.551115 184.323865 
L 282.832027 182.744833 
L 282.327834 181.825719 
L 281.960617 181.1658 
L 280.929327 179.586768 
L 280.773159 179.373742 
L 279.811913 178.007736 
L 279.218484 177.23843 
L 278.638025 176.428704 
L 277.663809 175.1397 
L 277.461739 174.849671 
L 276.331565 173.270639 
L 276.109134 172.96656 
L 275.231449 171.691607 
L 274.55446 170.755308 
L 274.103465 170.112574 
L 272.999785 168.650242 
L 272.911605 168.533542 
L 271.622762 166.95451 
L 271.44511 166.755231 
L 270.165114 165.375477 
L 269.890435 165.105223 
L 268.489002 163.796445 
L 268.33576 163.66326 
L 266.781086 162.363754 
L 266.599764 162.217413 
L 265.226411 161.139914 
L 264.569094 160.63838 
L 263.671736 159.949664 
L 262.50424 159.059348 
L 262.117061 158.752881 
L 260.562386 157.508721 
L 260.527619 157.480316 
L 259.007712 156.162947 
L 258.705654 155.901284 
L 257.453037 154.749867 
L 256.975904 154.322251 
L 255.898362 153.310711 
L 255.254379 152.743219 
L 254.343687 151.916611 
L 253.421681 151.164187 
L 252.789012 150.637263 
L 251.330884 149.585154 
L 251.234338 149.513783 
L 249.679663 148.490697 
L 248.831637 148.006122 
L 248.124988 147.581609 
L 246.570313 146.71556 
L 246.04511 146.42709 
L 245.015638 145.819523 
L 243.460964 144.873677 
L 243.422532 144.848057 
L 241.906289 143.779279 
L 241.235439 143.269025 
L 240.351614 142.589428 
L 239.246428 141.689993 
L 238.796939 141.337007 
L 237.269235 140.110961 
L 237.242264 140.09065 
L 235.68759 138.913955 
L 235.15734 138.531928 
L 234.132915 137.838476 
L 232.700184 136.952896 
L 232.57824 136.880719 
L 231.023565 136.044732 
L 229.527876 135.373864 
L 229.46889 135.34756 
L 227.914216 134.784825 
L 226.359541 134.384733 
L 224.804866 134.157801 
L 223.250191 134.112906 
L 221.695516 134.253568 
L 220.140842 134.572419 
L 218.586167 135.045061 
L 217.701234 135.373864 
L 217.031492 135.60603 
L 215.476817 136.170958 
L 213.922142 136.697036 
L 213.013773 136.952896 
L 212.367468 137.115281 
L 210.812793 137.395954 
L 209.258118 137.55653 
L 207.703443 137.609328 
L 206.148768 137.57597 
L 204.594094 137.482153 
L 203.039419 137.354458 
L 201.484744 137.218989 
L 199.930069 137.101125 
L 198.375394 137.02563 
L 196.82072 137.016498 
L 195.266045 137.096243 
L 193.71137 137.284607 
L 192.156695 137.596969 
L 190.60202 138.043028 
L 189.288792 138.531928 
L 189.047346 138.617911 
L 187.492671 139.266238 
L 185.937996 140.020054 
L 185.764052 140.110961 
L 184.383321 140.799456 
L 182.828646 141.641137 
L 182.740753 141.689993 
L 181.273972 142.474888 
L 179.861211 143.269025 
L 179.719297 143.346954 
L 178.164622 144.200833 
L 177.013354 144.848057 
L 176.609947 145.071675 
L 175.055272 145.924191 
L 174.138891 146.42709 
L 173.500597 146.774647 
L 171.945923 147.611187 
L 171.208095 148.006122 
L 170.391248 148.444184 
L 168.836573 149.281102 
L 168.2733 149.585154 
L 167.281898 150.129036 
L 165.727223 151.00561 
L 165.447334 151.164187 
L 164.172549 151.90617 
L 162.794467 152.743219 
L 162.617874 152.853168 
L 161.063199 153.833458 
L 160.320873 154.322251 
L 159.508524 154.866685 
L 158.059544 155.901284 
L 157.953849 155.977185 
L 156.399175 157.164806 
L 156.022898 157.480316 
L 154.8445 158.478399 
L 154.229799 159.059348 
L 153.289825 159.959968 
L 152.65308 160.63838 
L 151.73515 161.639911 
L 151.249455 162.217413 
L 150.180475 163.533204 
L 149.977165 163.796445 
L 148.788589 165.375477 
L 148.625801 165.598422 
L 147.623177 166.95451 
L 147.071126 167.720904 
L 146.44362 168.533542 
L 145.516451 169.726498 
L 145.175809 170.112574 
L 143.961776 171.436765 
L 143.684041 171.691607 
L 142.407101 172.803138 
L 141.760125 173.270639 
L 140.852427 173.899542 
L 139.297752 174.837039 
L 139.275199 174.849671 
L 137.743077 175.71429 
L 136.568145 176.428704 
L 136.188402 176.673564 
L 134.633727 177.842351 
L 134.448859 178.007736 
L 133.079053 179.406259 
L 132.929797 179.586768 
L 131.816945 181.1658 
L 131.524378 181.673222 
L 130.968072 182.744833 
L 130.305011 184.323865 
L 129.969703 185.306013 
L 129.773141 185.902897 
L 129.330964 187.48193 
L 128.951972 189.060962 
L 128.615573 190.639994 
L 128.415028 191.666933 
L 128.302559 192.219027 
L 128.002767 193.798059 
L 127.729149 195.377091 
L 127.487094 196.956123 
L 127.282901 198.535156 
L 127.120657 200.114188 
L 126.999245 201.69322 
L 126.91027 203.272253 
L 126.860353 204.366884 
L 126.836975 204.851285 
L 126.758283 206.430317 
L 126.656633 208.00935 
L 126.518516 209.588382 
L 126.33984 211.167414 
L 126.124792 212.746447 
L 125.882029 214.325479 
L 125.620349 215.904511 
L 125.345488 217.483543 
L 125.305679 217.705306 
L 125.048494 219.062576 
L 124.73224 220.641608 
L 124.390946 222.22064 
L 124.016756 223.799673 
L 123.751004 224.829561 
L 123.601239 225.378705 
L 123.14421 226.957737 
L 122.664116 228.53677 
L 122.196329 230.06064 
L 122.179333 230.115802 
L 121.713001 231.694834 
L 121.288066 233.273866 
L 120.928306 234.852899 
L 120.659612 236.431931 
L 120.641654 236.621504 
L 120.510399 238.010963 
L 120.508564 239.589996 
L 120.641654 240.804741 
L 120.681404 241.169028 
L 121.042167 242.74806 
L 121.590156 244.327093 
L 122.196329 245.662341 
L 122.300647 245.906125 
L 123.101741 247.485157 
L 123.751004 248.646439 
L 123.963892 249.06419 
L 124.818216 250.643222 
L 125.305679 251.521884 
L 125.659809 252.222254 
L 126.473244 253.801286 
L 126.860353 254.545777 
L 127.266503 255.380319 
L 128.05443 256.959351 
L 128.415028 257.662516 
L 128.852273 258.538383 
L 129.688923 260.117416 
L 129.969703 260.617448 
L 130.584062 261.696448 
L 131.524378 263.182541 
L 131.585281 263.27548 
L 132.698616 264.854513 
L 133.079053 265.349778 
L 133.950131 266.433545 
L 134.633727 267.241184 
L 135.307799 268.012577 
L 136.188402 269.023341 
L 136.685108 269.591609 
L 137.743077 270.886255 
L 137.968441 271.170642 
L 139.061999 272.749674 
L 139.297752 273.151972 
L 139.942153 274.328706 
L 140.657822 275.907739 
L 140.852427 276.409175 
L 141.249985 277.486771 
L 141.8012 279.065803 
L 142.389804 280.644836 
L 142.407101 280.685727 
L 143.078667 282.223868 
L 143.954911 283.8029 
L 143.961776 283.813245 
L 145.120693 285.381933 
L 145.516451 285.820412 
L 146.704032 286.960965 
L 147.071126 287.264687 
L 148.625801 288.385668 
L 148.859873 288.539997 
L 150.180475 289.342539 
L 151.543718 290.119029 
L 151.73515 290.224352 
L 153.289825 291.12091 
L 154.243734 291.698062 
L 154.8445 292.065937 
L 156.399175 293.101999 
L 156.639229 293.277094 
L 157.953849 294.274657 
L 158.665706 294.856126 
L 159.508524 295.5778 
L 160.452326 296.435159 
L 161.063199 297.015328 
L 162.078608 298.014191 
L 162.617874 298.562888 
L 163.625863 299.593223 
L 164.172549 300.162258 
L 165.17327 301.172256 
L 165.727223 301.732152 
L 166.808332 302.751288 
L 167.281898 303.192143 
L 168.64682 304.33032 
L 168.836573 304.485267 
L 170.391248 305.608475 
L 170.874844 305.909352 
L 171.945923 306.563381 
L 173.500597 307.359112 
L 173.790202 307.488385 
L 175.055272 308.05253 
L 176.609947 308.638117 
L 177.959125 309.067417 
L 178.164622 309.134304 
L 179.719297 309.566932 
L 181.273972 309.914033 
L 182.828646 310.176088 
L 184.383321 310.351553 
L 185.937996 310.440085 
L 187.492671 310.445502 
L 189.047346 310.378373 
L 190.60202 310.258121 
L 192.156695 310.114275 
L 193.71137 309.985921 
L 195.266045 309.917769 
L 196.82072 309.951745 
L 198.375394 310.115689 
L 199.930069 310.414431 
L 200.783006 310.646449 
L 201.484744 310.842942 
L 203.039419 311.375761 
L 204.594094 311.950783 
L 205.309236 312.225482 
L 206.148768 312.553153 
L 207.703443 313.146882 
L 209.258118 313.687028 
L 209.633318 313.804514 
L 210.812793 314.190568 
z
" clip-path="url(#p31409319cf)" style="fill: none; stroke: #1f77b4; stroke-width: 1.5"/>
   </g>
   <g id="PathCollection_2">
    <path d="M 209.258118 296.693259 
L 210.812793 297.008126 
L 212.367468 297.194573 
L 213.922142 297.230421 
L 215.476817 297.102797 
L 217.031492 296.813346 
L 218.390765 296.435159 
L 218.586167 296.383465 
L 220.140842 295.874646 
L 221.695516 295.302968 
L 222.850045 294.856126 
L 223.250191 294.712346 
L 224.804866 294.149124 
L 226.359541 293.595378 
L 227.272206 293.277094 
L 227.914216 293.064456 
L 229.46889 292.553544 
L 231.023565 292.030151 
L 231.969821 291.698062 
L 232.57824 291.487001 
L 234.132915 290.912687 
L 235.68759 290.273075 
L 236.034665 290.119029 
L 237.242264 289.582483 
L 238.796939 288.819163 
L 239.328324 288.539997 
L 240.351614 288.011564 
L 241.906289 287.159132 
L 242.25751 286.960965 
L 243.460964 286.30851 
L 245.015638 285.437729 
L 245.114578 285.381933 
L 246.570313 284.594857 
L 247.97409 283.8029 
L 248.124988 283.719748 
L 249.679663 282.828059 
L 250.648622 282.223868 
L 251.234338 281.85268 
L 252.789012 280.758393 
L 252.935834 280.644836 
L 254.343687 279.491317 
L 254.81 279.065803 
L 255.898362 277.994961 
L 256.374854 277.486771 
L 257.453037 276.243265 
L 257.731278 275.907739 
L 258.955196 274.328706 
L 259.007712 274.257085 
L 260.11313 272.749674 
L 260.562386 272.097114 
L 261.214574 271.170642 
L 262.117061 269.796868 
L 262.256218 269.591609 
L 263.258992 268.012577 
L 263.671736 267.303534 
L 264.192185 266.433545 
L 265.052609 264.854513 
L 265.226411 264.512826 
L 265.86976 263.27548 
L 266.631896 261.696448 
L 266.781086 261.378265 
L 267.384074 260.117416 
L 268.113922 258.538383 
L 268.33576 258.055236 
L 268.847408 256.959351 
L 269.567803 255.380319 
L 269.890435 254.65784 
L 270.278837 253.801286 
L 270.969915 252.222254 
L 271.44511 251.084491 
L 271.634083 250.643222 
L 272.288965 249.06419 
L 272.919171 247.485157 
L 272.999785 247.28088 
L 273.576039 245.906125 
L 274.248806 244.327093 
L 274.55446 243.635167 
L 274.986014 242.74806 
L 275.806174 241.169028 
L 276.109134 240.621002 
L 276.752702 239.589996 
L 277.663809 238.220132 
L 277.819901 238.010963 
L 279.016684 236.431931 
L 279.218484 236.157539 
L 280.24215 234.852899 
L 280.773159 234.093375 
L 281.344637 233.273866 
L 282.204769 231.694834 
L 282.327834 231.350438 
L 282.735201 230.115802 
L 282.944171 228.53677 
L 282.844834 226.957737 
L 282.456749 225.378705 
L 282.327834 225.069832 
L 281.778447 223.799673 
L 280.854985 222.22064 
L 280.773159 222.106404 
L 279.722964 220.641608 
L 279.218484 220.017647 
L 278.475454 219.062576 
L 277.663809 218.073918 
L 277.214699 217.483543 
L 276.109134 216.016057 
L 276.033594 215.904511 
L 275.026597 214.325479 
L 274.55446 213.491181 
L 274.182305 212.746447 
L 273.507318 211.167414 
L 272.999785 209.72866 
L 272.956042 209.588382 
L 272.550558 208.00935 
L 272.213377 206.430317 
L 271.919525 204.851285 
L 271.641443 203.272253 
L 271.44511 202.198017 
L 271.35951 201.69322 
L 271.055681 200.114188 
L 270.682914 198.535156 
L 270.220196 196.956123 
L 269.890435 196.021417 
L 269.675584 195.377091 
L 269.056658 193.798059 
L 268.33576 192.219027 
L 268.33576 192.219027 
L 267.589181 190.639994 
L 266.781086 189.103075 
L 266.760069 189.060962 
L 265.924605 187.48193 
L 265.226411 186.260462 
L 265.030182 185.902897 
L 264.114493 184.323865 
L 263.671736 183.605612 
L 263.154384 182.744833 
L 262.132169 181.1658 
L 262.117061 181.143452 
L 261.071702 179.586768 
L 260.562386 178.884328 
L 259.920921 178.007736 
L 259.007712 176.854207 
L 258.660616 176.428704 
L 257.453037 175.057118 
L 257.260293 174.849671 
L 255.898362 173.478361 
L 255.675642 173.270639 
L 254.343687 172.086593 
L 253.856422 171.691607 
L 252.789012 170.844832 
L 251.773032 170.112574 
L 251.234338 169.721145 
L 249.679663 168.681179 
L 249.440229 168.533542 
L 248.124988 167.683064 
L 246.902445 166.95451 
L 246.570313 166.745227 
L 245.015638 165.835725 
L 244.156181 165.375477 
L 243.460964 164.986754 
L 241.906289 164.201759 
L 241.003517 163.796445 
L 240.351614 163.498785 
L 238.796939 162.870542 
L 237.242264 162.32698 
L 236.88874 162.217413 
L 235.68759 161.835724 
L 234.132915 161.396218 
L 232.57824 161.006756 
L 231.023565 160.660871 
L 230.913915 160.63838 
L 229.46889 160.313025 
L 227.914216 159.986364 
L 226.359541 159.675276 
L 224.804866 159.369416 
L 223.2562 159.059348 
L 223.250191 159.057979 
L 221.695516 158.676579 
L 220.140842 158.27778 
L 218.586167 157.864669 
L 217.169539 157.480316 
L 217.031492 157.438833 
L 215.476817 156.960702 
L 213.922142 156.503967 
L 212.367468 156.076358 
L 211.688546 155.901284 
L 210.812793 155.657342 
L 209.258118 155.260642 
L 207.703443 154.906281 
L 206.148768 154.593462 
L 204.594094 154.323473 
L 204.585615 154.322251 
L 203.039419 154.081917 
L 201.484744 153.903293 
L 199.930069 153.802004 
L 198.375394 153.795292 
L 196.82072 153.901496 
L 195.266045 154.138227 
L 194.511506 154.322251 
L 193.71137 154.510949 
L 192.156695 155.02868 
L 190.60202 155.710216 
L 190.239949 155.901284 
L 189.047346 156.528409 
L 187.510684 157.480316 
L 187.492671 157.491413 
L 185.937996 158.531749 
L 185.195188 159.059348 
L 184.383321 159.622879 
L 182.936221 160.63838 
L 182.828646 160.710532 
L 181.273972 161.710726 
L 180.445386 162.217413 
L 179.719297 162.629275 
L 178.164622 163.453988 
L 177.482179 163.796445 
L 176.609947 164.196438 
L 175.055272 164.888352 
L 173.968776 165.375477 
L 173.500597 165.568281 
L 171.945923 166.23712 
L 170.408928 166.95451 
L 170.391248 166.962271 
L 168.836573 167.707376 
L 167.313863 168.533542 
L 167.281898 168.550494 
L 165.727223 169.463624 
L 164.756568 170.112574 
L 164.172549 170.512993 
L 162.661534 171.691607 
L 162.617874 171.727791 
L 161.063199 173.167842 
L 160.962951 173.270639 
L 159.572577 174.849671 
L 159.508524 174.931328 
L 158.410923 176.428704 
L 157.953849 177.144937 
L 157.420597 178.007736 
L 156.560334 179.586768 
L 156.399175 179.913445 
L 155.766654 181.1658 
L 155.040725 182.744833 
L 154.8445 183.195733 
L 154.315826 184.323865 
L 153.600825 185.902897 
L 153.289825 186.593531 
L 152.845961 187.48193 
L 152.050932 189.060962 
L 151.73515 189.674099 
L 151.186498 190.639994 
L 150.291427 192.219027 
L 150.180475 192.412311 
L 149.338985 193.798059 
L 148.625801 195.050058 
L 148.434739 195.377091 
L 147.577941 196.956123 
L 147.071126 198.037026 
L 146.838887 198.535156 
L 146.202457 200.114188 
L 145.697867 201.69322 
L 145.516451 202.38265 
L 145.279215 203.272253 
L 144.931342 204.851285 
L 144.644089 206.430317 
L 144.39336 208.00935 
L 144.160126 209.588382 
L 143.961776 210.954486 
L 143.92778 211.167414 
L 143.669402 212.746447 
L 143.411522 214.325479 
L 143.161874 215.904511 
L 142.931166 217.483543 
L 142.729311 219.062576 
L 142.561967 220.641608 
L 142.428296 222.22064 
L 142.407101 222.534365 
L 142.311732 223.799673 
L 142.207857 225.378705 
L 142.100504 226.957737 
L 141.972435 228.53677 
L 141.811978 230.115802 
L 141.616453 231.694834 
L 141.393546 233.273866 
L 141.16005 234.852899 
L 140.938437 236.431931 
L 140.852427 237.162529 
L 140.747802 238.010963 
L 140.614971 239.589996 
L 140.563525 241.169028 
L 140.609269 242.74806 
L 140.766479 244.327093 
L 140.852427 244.814676 
L 141.044276 245.906125 
L 141.460449 247.485157 
L 142.038046 249.06419 
L 142.407101 249.852388 
L 142.79783 250.643222 
L 143.762816 252.222254 
L 143.961776 252.50217 
L 144.949065 253.801286 
L 145.516451 254.464627 
L 146.338236 255.380319 
L 147.071126 256.147854 
L 147.852602 256.959351 
L 148.625801 257.75204 
L 149.364412 258.538383 
L 150.180475 259.43202 
L 150.76181 260.117416 
L 151.73515 261.335948 
L 151.997894 261.696448 
L 153.059658 263.27548 
L 153.289825 263.648251 
L 153.967543 264.854513 
L 154.783459 266.433545 
L 154.8445 266.559844 
L 155.495759 268.012577 
L 156.186966 269.591609 
L 156.399175 270.070922 
L 156.867217 271.170642 
L 157.597128 272.749674 
L 157.953849 273.438419 
L 158.418507 274.328706 
L 159.391917 275.907739 
L 159.508524 276.072694 
L 160.564834 277.486771 
L 161.063199 278.060065 
L 162.010991 279.065803 
L 162.617874 279.643049 
L 163.778371 280.644836 
L 164.172549 280.965387 
L 165.727223 282.11575 
L 165.887099 282.223868 
L 167.281898 283.173607 
L 168.308074 283.8029 
L 168.836573 284.143976 
L 170.391248 285.064504 
L 170.986687 285.381933 
L 171.945923 285.944297 
L 173.500597 286.748519 
L 173.976782 286.960965 
L 175.055272 287.501631 
L 176.609947 288.146066 
L 177.807072 288.539997 
L 178.164622 288.672078 
L 179.719297 289.123832 
L 181.273972 289.469529 
L 182.828646 289.745353 
L 184.383321 289.987597 
L 185.216174 290.119029 
L 185.937996 290.242394 
L 187.492671 290.533841 
L 189.047346 290.850118 
L 190.60202 291.191068 
L 192.156695 291.552684 
L 192.729996 291.698062 
L 193.71137 291.958812 
L 195.266045 292.393083 
L 196.82072 292.835455 
L 198.342997 293.277094 
L 198.375394 293.287063 
L 199.930069 293.790049 
L 201.484744 294.294275 
L 203.039419 294.796345 
L 203.229725 294.856126 
L 204.594094 295.324089 
L 206.148768 295.827859 
L 207.703443 296.286196 
L 208.307082 296.435159 
L 209.258118 296.693259 
z
" clip-path="url(#p31409319cf)" style="fill: none; stroke: #1f77b4; stroke-width: 1.5"/>
   </g>
   <g id="PathCollection_3">
    <path d="M 203.039419 285.522525 
L 204.594094 285.658084 
L 206.148768 285.697003 
L 207.703443 285.6375 
L 209.258118 285.483564 
L 209.945468 285.381933 
L 210.812793 285.252031 
L 212.367468 284.966274 
L 213.922142 284.64834 
L 215.476817 284.32275 
L 217.031492 284.007698 
L 218.103945 283.8029 
L 218.586167 283.716412 
L 220.140842 283.450393 
L 221.695516 283.185664 
L 223.250191 282.905705 
L 224.804866 282.592253 
L 226.359541 282.227454 
L 226.372427 282.223868 
L 227.914216 281.817831 
L 229.46889 281.331405 
L 231.023565 280.758983 
L 231.295337 280.644836 
L 232.57824 280.12265 
L 234.132915 279.403297 
L 234.796486 279.065803 
L 235.68759 278.615954 
L 237.242264 277.762921 
L 237.720099 277.486771 
L 238.796939 276.851116 
L 240.306253 275.907739 
L 240.351614 275.878063 
L 241.906289 274.839224 
L 242.64136 274.328706 
L 243.460964 273.717833 
L 244.710481 272.749674 
L 245.015638 272.492348 
L 246.521178 271.170642 
L 246.570313 271.123424 
L 248.097077 269.591609 
L 248.124988 269.560988 
L 249.473033 268.012577 
L 249.679663 267.753962 
L 250.686385 266.433545 
L 251.234338 265.651375 
L 251.768582 264.854513 
L 252.739894 263.27548 
L 252.789012 263.188934 
L 253.610499 261.696448 
L 254.343687 260.232399 
L 254.40036 260.117416 
L 255.124832 258.538383 
L 255.800459 256.959351 
L 255.898362 256.720003 
L 256.455042 255.380319 
L 257.100318 253.801286 
L 257.453037 252.940616 
L 257.756086 252.222254 
L 258.431878 250.643222 
L 259.007712 249.309949 
L 259.116103 249.06419 
L 259.811842 247.485157 
L 260.482786 245.906125 
L 260.562386 245.712464 
L 261.131521 244.327093 
L 261.734285 242.74806 
L 262.117061 241.665664 
L 262.293217 241.169028 
L 262.822736 239.589996 
L 263.31518 238.010963 
L 263.671736 236.794607 
L 263.781677 236.431931 
L 264.23845 234.852899 
L 264.659061 233.273866 
L 265.03013 231.694834 
L 265.226411 230.676274 
L 265.341638 230.115802 
L 265.573901 228.53677 
L 265.694447 226.957737 
L 265.695614 225.378705 
L 265.583582 223.799673 
L 265.378994 222.22064 
L 265.226411 221.326305 
L 265.121401 220.641608 
L 264.851183 219.062576 
L 264.58519 217.483543 
L 264.340189 215.904511 
L 264.120512 214.325479 
L 263.920024 212.746447 
L 263.725736 211.167414 
L 263.671736 210.754682 
L 263.532188 209.588382 
L 263.318104 208.00935 
L 263.064857 206.430317 
L 262.759038 204.851285 
L 262.388858 203.272253 
L 262.117061 202.292743 
L 261.954576 201.69322 
L 261.461264 200.114188 
L 260.889306 198.535156 
L 260.562386 197.724901 
L 260.251997 196.956123 
L 259.558043 195.377091 
L 259.007712 194.224673 
L 258.801842 193.798059 
L 258.002529 192.219027 
L 257.453037 191.19797 
L 257.147496 190.639994 
L 256.241399 189.060962 
L 255.898362 188.494061 
L 255.266689 187.48193 
L 254.343687 186.099198 
L 254.205735 185.902897 
L 253.025654 184.323865 
L 252.789012 184.028258 
L 251.671954 182.744833 
L 251.234338 182.277826 
L 250.068367 181.1658 
L 249.679663 180.819172 
L 248.124988 179.609244 
L 248.092207 179.586768 
L 246.570313 178.591638 
L 245.539714 178.007736 
L 245.015638 177.718073 
L 243.460964 176.936541 
L 242.371072 176.428704 
L 241.906289 176.211062 
L 240.351614 175.499509 
L 238.895378 174.849671 
L 238.796939 174.804661 
L 237.242264 174.084975 
L 235.68759 173.389103 
L 235.418545 173.270639 
L 234.132915 172.691309 
L 232.57824 172.040151 
L 231.676083 171.691607 
L 231.023565 171.434037 
L 229.46889 170.87556 
L 227.914216 170.380788 
L 226.985286 170.112574 
L 226.359541 169.927195 
L 224.804866 169.500446 
L 223.250191 169.100871 
L 221.695516 168.714629 
L 220.966333 168.533542 
L 220.140842 168.320398 
L 218.586167 167.915746 
L 217.031492 167.510779 
L 215.476817 167.109142 
L 214.868171 166.95451 
L 213.922142 166.701238 
L 212.367468 166.30295 
L 210.812793 165.934237 
L 209.258118 165.603582 
L 208.017592 165.375477 
L 207.703443 165.31362 
L 206.148768 165.060782 
L 204.594094 164.870785 
L 203.039419 164.751508 
L 201.484744 164.713207 
L 199.930069 164.769416 
L 198.375394 164.93718 
L 196.82072 165.23628 
L 196.325886 165.375477 
L 195.266045 165.661588 
L 193.71137 166.229932 
L 192.169288 166.95451 
L 192.156695 166.960246 
L 190.60202 167.776385 
L 189.336762 168.533542 
L 189.047346 168.701623 
L 187.492671 169.648404 
L 186.743165 170.112574 
L 185.937996 170.595738 
L 184.383321 171.501074 
L 184.030802 171.691607 
L 182.828646 172.322175 
L 181.273972 173.065358 
L 180.791761 173.270639 
L 179.719297 173.71775 
L 178.164622 174.304455 
L 176.637165 174.849671 
L 176.609947 174.859378 
L 175.055272 175.411777 
L 173.500597 176.013846 
L 172.56406 176.428704 
L 171.945923 176.713239 
L 170.391248 177.561111 
L 169.706871 178.007736 
L 168.836573 178.622327 
L 167.69385 179.586768 
L 167.281898 179.973713 
L 166.190925 181.1658 
L 165.727223 181.742264 
L 165.010673 182.744833 
L 164.172549 184.093618 
L 164.040795 184.323865 
L 163.22902 185.902897 
L 162.617874 187.231104 
L 162.506451 187.48193 
L 161.844158 189.060962 
L 161.202599 190.639994 
L 161.063199 190.98005 
L 160.547358 192.219027 
L 159.855642 193.798059 
L 159.508524 194.535027 
L 159.096643 195.377091 
L 158.261208 196.956123 
L 157.953849 197.497327 
L 157.348744 198.535156 
L 156.399175 200.106114 
L 156.394277 200.114188 
L 155.448425 201.69322 
L 154.8445 202.759913 
L 154.566564 203.272253 
L 153.793191 204.851285 
L 153.289825 206.04087 
L 153.134736 206.430317 
L 152.594996 208.00935 
L 152.149466 209.588382 
L 151.781785 211.167414 
L 151.73515 211.405542 
L 151.478854 212.746447 
L 151.230048 214.325479 
L 151.032036 215.904511 
L 150.885913 217.483543 
L 150.794567 219.062576 
L 150.759872 220.641608 
L 150.780227 222.22064 
L 150.849092 223.799673 
L 150.954874 225.378705 
L 151.082215 226.957737 
L 151.214405 228.53677 
L 151.33645 230.115802 
L 151.438203 231.694834 
L 151.517066 233.273866 
L 151.579846 234.852899 
L 151.643576 236.431931 
L 151.73515 238.010963 
L 151.73515 238.010963 
L 151.886451 239.589996 
L 152.14171 241.169028 
L 152.542697 242.74806 
L 153.124504 244.327093 
L 153.289825 244.672535 
L 153.895689 245.906125 
L 154.8445 247.46807 
L 154.854834 247.485157 
L 155.928768 249.06419 
L 156.399175 249.701216 
L 157.061039 250.643222 
L 157.953849 251.873633 
L 158.190345 252.222254 
L 159.262312 253.801286 
L 159.508524 254.17188 
L 160.257058 255.380319 
L 161.063199 256.735868 
L 161.187862 256.959351 
L 162.022455 258.538383 
L 162.617874 259.751233 
L 162.788511 260.117416 
L 163.467765 261.696448 
L 164.09589 263.27548 
L 164.172549 263.479225 
L 164.675828 264.854513 
L 165.260389 266.433545 
L 165.727223 267.598803 
L 165.894357 268.012577 
L 166.635036 269.591609 
L 167.281898 270.716796 
L 167.558231 271.170642 
L 168.752457 272.749674 
L 168.836573 272.842131 
L 170.342859 274.328706 
L 170.391248 274.36942 
L 171.945923 275.535971 
L 172.522918 275.907739 
L 173.500597 276.478924 
L 175.055272 277.250572 
L 175.612687 277.486771 
L 176.609947 277.893701 
L 178.164622 278.434783 
L 179.719297 278.897763 
L 180.345228 279.065803 
L 181.273972 279.318799 
L 182.828646 279.719208 
L 184.383321 280.11714 
L 185.937996 280.533701 
L 186.319424 280.644836 
L 187.492671 280.996585 
L 189.047346 281.496541 
L 190.60202 282.0249 
L 191.16521 282.223868 
L 192.156695 282.580541 
L 193.71137 283.135191 
L 195.266045 283.666386 
L 195.696712 283.8029 
L 196.82072 284.166588 
L 198.375394 284.612521 
L 199.930069 284.992045 
L 201.484744 285.297089 
L 202.090051 285.381933 
L 203.039419 285.522525 
z
" clip-path="url(#p31409319cf)" style="fill: none; stroke: #1f77b4; stroke-width: 1.5"/>
   </g>
   <g id="PathCollection_4">
    <path d="M 201.484744 277.56102 
L 203.039419 277.605388 
L 204.594094 277.534601 
L 205.027007 277.486771 
L 206.148768 277.367246 
L 207.703443 277.131317 
L 209.258118 276.85157 
L 210.812793 276.550365 
L 212.367468 276.245554 
L 213.922142 275.950168 
L 214.16041 275.907739 
L 215.476817 275.692066 
L 217.031492 275.456206 
L 218.586167 275.236101 
L 220.140842 275.02432 
L 221.695516 274.808598 
L 223.250191 274.571903 
L 224.611513 274.328706 
L 224.804866 274.294587 
L 226.359541 273.960116 
L 227.914216 273.534564 
L 229.46889 272.997105 
L 230.058591 272.749674 
L 231.023565 272.328075 
L 232.57824 271.510627 
L 233.137144 271.170642 
L 234.132915 270.521725 
L 235.388313 269.591609 
L 235.68759 269.350478 
L 237.201537 268.012577 
L 237.242264 267.973113 
L 238.737941 266.433545 
L 238.796939 266.366756 
L 240.089151 264.854513 
L 240.351614 264.516492 
L 241.303785 263.27548 
L 241.906289 262.409914 
L 242.403901 261.696448 
L 243.400935 260.117416 
L 243.460964 260.013949 
L 244.324289 258.538383 
L 245.015638 257.225888 
L 245.157042 256.959351 
L 245.93871 255.380319 
L 246.570313 254.01556 
L 246.669884 253.801286 
L 247.39729 252.222254 
L 248.121334 250.643222 
L 248.124988 250.635654 
L 248.885006 249.06419 
L 249.66568 247.485157 
L 249.679663 247.458203 
L 250.485594 245.906125 
L 251.234338 244.452135 
L 251.298943 244.327093 
L 252.110966 242.74806 
L 252.789012 241.340585 
L 252.872068 241.169028 
L 253.590311 239.589996 
L 254.228599 238.010963 
L 254.343687 237.690964 
L 254.803914 236.431931 
L 255.30078 234.852899 
L 255.718384 233.273866 
L 255.898362 232.441591 
L 256.065145 231.694834 
L 256.34028 230.115802 
L 256.541056 228.53677 
L 256.674885 226.957737 
L 256.755108 225.378705 
L 256.801297 223.799673 
L 256.836342 222.22064 
L 256.88081 220.641608 
L 256.946971 219.062576 
L 257.035308 217.483543 
L 257.134802 215.904511 
L 257.226149 214.325479 
L 257.286022 212.746447 
L 257.290822 211.167414 
L 257.219282 209.588382 
L 257.054044 208.00935 
L 256.782575 206.430317 
L 256.397775 204.851285 
L 255.898362 203.272253 
L 255.898362 203.272253 
L 255.263395 201.69322 
L 254.52939 200.114188 
L 254.343687 199.747541 
L 253.681821 198.535156 
L 252.789012 196.994788 
L 252.764839 196.956123 
L 251.756807 195.377091 
L 251.234338 194.57521 
L 250.691228 193.798059 
L 249.679663 192.379245 
L 249.55697 192.219027 
L 248.309629 190.639994 
L 248.124988 190.416793 
L 246.907689 189.060962 
L 246.570313 188.709113 
L 245.288715 187.48193 
L 245.015638 187.240003 
L 243.460964 185.968647 
L 243.375799 185.902897 
L 241.906289 184.855831 
L 241.122509 184.323865 
L 240.351614 183.837482 
L 238.796939 182.884812 
L 238.565406 182.744833 
L 237.242264 181.988824 
L 235.763661 181.1658 
L 235.68759 181.12518 
L 234.132915 180.314767 
L 232.661344 179.586768 
L 232.57824 179.546706 
L 231.023565 178.844611 
L 229.46889 178.200395 
L 228.959022 178.007736 
L 227.914216 177.620636 
L 226.359541 177.096689 
L 224.804866 176.610347 
L 224.196881 176.428704 
L 223.250191 176.15279 
L 221.695516 175.708657 
L 220.140842 175.261332 
L 218.740569 174.849671 
L 218.586167 174.805528 
L 217.031492 174.349094 
L 215.476817 173.889569 
L 213.922142 173.435947 
L 213.340344 173.270639 
L 212.367468 172.998922 
L 210.812793 172.589754 
L 209.258118 172.220949 
L 207.703443 171.905044 
L 206.380179 171.691607 
L 206.148768 171.653839 
L 204.594094 171.477937 
L 203.039419 171.396071 
L 201.484744 171.422589 
L 199.930069 171.572164 
L 199.274766 171.691607 
L 198.375394 171.854522 
L 196.82072 172.2781 
L 195.266045 172.853057 
L 194.35943 173.270639 
L 193.71137 173.574761 
L 192.156695 174.425845 
L 191.460741 174.849671 
L 190.60202 175.389022 
L 189.047346 176.427394 
L 189.045395 176.428704 
L 187.492671 177.51031 
L 186.762543 178.007736 
L 185.937996 178.595159 
L 184.462663 179.586768 
L 184.383321 179.642983 
L 182.828646 180.646703 
L 181.943895 181.1658 
L 181.273972 181.585836 
L 179.719297 182.475636 
L 179.214445 182.744833 
L 178.164622 183.358675 
L 176.609947 184.265019 
L 176.512223 184.323865 
L 175.055272 185.316562 
L 174.284156 185.902897 
L 173.500597 186.590724 
L 172.612589 187.48193 
L 171.945923 188.262907 
L 171.349674 189.060962 
L 170.391248 190.550121 
L 170.339745 190.639994 
L 169.524527 192.219027 
L 168.836573 193.673604 
L 168.781912 193.798059 
L 168.101734 195.377091 
L 167.405715 196.956123 
L 167.281898 197.222619 
L 166.681888 198.535156 
L 165.888045 200.114188 
L 165.727223 200.408158 
L 165.016699 201.69322 
L 164.172549 203.093379 
L 164.063543 203.272253 
L 163.055802 204.851285 
L 162.617874 205.525026 
L 162.040921 206.430317 
L 161.068106 208.00935 
L 161.063199 208.01782 
L 160.21111 209.588382 
L 159.508524 211.060886 
L 159.461972 211.167414 
L 158.863875 212.746447 
L 158.378926 214.325479 
L 158.005777 215.904511 
L 157.953849 216.209581 
L 157.753157 217.483543 
L 157.603327 219.062576 
L 157.549735 220.641608 
L 157.585568 222.22064 
L 157.700547 223.799673 
L 157.881853 225.378705 
L 157.953849 225.866015 
L 158.119296 226.957737 
L 158.397954 228.53677 
L 158.708605 230.115802 
L 159.050369 231.694834 
L 159.429256 233.273866 
L 159.508524 233.575872 
L 159.855939 234.852899 
L 160.340936 236.431931 
L 160.899544 238.010963 
L 161.063199 238.425381 
L 161.529979 239.589996 
L 162.231959 241.169028 
L 162.617874 241.969752 
L 162.983605 242.74806 
L 163.759775 244.327093 
L 164.172549 245.138625 
L 164.540025 245.906125 
L 165.309255 247.485157 
L 165.727223 248.32668 
L 166.068644 249.06419 
L 166.816431 250.643222 
L 167.281898 251.600634 
L 167.566706 252.222254 
L 168.309224 253.801286 
L 168.836573 254.90075 
L 169.057708 255.380319 
L 169.788409 256.959351 
L 170.391248 258.264742 
L 170.515941 258.538383 
L 171.218952 260.117416 
L 171.925036 261.696448 
L 171.945923 261.743804 
L 172.646639 263.27548 
L 173.432419 264.854513 
L 173.500597 264.980264 
L 174.365167 266.433545 
L 175.055272 267.404815 
L 175.551205 268.012577 
L 176.609947 269.092995 
L 177.195823 269.591609 
L 178.164622 270.292879 
L 179.66395 271.170642 
L 179.719297 271.199188 
L 181.273972 271.880246 
L 182.828646 272.446272 
L 183.781665 272.749674 
L 184.383321 272.931471 
L 185.937996 273.370869 
L 187.492671 273.806077 
L 189.047346 274.260417 
L 189.270694 274.328706 
L 190.60202 274.731509 
L 192.156695 275.232159 
L 193.71137 275.755415 
L 194.173527 275.907739 
L 195.266045 276.25784 
L 196.82072 276.716611 
L 198.375394 277.105555 
L 199.930069 277.394175 
L 200.782204 277.486771 
L 201.484744 277.56102 
z
" clip-path="url(#p31409319cf)" style="fill: none; stroke: #1f77b4; stroke-width: 1.5"/>
   </g>
   <g id="PathCollection_5">
    <path d="M 201.484744 269.99438 
L 203.039419 270.370453 
L 204.594094 270.637365 
L 206.148768 270.796687 
L 207.703443 270.860127 
L 209.258118 270.842432 
L 210.812793 270.757347 
L 212.367468 270.615993 
L 213.922142 270.426573 
L 215.476817 270.19461 
L 217.031492 269.923245 
L 218.586167 269.613317 
L 218.68595 269.591609 
L 220.140842 269.263695 
L 221.695516 268.86487 
L 223.250191 268.406692 
L 224.417985 268.012577 
L 224.804866 267.870207 
L 226.359541 267.221943 
L 227.914216 266.45147 
L 227.946149 266.433545 
L 229.46889 265.485879 
L 230.34663 264.854513 
L 231.023565 264.312098 
L 232.177069 263.27548 
L 232.57824 262.874435 
L 233.654813 261.696448 
L 234.132915 261.117251 
L 234.902627 260.117416 
L 235.68759 258.996053 
L 235.991932 258.538383 
L 236.959468 256.959351 
L 237.242264 256.466588 
L 237.845029 255.380319 
L 238.685414 253.801286 
L 238.796939 253.591401 
L 239.507754 252.222254 
L 240.348282 250.643222 
L 240.351614 250.637326 
L 241.222295 249.06419 
L 241.906289 247.897017 
L 242.142946 247.485157 
L 243.097936 245.906125 
L 243.460964 245.323779 
L 244.066647 244.327093 
L 245.015638 242.74806 
L 245.015638 242.74806 
L 245.915004 241.169028 
L 246.570313 239.911821 
L 246.735611 239.589996 
L 247.462307 238.010963 
L 248.078569 236.431931 
L 248.124988 236.287536 
L 248.590185 234.852899 
L 248.990673 233.273866 
L 249.28626 231.694834 
L 249.488318 230.115802 
L 249.613456 228.53677 
L 249.679663 227.056534 
L 249.684259 226.957737 
L 249.729413 225.378705 
L 249.777237 223.799673 
L 249.855432 222.22064 
L 249.983093 220.641608 
L 250.165952 219.062576 
L 250.394305 217.483543 
L 250.643973 215.904511 
L 250.879609 214.325479 
L 251.059322 212.746447 
L 251.139782 211.167414 
L 251.081352 209.588382 
L 250.853 208.00935 
L 250.436627 206.430317 
L 249.83013 204.851285 
L 249.679663 204.541935 
L 249.017674 203.272253 
L 248.124988 201.82698 
L 248.03825 201.69322 
L 246.909361 200.114188 
L 246.570313 199.668141 
L 245.679273 198.535156 
L 245.015638 197.725147 
L 244.368299 196.956123 
L 243.460964 195.915221 
L 242.977774 195.377091 
L 241.906289 194.227701 
L 241.49031 193.798059 
L 240.351614 192.670064 
L 239.873957 192.219027 
L 238.796939 191.246089 
L 238.08583 190.639994 
L 237.242264 189.95256 
L 236.070061 189.060962 
L 235.68759 188.78268 
L 234.132915 187.735653 
L 233.71429 187.48193 
L 232.57824 186.814763 
L 231.023565 186.003856 
L 230.80052 185.902897 
L 229.46889 185.313788 
L 227.914216 184.710461 
L 226.796702 184.323865 
L 226.359541 184.176208 
L 224.804866 183.688344 
L 223.250191 183.197224 
L 221.910703 182.744833 
L 221.695516 182.675242 
L 220.140842 182.122726 
L 218.586167 181.509496 
L 217.788742 181.1658 
L 217.031492 180.862284 
L 215.476817 180.203846 
L 214.038529 179.586768 
L 213.922142 179.540625 
L 212.367468 178.928793 
L 210.812793 178.355455 
L 209.76886 178.007736 
L 209.258118 177.848578 
L 207.703443 177.432701 
L 206.148768 177.109221 
L 204.594094 176.896187 
L 203.039419 176.811892 
L 201.484744 176.874019 
L 199.930069 177.097955 
L 198.375394 177.494645 
L 196.982504 178.007736 
L 196.82072 178.07182 
L 195.266045 178.856744 
L 194.059616 179.586768 
L 193.71137 179.814232 
L 192.156695 180.948087 
L 191.877181 181.1658 
L 190.60202 182.226895 
L 189.994668 182.744833 
L 189.047346 183.600487 
L 188.240916 184.323865 
L 187.492671 185.030827 
L 186.545196 185.902897 
L 185.937996 186.492936 
L 184.884901 187.48193 
L 184.383321 187.984614 
L 183.273719 189.060962 
L 182.828646 189.528987 
L 181.746242 190.639994 
L 181.273972 191.173533 
L 180.337882 192.219027 
L 179.719297 192.986296 
L 179.066927 193.798059 
L 178.164622 195.042806 
L 177.926381 195.377091 
L 176.881883 196.956123 
L 176.609947 197.390565 
L 175.907071 198.535156 
L 175.055272 199.976414 
L 174.975446 200.114188 
L 174.053265 201.69322 
L 173.500597 202.636507 
L 173.129661 203.272253 
L 172.191553 204.851285 
L 171.945923 205.259937 
L 171.232237 206.430317 
L 170.391248 207.806683 
L 170.264528 208.00935 
L 169.289962 209.588382 
L 168.836573 210.350494 
L 168.340405 211.167414 
L 167.444571 212.746447 
L 167.281898 213.063352 
L 166.637004 214.325479 
L 165.94723 215.904511 
L 165.727223 216.525535 
L 165.40197 217.483543 
L 165.007869 219.062576 
L 164.759437 220.641608 
L 164.649089 222.22064 
L 164.663111 223.799673 
L 164.784382 225.378705 
L 164.995957 226.957737 
L 165.284212 228.53677 
L 165.64057 230.115802 
L 165.727223 230.43918 
L 166.067252 231.694834 
L 166.553759 233.273866 
L 167.094964 234.852899 
L 167.281898 235.350897 
L 167.678934 236.431931 
L 168.290406 238.010963 
L 168.836573 239.379757 
L 168.916232 239.589996 
L 169.523162 241.169028 
L 170.12433 242.74806 
L 170.391248 243.448691 
L 170.705358 244.327093 
L 171.276135 245.906125 
L 171.862416 247.485157 
L 171.945923 247.699395 
L 172.457423 249.06419 
L 173.09195 250.643222 
L 173.500597 251.588776 
L 173.772465 252.222254 
L 174.501824 253.801286 
L 175.055272 254.920351 
L 175.290481 255.380319 
L 176.142813 256.959351 
L 176.609947 257.782353 
L 177.076985 258.538383 
L 178.113058 260.117416 
L 178.164622 260.192946 
L 179.3552 261.696448 
L 179.719297 262.122546 
L 180.92804 263.27548 
L 181.273972 263.580019 
L 182.828646 264.64944 
L 183.225853 264.854513 
L 184.383321 265.421985 
L 185.937996 265.985144 
L 187.492671 266.40126 
L 187.650772 266.433545 
L 189.047346 266.721687 
L 190.60202 266.998812 
L 192.156695 267.27818 
L 193.71137 267.60138 
L 195.266045 267.997364 
L 195.315919 268.012577 
L 196.82072 268.473149 
L 198.375394 269.000542 
L 199.930069 269.526022 
L 200.135529 269.591609 
L 201.484744 269.99438 
z
" clip-path="url(#p31409319cf)" style="fill: none; stroke: #1f77b4; stroke-width: 1.5"/>
   </g>
   <g id="PathCollection_6">
    <path d="M 206.148768 264.919141 
L 207.703443 265.358219 
L 209.258118 265.628251 
L 210.812793 265.742169 
L 212.367468 265.71361 
L 213.922142 265.553829 
L 215.476817 265.270703 
L 217.031492 264.868917 
L 217.076531 264.854513 
L 218.586167 264.326512 
L 220.140842 263.656752 
L 220.909017 263.27548 
L 221.695516 262.830523 
L 223.250191 261.83594 
L 223.452839 261.696448 
L 224.804866 260.617261 
L 225.389873 260.117416 
L 226.359541 259.159201 
L 226.961268 258.538383 
L 227.914216 257.41899 
L 228.293266 256.959351 
L 229.46889 255.380319 
L 229.46889 255.380319 
L 230.551753 253.801286 
L 231.023565 253.092317 
L 231.586348 252.222254 
L 232.57824 250.708252 
L 232.619428 250.643222 
L 233.678145 249.06419 
L 234.132915 248.425016 
L 234.781058 247.485157 
L 235.68759 246.249066 
L 235.930829 245.906125 
L 237.10713 244.327093 
L 237.242264 244.149702 
L 238.27076 242.74806 
L 238.796939 242.016713 
L 239.38119 241.169028 
L 240.351614 239.663628 
L 240.397017 239.589996 
L 241.276831 238.010963 
L 241.906289 236.671564 
L 242.014904 236.431931 
L 242.599998 234.852899 
L 243.042797 233.273866 
L 243.355087 231.694834 
L 243.460964 230.871912 
L 243.55834 230.115802 
L 243.678284 228.53677 
L 243.741925 226.957737 
L 243.778675 225.378705 
L 243.815789 223.799673 
L 243.87485 222.22064 
L 243.968662 220.641608 
L 244.09899 219.062576 
L 244.255391 217.483543 
L 244.41524 215.904511 
L 244.545167 214.325479 
L 244.604043 212.746447 
L 244.547534 211.167414 
L 244.33373 209.588382 
L 243.928867 208.00935 
L 243.460964 206.801289 
L 243.319944 206.430317 
L 242.527958 204.851285 
L 241.906289 203.851776 
L 241.547773 203.272253 
L 240.404628 201.69322 
L 240.351614 201.626874 
L 239.109417 200.114188 
L 238.796939 199.764028 
L 237.631245 198.535156 
L 237.242264 198.147391 
L 235.924156 196.956123 
L 235.68759 196.748808 
L 234.132915 195.548853 
L 233.870091 195.377091 
L 232.57824 194.529326 
L 231.205343 193.798059 
L 231.023565 193.699035 
L 229.46889 193.009892 
L 227.914216 192.465782 
L 227.049088 192.219027 
L 226.359541 192.011594 
L 224.804866 191.596287 
L 223.250191 191.182105 
L 221.695516 190.720886 
L 221.464393 190.639994 
L 220.140842 190.150458 
L 218.586167 189.470487 
L 217.772514 189.060962 
L 217.031492 188.676732 
L 215.476817 187.791889 
L 214.957753 187.48193 
L 213.922142 186.865725 
L 212.367468 185.946171 
L 212.290556 185.902897 
L 210.812793 185.099834 
L 209.258118 184.343117 
L 209.211024 184.323865 
L 207.703443 183.742405 
L 206.148768 183.289014 
L 204.594094 183.009425 
L 203.039419 182.93051 
L 201.484744 183.074858 
L 199.930069 183.455704 
L 198.375394 184.072631 
L 197.907806 184.323865 
L 196.82072 184.944522 
L 195.445857 185.902897 
L 195.266045 186.032016 
L 193.71137 187.310802 
L 193.521723 187.48193 
L 192.156695 188.730318 
L 191.818138 189.060962 
L 190.60202 190.269174 
L 190.246668 190.639994 
L 189.047346 191.936147 
L 188.794727 192.219027 
L 187.492671 193.764311 
L 187.464821 193.798059 
L 186.248448 195.377091 
L 185.937996 195.814939 
L 185.130929 196.956123 
L 184.383321 198.101508 
L 184.096533 198.535156 
L 183.111504 200.114188 
L 182.828646 200.587099 
L 182.150429 201.69322 
L 181.273972 203.16011 
L 181.205516 203.272253 
L 180.251596 204.851285 
L 179.719297 205.745894 
L 179.306783 206.430317 
L 178.377392 208.00935 
L 178.164622 208.384908 
L 177.476535 209.588382 
L 176.62803 211.167414 
L 176.609947 211.203796 
L 175.829365 212.746447 
L 175.110201 214.325479 
L 175.055272 214.462316 
L 174.458182 215.904511 
L 173.899471 217.483543 
L 173.500597 218.859134 
L 173.439667 219.062576 
L 173.070953 220.641608 
L 172.809864 222.22064 
L 172.65354 223.799673 
L 172.596192 225.378705 
L 172.630243 226.957737 
L 172.747228 228.53677 
L 172.938142 230.115802 
L 173.193273 231.694834 
L 173.500597 233.266852 
L 173.501879 233.273866 
L 173.839369 234.852899 
L 174.205428 236.431931 
L 174.590542 238.010963 
L 174.988683 239.589996 
L 175.055272 239.841569 
L 175.387237 241.169028 
L 175.801249 242.74806 
L 176.242418 244.327093 
L 176.609947 245.532439 
L 176.722743 245.906125 
L 177.258849 247.485157 
L 177.872121 249.06419 
L 178.164622 249.728731 
L 178.590567 250.643222 
L 179.434891 252.222254 
L 179.719297 252.698119 
L 180.463901 253.801286 
L 181.273972 254.871876 
L 181.736367 255.380319 
L 182.828646 256.47687 
L 183.451502 256.959351 
L 184.383321 257.636464 
L 185.937996 258.439408 
L 186.220114 258.538383 
L 187.492671 258.976888 
L 189.047346 259.319092 
L 190.60202 259.539074 
L 192.156695 259.710282 
L 193.71137 259.901355 
L 194.954366 260.117416 
L 195.266045 260.175707 
L 196.82072 260.601942 
L 198.375394 261.176635 
L 199.515699 261.696448 
L 199.930069 261.894656 
L 201.484744 262.72551 
L 202.507212 263.27548 
L 203.039419 263.557116 
L 204.594094 264.311643 
L 205.974272 264.854513 
L 206.148768 264.919141 
z
" clip-path="url(#p31409319cf)" style="fill: none; stroke: #1f77b4; stroke-width: 1.5"/>
   </g>
   <g id="PathCollection_7">
    <path d="M 210.812793 260.228142 
L 212.367468 260.232655 
L 213.142623 260.117416 
L 213.922142 259.993973 
L 215.476817 259.494953 
L 217.031492 258.733507 
L 217.341396 258.538383 
L 218.586167 257.659849 
L 219.40678 256.959351 
L 220.140842 256.259937 
L 220.964155 255.380319 
L 221.695516 254.525833 
L 222.279889 253.801286 
L 223.250191 252.527348 
L 223.477609 252.222254 
L 224.638008 250.643222 
L 224.804866 250.418855 
L 225.816541 249.06419 
L 226.359541 248.35041 
L 227.026316 247.485157 
L 227.914216 246.358892 
L 228.276195 245.906125 
L 229.46889 244.438474 
L 229.560416 244.327093 
L 230.86592 242.74806 
L 231.023565 242.553067 
L 232.152842 241.169028 
L 232.57824 240.619067 
L 233.37377 239.589996 
L 234.132915 238.515693 
L 234.484428 238.010963 
L 235.451895 236.431931 
L 235.68759 235.976494 
L 236.251942 234.852899 
L 236.883423 233.273866 
L 237.242264 232.093326 
L 237.359108 231.694834 
L 237.702411 230.115802 
L 237.942703 228.53677 
L 238.109635 226.957737 
L 238.231096 225.378705 
L 238.330564 223.799673 
L 238.425096 222.22064 
L 238.523798 220.641608 
L 238.626685 219.062576 
L 238.723986 217.483543 
L 238.796196 215.904511 
L 238.796939 215.842137 
L 238.815501 214.325479 
L 238.796939 213.894142 
L 238.747219 212.746447 
L 238.555664 211.167414 
L 238.20576 209.588382 
L 237.667107 208.00935 
L 237.242264 207.102682 
L 236.909104 206.430317 
L 235.904707 204.851285 
L 235.68759 204.567084 
L 234.580979 203.272253 
L 234.132915 202.817609 
L 232.826117 201.69322 
L 232.57824 201.49886 
L 231.023565 200.500859 
L 230.247294 200.114188 
L 229.46889 199.740447 
L 227.914216 199.168865 
L 226.359541 198.734769 
L 225.47196 198.535156 
L 224.804866 198.381794 
L 223.250191 198.057775 
L 221.695516 197.71994 
L 220.140842 197.327807 
L 218.919682 196.956123 
L 218.586167 196.84874 
L 217.031492 196.258345 
L 215.476817 195.579536 
L 215.047361 195.377091 
L 213.922142 194.818681 
L 212.367468 194.032471 
L 211.881405 193.798059 
L 210.812793 193.258339 
L 209.258118 192.560095 
L 208.325238 192.219027 
L 207.703443 191.981118 
L 206.148768 191.557672 
L 204.594094 191.330992 
L 203.039419 191.320857 
L 201.484744 191.539108 
L 199.930069 191.99055 
L 199.408108 192.219027 
L 198.375394 192.661377 
L 196.82072 193.557651 
L 196.485005 193.798059 
L 195.266045 194.686723 
L 194.47753 195.377091 
L 193.71137 196.084899 
L 192.894755 196.956123 
L 192.156695 197.811502 
L 191.593139 198.535156 
L 190.60202 199.933704 
L 190.481619 200.114188 
L 189.49778 201.69322 
L 189.047346 202.462033 
L 188.579222 203.272253 
L 187.693292 204.851285 
L 187.492671 205.211466 
L 186.803093 206.430317 
L 185.937996 207.980764 
L 185.921635 208.00935 
L 185.025303 209.588382 
L 184.383321 210.777477 
L 184.168031 211.167414 
L 183.350838 212.746447 
L 182.828646 213.873532 
L 182.614911 214.325479 
L 181.955456 215.904511 
L 181.401655 217.483543 
L 181.273972 217.919969 
L 180.928211 219.062576 
L 180.542826 220.641608 
L 180.242902 222.22064 
L 180.018453 223.799673 
L 179.860609 225.378705 
L 179.76197 226.957737 
L 179.719297 228.438582 
L 179.716363 228.53677 
L 179.719297 230.115802 
L 179.719297 230.115802 
L 179.766283 231.694834 
L 179.854295 233.273866 
L 179.98133 234.852899 
L 180.147095 236.431931 
L 180.353699 238.010963 
L 180.606368 239.589996 
L 180.914048 241.169028 
L 181.273972 242.682127 
L 181.29003 242.74806 
L 181.764154 244.327093 
L 182.359997 245.906125 
L 182.828646 246.912059 
L 183.129116 247.485157 
L 184.155472 249.06419 
L 184.383321 249.357551 
L 185.619458 250.643222 
L 185.937996 250.924679 
L 187.492671 251.970449 
L 188.006789 252.222254 
L 189.047346 252.681429 
L 190.60202 253.179508 
L 192.156695 253.556795 
L 193.299109 253.801286 
L 193.71137 253.887871 
L 195.266045 254.237716 
L 196.82072 254.642777 
L 198.375394 255.131216 
L 199.036245 255.380319 
L 199.930069 255.737245 
L 201.484744 256.453084 
L 202.493745 256.959351 
L 203.039419 257.250518 
L 204.594094 258.085072 
L 205.503872 258.538383 
L 206.148768 258.868027 
L 207.703443 259.522983 
L 209.258118 259.987099 
L 210.090616 260.117416 
L 210.812793 260.228142 
z
" clip-path="url(#p31409319cf)" style="fill: none; stroke: #1f77b4; stroke-width: 1.5"/>
   </g>
   <g id="PathCollection_8">
    <path d="M 206.148768 252.454944 
L 207.703443 252.942091 
L 209.258118 253.261597 
L 210.812793 253.346113 
L 212.367468 253.135633 
L 213.922142 252.584065 
L 214.551624 252.222254 
L 215.476817 251.668073 
L 216.733364 250.643222 
L 217.031492 250.393859 
L 218.350462 249.06419 
L 218.586167 248.824837 
L 219.767379 247.485157 
L 220.140842 247.0635 
L 221.10595 245.906125 
L 221.695516 245.202625 
L 222.409411 244.327093 
L 223.250191 243.289175 
L 223.685744 242.74806 
L 224.804866 241.319103 
L 224.923258 241.169028 
L 226.108822 239.589996 
L 226.359541 239.228789 
L 227.218542 238.010963 
L 227.914216 236.908961 
L 228.221839 236.431931 
L 229.110227 234.852899 
L 229.46889 234.100595 
L 229.870004 233.273866 
L 230.49945 231.694834 
L 231.002465 230.115802 
L 231.023565 230.032096 
L 231.399247 228.53677 
L 231.703567 226.957737 
L 231.93696 225.378705 
L 232.118154 223.799673 
L 232.261152 222.22064 
L 232.373574 220.641608 
L 232.454886 219.062576 
L 232.494507 217.483543 
L 232.470077 215.904511 
L 232.346477 214.325479 
L 232.076348 212.746447 
L 231.602675 211.167414 
L 231.023565 209.91752 
L 230.837642 209.588382 
L 229.580088 208.00935 
L 229.46889 207.902063 
L 227.914216 206.74591 
L 227.333211 206.430317 
L 226.359541 205.985759 
L 224.804866 205.462446 
L 223.250191 205.065333 
L 222.259349 204.851285 
L 221.695516 204.737451 
L 220.140842 204.426044 
L 218.586167 204.080557 
L 217.031492 203.674833 
L 215.719213 203.272253 
L 215.476817 203.19692 
L 213.922142 202.650879 
L 212.367468 202.056863 
L 211.422106 201.69322 
L 210.812793 201.45442 
L 209.258118 200.894975 
L 207.703443 200.432663 
L 206.148768 200.114188 
L 206.148768 200.114188 
L 204.594094 199.977861 
L 203.039419 200.056827 
L 202.759166 200.114188 
L 201.484744 200.382539 
L 199.930069 200.991748 
L 198.750875 201.69322 
L 198.375394 201.929521 
L 196.82072 203.252489 
L 196.801989 203.272253 
L 195.388333 204.851285 
L 195.266045 204.99453 
L 194.203636 206.430317 
L 193.71137 207.119041 
L 193.129133 208.00935 
L 192.156695 209.539367 
L 192.126999 209.588382 
L 191.189389 211.167414 
L 190.60202 212.215556 
L 190.309919 212.746447 
L 189.506268 214.325479 
L 189.047346 215.338606 
L 188.791298 215.904511 
L 188.17425 217.483543 
L 187.663997 219.062576 
L 187.492671 219.719427 
L 187.249077 220.641608 
L 186.924305 222.22064 
L 186.679209 223.799673 
L 186.499093 225.378705 
L 186.37076 226.957737 
L 186.284012 228.53677 
L 186.232883 230.115802 
L 186.216453 231.694834 
L 186.239124 233.273866 
L 186.310506 234.852899 
L 186.44527 236.431931 
L 186.6634 238.010963 
L 186.99126 239.589996 
L 187.463708 241.169028 
L 187.492671 241.241291 
L 188.174743 242.74806 
L 189.047346 244.131097 
L 189.193283 244.327093 
L 190.60202 245.764538 
L 190.771706 245.906125 
L 192.156695 246.837741 
L 193.348205 247.485157 
L 193.71137 247.653835 
L 195.266045 248.299558 
L 196.82072 248.890683 
L 197.278956 249.06419 
L 198.375394 249.45415 
L 199.930069 250.027851 
L 201.484744 250.629551 
L 201.519422 250.643222 
L 203.039419 251.25033 
L 204.594094 251.871467 
L 205.546049 252.222254 
L 206.148768 252.454944 
z
" clip-path="url(#p31409319cf)" style="fill: none; stroke: #1f77b4; stroke-width: 1.5"/>
   </g>
   <g id="PathCollection_9">
    <path d="M 203.039419 244.329152 
L 204.594094 244.893203 
L 206.148768 245.336489 
L 207.703443 245.610469 
L 209.258118 245.660609 
L 210.812793 245.438121 
L 212.367468 244.911557 
L 213.45441 244.327093 
L 213.922142 244.063446 
L 215.476817 242.903176 
L 215.64795 242.74806 
L 217.031492 241.454619 
L 217.300176 241.169028 
L 218.586167 239.743194 
L 218.712699 239.589996 
L 219.930941 238.010963 
L 220.140842 237.711779 
L 220.982542 236.431931 
L 221.695516 235.197895 
L 221.887062 234.852899 
L 222.622764 233.273866 
L 223.220863 231.694834 
L 223.250191 231.592953 
L 223.669379 230.115802 
L 223.991597 228.53677 
L 224.197779 226.957737 
L 224.295338 225.378705 
L 224.287318 223.799673 
L 224.169443 222.22064 
L 223.926064 220.641608 
L 223.524159 219.062576 
L 223.250191 218.325661 
L 222.875187 217.483543 
L 221.844594 215.904511 
L 221.695516 215.735273 
L 220.140842 214.339658 
L 220.121262 214.325479 
L 218.586167 213.421449 
L 217.184673 212.746447 
L 217.031492 212.682318 
L 215.476817 212.075987 
L 213.922142 211.507033 
L 212.960159 211.167414 
L 212.367468 210.967132 
L 210.812793 210.46281 
L 209.258118 210.004838 
L 207.703443 209.638627 
L 207.332613 209.588382 
L 206.148768 209.430309 
L 204.594094 209.435899 
L 203.73507 209.588382 
L 203.039419 209.719134 
L 201.484744 210.343674 
L 200.192697 211.167414 
L 199.930069 211.347832 
L 198.430332 212.746447 
L 198.375394 212.802954 
L 197.177214 214.325479 
L 196.82072 214.840313 
L 196.184583 215.904511 
L 195.383591 217.483543 
L 195.266045 217.770841 
L 194.785961 219.062576 
L 194.337037 220.641608 
L 194.017128 222.22064 
L 193.811693 223.799673 
L 193.71137 225.248866 
L 193.70285 225.378705 
L 193.672258 226.957737 
L 193.697023 228.53677 
L 193.71137 228.865034 
L 193.772129 230.115802 
L 193.897929 231.694834 
L 194.086359 233.273866 
L 194.365591 234.852899 
L 194.779859 236.431931 
L 195.266045 237.698702 
L 195.401821 238.010963 
L 196.367684 239.589996 
L 196.82072 240.129994 
L 197.809775 241.169028 
L 198.375394 241.626859 
L 199.930069 242.74806 
L 199.930069 242.74806 
L 201.484744 243.584602 
L 203.034533 244.327093 
L 203.039419 244.329152 
z
" clip-path="url(#p31409319cf)" style="fill: none; stroke: #1f77b4; stroke-width: 1.5"/>
   </g>
   <g id="PathCollection_10"/>
   <g id="patch_3">
    <path d="M 55.345313 386.44 
L 55.345313 72.212571 
" style="fill: none; stroke: #000000; stroke-width: 0.8; stroke-linejoin: miter; stroke-linecap: square"/>
   </g>
   <g id="patch_4">
    <path d="M 55.345313 386.44 
L 364.725598 386.44 
" style="fill: none; stroke: #000000; stroke-width: 0.8; stroke-linejoin: miter; stroke-linecap: square"/>
   </g>
  </g>
  <g id="axes_2">
   <g id="patch_5">
    <path d="M 55.345313 61.377143 
L 364.725598 61.377143 
L 364.725598 7.2 
L 55.345313 7.2 
z
" style="fill: #ffffff"/>
   </g>
   <g id="matplotlib.axis_3">
    <g id="xtick_6">
     <g id="line2d_11">
      <g>
       <use xlink:href="#mfa9610258d" x="89.260603" y="61.377143" style="stroke: #000000; stroke-width: 0.8"/>
      </g>
     </g>
    </g>
    <g id="xtick_7">
     <g id="line2d_12">
      <g>
       <use xlink:href="#mfa9610258d" x="148.902505" y="61.377143" style="stroke: #000000; stroke-width: 0.8"/>
      </g>
     </g>
    </g>
    <g id="xtick_8">
     <g id="line2d_13">
      <g>
       <use xlink:href="#mfa9610258d" x="208.544408" y="61.377143" style="stroke: #000000; stroke-width: 0.8"/>
      </g>
     </g>
    </g>
    <g id="xtick_9">
     <g id="line2d_14">
      <g>
       <use xlink:href="#mfa9610258d" x="268.18631" y="61.377143" style="stroke: #000000; stroke-width: 0.8"/>
      </g>
     </g>
    </g>
    <g id="xtick_10">
     <g id="line2d_15">
      <g>
       <use xlink:href="#mfa9610258d" x="327.828213" y="61.377143" style="stroke: #000000; stroke-width: 0.8"/>
      </g>
     </g>
    </g>
   </g>
   <g id="matplotlib.axis_4">
    <g id="ytick_6"/>
    <g id="ytick_7"/>
   </g>
   <g id="line2d_16">
    <path d="M 61.421535 61.376566 
L 76.357607 61.280928 
L 91.29368 61.129557 
L 100.255323 61.003749 
L 107.723359 60.687235 
L 113.697788 60.235721 
L 119.672217 59.504836 
L 125.646646 58.510719 
L 130.127468 57.601041 
L 134.60829 56.43419 
L 137.595504 55.460984 
L 142.076326 53.705371 
L 145.06354 52.34412 
L 148.050755 50.805257 
L 151.037969 49.034536 
L 154.025184 46.996497 
L 158.506006 43.55788 
L 167.467649 36.545113 
L 183.897329 23.770569 
L 192.858972 16.351275 
L 195.846187 14.236103 
L 198.833401 12.482295 
L 201.820616 11.107657 
L 203.314223 10.576377 
L 204.80783 10.167053 
L 206.301437 9.896508 
L 207.795044 9.779836 
L 209.288652 9.827951 
L 210.782259 10.046939 
L 212.275866 10.438115 
L 213.769473 10.997103 
L 215.263081 11.711254 
L 218.250295 13.495715 
L 222.731117 16.407062 
L 225.718331 18.107229 
L 228.705546 19.734421 
L 231.69276 21.686336 
L 234.679975 24.192817 
L 240.654404 29.840398 
L 243.641618 32.233643 
L 252.603262 38.626418 
L 257.084083 42.494792 
L 260.071298 45.046475 
L 263.058512 47.316823 
L 266.045727 49.227291 
L 269.032941 50.811977 
L 272.020156 52.146747 
L 275.00737 53.290138 
L 279.488192 54.713912 
L 285.462621 56.276589 
L 294.424264 58.355453 
L 298.905086 59.208383 
L 303.385908 59.862453 
L 307.86673 60.313297 
L 313.841159 60.678812 
L 325.790017 61.12346 
L 334.75166 61.235727 
L 358.649376 61.376303 
L 358.649376 61.376303 
" clip-path="url(#p163ed521bb)" style="fill: none; stroke: #1f77b4; stroke-width: 1.5; stroke-linecap: square"/>
   </g>
   <g id="patch_6">
    <path d="M 55.345313 61.377143 
L 364.725598 61.377143 
" style="fill: none; stroke: #000000; stroke-width: 0.8; stroke-linejoin: miter; stroke-linecap: square"/>
   </g>
  </g>
  <g id="axes_3">
   <g id="patch_7">
    <path d="M 375.393884 386.44 
L 428.735312 386.44 
L 428.735312 72.212571 
L 375.393884 72.212571 
z
" style="fill: #ffffff"/>
   </g>
   <g id="matplotlib.axis_5">
    <g id="xtick_11"/>
    <g id="xtick_12"/>
   </g>
   <g id="matplotlib.axis_6">
    <g id="ytick_8">
     <g id="line2d_17">
      <g>
       <use xlink:href="#m8208946c69" x="375.393884" y="349.665214" style="stroke: #000000; stroke-width: 0.8"/>
      </g>
     </g>
    </g>
    <g id="ytick_9">
     <g id="line2d_18">
      <g>
       <use xlink:href="#m8208946c69" x="375.393884" y="287.794299" style="stroke: #000000; stroke-width: 0.8"/>
      </g>
     </g>
    </g>
    <g id="ytick_10">
     <g id="line2d_19">
      <g>
       <use xlink:href="#m8208946c69" x="375.393884" y="225.923385" style="stroke: #000000; stroke-width: 0.8"/>
      </g>
     </g>
    </g>
    <g id="ytick_11">
     <g id="line2d_20">
      <g>
       <use xlink:href="#m8208946c69" x="375.393884" y="164.052471" style="stroke: #000000; stroke-width: 0.8"/>
      </g>
     </g>
    </g>
    <g id="ytick_12">
     <g id="line2d_21">
      <g>
       <use xlink:href="#m8208946c69" x="375.393884" y="102.181557" style="stroke: #000000; stroke-width: 0.8"/>
      </g>
     </g>
    </g>
   </g>
   <g id="line2d_22">
    <path d="M 375.394412 380.204197 
L 375.51606 351.39334 
L 375.797615 340.778813 
L 376.180827 328.647926 
L 376.552355 322.582482 
L 377.08302 318.033399 
L 377.634966 315.000678 
L 378.703251 310.451595 
L 381.117249 301.353429 
L 382.592124 296.804347 
L 383.783237 293.771625 
L 385.183351 290.738903 
L 386.843159 287.706181 
L 388.781802 284.673459 
L 390.962753 281.640737 
L 394.597162 277.091655 
L 400.887467 269.50985 
L 403.079503 266.477128 
L 408.305506 258.895324 
L 411.728133 254.346241 
L 416.631921 248.280797 
L 420.313895 243.731714 
L 422.41698 240.698993 
L 423.284362 239.182632 
L 424.014984 237.666271 
L 425.094327 234.633549 
L 425.766977 231.600827 
L 426.126824 228.568105 
L 426.184541 225.535383 
L 425.907078 222.502662 
L 425.278834 219.46994 
L 424.335682 216.437218 
L 423.133977 213.404496 
L 421.676537 210.371774 
L 419.91843 207.339052 
L 417.863858 204.306331 
L 414.423102 199.757248 
L 409.769753 193.691804 
L 407.732806 190.659082 
L 403.164843 183.077278 
L 402.01643 181.560917 
L 399.298262 178.528195 
L 391.817769 170.94639 
L 389.341306 167.913669 
L 387.254136 164.880947 
L 385.497144 161.848225 
L 384.049384 158.815503 
L 382.901753 155.782781 
L 381.991131 152.750059 
L 378.004484 137.58645 
L 377.111395 133.037367 
L 376.50875 128.488285 
L 376.153739 123.939202 
L 375.819499 116.357397 
L 375.539091 102.710149 
L 375.403784 86.030179 
L 375.394372 78.448374 
L 375.394372 78.448374 
" clip-path="url(#p9b761fb5b5)" style="fill: none; stroke: #1f77b4; stroke-width: 1.5; stroke-linecap: square"/>
   </g>
   <g id="patch_8">
    <path d="M 375.393884 386.44 
L 375.393884 72.212571 
" style="fill: none; stroke: #000000; stroke-width: 0.8; stroke-linejoin: miter; stroke-linecap: square"/>
   </g>
  </g>
 </g>
 <defs>
  <clipPath id="p31409319cf">
   <rect x="55.345313" y="72.212571" width="309.380286" height="314.227429"/>
  </clipPath>
  <clipPath id="p163ed521bb">
   <rect x="55.345313" y="7.2" width="309.380286" height="54.177143"/>
  </clipPath>
  <clipPath id="p9b761fb5b5">
   <rect x="375.393884" y="72.212571" width="53.341429" height="314.227429"/>
  </clipPath>
 </defs>
</svg>