<?xml version="1.0" encoding="utf-8" standalone="no"?>
<!DOCTYPE svg PUBLIC "-//W3C//DTD SVG 1.1//EN"
  "http://www.w3.org/Graphics/SVG/1.1/DTD/svg11.dtd">
<svg xmlns:xlink="http://www.w3.org/1999/xlink" width="391.245pt" height="297.190125pt" viewBox="0 0 391.245 297.190125" xmlns="http://www.w3.org/2000/svg" version="1.1">
 <metadata>
  <rdf:RDF xmlns:dc="http://purl.org/dc/elements/1.1/" xmlns:cc="http://creativecommons.org/ns#" xmlns:rdf="http://www.w3.org/1999/02/22-rdf-syntax-ns#">
   <cc:Work>
    <dc:type rdf:resource="http://purl.org/dc/dcmitype/StillImage"/>
    <dc:date>2023-11-07T10:14:23.314033</dc:date>
    <dc:format>image/svg+xml</dc:format>
    <dc:creator>
     <cc:Agent>
      <dc:title>Matplotlib v3.7.2, https://matplotlib.org/</dc:title>
     </cc:Agent>
    </dc:creator>
   </cc:Work>
  </rdf:RDF>
 </metadata>
 <defs>
  <style type="text/css">*{stroke-linejoin: round; stroke-linecap: butt}</style>
 </defs>
 <g id="figure_1">
  <g id="patch_1">
   <path d="M 0 297.190125 
L 391.245 297.190125 
L 391.245 0 
L 0 0 
z
" style="fill: #ffffff"/>
  </g>
  <g id="axes_1">
   <g id="patch_2">
    <path d="M 26.925 273.312 
L 384.045 273.312 
L 384.045 7.2 
L 26.925 7.2 
z
" style="fill: #ffffff"/>
   </g>
   <g id="PathCollection_1">
    <defs>
     <path id="m304dabb881" d="M 0 3 
C 0.795609 3 1.55874 2.683901 2.12132 2.12132 
C 2.683901 1.55874 3 0.795609 3 0 
C 3 -0.795609 2.683901 -1.55874 2.12132 -2.12132 
C 1.55874 -2.683901 0.795609 -3 0 -3 
C -0.795609 -3 -1.55874 -2.683901 -2.12132 -2.12132 
C -2.683901 -1.55874 -3 -0.795609 -3 0 
C -3 0.795609 -2.683901 1.55874 -2.12132 2.12132 
C -1.55874 2.683901 -0.795609 3 0 3 
z
" style="stroke: #1f77b4; stroke-opacity: 0.8"/>
    </defs>
    <g clip-path="url(#p1b005c6eac)">
     <use xlink:href="#m304dabb881" x="43.157727" y="244.808339" style="fill: #1f77b4; fill-opacity: 0.8; stroke: #1f77b4; stroke-opacity: 0.8"/>
     <use xlink:href="#m304dabb881" x="79.230455" y="230.999083" style="fill: #1f77b4; fill-opacity: 0.8; stroke: #1f77b4; stroke-opacity: 0.8"/>
     <use xlink:href="#m304dabb881" x="115.303182" y="190.661313" style="fill: #1f77b4; fill-opacity: 0.8; stroke: #1f77b4; stroke-opacity: 0.8"/>
     <use xlink:href="#m304dabb881" x="151.375909" y="188.345972" style="fill: #1f77b4; fill-opacity: 0.8; stroke: #1f77b4; stroke-opacity: 0.8"/>
     <use xlink:href="#m304dabb881" x="187.448636" y="134.034086" style="fill: #1f77b4; fill-opacity: 0.8; stroke: #1f77b4; stroke-opacity: 0.8"/>
     <use xlink:href="#m304dabb881" x="223.521364" y="124.382175" style="fill: #1f77b4; fill-opacity: 0.8; stroke: #1f77b4; stroke-opacity: 0.8"/>
     <use xlink:href="#m304dabb881" x="259.594091" y="116.782935" style="fill: #1f77b4; fill-opacity: 0.8; stroke: #1f77b4; stroke-opacity: 0.8"/>
     <use xlink:href="#m304dabb881" x="295.666818" y="85.714957" style="fill: #1f77b4; fill-opacity: 0.8; stroke: #1f77b4; stroke-opacity: 0.8"/>
     <use xlink:href="#m304dabb881" x="331.739545" y="53.466787" style="fill: #1f77b4; fill-opacity: 0.8; stroke: #1f77b4; stroke-opacity: 0.8"/>
     <use xlink:href="#m304dabb881" x="367.812273" y="19.296" style="fill: #1f77b4; fill-opacity: 0.8; stroke: #1f77b4; stroke-opacity: 0.8"/>
    </g>
   </g>
   <g id="PolyCollection_1">
    <path d="M 43.157727 235.991423 
L 43.157727 261.216 
L 46.437066 258.877524 
L 49.716405 256.538514 
L 52.995744 254.158997 
L 56.275083 251.75927 
L 59.554421 249.359544 
L 62.83376 246.959817 
L 66.113099 244.56009 
L 69.392438 242.159089 
L 72.671777 239.757471 
L 75.951116 237.355852 
L 79.230455 234.954233 
L 82.509793 232.589042 
L 85.789132 230.255861 
L 89.068471 227.92268 
L 92.34781 225.556612 
L 95.627149 223.144427 
L 98.906488 220.732242 
L 102.185826 218.318849 
L 105.465165 215.905165 
L 108.744504 213.491482 
L 112.023843 211.163839 
L 115.303182 208.871445 
L 118.582521 206.579052 
L 121.86186 204.204676 
L 125.141198 201.816172 
L 128.420537 199.427668 
L 131.699876 197.099662 
L 134.979215 194.828119 
L 138.258554 192.59096 
L 141.537893 190.370909 
L 144.817231 188.116644 
L 148.09657 185.879279 
L 151.375909 183.630797 
L 154.655248 181.299533 
L 157.934587 178.921461 
L 161.213926 176.533595 
L 164.493264 174.215616 
L 167.772603 171.978769 
L 171.051942 169.771308 
L 174.331281 167.487027 
L 177.61062 165.153184 
L 180.889959 162.776427 
L 184.169298 160.469363 
L 187.448636 158.276355 
L 190.727975 155.954312 
L 194.007314 153.64939 
L 197.286653 151.345585 
L 200.565992 149.180218 
L 203.845331 146.946778 
L 207.124669 144.772103 
L 210.404008 142.568888 
L 213.683347 140.446794 
L 216.962686 138.321169 
L 220.242025 136.106894 
L 223.521364 133.975702 
L 226.800702 131.710797 
L 230.080041 129.498226 
L 233.35938 127.304486 
L 236.638719 125.117961 
L 239.918058 123.008797 
L 243.197397 120.905131 
L 246.476736 118.799641 
L 249.756074 116.570359 
L 253.035413 114.423336 
L 256.314752 112.428381 
L 259.594091 110.409458 
L 262.87343 108.279442 
L 266.152769 106.18706 
L 269.432107 104.067488 
L 272.711446 101.968353 
L 275.990785 99.865475 
L 279.270124 97.782806 
L 282.549463 95.754343 
L 285.828802 93.725428 
L 289.10814 91.651413 
L 292.387479 89.597294 
L 295.666818 87.594692 
L 298.946157 85.59189 
L 302.225496 83.532436 
L 305.504835 81.452338 
L 308.784174 79.30233 
L 312.063512 77.212013 
L 315.342851 75.152275 
L 318.62219 73.09627 
L 321.901529 71.056952 
L 325.180868 69.02729 
L 328.460207 67.045263 
L 331.739545 65.043607 
L 335.018884 63.048403 
L 338.298223 61.017663 
L 341.577562 59.004423 
L 344.856901 56.991183 
L 348.13624 54.977943 
L 351.415579 52.951073 
L 354.694917 50.939263 
L 357.974256 48.918564 
L 361.253595 46.897865 
L 364.532934 44.877165 
L 367.812273 42.856466 
L 367.812273 20.458007 
L 367.812273 20.458007 
L 364.532934 22.746046 
L 361.253595 25.07078 
L 357.974256 27.412952 
L 354.694917 29.746052 
L 351.415579 32.093662 
L 348.13624 34.382355 
L 344.856901 36.670932 
L 341.577562 38.965949 
L 338.298223 41.298005 
L 335.018884 43.611305 
L 331.739545 45.937396 
L 328.460207 48.267931 
L 325.180868 50.572242 
L 321.901529 52.92415 
L 318.62219 55.113022 
L 315.342851 57.413277 
L 312.063512 59.70189 
L 308.784174 61.876066 
L 305.504835 64.154791 
L 302.225496 66.436918 
L 298.946157 68.720075 
L 295.666818 70.952395 
L 292.387479 73.164196 
L 289.10814 75.418055 
L 285.828802 77.728767 
L 282.549463 79.961602 
L 279.270124 82.212048 
L 275.990785 84.484981 
L 272.711446 86.754178 
L 269.432107 88.991259 
L 266.152769 91.340523 
L 262.87343 93.62581 
L 259.594091 95.911097 
L 256.314752 97.98282 
L 253.035413 100.050476 
L 249.756074 102.358941 
L 246.476736 104.572019 
L 243.197397 106.745101 
L 239.918058 108.977758 
L 236.638719 111.213288 
L 233.35938 113.485471 
L 230.080041 115.828787 
L 226.800702 118.055958 
L 223.521364 120.25656 
L 220.242025 122.454992 
L 216.962686 124.653527 
L 213.683347 126.845898 
L 210.404008 129.066442 
L 207.124669 131.323752 
L 203.845331 133.52839 
L 200.565992 135.663435 
L 197.286653 137.862688 
L 194.007314 140.092109 
L 190.727975 142.254973 
L 187.448636 144.452153 
L 184.169298 146.649333 
L 180.889959 148.846512 
L 177.61062 150.978306 
L 174.331281 153.153861 
L 171.051942 155.223805 
L 167.772603 157.272857 
L 164.493264 159.32297 
L 161.213926 161.370924 
L 157.934587 163.498319 
L 154.655248 165.663379 
L 151.375909 167.659974 
L 148.09657 169.826565 
L 144.817231 171.937095 
L 141.537893 174.130338 
L 138.258554 176.323985 
L 134.979215 178.429757 
L 131.699876 180.50696 
L 128.420537 182.584164 
L 125.141198 184.661367 
L 121.86186 186.764614 
L 118.582521 188.838299 
L 115.303182 190.888536 
L 112.023843 192.882349 
L 108.744504 195.03569 
L 105.465165 197.112728 
L 102.185826 199.168598 
L 98.906488 201.072327 
L 95.627149 203.017943 
L 92.34781 204.966583 
L 89.068471 206.957727 
L 85.789132 209.028424 
L 82.509793 211.099838 
L 79.230455 213.172252 
L 75.951116 215.247955 
L 72.671777 217.323657 
L 69.392438 219.399359 
L 66.113099 221.475061 
L 62.83376 223.595235 
L 59.554421 225.693881 
L 56.275083 227.696875 
L 52.995744 229.768499 
L 49.716405 231.840852 
L 46.437066 233.916137 
L 43.157727 235.991423 
z
" clip-path="url(#p1b005c6eac)" style="fill: #1f77b4; fill-opacity: 0.15"/>
   </g>
   <g id="matplotlib.axis_1">
    <g id="xtick_1">
     <g id="line2d_1">
      <defs>
       <path id="m37594437e0" d="M 0 0 
L 0 3.5 
" style="stroke: #000000; stroke-width: 0.8"/>
      </defs>
      <g>
       <use xlink:href="#m37594437e0" x="43.157727" y="273.312" style="stroke: #000000; stroke-width: 0.8"/>
      </g>
     </g>
     <g id="text_1">
      <!-- 0 -->
      <g transform="translate(39.976477 287.910437) scale(0.1 -0.1)">
       <defs>
        <path id="DejaVuSans-30" d="M 2034 4250 
Q 1547 4250 1301 3770 
Q 1056 3291 1056 2328 
Q 1056 1369 1301 889 
Q 1547 409 2034 409 
Q 2525 409 2770 889 
Q 3016 1369 3016 2328 
Q 3016 3291 2770 3770 
Q 2525 4250 2034 4250 
z
M 2034 4750 
Q 2819 4750 3233 4129 
Q 3647 3509 3647 2328 
Q 3647 1150 3233 529 
Q 2819 -91 2034 -91 
Q 1250 -91 836 529 
Q 422 1150 422 2328 
Q 422 3509 836 4129 
Q 1250 4750 2034 4750 
z
" transform="scale(0.015625)"/>
       </defs>
       <use xlink:href="#DejaVuSans-30"/>
      </g>
     </g>
    </g>
    <g id="xtick_2">
     <g id="line2d_2">
      <g>
       <use xlink:href="#m37594437e0" x="115.303182" y="273.312" style="stroke: #000000; stroke-width: 0.8"/>
      </g>
     </g>
     <g id="text_2">
      <!-- 2 -->
      <g transform="translate(112.121932 287.910437) scale(0.1 -0.1)">
       <defs>
        <path id="DejaVuSans-32" d="M 1228 531 
L 3431 531 
L 3431 0 
L 469 0 
L 469 531 
Q 828 903 1448 1529 
Q 2069 2156 2228 2338 
Q 2531 2678 2651 2914 
Q 2772 3150 2772 3378 
Q 2772 3750 2511 3984 
Q 2250 4219 1831 4219 
Q 1534 4219 1204 4116 
Q 875 4013 500 3803 
L 500 4441 
Q 881 4594 1212 4672 
Q 1544 4750 1819 4750 
Q 2544 4750 2975 4387 
Q 3406 4025 3406 3419 
Q 3406 3131 3298 2873 
Q 3191 2616 2906 2266 
Q 2828 2175 2409 1742 
Q 1991 1309 1228 531 
z
" transform="scale(0.015625)"/>
       </defs>
       <use xlink:href="#DejaVuSans-32"/>
      </g>
     </g>
    </g>
    <g id="xtick_3">
     <g id="line2d_3">
      <g>
       <use xlink:href="#m37594437e0" x="187.448636" y="273.312" style="stroke: #000000; stroke-width: 0.8"/>
      </g>
     </g>
     <g id="text_3">
      <!-- 4 -->
      <g transform="translate(184.267386 287.910437) scale(0.1 -0.1)">
       <defs>
        <path id="DejaVuSans-34" d="M 2419 4116 
L 825 1625 
L 2419 1625 
L 2419 4116 
z
M 2253 4666 
L 3047 4666 
L 3047 1625 
L 3713 1625 
L 3713 1100 
L 3047 1100 
L 3047 0 
L 2419 0 
L 2419 1100 
L 313 1100 
L 313 1709 
L 2253 4666 
z
" transform="scale(0.015625)"/>
       </defs>
       <use xlink:href="#DejaVuSans-34"/>
      </g>
     </g>
    </g>
    <g id="xtick_4">
     <g id="line2d_4">
      <g>
       <use xlink:href="#m37594437e0" x="259.594091" y="273.312" style="stroke: #000000; stroke-width: 0.8"/>
      </g>
     </g>
     <g id="text_4">
      <!-- 6 -->
      <g transform="translate(256.412841 287.910437) scale(0.1 -0.1)">
       <defs>
        <path id="DejaVuSans-36" d="M 2113 2584 
Q 1688 2584 1439 2293 
Q 1191 2003 1191 1497 
Q 1191 994 1439 701 
Q 1688 409 2113 409 
Q 2538 409 2786 701 
Q 3034 994 3034 1497 
Q 3034 2003 2786 2293 
Q 2538 2584 2113 2584 
z
M 3366 4563 
L 3366 3988 
Q 3128 4100 2886 4159 
Q 2644 4219 2406 4219 
Q 1781 4219 1451 3797 
Q 1122 3375 1075 2522 
Q 1259 2794 1537 2939 
Q 1816 3084 2150 3084 
Q 2853 3084 3261 2657 
Q 3669 2231 3669 1497 
Q 3669 778 3244 343 
Q 2819 -91 2113 -91 
Q 1303 -91 875 529 
Q 447 1150 447 2328 
Q 447 3434 972 4092 
Q 1497 4750 2381 4750 
Q 2619 4750 2861 4703 
Q 3103 4656 3366 4563 
z
" transform="scale(0.015625)"/>
       </defs>
       <use xlink:href="#DejaVuSans-36"/>
      </g>
     </g>
    </g>
    <g id="xtick_5">
     <g id="line2d_5">
      <g>
       <use xlink:href="#m37594437e0" x="331.739545" y="273.312" style="stroke: #000000; stroke-width: 0.8"/>
      </g>
     </g>
     <g id="text_5">
      <!-- 8 -->
      <g transform="translate(328.558295 287.910437) scale(0.1 -0.1)">
       <defs>
        <path id="DejaVuSans-38" d="M 2034 2216 
Q 1584 2216 1326 1975 
Q 1069 1734 1069 1313 
Q 1069 891 1326 650 
Q 1584 409 2034 409 
Q 2484 409 2743 651 
Q 3003 894 3003 1313 
Q 3003 1734 2745 1975 
Q 2488 2216 2034 2216 
z
M 1403 2484 
Q 997 2584 770 2862 
Q 544 3141 544 3541 
Q 544 4100 942 4425 
Q 1341 4750 2034 4750 
Q 2731 4750 3128 4425 
Q 3525 4100 3525 3541 
Q 3525 3141 3298 2862 
Q 3072 2584 2669 2484 
Q 3125 2378 3379 2068 
Q 3634 1759 3634 1313 
Q 3634 634 3220 271 
Q 2806 -91 2034 -91 
Q 1263 -91 848 271 
Q 434 634 434 1313 
Q 434 1759 690 2068 
Q 947 2378 1403 2484 
z
M 1172 3481 
Q 1172 3119 1398 2916 
Q 1625 2713 2034 2713 
Q 2441 2713 2670 2916 
Q 2900 3119 2900 3481 
Q 2900 3844 2670 4047 
Q 2441 4250 2034 4250 
Q 1625 4250 1398 4047 
Q 1172 3844 1172 3481 
z
" transform="scale(0.015625)"/>
       </defs>
       <use xlink:href="#DejaVuSans-38"/>
      </g>
     </g>
    </g>
   </g>
   <g id="matplotlib.axis_2">
    <g id="ytick_1">
     <g id="line2d_6">
      <defs>
       <path id="ma2dbc7b4cf" d="M 0 0 
L -3.5 0 
" style="stroke: #000000; stroke-width: 0.8"/>
      </defs>
      <g>
       <use xlink:href="#ma2dbc7b4cf" x="26.925" y="240.223717" style="stroke: #000000; stroke-width: 0.8"/>
      </g>
     </g>
     <g id="text_6">
      <!-- 0 -->
      <g transform="translate(13.5625 244.022935) scale(0.1 -0.1)">
       <use xlink:href="#DejaVuSans-30"/>
      </g>
     </g>
    </g>
    <g id="ytick_2">
     <g id="line2d_7">
      <g>
       <use xlink:href="#ma2dbc7b4cf" x="26.925" y="187.202683" style="stroke: #000000; stroke-width: 0.8"/>
      </g>
     </g>
     <g id="text_7">
      <!-- 5 -->
      <g transform="translate(13.5625 191.001902) scale(0.1 -0.1)">
       <defs>
        <path id="DejaVuSans-35" d="M 691 4666 
L 3169 4666 
L 3169 4134 
L 1269 4134 
L 1269 2991 
Q 1406 3038 1543 3061 
Q 1681 3084 1819 3084 
Q 2600 3084 3056 2656 
Q 3513 2228 3513 1497 
Q 3513 744 3044 326 
Q 2575 -91 1722 -91 
Q 1428 -91 1123 -41 
Q 819 9 494 109 
L 494 744 
Q 775 591 1075 516 
Q 1375 441 1709 441 
Q 2250 441 2565 725 
Q 2881 1009 2881 1497 
Q 2881 1984 2565 2268 
Q 2250 2553 1709 2553 
Q 1456 2553 1204 2497 
Q 953 2441 691 2322 
L 691 4666 
z
" transform="scale(0.015625)"/>
       </defs>
       <use xlink:href="#DejaVuSans-35"/>
      </g>
     </g>
    </g>
    <g id="ytick_3">
     <g id="line2d_8">
      <g>
       <use xlink:href="#ma2dbc7b4cf" x="26.925" y="134.18165" style="stroke: #000000; stroke-width: 0.8"/>
      </g>
     </g>
     <g id="text_8">
      <!-- 10 -->
      <g transform="translate(7.2 137.980869) scale(0.1 -0.1)">
       <defs>
        <path id="DejaVuSans-31" d="M 794 531 
L 1825 531 
L 1825 4091 
L 703 3866 
L 703 4441 
L 1819 4666 
L 2450 4666 
L 2450 531 
L 3481 531 
L 3481 0 
L 794 0 
L 794 531 
z
" transform="scale(0.015625)"/>
       </defs>
       <use xlink:href="#DejaVuSans-31"/>
       <use xlink:href="#DejaVuSans-30" x="63.623047"/>
      </g>
     </g>
    </g>
    <g id="ytick_4">
     <g id="line2d_9">
      <g>
       <use xlink:href="#ma2dbc7b4cf" x="26.925" y="81.160617" style="stroke: #000000; stroke-width: 0.8"/>
      </g>
     </g>
     <g id="text_9">
      <!-- 15 -->
      <g transform="translate(7.2 84.959836) scale(0.1 -0.1)">
       <use xlink:href="#DejaVuSans-31"/>
       <use xlink:href="#DejaVuSans-35" x="63.623047"/>
      </g>
     </g>
    </g>
    <g id="ytick_5">
     <g id="line2d_10">
      <g>
       <use xlink:href="#ma2dbc7b4cf" x="26.925" y="28.139584" style="stroke: #000000; stroke-width: 0.8"/>
      </g>
     </g>
     <g id="text_10">
      <!-- 20 -->
      <g transform="translate(7.2 31.938803) scale(0.1 -0.1)">
       <use xlink:href="#DejaVuSans-32"/>
       <use xlink:href="#DejaVuSans-30" x="63.623047"/>
      </g>
     </g>
    </g>
   </g>
   <g id="line2d_11">
    <path d="M 43.157727 248.523981 
L 46.437066 246.308328 
L 49.716405 244.092675 
L 52.995744 241.877022 
L 56.275083 239.661369 
L 59.554421 237.445717 
L 62.83376 235.230064 
L 66.113099 233.014411 
L 69.392438 230.798758 
L 72.671777 228.583105 
L 75.951116 226.367452 
L 79.230455 224.151799 
L 82.509793 221.936147 
L 85.789132 219.720494 
L 89.068471 217.504841 
L 92.34781 215.289188 
L 95.627149 213.073535 
L 98.906488 210.857882 
L 102.185826 208.64223 
L 105.465165 206.426577 
L 108.744504 204.210924 
L 112.023843 201.995271 
L 115.303182 199.779618 
L 118.582521 197.563965 
L 121.86186 195.348312 
L 125.141198 193.13266 
L 128.420537 190.917007 
L 131.699876 188.701354 
L 134.979215 186.485701 
L 138.258554 184.270048 
L 141.537893 182.054395 
L 144.817231 179.838742 
L 148.09657 177.62309 
L 151.375909 175.407437 
L 154.655248 173.191784 
L 157.934587 170.976131 
L 161.213926 168.760478 
L 164.493264 166.544825 
L 167.772603 164.329173 
L 171.051942 162.11352 
L 174.331281 159.897867 
L 177.61062 157.682214 
L 180.889959 155.466561 
L 184.169298 153.250908 
L 187.448636 151.035255 
L 190.727975 148.819603 
L 194.007314 146.60395 
L 197.286653 144.388297 
L 200.565992 142.172644 
L 203.845331 139.956991 
L 207.124669 137.741338 
L 210.404008 135.525685 
L 213.683347 133.310033 
L 216.962686 131.09438 
L 220.242025 128.878727 
L 223.521364 126.663074 
L 226.800702 124.447421 
L 230.080041 122.231768 
L 233.35938 120.016115 
L 236.638719 117.800463 
L 239.918058 115.58481 
L 243.197397 113.369157 
L 246.476736 111.153504 
L 249.756074 108.937851 
L 253.035413 106.722198 
L 256.314752 104.506546 
L 259.594091 102.290893 
L 262.87343 100.07524 
L 266.152769 97.859587 
L 269.432107 95.643934 
L 272.711446 93.428281 
L 275.990785 91.212628 
L 279.270124 88.996976 
L 282.549463 86.781323 
L 285.828802 84.56567 
L 289.10814 82.350017 
L 292.387479 80.134364 
L 295.666818 77.918711 
L 298.946157 75.703058 
L 302.225496 73.487406 
L 305.504835 71.271753 
L 308.784174 69.0561 
L 312.063512 66.840447 
L 315.342851 64.624794 
L 318.62219 62.409141 
L 321.901529 60.193489 
L 325.180868 57.977836 
L 328.460207 55.762183 
L 331.739545 53.54653 
L 335.018884 51.330877 
L 338.298223 49.115224 
L 341.577562 46.899571 
L 344.856901 44.683919 
L 348.13624 42.468266 
L 351.415579 40.252613 
L 354.694917 38.03696 
L 357.974256 35.821307 
L 361.253595 33.605654 
L 364.532934 31.390001 
L 367.812273 29.174349 
" clip-path="url(#p1b005c6eac)" style="fill: none; stroke: #1f77b4; stroke-width: 2.25; stroke-linecap: square"/>
   </g>
   <g id="patch_3">
    <path d="M 26.925 273.312 
L 26.925 7.2 
" style="fill: none; stroke: #000000; stroke-width: 0.8; stroke-linejoin: miter; stroke-linecap: square"/>
   </g>
   <g id="patch_4">
    <path d="M 384.045 273.312 
L 384.045 7.2 
" style="fill: none; stroke: #000000; stroke-width: 0.8; stroke-linejoin: miter; stroke-linecap: square"/>
   </g>
   <g id="patch_5">
    <path d="M 26.925 273.312 
L 384.045 273.312 
" style="fill: none; stroke: #000000; stroke-width: 0.8; stroke-linejoin: miter; stroke-linecap: square"/>
   </g>
   <g id="patch_6">
    <path d="M 26.925 7.2 
L 384.045 7.2 
" style="fill: none; stroke: #000000; stroke-width: 0.8; stroke-linejoin: miter; stroke-linecap: square"/>
   </g>
  </g>
 </g>
 <defs>
  <clipPath id="p1b005c6eac">
   <rect x="26.925" y="7.2" width="357.12" height="266.112"/>
  </clipPath>
 </defs>
</svg>