<?xml version="1.0" encoding="utf-8" standalone="no"?>
<!DOCTYPE svg PUBLIC "-//W3C//DTD SVG 1.1//EN"
  "http://www.w3.org/Graphics/SVG/1.1/DTD/svg11.dtd">
<svg xmlns:xlink="http://www.w3.org/1999/xlink" width="532.5375pt" height="351.99625pt" viewBox="0 0 532.5375 351.99625" xmlns="http://www.w3.org/2000/svg" version="1.1">
 <metadata>
  <rdf:RDF xmlns:dc="http://purl.org/dc/elements/1.1/" xmlns:cc="http://creativecommons.org/ns#" xmlns:rdf="http://www.w3.org/1999/02/22-rdf-syntax-ns#">
   <cc:Work>
    <dc:type rdf:resource="http://purl.org/dc/dcmitype/StillImage"/>
    <dc:date>2023-11-07T10:14:24.596697</dc:date>
    <dc:format>image/svg+xml</dc:format>
    <dc:creator>
     <cc:Agent>
      <dc:title>Matplotlib v3.7.2, https://matplotlib.org/</dc:title>
     </cc:Agent>
    </dc:creator>
   </cc:Work>
  </rdf:RDF>
 </metadata>
 <defs>
  <style type="text/css">*{stroke-linejoin: round; stroke-linecap: butt}</style>
 </defs>
 <g id="figure_1">
  <g id="patch_1">
   <path d="M 0 351.99625 
L 532.5375 351.99625 
L 532.5375 0 
L 0 0 
z
" style="fill: #ffffff"/>
  </g>
  <g id="axes_1">
   <g id="patch_2">
    <path d="M 47.1875 314.44 
L 525.3375 314.44 
L 525.3375 7.2 
L 47.1875 7.2 
z
" style="fill: #ffffff"/>
   </g>
   <g id="PathCollection_1">
    <defs>
     <path id="mca5d4336e7" d="M 0 3 
C 0.795609 3 1.55874 2.683901 2.12132 2.12132 
C 2.683901 1.55874 3 0.795609 3 0 
C 3 -0.795609 2.683901 -1.55874 2.12132 -2.12132 
C 1.55874 -2.683901 0.795609 -3 0 -3 
C -0.795609 -3 -1.55874 -2.683901 -2.12132 -2.12132 
C -2.683901 -1.55874 -3 -0.795609 -3 0 
C -3 0.795609 -2.683901 1.55874 -2.12132 2.12132 
C -1.55874 2.683901 -0.795609 3 0 3 
z
" style="stroke: #1f77b4; stroke-opacity: 0.8"/>
    </defs>
    <g clip-path="url(#p910f92077d)">
     <use xlink:href="#mca5d4336e7" x="68.921591" y="253.757741" style="fill: #1f77b4; fill-opacity: 0.8; stroke: #1f77b4; stroke-opacity: 0.8"/>
     <use xlink:href="#mca5d4336e7" x="113.01838" y="237.343728" style="fill: #1f77b4; fill-opacity: 0.8; stroke: #1f77b4; stroke-opacity: 0.8"/>
     <use xlink:href="#mca5d4336e7" x="157.115169" y="212.091401" style="fill: #1f77b4; fill-opacity: 0.8; stroke: #1f77b4; stroke-opacity: 0.8"/>
     <use xlink:href="#mca5d4336e7" x="201.180527" y="186.839074" style="fill: #1f77b4; fill-opacity: 0.8; stroke: #1f77b4; stroke-opacity: 0.8"/>
     <use xlink:href="#mca5d4336e7" x="245.277316" y="160.324131" style="fill: #1f77b4; fill-opacity: 0.8; stroke: #1f77b4; stroke-opacity: 0.8"/>
     <use xlink:href="#mca5d4336e7" x="289.374105" y="137.597037" style="fill: #1f77b4; fill-opacity: 0.8; stroke: #1f77b4; stroke-opacity: 0.8"/>
     <use xlink:href="#mca5d4336e7" x="333.439464" y="113.607326" style="fill: #1f77b4; fill-opacity: 0.8; stroke: #1f77b4; stroke-opacity: 0.8"/>
     <use xlink:href="#mca5d4336e7" x="377.536253" y="89.617616" style="fill: #1f77b4; fill-opacity: 0.8; stroke: #1f77b4; stroke-opacity: 0.8"/>
     <use xlink:href="#mca5d4336e7" x="421.601611" y="68.153138" style="fill: #1f77b4; fill-opacity: 0.8; stroke: #1f77b4; stroke-opacity: 0.8"/>
     <use xlink:href="#mca5d4336e7" x="465.6984" y="42.900811" style="fill: #1f77b4; fill-opacity: 0.8; stroke: #1f77b4; stroke-opacity: 0.8"/>
     <use xlink:href="#mca5d4336e7" x="201.180527" y="199.465238" style="fill: #1f77b4; fill-opacity: 0.8; stroke: #1f77b4; stroke-opacity: 0.8"/>
     <use xlink:href="#mca5d4336e7" x="201.180527" y="231.030647" style="fill: #1f77b4; fill-opacity: 0.8; stroke: #1f77b4; stroke-opacity: 0.8"/>
     <use xlink:href="#mca5d4336e7" x="245.277316" y="170.425062" style="fill: #1f77b4; fill-opacity: 0.8; stroke: #1f77b4; stroke-opacity: 0.8"/>
     <use xlink:href="#mca5d4336e7" x="289.374105" y="165.374597" style="fill: #1f77b4; fill-opacity: 0.8; stroke: #1f77b4; stroke-opacity: 0.8"/>
     <use xlink:href="#mca5d4336e7" x="333.439464" y="159.061515" style="fill: #1f77b4; fill-opacity: 0.8; stroke: #1f77b4; stroke-opacity: 0.8"/>
     <use xlink:href="#mca5d4336e7" x="264.009808" y="106.031628" style="fill: #1f77b4; fill-opacity: 0.8; stroke: #1f77b4; stroke-opacity: 0.8"/>
     <use xlink:href="#mca5d4336e7" x="308.106597" y="80.779302" style="fill: #1f77b4; fill-opacity: 0.8; stroke: #1f77b4; stroke-opacity: 0.8"/>
     <use xlink:href="#mca5d4336e7" x="396.268745" y="58.052207" style="fill: #1f77b4; fill-opacity: 0.8; stroke: #1f77b4; stroke-opacity: 0.8"/>
    </g>
   </g>
   <g id="PolyCollection_1">
    <path d="M 68.921591 249.755123 
L 68.921591 283.775337 
L 72.929437 281.224855 
L 76.937284 278.712748 
L 80.945131 276.265762 
L 84.952977 273.787246 
L 88.960824 271.24425 
L 92.96867 268.700875 
L 96.976517 266.165736 
L 100.984363 263.655584 
L 104.99221 261.333614 
L 109.000056 258.887238 
L 113.007903 256.39183 
L 117.01575 253.889327 
L 121.023596 251.386824 
L 125.031443 248.852808 
L 129.039289 246.238236 
L 133.047136 243.621888 
L 137.054982 241.060943 
L 141.062829 238.5535 
L 145.070676 236.043912 
L 149.078522 233.762349 
L 153.086369 231.392606 
L 157.094215 228.897295 
L 161.102062 226.425611 
L 165.109908 224.021357 
L 169.117755 221.512466 
L 173.125601 218.98189 
L 177.133448 216.764898 
L 181.141295 214.099196 
L 185.149141 211.596037 
L 189.156988 209.020481 
L 193.164834 206.707329 
L 197.172681 203.922847 
L 201.180527 201.535254 
L 205.188374 199.421347 
L 209.19622 197.261576 
L 213.204067 194.579862 
L 217.211914 192.158617 
L 221.21976 189.830984 
L 225.227607 187.615401 
L 229.235453 185.226842 
L 233.2433 182.795575 
L 237.251146 180.258497 
L 241.258993 177.98193 
L 245.266839 175.615768 
L 249.274686 173.389605 
L 253.282533 171.161224 
L 257.290379 168.827336 
L 261.298226 166.563266 
L 265.306072 164.265357 
L 269.313919 162.115586 
L 273.321765 159.981571 
L 277.329612 157.764569 
L 281.337459 155.631514 
L 285.345305 153.354136 
L 289.353152 151.209638 
L 293.360998 149.031444 
L 297.368845 146.776283 
L 301.376691 144.614968 
L 305.384538 142.309599 
L 309.392384 140.209821 
L 313.400231 137.85108 
L 317.408078 135.625105 
L 321.415924 133.532735 
L 325.423771 131.323954 
L 329.431617 129.252831 
L 333.439464 127.179445 
L 337.44731 125.068491 
L 341.455157 122.711739 
L 345.463003 120.669824 
L 349.47085 118.747469 
L 353.478697 116.811629 
L 357.486543 114.743134 
L 361.49439 112.674396 
L 365.502236 110.600548 
L 369.510083 108.526701 
L 373.517929 106.452854 
L 377.525776 104.379006 
L 381.533622 102.305159 
L 385.541469 100.144652 
L 389.549316 97.917399 
L 393.557162 95.908197 
L 397.565009 93.785916 
L 401.572855 91.599792 
L 405.580702 89.386369 
L 409.588548 87.334916 
L 413.596395 85.302458 
L 417.604242 83.271528 
L 421.612088 81.240598 
L 425.619935 79.20722 
L 429.627781 77.170897 
L 433.635628 75.134573 
L 437.643474 73.012257 
L 441.651321 70.997714 
L 445.659167 69.021284 
L 449.667014 66.901434 
L 453.674861 64.781584 
L 457.682707 62.661644 
L 461.690554 60.540819 
L 465.6984 58.419993 
L 465.6984 21.165455 
L 465.6984 21.165455 
L 461.690554 23.741495 
L 457.682707 26.318503 
L 453.674861 28.869038 
L 449.667014 31.331678 
L 445.659167 33.794318 
L 441.651321 36.255419 
L 437.643474 38.713238 
L 433.635628 41.165799 
L 429.627781 43.648964 
L 425.619935 46.110686 
L 421.612088 48.572408 
L 417.604242 51.03413 
L 413.596395 53.495852 
L 409.588548 55.925889 
L 405.580702 58.399192 
L 401.572855 60.881238 
L 397.565009 63.313079 
L 393.557162 65.70484 
L 389.549316 68.154494 
L 385.541469 70.638093 
L 381.533622 73.189627 
L 377.525776 75.631214 
L 373.517929 78.044444 
L 369.510083 80.458308 
L 365.502236 82.871175 
L 361.49439 85.31215 
L 357.486543 87.762683 
L 353.478697 90.108915 
L 349.47085 92.519344 
L 345.463003 94.933447 
L 341.455157 97.347693 
L 337.44731 99.759855 
L 333.439464 102.092618 
L 329.431617 104.284394 
L 325.423771 106.634185 
L 321.415924 108.900949 
L 317.408078 111.474819 
L 313.400231 113.951266 
L 309.392384 116.232621 
L 305.384538 118.536094 
L 301.376691 120.797764 
L 297.368845 123.081992 
L 293.360998 125.340614 
L 289.353152 127.631828 
L 285.345305 129.890321 
L 281.337459 132.252668 
L 277.329612 134.73249 
L 273.321765 137.203735 
L 269.313919 139.556036 
L 265.306072 141.786651 
L 261.298226 144.082222 
L 257.290379 146.247119 
L 253.282533 148.499323 
L 249.274686 150.791848 
L 245.266839 153.088157 
L 241.258993 155.484084 
L 237.251146 157.674789 
L 233.2433 159.966975 
L 229.235453 162.264006 
L 225.227607 164.555669 
L 221.21976 166.767896 
L 217.211914 168.960764 
L 213.204067 171.154811 
L 209.19622 173.437446 
L 205.188374 175.62758 
L 201.180527 177.975302 
L 197.172681 180.240506 
L 193.164834 182.387612 
L 189.156988 184.534717 
L 185.149141 186.800692 
L 181.141295 189.075585 
L 177.133448 191.352824 
L 173.125601 193.630063 
L 169.117755 195.846236 
L 165.109908 198.103138 
L 161.102062 200.29851 
L 157.094215 202.486415 
L 153.086369 204.537053 
L 149.078522 206.589258 
L 145.070676 208.811631 
L 141.062829 210.880163 
L 137.054982 212.929277 
L 133.047136 214.980878 
L 129.039289 217.162573 
L 125.031443 219.35179 
L 121.023596 221.541007 
L 117.01575 223.730224 
L 113.007903 225.715574 
L 109.000056 227.766494 
L 104.99221 229.962188 
L 100.984363 232.139226 
L 96.976517 234.354639 
L 92.96867 236.551495 
L 88.960824 238.786455 
L 84.952977 241.137198 
L 80.945131 243.447866 
L 76.937284 245.57017 
L 72.929437 247.536751 
L 68.921591 249.755123 
z
" clip-path="url(#p910f92077d)" style="fill: #1f77b4; fill-opacity: 0.15"/>
   </g>
   <g id="PathCollection_2">
    <defs>
     <path id="me318e33e08" d="M 0 -3 
L -3 3 
L 3 3 
z
" style="stroke: #ff7f0e; stroke-opacity: 0.8"/>
    </defs>
    <g clip-path="url(#p910f92077d)">
     <use xlink:href="#me318e33e08" x="194.988747" y="290.373615" style="fill: #ff7f0e; fill-opacity: 0.8; stroke: #ff7f0e; stroke-opacity: 0.8"/>
     <use xlink:href="#me318e33e08" x="239.085536" y="248.707275" style="fill: #ff7f0e; fill-opacity: 0.8; stroke: #ff7f0e; stroke-opacity: 0.8"/>
     <use xlink:href="#me318e33e08" x="283.182325" y="212.091401" style="fill: #ff7f0e; fill-opacity: 0.8; stroke: #ff7f0e; stroke-opacity: 0.8"/>
     <use xlink:href="#me318e33e08" x="327.247684" y="176.738144" style="fill: #ff7f0e; fill-opacity: 0.8; stroke: #ff7f0e; stroke-opacity: 0.8"/>
     <use xlink:href="#me318e33e08" x="371.344473" y="145.172735" style="fill: #ff7f0e; fill-opacity: 0.8; stroke: #ff7f0e; stroke-opacity: 0.8"/>
     <use xlink:href="#me318e33e08" x="415.441262" y="116.132559" style="fill: #ff7f0e; fill-opacity: 0.8; stroke: #ff7f0e; stroke-opacity: 0.8"/>
     <use xlink:href="#me318e33e08" x="459.50662" y="88.355" style="fill: #ff7f0e; fill-opacity: 0.8; stroke: #ff7f0e; stroke-opacity: 0.8"/>
     <use xlink:href="#me318e33e08" x="503.603409" y="63.102673" style="fill: #ff7f0e; fill-opacity: 0.8; stroke: #ff7f0e; stroke-opacity: 0.8"/>
     <use xlink:href="#me318e33e08" x="239.085536" y="256.282973" style="fill: #ff7f0e; fill-opacity: 0.8; stroke: #ff7f0e; stroke-opacity: 0.8"/>
     <use xlink:href="#me318e33e08" x="327.247684" y="188.101691" style="fill: #ff7f0e; fill-opacity: 0.8; stroke: #ff7f0e; stroke-opacity: 0.8"/>
     <use xlink:href="#me318e33e08" x="194.988747" y="300.474545" style="fill: #ff7f0e; fill-opacity: 0.8; stroke: #ff7f0e; stroke-opacity: 0.8"/>
     <use xlink:href="#me318e33e08" x="283.182325" y="234.818496" style="fill: #ff7f0e; fill-opacity: 0.8; stroke: #ff7f0e; stroke-opacity: 0.8"/>
    </g>
   </g>
   <g id="PolyCollection_2">
    <path d="M 194.988747 279.122234 
L 194.988747 296.748279 
L 198.106067 294.156821 
L 201.223387 291.547737 
L 204.340707 288.938653 
L 207.458027 286.404673 
L 210.575346 283.805802 
L 213.692666 281.277179 
L 216.809986 278.807213 
L 219.927306 276.334524 
L 223.044626 273.861835 
L 226.161945 271.376038 
L 229.279265 268.919959 
L 232.396585 266.464373 
L 235.513905 263.981092 
L 238.631225 261.4838 
L 241.748545 258.973522 
L 244.865864 256.396366 
L 247.983184 253.926602 
L 251.100504 251.4278 
L 254.217824 248.873324 
L 257.335144 246.413708 
L 260.452463 243.996021 
L 263.569783 241.515712 
L 266.687103 239.064252 
L 269.804423 236.602895 
L 272.921743 234.211657 
L 276.039063 231.818641 
L 279.156382 229.398512 
L 282.273702 226.967352 
L 285.391022 224.563656 
L 288.508342 222.160553 
L 291.625662 219.73393 
L 294.742981 217.354 
L 297.860301 214.951243 
L 300.977621 212.482396 
L 304.094941 210.074164 
L 307.212261 207.709221 
L 310.32958 205.325414 
L 313.4469 202.933901 
L 316.56422 200.556838 
L 319.68154 198.156389 
L 322.79886 195.772432 
L 325.91618 193.388474 
L 329.033499 191.004517 
L 332.150819 188.620559 
L 335.268139 186.236602 
L 338.385459 183.852644 
L 341.502779 181.461309 
L 344.620098 179.064436 
L 347.737418 176.651954 
L 350.854738 174.271044 
L 353.972058 171.928364 
L 357.089378 169.514809 
L 360.206698 167.116063 
L 363.324017 164.684689 
L 366.441337 162.330944 
L 369.558657 159.93241 
L 372.675977 157.543488 
L 375.793297 155.203888 
L 378.910616 152.860325 
L 382.027936 150.507624 
L 385.145256 148.116644 
L 388.262576 145.724512 
L 391.379896 143.33091 
L 394.497216 140.941657 
L 397.614535 138.563946 
L 400.731855 136.211924 
L 403.849175 133.853186 
L 406.966495 131.497567 
L 410.083815 129.12913 
L 413.201134 126.800807 
L 416.318454 124.430231 
L 419.435774 122.105317 
L 422.553094 119.798916 
L 425.670414 117.492223 
L 428.787734 115.166167 
L 431.905053 112.862117 
L 435.022373 110.558032 
L 438.139693 108.21515 
L 441.257013 105.915774 
L 444.374333 103.62095 
L 447.491652 101.326125 
L 450.608972 99.010577 
L 453.726292 96.733646 
L 456.843612 94.429715 
L 459.960932 92.059079 
L 463.078251 89.658686 
L 466.195571 87.344712 
L 469.312891 85.064401 
L 472.430211 82.78409 
L 475.547531 80.502862 
L 478.664851 78.206381 
L 481.78217 75.883579 
L 484.89949 73.594512 
L 488.01681 71.335564 
L 491.13413 69.016301 
L 494.25145 66.727624 
L 497.368769 64.447584 
L 500.486089 62.14296 
L 503.603409 59.833905 
L 503.603409 36.68106 
L 503.603409 36.68106 
L 500.486089 39.292457 
L 497.368769 41.900536 
L 494.25145 44.518923 
L 491.13413 47.130662 
L 488.01681 49.742544 
L 484.89949 52.355269 
L 481.78217 54.967993 
L 478.664851 57.580718 
L 475.547531 60.162947 
L 472.430211 62.750638 
L 469.312891 65.36912 
L 466.195571 67.974843 
L 463.078251 70.562798 
L 459.960932 73.150753 
L 456.843612 75.738715 
L 453.726292 78.320844 
L 450.608972 80.858779 
L 447.491652 83.396871 
L 444.374333 85.935604 
L 441.257013 88.474337 
L 438.139693 91.068762 
L 435.022373 93.651219 
L 431.905053 96.235568 
L 428.787734 98.875586 
L 425.670414 101.48644 
L 422.553094 104.097357 
L 419.435774 106.709319 
L 416.318454 109.321282 
L 413.201134 111.933244 
L 410.083815 114.545206 
L 406.966495 117.157169 
L 403.849175 119.727108 
L 400.731855 122.263113 
L 397.614535 124.776069 
L 394.497216 127.267301 
L 391.379896 129.800357 
L 388.262576 132.30947 
L 385.145256 134.821021 
L 382.027936 137.391931 
L 378.910616 139.972776 
L 375.793297 142.561407 
L 372.675977 145.209694 
L 369.558657 147.844993 
L 366.441337 150.397696 
L 363.324017 152.976178 
L 360.206698 155.497999 
L 357.089378 158.041397 
L 353.972058 160.52366 
L 350.854738 163.009601 
L 347.737418 165.456534 
L 344.620098 167.973221 
L 341.502779 170.458333 
L 338.385459 173.035135 
L 335.268139 175.656451 
L 332.150819 178.123815 
L 329.033499 180.590151 
L 325.91618 182.961829 
L 322.79886 185.359405 
L 319.68154 187.618205 
L 316.56422 190.086285 
L 313.4469 192.483282 
L 310.32958 194.817871 
L 307.212261 197.068327 
L 304.094941 199.48039 
L 300.977621 202.058383 
L 297.860301 204.371281 
L 294.742981 206.689126 
L 291.625662 209.06379 
L 288.508342 211.324447 
L 285.391022 213.680265 
L 282.273702 215.986833 
L 279.156382 218.228786 
L 276.039063 220.47074 
L 272.921743 222.712693 
L 269.804423 224.954647 
L 266.687103 227.215798 
L 263.569783 229.480601 
L 260.452463 231.746706 
L 257.335144 234.022565 
L 254.217824 236.277305 
L 251.100504 238.5111 
L 247.983184 240.752837 
L 244.865864 243.02569 
L 241.748545 245.282564 
L 238.631225 247.572602 
L 235.513905 249.828452 
L 232.396585 252.038989 
L 229.279265 254.263714 
L 226.161945 256.522426 
L 223.044626 258.781138 
L 219.927306 261.0416 
L 216.809986 263.30376 
L 213.692666 265.639423 
L 210.575346 267.930195 
L 207.458027 270.156229 
L 204.340707 272.382263 
L 201.223387 274.608297 
L 198.106067 276.863125 
L 194.988747 279.122234 
z
" clip-path="url(#p910f92077d)" style="fill: #ff7f0e; fill-opacity: 0.15"/>
   </g>
   <g id="matplotlib.axis_1">
    <g id="xtick_1">
     <g id="line2d_1">
      <defs>
       <path id="mf967df03a5" d="M 0 0 
L 0 3.5 
" style="stroke: #000000; stroke-width: 0.8"/>
      </defs>
      <g>
       <use xlink:href="#mf967df03a5" x="93.940154" y="314.44" style="stroke: #000000; stroke-width: 0.8"/>
      </g>
     </g>
     <g id="text_1">
      <!-- 40 -->
      <g transform="translate(87.577654 329.038437) scale(0.1 -0.1)">
       <defs>
        <path id="DejaVuSans-34" d="M 2419 4116 
L 825 1625 
L 2419 1625 
L 2419 4116 
z
M 2253 4666 
L 3047 4666 
L 3047 1625 
L 3713 1625 
L 3713 1100 
L 3047 1100 
L 3047 0 
L 2419 0 
L 2419 1100 
L 313 1100 
L 313 1709 
L 2253 4666 
z
" transform="scale(0.015625)"/>
        <path id="DejaVuSans-30" d="M 2034 4250 
Q 1547 4250 1301 3770 
Q 1056 3291 1056 2328 
Q 1056 1369 1301 889 
Q 1547 409 2034 409 
Q 2525 409 2770 889 
Q 3016 1369 3016 2328 
Q 3016 3291 2770 3770 
Q 2525 4250 2034 4250 
z
M 2034 4750 
Q 2819 4750 3233 4129 
Q 3647 3509 3647 2328 
Q 3647 1150 3233 529 
Q 2819 -91 2034 -91 
Q 1250 -91 836 529 
Q 422 1150 422 2328 
Q 422 3509 836 4129 
Q 1250 4750 2034 4750 
z
" transform="scale(0.015625)"/>
       </defs>
       <use xlink:href="#DejaVuSans-34"/>
       <use xlink:href="#DejaVuSans-30" x="63.623047"/>
      </g>
     </g>
    </g>
    <g id="xtick_2">
     <g id="line2d_2">
      <g>
       <use xlink:href="#mf967df03a5" x="156.800865" y="314.44" style="stroke: #000000; stroke-width: 0.8"/>
      </g>
     </g>
     <g id="text_2">
      <!-- 60 -->
      <g transform="translate(150.438365 329.038437) scale(0.1 -0.1)">
       <defs>
        <path id="DejaVuSans-36" d="M 2113 2584 
Q 1688 2584 1439 2293 
Q 1191 2003 1191 1497 
Q 1191 994 1439 701 
Q 1688 409 2113 409 
Q 2538 409 2786 701 
Q 3034 994 3034 1497 
Q 3034 2003 2786 2293 
Q 2538 2584 2113 2584 
z
M 3366 4563 
L 3366 3988 
Q 3128 4100 2886 4159 
Q 2644 4219 2406 4219 
Q 1781 4219 1451 3797 
Q 1122 3375 1075 2522 
Q 1259 2794 1537 2939 
Q 1816 3084 2150 3084 
Q 2853 3084 3261 2657 
Q 3669 2231 3669 1497 
Q 3669 778 3244 343 
Q 2819 -91 2113 -91 
Q 1303 -91 875 529 
Q 447 1150 447 2328 
Q 447 3434 972 4092 
Q 1497 4750 2381 4750 
Q 2619 4750 2861 4703 
Q 3103 4656 3366 4563 
z
" transform="scale(0.015625)"/>
       </defs>
       <use xlink:href="#DejaVuSans-36"/>
       <use xlink:href="#DejaVuSans-30" x="63.623047"/>
      </g>
     </g>
    </g>
    <g id="xtick_3">
     <g id="line2d_3">
      <g>
       <use xlink:href="#mf967df03a5" x="219.661576" y="314.44" style="stroke: #000000; stroke-width: 0.8"/>
      </g>
     </g>
     <g id="text_3">
      <!-- 80 -->
      <g transform="translate(213.299076 329.038437) scale(0.1 -0.1)">
       <defs>
        <path id="DejaVuSans-38" d="M 2034 2216 
Q 1584 2216 1326 1975 
Q 1069 1734 1069 1313 
Q 1069 891 1326 650 
Q 1584 409 2034 409 
Q 2484 409 2743 651 
Q 3003 894 3003 1313 
Q 3003 1734 2745 1975 
Q 2488 2216 2034 2216 
z
M 1403 2484 
Q 997 2584 770 2862 
Q 544 3141 544 3541 
Q 544 4100 942 4425 
Q 1341 4750 2034 4750 
Q 2731 4750 3128 4425 
Q 3525 4100 3525 3541 
Q 3525 3141 3298 2862 
Q 3072 2584 2669 2484 
Q 3125 2378 3379 2068 
Q 3634 1759 3634 1313 
Q 3634 634 3220 271 
Q 2806 -91 2034 -91 
Q 1263 -91 848 271 
Q 434 634 434 1313 
Q 434 1759 690 2068 
Q 947 2378 1403 2484 
z
M 1172 3481 
Q 1172 3119 1398 2916 
Q 1625 2713 2034 2713 
Q 2441 2713 2670 2916 
Q 2900 3119 2900 3481 
Q 2900 3844 2670 4047 
Q 2441 4250 2034 4250 
Q 1625 4250 1398 4047 
Q 1172 3844 1172 3481 
z
" transform="scale(0.015625)"/>
       </defs>
       <use xlink:href="#DejaVuSans-38"/>
       <use xlink:href="#DejaVuSans-30" x="63.623047"/>
      </g>
     </g>
    </g>
    <g id="xtick_4">
     <g id="line2d_4">
      <g>
       <use xlink:href="#mf967df03a5" x="282.522288" y="314.44" style="stroke: #000000; stroke-width: 0.8"/>
      </g>
     </g>
     <g id="text_4">
      <!-- 100 -->
      <g transform="translate(272.978538 329.038437) scale(0.1 -0.1)">
       <defs>
        <path id="DejaVuSans-31" d="M 794 531 
L 1825 531 
L 1825 4091 
L 703 3866 
L 703 4441 
L 1819 4666 
L 2450 4666 
L 2450 531 
L 3481 531 
L 3481 0 
L 794 0 
L 794 531 
z
" transform="scale(0.015625)"/>
       </defs>
       <use xlink:href="#DejaVuSans-31"/>
       <use xlink:href="#DejaVuSans-30" x="63.623047"/>
       <use xlink:href="#DejaVuSans-30" x="127.246094"/>
      </g>
     </g>
    </g>
    <g id="xtick_5">
     <g id="line2d_5">
      <g>
       <use xlink:href="#mf967df03a5" x="345.382999" y="314.44" style="stroke: #000000; stroke-width: 0.8"/>
      </g>
     </g>
     <g id="text_5">
      <!-- 120 -->
      <g transform="translate(335.839249 329.038437) scale(0.1 -0.1)">
       <defs>
        <path id="DejaVuSans-32" d="M 1228 531 
L 3431 531 
L 3431 0 
L 469 0 
L 469 531 
Q 828 903 1448 1529 
Q 2069 2156 2228 2338 
Q 2531 2678 2651 2914 
Q 2772 3150 2772 3378 
Q 2772 3750 2511 3984 
Q 2250 4219 1831 4219 
Q 1534 4219 1204 4116 
Q 875 4013 500 3803 
L 500 4441 
Q 881 4594 1212 4672 
Q 1544 4750 1819 4750 
Q 2544 4750 2975 4387 
Q 3406 4025 3406 3419 
Q 3406 3131 3298 2873 
Q 3191 2616 2906 2266 
Q 2828 2175 2409 1742 
Q 1991 1309 1228 531 
z
" transform="scale(0.015625)"/>
       </defs>
       <use xlink:href="#DejaVuSans-31"/>
       <use xlink:href="#DejaVuSans-32" x="63.623047"/>
       <use xlink:href="#DejaVuSans-30" x="127.246094"/>
      </g>
     </g>
    </g>
    <g id="xtick_6">
     <g id="line2d_6">
      <g>
       <use xlink:href="#mf967df03a5" x="408.24371" y="314.44" style="stroke: #000000; stroke-width: 0.8"/>
      </g>
     </g>
     <g id="text_6">
      <!-- 140 -->
      <g transform="translate(398.69996 329.038437) scale(0.1 -0.1)">
       <use xlink:href="#DejaVuSans-31"/>
       <use xlink:href="#DejaVuSans-34" x="63.623047"/>
       <use xlink:href="#DejaVuSans-30" x="127.246094"/>
      </g>
     </g>
    </g>
    <g id="xtick_7">
     <g id="line2d_7">
      <g>
       <use xlink:href="#mf967df03a5" x="471.104421" y="314.44" style="stroke: #000000; stroke-width: 0.8"/>
      </g>
     </g>
     <g id="text_7">
      <!-- 160 -->
      <g transform="translate(461.560671 329.038437) scale(0.1 -0.1)">
       <use xlink:href="#DejaVuSans-31"/>
       <use xlink:href="#DejaVuSans-36" x="63.623047"/>
       <use xlink:href="#DejaVuSans-30" x="127.246094"/>
      </g>
     </g>
    </g>
    <g id="text_8">
     <!-- MW, g/mol -->
     <g transform="translate(259.649219 342.716562) scale(0.1 -0.1)">
      <defs>
       <path id="DejaVuSans-4d" d="M 628 4666 
L 1569 4666 
L 2759 1491 
L 3956 4666 
L 4897 4666 
L 4897 0 
L 4281 0 
L 4281 4097 
L 3078 897 
L 2444 897 
L 1241 4097 
L 1241 0 
L 628 0 
L 628 4666 
z
" transform="scale(0.015625)"/>
       <path id="DejaVuSans-57" d="M 213 4666 
L 850 4666 
L 1831 722 
L 2809 4666 
L 3519 4666 
L 4500 722 
L 5478 4666 
L 6119 4666 
L 4947 0 
L 4153 0 
L 3169 4050 
L 2175 0 
L 1381 0 
L 213 4666 
z
" transform="scale(0.015625)"/>
       <path id="DejaVuSans-2c" d="M 750 794 
L 1409 794 
L 1409 256 
L 897 -744 
L 494 -744 
L 750 256 
L 750 794 
z
" transform="scale(0.015625)"/>
       <path id="DejaVuSans-20" transform="scale(0.015625)"/>
       <path id="DejaVuSans-67" d="M 2906 1791 
Q 2906 2416 2648 2759 
Q 2391 3103 1925 3103 
Q 1463 3103 1205 2759 
Q 947 2416 947 1791 
Q 947 1169 1205 825 
Q 1463 481 1925 481 
Q 2391 481 2648 825 
Q 2906 1169 2906 1791 
z
M 3481 434 
Q 3481 -459 3084 -895 
Q 2688 -1331 1869 -1331 
Q 1566 -1331 1297 -1286 
Q 1028 -1241 775 -1147 
L 775 -588 
Q 1028 -725 1275 -790 
Q 1522 -856 1778 -856 
Q 2344 -856 2625 -561 
Q 2906 -266 2906 331 
L 2906 616 
Q 2728 306 2450 153 
Q 2172 0 1784 0 
Q 1141 0 747 490 
Q 353 981 353 1791 
Q 353 2603 747 3093 
Q 1141 3584 1784 3584 
Q 2172 3584 2450 3431 
Q 2728 3278 2906 2969 
L 2906 3500 
L 3481 3500 
L 3481 434 
z
" transform="scale(0.015625)"/>
       <path id="DejaVuSans-2f" d="M 1625 4666 
L 2156 4666 
L 531 -594 
L 0 -594 
L 1625 4666 
z
" transform="scale(0.015625)"/>
       <path id="DejaVuSans-6d" d="M 3328 2828 
Q 3544 3216 3844 3400 
Q 4144 3584 4550 3584 
Q 5097 3584 5394 3201 
Q 5691 2819 5691 2113 
L 5691 0 
L 5113 0 
L 5113 2094 
Q 5113 2597 4934 2840 
Q 4756 3084 4391 3084 
Q 3944 3084 3684 2787 
Q 3425 2491 3425 1978 
L 3425 0 
L 2847 0 
L 2847 2094 
Q 2847 2600 2669 2842 
Q 2491 3084 2119 3084 
Q 1678 3084 1418 2786 
Q 1159 2488 1159 1978 
L 1159 0 
L 581 0 
L 581 3500 
L 1159 3500 
L 1159 2956 
Q 1356 3278 1631 3431 
Q 1906 3584 2284 3584 
Q 2666 3584 2933 3390 
Q 3200 3197 3328 2828 
z
" transform="scale(0.015625)"/>
       <path id="DejaVuSans-6f" d="M 1959 3097 
Q 1497 3097 1228 2736 
Q 959 2375 959 1747 
Q 959 1119 1226 758 
Q 1494 397 1959 397 
Q 2419 397 2687 759 
Q 2956 1122 2956 1747 
Q 2956 2369 2687 2733 
Q 2419 3097 1959 3097 
z
M 1959 3584 
Q 2709 3584 3137 3096 
Q 3566 2609 3566 1747 
Q 3566 888 3137 398 
Q 2709 -91 1959 -91 
Q 1206 -91 779 398 
Q 353 888 353 1747 
Q 353 2609 779 3096 
Q 1206 3584 1959 3584 
z
" transform="scale(0.015625)"/>
       <path id="DejaVuSans-6c" d="M 603 4863 
L 1178 4863 
L 1178 0 
L 603 0 
L 603 4863 
z
" transform="scale(0.015625)"/>
      </defs>
      <use xlink:href="#DejaVuSans-4d"/>
      <use xlink:href="#DejaVuSans-57" x="86.279297"/>
      <use xlink:href="#DejaVuSans-2c" x="185.15625"/>
      <use xlink:href="#DejaVuSans-20" x="216.943359"/>
      <use xlink:href="#DejaVuSans-67" x="248.730469"/>
      <use xlink:href="#DejaVuSans-2f" x="312.207031"/>
      <use xlink:href="#DejaVuSans-6d" x="345.898438"/>
      <use xlink:href="#DejaVuSans-6f" x="443.310547"/>
      <use xlink:href="#DejaVuSans-6c" x="504.492188"/>
     </g>
    </g>
   </g>
   <g id="matplotlib.axis_2">
    <g id="ytick_1">
     <g id="line2d_8">
      <defs>
       <path id="m56a6cbb52a" d="M 0 0 
L -3.5 0 
" style="stroke: #000000; stroke-width: 0.8"/>
      </defs>
      <g>
       <use xlink:href="#m56a6cbb52a" x="47.1875" y="272.696986" style="stroke: #000000; stroke-width: 0.8"/>
      </g>
     </g>
     <g id="text_9">
      <!-- 50 -->
      <g transform="translate(27.4625 276.496205) scale(0.1 -0.1)">
       <defs>
        <path id="DejaVuSans-35" d="M 691 4666 
L 3169 4666 
L 3169 4134 
L 1269 4134 
L 1269 2991 
Q 1406 3038 1543 3061 
Q 1681 3084 1819 3084 
Q 2600 3084 3056 2656 
Q 3513 2228 3513 1497 
Q 3513 744 3044 326 
Q 2575 -91 1722 -91 
Q 1428 -91 1123 -41 
Q 819 9 494 109 
L 494 744 
Q 775 591 1075 516 
Q 1375 441 1709 441 
Q 2250 441 2565 725 
Q 2881 1009 2881 1497 
Q 2881 1984 2565 2268 
Q 2250 2553 1709 2553 
Q 1456 2553 1204 2497 
Q 953 2441 691 2322 
L 691 4666 
z
" transform="scale(0.015625)"/>
       </defs>
       <use xlink:href="#DejaVuSans-35"/>
       <use xlink:href="#DejaVuSans-30" x="63.623047"/>
      </g>
     </g>
    </g>
    <g id="ytick_2">
     <g id="line2d_9">
      <g>
       <use xlink:href="#m56a6cbb52a" x="47.1875" y="209.566169" style="stroke: #000000; stroke-width: 0.8"/>
      </g>
     </g>
     <g id="text_10">
      <!-- 100 -->
      <g transform="translate(21.1 213.365387) scale(0.1 -0.1)">
       <use xlink:href="#DejaVuSans-31"/>
       <use xlink:href="#DejaVuSans-30" x="63.623047"/>
       <use xlink:href="#DejaVuSans-30" x="127.246094"/>
      </g>
     </g>
    </g>
    <g id="ytick_3">
     <g id="line2d_10">
      <g>
       <use xlink:href="#m56a6cbb52a" x="47.1875" y="146.435351" style="stroke: #000000; stroke-width: 0.8"/>
      </g>
     </g>
     <g id="text_11">
      <!-- 150 -->
      <g transform="translate(21.1 150.23457) scale(0.1 -0.1)">
       <use xlink:href="#DejaVuSans-31"/>
       <use xlink:href="#DejaVuSans-35" x="63.623047"/>
       <use xlink:href="#DejaVuSans-30" x="127.246094"/>
      </g>
     </g>
    </g>
    <g id="ytick_4">
     <g id="line2d_11">
      <g>
       <use xlink:href="#m56a6cbb52a" x="47.1875" y="83.304534" style="stroke: #000000; stroke-width: 0.8"/>
      </g>
     </g>
     <g id="text_12">
      <!-- 200 -->
      <g transform="translate(21.1 87.103753) scale(0.1 -0.1)">
       <use xlink:href="#DejaVuSans-32"/>
       <use xlink:href="#DejaVuSans-30" x="63.623047"/>
       <use xlink:href="#DejaVuSans-30" x="127.246094"/>
      </g>
     </g>
    </g>
    <g id="ytick_5">
     <g id="line2d_12">
      <g>
       <use xlink:href="#m56a6cbb52a" x="47.1875" y="20.173717" style="stroke: #000000; stroke-width: 0.8"/>
      </g>
     </g>
     <g id="text_13">
      <!-- 250 -->
      <g transform="translate(21.1 23.972936) scale(0.1 -0.1)">
       <use xlink:href="#DejaVuSans-32"/>
       <use xlink:href="#DejaVuSans-35" x="63.623047"/>
       <use xlink:href="#DejaVuSans-30" x="127.246094"/>
      </g>
     </g>
    </g>
    <g id="text_14">
     <!-- bp, $^o$C -->
     <g transform="translate(15 176.17) rotate(-90) scale(0.1 -0.1)">
      <defs>
       <path id="DejaVuSans-62" d="M 3116 1747 
Q 3116 2381 2855 2742 
Q 2594 3103 2138 3103 
Q 1681 3103 1420 2742 
Q 1159 2381 1159 1747 
Q 1159 1113 1420 752 
Q 1681 391 2138 391 
Q 2594 391 2855 752 
Q 3116 1113 3116 1747 
z
M 1159 2969 
Q 1341 3281 1617 3432 
Q 1894 3584 2278 3584 
Q 2916 3584 3314 3078 
Q 3713 2572 3713 1747 
Q 3713 922 3314 415 
Q 2916 -91 2278 -91 
Q 1894 -91 1617 61 
Q 1341 213 1159 525 
L 1159 0 
L 581 0 
L 581 4863 
L 1159 4863 
L 1159 2969 
z
" transform="scale(0.015625)"/>
       <path id="DejaVuSans-70" d="M 1159 525 
L 1159 -1331 
L 581 -1331 
L 581 3500 
L 1159 3500 
L 1159 2969 
Q 1341 3281 1617 3432 
Q 1894 3584 2278 3584 
Q 2916 3584 3314 3078 
Q 3713 2572 3713 1747 
Q 3713 922 3314 415 
Q 2916 -91 2278 -91 
Q 1894 -91 1617 61 
Q 1341 213 1159 525 
z
M 3116 1747 
Q 3116 2381 2855 2742 
Q 2594 3103 2138 3103 
Q 1681 3103 1420 2742 
Q 1159 2381 1159 1747 
Q 1159 1113 1420 752 
Q 1681 391 2138 391 
Q 2594 391 2855 752 
Q 3116 1113 3116 1747 
z
" transform="scale(0.015625)"/>
       <path id="DejaVuSans-Oblique-6f" d="M 1625 -91 
Q 1009 -91 651 289 
Q 294 669 294 1325 
Q 294 1706 417 2101 
Q 541 2497 738 2766 
Q 1047 3184 1428 3384 
Q 1809 3584 2291 3584 
Q 2888 3584 3255 3212 
Q 3622 2841 3622 2241 
Q 3622 1825 3500 1412 
Q 3378 1000 3181 728 
Q 2875 309 2494 109 
Q 2113 -91 1625 -91 
z
M 891 1344 
Q 891 869 1089 633 
Q 1288 397 1691 397 
Q 2269 397 2648 901 
Q 3028 1406 3028 2181 
Q 3028 2634 2825 2865 
Q 2622 3097 2228 3097 
Q 1903 3097 1650 2945 
Q 1397 2794 1197 2484 
Q 1050 2253 970 1956 
Q 891 1659 891 1344 
z
" transform="scale(0.015625)"/>
       <path id="DejaVuSans-43" d="M 4122 4306 
L 4122 3641 
Q 3803 3938 3442 4084 
Q 3081 4231 2675 4231 
Q 1875 4231 1450 3742 
Q 1025 3253 1025 2328 
Q 1025 1406 1450 917 
Q 1875 428 2675 428 
Q 3081 428 3442 575 
Q 3803 722 4122 1019 
L 4122 359 
Q 3791 134 3420 21 
Q 3050 -91 2638 -91 
Q 1578 -91 968 557 
Q 359 1206 359 2328 
Q 359 3453 968 4101 
Q 1578 4750 2638 4750 
Q 3056 4750 3426 4639 
Q 3797 4528 4122 4306 
z
" transform="scale(0.015625)"/>
      </defs>
      <use xlink:href="#DejaVuSans-62" transform="translate(0 0.51875)"/>
      <use xlink:href="#DejaVuSans-70" transform="translate(63.476562 0.51875)"/>
      <use xlink:href="#DejaVuSans-2c" transform="translate(126.953125 0.51875)"/>
      <use xlink:href="#DejaVuSans-20" transform="translate(158.740234 0.51875)"/>
      <use xlink:href="#DejaVuSans-Oblique-6f" transform="translate(191.484375 38.8) scale(0.7)"/>
      <use xlink:href="#DejaVuSans-43" transform="translate(237.045898 0.51875)"/>
     </g>
    </g>
   </g>
   <g id="line2d_13">
    <path d="M 68.921591 264.477912 
L 72.929437 262.198411 
L 76.937284 259.91891 
L 80.945131 257.639409 
L 84.952977 255.359908 
L 88.960824 253.080407 
L 92.96867 250.800906 
L 96.976517 248.521405 
L 100.984363 246.241904 
L 104.99221 243.962403 
L 109.000056 241.682902 
L 113.007903 239.403401 
L 117.01575 237.1239 
L 121.023596 234.844399 
L 125.031443 232.564898 
L 129.039289 230.285397 
L 133.047136 228.005896 
L 137.054982 225.726395 
L 141.062829 223.446894 
L 145.070676 221.167393 
L 149.078522 218.887892 
L 153.086369 216.608391 
L 157.094215 214.32889 
L 161.102062 212.049389 
L 165.109908 209.769888 
L 169.117755 207.490387 
L 173.125601 205.210886 
L 177.133448 202.931385 
L 181.141295 200.651884 
L 185.149141 198.372383 
L 189.156988 196.092882 
L 193.164834 193.813381 
L 197.172681 191.53388 
L 201.180527 189.254379 
L 205.188374 186.974878 
L 209.19622 184.695377 
L 213.204067 182.415876 
L 217.211914 180.136375 
L 221.21976 177.856874 
L 225.227607 175.577373 
L 229.235453 173.297872 
L 233.2433 171.018371 
L 237.251146 168.73887 
L 241.258993 166.459369 
L 245.266839 164.179868 
L 249.274686 161.900367 
L 253.282533 159.620866 
L 257.290379 157.341365 
L 261.298226 155.061864 
L 265.306072 152.782363 
L 269.313919 150.502862 
L 273.321765 148.223361 
L 277.329612 145.94386 
L 281.337459 143.664359 
L 285.345305 141.384858 
L 289.353152 139.105357 
L 293.360998 136.825856 
L 297.368845 134.546355 
L 301.376691 132.266854 
L 305.384538 129.987353 
L 309.392384 127.707852 
L 313.400231 125.428351 
L 317.408078 123.14885 
L 321.415924 120.869349 
L 325.423771 118.589848 
L 329.431617 116.310347 
L 333.439464 114.030846 
L 337.44731 111.751345 
L 341.455157 109.471844 
L 345.463003 107.192343 
L 349.47085 104.912842 
L 353.478697 102.633341 
L 357.486543 100.35384 
L 361.49439 98.074339 
L 365.502236 95.794838 
L 369.510083 93.515337 
L 373.517929 91.235836 
L 377.525776 88.956335 
L 381.533622 86.676834 
L 385.541469 84.397333 
L 389.549316 82.117832 
L 393.557162 79.838331 
L 397.565009 77.55883 
L 401.572855 75.279329 
L 405.580702 72.999828 
L 409.588548 70.720327 
L 413.596395 68.440826 
L 417.604242 66.161325 
L 421.612088 63.881824 
L 425.619935 61.602323 
L 429.627781 59.322822 
L 433.635628 57.043321 
L 437.643474 54.76382 
L 441.651321 52.484319 
L 445.659167 50.204818 
L 449.667014 47.925317 
L 453.674861 45.645816 
L 457.682707 43.366315 
L 461.690554 41.086814 
L 465.6984 38.807313 
" clip-path="url(#p910f92077d)" style="fill: none; stroke: #1f77b4; stroke-width: 2.25; stroke-linecap: square"/>
   </g>
   <g id="line2d_14">
    <path d="M 194.988747 289.069245 
L 198.106067 286.680929 
L 201.223387 284.292614 
L 204.340707 281.904298 
L 207.458027 279.515983 
L 210.575346 277.127667 
L 213.692666 274.739352 
L 216.809986 272.351036 
L 219.927306 269.962721 
L 223.044626 267.574406 
L 226.161945 265.18609 
L 229.279265 262.797775 
L 232.396585 260.409459 
L 235.513905 258.021144 
L 238.631225 255.632828 
L 241.748545 253.244513 
L 244.865864 250.856197 
L 247.983184 248.467882 
L 251.100504 246.079566 
L 254.217824 243.691251 
L 257.335144 241.302935 
L 260.452463 238.91462 
L 263.569783 236.526305 
L 266.687103 234.137989 
L 269.804423 231.749674 
L 272.921743 229.361358 
L 276.039063 226.973043 
L 279.156382 224.584727 
L 282.273702 222.196412 
L 285.391022 219.808096 
L 288.508342 217.419781 
L 291.625662 215.031465 
L 294.742981 212.64315 
L 297.860301 210.254834 
L 300.977621 207.866519 
L 304.094941 205.478204 
L 307.212261 203.089888 
L 310.32958 200.701573 
L 313.4469 198.313257 
L 316.56422 195.924942 
L 319.68154 193.536626 
L 322.79886 191.148311 
L 325.91618 188.759995 
L 329.033499 186.37168 
L 332.150819 183.983364 
L 335.268139 181.595049 
L 338.385459 179.206733 
L 341.502779 176.818418 
L 344.620098 174.430103 
L 347.737418 172.041787 
L 350.854738 169.653472 
L 353.972058 167.265156 
L 357.089378 164.876841 
L 360.206698 162.488525 
L 363.324017 160.10021 
L 366.441337 157.711894 
L 369.558657 155.323579 
L 372.675977 152.935263 
L 375.793297 150.546948 
L 378.910616 148.158632 
L 382.027936 145.770317 
L 385.145256 143.382002 
L 388.262576 140.993686 
L 391.379896 138.605371 
L 394.497216 136.217055 
L 397.614535 133.82874 
L 400.731855 131.440424 
L 403.849175 129.052109 
L 406.966495 126.663793 
L 410.083815 124.275478 
L 413.201134 121.887162 
L 416.318454 119.498847 
L 419.435774 117.110531 
L 422.553094 114.722216 
L 425.670414 112.333901 
L 428.787734 109.945585 
L 431.905053 107.55727 
L 435.022373 105.168954 
L 438.139693 102.780639 
L 441.257013 100.392323 
L 444.374333 98.004008 
L 447.491652 95.615692 
L 450.608972 93.227377 
L 453.726292 90.839061 
L 456.843612 88.450746 
L 459.960932 86.06243 
L 463.078251 83.674115 
L 466.195571 81.2858 
L 469.312891 78.897484 
L 472.430211 76.509169 
L 475.547531 74.120853 
L 478.664851 71.732538 
L 481.78217 69.344222 
L 484.89949 66.955907 
L 488.01681 64.567591 
L 491.13413 62.179276 
L 494.25145 59.79096 
L 497.368769 57.402645 
L 500.486089 55.014329 
L 503.603409 52.626014 
" clip-path="url(#p910f92077d)" style="fill: none; stroke: #ff7f0e; stroke-width: 2.25; stroke-linecap: square"/>
   </g>
   <g id="patch_3">
    <path d="M 47.1875 314.44 
L 47.1875 7.2 
" style="fill: none; stroke: #000000; stroke-width: 0.8; stroke-linejoin: miter; stroke-linecap: square"/>
   </g>
   <g id="patch_4">
    <path d="M 47.1875 314.44 
L 525.3375 314.44 
" style="fill: none; stroke: #000000; stroke-width: 0.8; stroke-linejoin: miter; stroke-linecap: square"/>
   </g>
   <g id="legend_1">
    <g id="patch_5">
     <path d="M 54.1875 59.234375 
L 121.945312 59.234375 
Q 123.945312 59.234375 123.945312 57.234375 
L 123.945312 14.2 
Q 123.945312 12.2 121.945312 12.2 
L 54.1875 12.2 
Q 52.1875 12.2 52.1875 14.2 
L 52.1875 57.234375 
Q 52.1875 59.234375 54.1875 59.234375 
z
" style="fill: #ffffff; opacity: 0.8; stroke: #cccccc; stroke-linejoin: miter"/>
    </g>
    <g id="text_15">
     <!-- type -->
     <g transform="translate(76.896094 23.798437) scale(0.1 -0.1)">
      <defs>
       <path id="DejaVuSans-74" d="M 1172 4494 
L 1172 3500 
L 2356 3500 
L 2356 3053 
L 1172 3053 
L 1172 1153 
Q 1172 725 1289 603 
Q 1406 481 1766 481 
L 2356 481 
L 2356 0 
L 1766 0 
Q 1100 0 847 248 
Q 594 497 594 1153 
L 594 3053 
L 172 3053 
L 172 3500 
L 594 3500 
L 594 4494 
L 1172 4494 
z
" transform="scale(0.015625)"/>
       <path id="DejaVuSans-79" d="M 2059 -325 
Q 1816 -950 1584 -1140 
Q 1353 -1331 966 -1331 
L 506 -1331 
L 506 -850 
L 844 -850 
Q 1081 -850 1212 -737 
Q 1344 -625 1503 -206 
L 1606 56 
L 191 3500 
L 800 3500 
L 1894 763 
L 2988 3500 
L 3597 3500 
L 2059 -325 
z
" transform="scale(0.015625)"/>
       <path id="DejaVuSans-65" d="M 3597 1894 
L 3597 1613 
L 953 1613 
Q 991 1019 1311 708 
Q 1631 397 2203 397 
Q 2534 397 2845 478 
Q 3156 559 3463 722 
L 3463 178 
Q 3153 47 2828 -22 
Q 2503 -91 2169 -91 
Q 1331 -91 842 396 
Q 353 884 353 1716 
Q 353 2575 817 3079 
Q 1281 3584 2069 3584 
Q 2775 3584 3186 3129 
Q 3597 2675 3597 1894 
z
M 3022 2063 
Q 3016 2534 2758 2815 
Q 2500 3097 2075 3097 
Q 1594 3097 1305 2825 
Q 1016 2553 972 2059 
L 3022 2063 
z
" transform="scale(0.015625)"/>
      </defs>
      <use xlink:href="#DejaVuSans-74"/>
      <use xlink:href="#DejaVuSans-79" x="39.208984"/>
      <use xlink:href="#DejaVuSans-70" x="98.388672"/>
      <use xlink:href="#DejaVuSans-65" x="161.865234"/>
     </g>
    </g>
    <g id="PathCollection_3">
     <g>
      <use xlink:href="#mca5d4336e7" x="66.1875" y="35.851562" style="fill: #1f77b4; fill-opacity: 0.8; stroke: #1f77b4; stroke-opacity: 0.8"/>
     </g>
    </g>
    <g id="text_16">
     <!-- alcohol -->
     <g transform="translate(84.1875 38.476562) scale(0.1 -0.1)">
      <defs>
       <path id="DejaVuSans-61" d="M 2194 1759 
Q 1497 1759 1228 1600 
Q 959 1441 959 1056 
Q 959 750 1161 570 
Q 1363 391 1709 391 
Q 2188 391 2477 730 
Q 2766 1069 2766 1631 
L 2766 1759 
L 2194 1759 
z
M 3341 1997 
L 3341 0 
L 2766 0 
L 2766 531 
Q 2569 213 2275 61 
Q 1981 -91 1556 -91 
Q 1019 -91 701 211 
Q 384 513 384 1019 
Q 384 1609 779 1909 
Q 1175 2209 1959 2209 
L 2766 2209 
L 2766 2266 
Q 2766 2663 2505 2880 
Q 2244 3097 1772 3097 
Q 1472 3097 1187 3025 
Q 903 2953 641 2809 
L 641 3341 
Q 956 3463 1253 3523 
Q 1550 3584 1831 3584 
Q 2591 3584 2966 3190 
Q 3341 2797 3341 1997 
z
" transform="scale(0.015625)"/>
       <path id="DejaVuSans-63" d="M 3122 3366 
L 3122 2828 
Q 2878 2963 2633 3030 
Q 2388 3097 2138 3097 
Q 1578 3097 1268 2742 
Q 959 2388 959 1747 
Q 959 1106 1268 751 
Q 1578 397 2138 397 
Q 2388 397 2633 464 
Q 2878 531 3122 666 
L 3122 134 
Q 2881 22 2623 -34 
Q 2366 -91 2075 -91 
Q 1284 -91 818 406 
Q 353 903 353 1747 
Q 353 2603 823 3093 
Q 1294 3584 2113 3584 
Q 2378 3584 2631 3529 
Q 2884 3475 3122 3366 
z
" transform="scale(0.015625)"/>
       <path id="DejaVuSans-68" d="M 3513 2113 
L 3513 0 
L 2938 0 
L 2938 2094 
Q 2938 2591 2744 2837 
Q 2550 3084 2163 3084 
Q 1697 3084 1428 2787 
Q 1159 2491 1159 1978 
L 1159 0 
L 581 0 
L 581 4863 
L 1159 4863 
L 1159 2956 
Q 1366 3272 1645 3428 
Q 1925 3584 2291 3584 
Q 2894 3584 3203 3211 
Q 3513 2838 3513 2113 
z
" transform="scale(0.015625)"/>
      </defs>
      <use xlink:href="#DejaVuSans-61"/>
      <use xlink:href="#DejaVuSans-6c" x="61.279297"/>
      <use xlink:href="#DejaVuSans-63" x="89.0625"/>
      <use xlink:href="#DejaVuSans-6f" x="144.042969"/>
      <use xlink:href="#DejaVuSans-68" x="205.224609"/>
      <use xlink:href="#DejaVuSans-6f" x="268.603516"/>
      <use xlink:href="#DejaVuSans-6c" x="329.785156"/>
     </g>
    </g>
    <g id="PathCollection_4">
     <g>
      <use xlink:href="#me318e33e08" x="66.1875" y="50.529688" style="fill: #ff7f0e; fill-opacity: 0.8; stroke: #ff7f0e; stroke-opacity: 0.8"/>
     </g>
    </g>
    <g id="text_17">
     <!-- alkane -->
     <g transform="translate(84.1875 53.154688) scale(0.1 -0.1)">
      <defs>
       <path id="DejaVuSans-6b" d="M 581 4863 
L 1159 4863 
L 1159 1991 
L 2875 3500 
L 3609 3500 
L 1753 1863 
L 3688 0 
L 2938 0 
L 1159 1709 
L 1159 0 
L 581 0 
L 581 4863 
z
" transform="scale(0.015625)"/>
       <path id="DejaVuSans-6e" d="M 3513 2113 
L 3513 0 
L 2938 0 
L 2938 2094 
Q 2938 2591 2744 2837 
Q 2550 3084 2163 3084 
Q 1697 3084 1428 2787 
Q 1159 2491 1159 1978 
L 1159 0 
L 581 0 
L 581 3500 
L 1159 3500 
L 1159 2956 
Q 1366 3272 1645 3428 
Q 1925 3584 2291 3584 
Q 2894 3584 3203 3211 
Q 3513 2838 3513 2113 
z
" transform="scale(0.015625)"/>
      </defs>
      <use xlink:href="#DejaVuSans-61"/>
      <use xlink:href="#DejaVuSans-6c" x="61.279297"/>
      <use xlink:href="#DejaVuSans-6b" x="89.0625"/>
      <use xlink:href="#DejaVuSans-61" x="145.222656"/>
      <use xlink:href="#DejaVuSans-6e" x="206.501953"/>
      <use xlink:href="#DejaVuSans-65" x="269.880859"/>
     </g>
    </g>
   </g>
  </g>
 </g>
 <defs>
  <clipPath id="p910f92077d">
   <rect x="47.1875" y="7.2" width="478.15" height="307.24"/>
  </clipPath>
 </defs>
</svg>