<?xml version="1.0" encoding="utf-8" standalone="no"?>
<!DOCTYPE svg PUBLIC "-//W3C//DTD SVG 1.1//EN"
  "http://www.w3.org/Graphics/SVG/1.1/DTD/svg11.dtd">
<svg xmlns:xlink="http://www.w3.org/1999/xlink" width="391.245pt" height="297.190125pt" viewBox="0 0 391.245 297.190125" xmlns="http://www.w3.org/2000/svg" version="1.1">
 <metadata>
  <rdf:RDF xmlns:dc="http://purl.org/dc/elements/1.1/" xmlns:cc="http://creativecommons.org/ns#" xmlns:rdf="http://www.w3.org/1999/02/22-rdf-syntax-ns#">
   <cc:Work>
    <dc:type rdf:resource="http://purl.org/dc/dcmitype/StillImage"/>
    <dc:date>2023-12-05T16:27:30.281238</dc:date>
    <dc:format>image/svg+xml</dc:format>
    <dc:creator>
     <cc:Agent>
      <dc:title>Matplotlib v3.7.2, https://matplotlib.org/</dc:title>
     </cc:Agent>
    </dc:creator>
   </cc:Work>
  </rdf:RDF>
 </metadata>
 <defs>
  <style type="text/css">*{stroke-linejoin: round; stroke-linecap: butt}</style>
 </defs>
 <g id="figure_1">
  <g id="patch_1">
   <path d="M 0 297.190125 
L 391.245 297.190125 
L 391.245 0 
L 0 0 
z
" style="fill: #ffffff"/>
  </g>
  <g id="axes_1">
   <g id="patch_2">
    <path d="M 26.925 273.312 
L 384.045 273.312 
L 384.045 7.2 
L 26.925 7.2 
z
" style="fill: #ffffff"/>
   </g>
   <g id="PathCollection_1">
    <defs>
     <path id="m86513a5804" d="M 0 3 
C 0.795609 3 1.55874 2.683901 2.12132 2.12132 
C 2.683901 1.55874 3 0.795609 3 0 
C 3 -0.795609 2.683901 -1.55874 2.12132 -2.12132 
C 1.55874 -2.683901 0.795609 -3 0 -3 
C -0.795609 -3 -1.55874 -2.683901 -2.12132 -2.12132 
C -2.683901 -1.55874 -3 -0.795609 -3 0 
C -3 0.795609 -2.683901 1.55874 -2.12132 2.12132 
C -1.55874 2.683901 -0.795609 3 0 3 
z
" style="stroke: #1f77b4; stroke-opacity: 0.8"/>
    </defs>
    <g clip-path="url(#p6e63608e17)">
     <use xlink:href="#m86513a5804" x="43.157727" y="244.523533" style="fill: #1f77b4; fill-opacity: 0.8; stroke: #1f77b4; stroke-opacity: 0.8"/>
     <use xlink:href="#m86513a5804" x="79.230455" y="230.740077" style="fill: #1f77b4; fill-opacity: 0.8; stroke: #1f77b4; stroke-opacity: 0.8"/>
     <use xlink:href="#m86513a5804" x="115.303182" y="190.47767" style="fill: #1f77b4; fill-opacity: 0.8; stroke: #1f77b4; stroke-opacity: 0.8"/>
     <use xlink:href="#m86513a5804" x="151.375909" y="188.166654" style="fill: #1f77b4; fill-opacity: 0.8; stroke: #1f77b4; stroke-opacity: 0.8"/>
     <use xlink:href="#m86513a5804" x="187.448636" y="133.95624" style="fill: #1f77b4; fill-opacity: 0.8; stroke: #1f77b4; stroke-opacity: 0.8"/>
     <use xlink:href="#m86513a5804" x="223.521364" y="124.322362" style="fill: #1f77b4; fill-opacity: 0.8; stroke: #1f77b4; stroke-opacity: 0.8"/>
     <use xlink:href="#m86513a5804" x="259.594091" y="116.737319" style="fill: #1f77b4; fill-opacity: 0.8; stroke: #1f77b4; stroke-opacity: 0.8"/>
     <use xlink:href="#m86513a5804" x="295.666818" y="85.727385" style="fill: #1f77b4; fill-opacity: 0.8; stroke: #1f77b4; stroke-opacity: 0.8"/>
     <use xlink:href="#m86513a5804" x="331.739545" y="53.539464" style="fill: #1f77b4; fill-opacity: 0.8; stroke: #1f77b4; stroke-opacity: 0.8"/>
     <use xlink:href="#m86513a5804" x="367.812273" y="19.432519" style="fill: #1f77b4; fill-opacity: 0.8; stroke: #1f77b4; stroke-opacity: 0.8"/>
    </g>
   </g>
   <g id="PolyCollection_1">
    <path d="M 43.157727 236.841206 
L 43.157727 261.216 
L 46.437066 258.829504 
L 49.716405 256.443008 
L 52.995744 254.056512 
L 56.275083 251.670016 
L 59.554421 249.283461 
L 62.83376 246.896416 
L 66.113099 244.596461 
L 69.392438 242.296506 
L 72.671777 239.99655 
L 75.951116 237.661554 
L 79.230455 235.28588 
L 82.509793 232.907415 
L 85.789132 230.528598 
L 89.068471 228.142709 
L 92.34781 225.720162 
L 95.627149 223.297615 
L 98.906488 220.940967 
L 102.185826 218.619633 
L 105.465165 216.294586 
L 108.744504 213.892875 
L 112.023843 211.534516 
L 115.303182 209.135176 
L 118.582521 206.752377 
L 121.86186 204.374379 
L 125.141198 201.99638 
L 128.420537 199.618382 
L 131.699876 197.240384 
L 134.979215 194.864359 
L 138.258554 192.488463 
L 141.537893 190.196999 
L 144.817231 188.01086 
L 148.09657 185.7072 
L 151.375909 183.445505 
L 154.655248 181.212348 
L 157.934587 178.999046 
L 161.213926 176.70869 
L 164.493264 174.341606 
L 167.772603 172.011429 
L 171.051942 169.650679 
L 174.331281 167.286285 
L 177.61062 164.945218 
L 180.889959 162.636288 
L 184.169298 160.367411 
L 187.448636 158.065584 
L 190.727975 155.88738 
L 194.007314 153.708234 
L 197.286653 151.446875 
L 200.565992 149.137277 
L 203.845331 146.768837 
L 207.124669 144.542139 
L 210.404008 142.252959 
L 213.683347 140.06648 
L 216.962686 137.877914 
L 220.242025 135.612875 
L 223.521364 133.36493 
L 226.800702 131.138876 
L 230.080041 129.077516 
L 233.35938 126.944663 
L 236.638719 124.761677 
L 239.918058 122.574373 
L 243.197397 120.386106 
L 246.476736 118.266425 
L 249.756074 116.140632 
L 253.035413 114.06627 
L 256.314752 111.992574 
L 259.594091 109.918877 
L 262.87343 107.842022 
L 266.152769 105.789123 
L 269.432107 103.692782 
L 272.711446 101.61415 
L 275.990785 99.448583 
L 279.270124 97.284695 
L 282.549463 95.218165 
L 285.828802 93.164503 
L 289.10814 91.082062 
L 292.387479 89.016231 
L 295.666818 87.020831 
L 298.946157 84.974051 
L 302.225496 82.926037 
L 305.504835 80.860835 
L 308.784174 78.786265 
L 312.063512 76.711695 
L 315.342851 74.637124 
L 318.62219 72.55968 
L 321.901529 70.486011 
L 325.180868 68.422439 
L 328.460207 66.373012 
L 331.739545 64.323614 
L 335.018884 62.309493 
L 338.298223 60.295371 
L 341.577562 58.358331 
L 344.856901 56.330472 
L 348.13624 54.483455 
L 351.415579 52.635451 
L 354.694917 50.782035 
L 357.974256 48.811567 
L 361.253595 46.754848 
L 364.532934 44.696648 
L 367.812273 42.638448 
L 367.812273 19.296 
L 367.812273 19.296 
L 364.532934 21.622882 
L 361.253595 23.950492 
L 357.974256 26.278103 
L 354.694917 28.605713 
L 351.415579 30.919191 
L 348.13624 33.204214 
L 344.856901 35.488117 
L 341.577562 37.771284 
L 338.298223 40.05445 
L 335.018884 42.337617 
L 331.739545 44.620784 
L 328.460207 46.90395 
L 325.180868 49.187117 
L 321.901529 51.470283 
L 318.62219 53.753464 
L 315.342851 56.041331 
L 312.063512 58.356868 
L 308.784174 60.792924 
L 305.504835 63.157534 
L 302.225496 65.384519 
L 298.946157 67.611505 
L 295.666818 69.83849 
L 292.387479 72.065475 
L 289.10814 74.315629 
L 285.828802 76.599868 
L 282.549463 78.898219 
L 279.270124 81.209373 
L 275.990785 83.520873 
L 272.711446 85.827593 
L 269.432107 88.055225 
L 266.152769 90.301295 
L 262.87343 92.556326 
L 259.594091 94.804721 
L 256.314752 97.053115 
L 253.035413 99.304739 
L 249.756074 101.53925 
L 246.476736 103.76943 
L 243.197397 105.996128 
L 239.918058 108.222731 
L 236.638719 110.490115 
L 233.35938 112.771 
L 230.080041 115.012192 
L 226.800702 117.312946 
L 223.521364 119.550665 
L 220.242025 121.686626 
L 216.962686 124.015227 
L 213.683347 126.312474 
L 210.404008 128.564771 
L 207.124669 130.792516 
L 203.845331 133.024822 
L 200.565992 135.256947 
L 197.286653 137.412882 
L 194.007314 139.597776 
L 190.727975 141.870968 
L 187.448636 144.053617 
L 184.169298 146.14481 
L 180.889959 148.310798 
L 177.61062 150.532953 
L 174.331281 152.559601 
L 171.051942 154.810431 
L 167.772603 157.024405 
L 164.493264 159.19366 
L 161.213926 161.421917 
L 157.934587 163.557588 
L 154.655248 165.694791 
L 151.375909 167.954613 
L 148.09657 170.183942 
L 144.817231 172.26497 
L 141.537893 174.52765 
L 138.258554 176.664492 
L 134.979215 178.838062 
L 131.699876 180.940062 
L 128.420537 183.034913 
L 125.141198 185.13416 
L 121.86186 187.290826 
L 118.582521 189.321382 
L 115.303182 191.330866 
L 112.023843 193.466696 
L 108.744504 195.604017 
L 105.465165 197.740305 
L 102.185826 199.896961 
L 98.906488 201.981625 
L 95.627149 204.038819 
L 92.34781 206.073511 
L 89.068471 208.073172 
L 85.789132 210.102879 
L 82.509793 212.262696 
L 79.230455 214.342343 
L 75.951116 216.464863 
L 72.671777 218.536072 
L 69.392438 220.606209 
L 66.113099 222.676346 
L 62.83376 224.738212 
L 59.554421 226.696083 
L 56.275083 228.695839 
L 52.995744 230.678072 
L 49.716405 232.718407 
L 46.437066 234.839954 
L 43.157727 236.841206 
z
" clip-path="url(#p6e63608e17)" style="fill: #1f77b4; fill-opacity: 0.15"/>
   </g>
   <g id="matplotlib.axis_1">
    <g id="xtick_1">
     <g id="line2d_1">
      <defs>
       <path id="m47b8c9d0a2" d="M 0 0 
L 0 3.5 
" style="stroke: #000000; stroke-width: 0.8"/>
      </defs>
      <g>
       <use xlink:href="#m47b8c9d0a2" x="43.157727" y="273.312" style="stroke: #000000; stroke-width: 0.8"/>
      </g>
     </g>
     <g id="text_1">
      <!-- 0 -->
      <g transform="translate(39.976477 287.910437) scale(0.1 -0.1)">
       <defs>
        <path id="DejaVuSans-30" d="M 2034 4250 
Q 1547 4250 1301 3770 
Q 1056 3291 1056 2328 
Q 1056 1369 1301 889 
Q 1547 409 2034 409 
Q 2525 409 2770 889 
Q 3016 1369 3016 2328 
Q 3016 3291 2770 3770 
Q 2525 4250 2034 4250 
z
M 2034 4750 
Q 2819 4750 3233 4129 
Q 3647 3509 3647 2328 
Q 3647 1150 3233 529 
Q 2819 -91 2034 -91 
Q 1250 -91 836 529 
Q 422 1150 422 2328 
Q 422 3509 836 4129 
Q 1250 4750 2034 4750 
z
" transform="scale(0.015625)"/>
       </defs>
       <use xlink:href="#DejaVuSans-30"/>
      </g>
     </g>
    </g>
    <g id="xtick_2">
     <g id="line2d_2">
      <g>
       <use xlink:href="#m47b8c9d0a2" x="115.303182" y="273.312" style="stroke: #000000; stroke-width: 0.8"/>
      </g>
     </g>
     <g id="text_2">
      <!-- 2 -->
      <g transform="translate(112.121932 287.910437) scale(0.1 -0.1)">
       <defs>
        <path id="DejaVuSans-32" d="M 1228 531 
L 3431 531 
L 3431 0 
L 469 0 
L 469 531 
Q 828 903 1448 1529 
Q 2069 2156 2228 2338 
Q 2531 2678 2651 2914 
Q 2772 3150 2772 3378 
Q 2772 3750 2511 3984 
Q 2250 4219 1831 4219 
Q 1534 4219 1204 4116 
Q 875 4013 500 3803 
L 500 4441 
Q 881 4594 1212 4672 
Q 1544 4750 1819 4750 
Q 2544 4750 2975 4387 
Q 3406 4025 3406 3419 
Q 3406 3131 3298 2873 
Q 3191 2616 2906 2266 
Q 2828 2175 2409 1742 
Q 1991 1309 1228 531 
z
" transform="scale(0.015625)"/>
       </defs>
       <use xlink:href="#DejaVuSans-32"/>
      </g>
     </g>
    </g>
    <g id="xtick_3">
     <g id="line2d_3">
      <g>
       <use xlink:href="#m47b8c9d0a2" x="187.448636" y="273.312" style="stroke: #000000; stroke-width: 0.8"/>
      </g>
     </g>
     <g id="text_3">
      <!-- 4 -->
      <g transform="translate(184.267386 287.910437) scale(0.1 -0.1)">
       <defs>
        <path id="DejaVuSans-34" d="M 2419 4116 
L 825 1625 
L 2419 1625 
L 2419 4116 
z
M 2253 4666 
L 3047 4666 
L 3047 1625 
L 3713 1625 
L 3713 1100 
L 3047 1100 
L 3047 0 
L 2419 0 
L 2419 1100 
L 313 1100 
L 313 1709 
L 2253 4666 
z
" transform="scale(0.015625)"/>
       </defs>
       <use xlink:href="#DejaVuSans-34"/>
      </g>
     </g>
    </g>
    <g id="xtick_4">
     <g id="line2d_4">
      <g>
       <use xlink:href="#m47b8c9d0a2" x="259.594091" y="273.312" style="stroke: #000000; stroke-width: 0.8"/>
      </g>
     </g>
     <g id="text_4">
      <!-- 6 -->
      <g transform="translate(256.412841 287.910437) scale(0.1 -0.1)">
       <defs>
        <path id="DejaVuSans-36" d="M 2113 2584 
Q 1688 2584 1439 2293 
Q 1191 2003 1191 1497 
Q 1191 994 1439 701 
Q 1688 409 2113 409 
Q 2538 409 2786 701 
Q 3034 994 3034 1497 
Q 3034 2003 2786 2293 
Q 2538 2584 2113 2584 
z
M 3366 4563 
L 3366 3988 
Q 3128 4100 2886 4159 
Q 2644 4219 2406 4219 
Q 1781 4219 1451 3797 
Q 1122 3375 1075 2522 
Q 1259 2794 1537 2939 
Q 1816 3084 2150 3084 
Q 2853 3084 3261 2657 
Q 3669 2231 3669 1497 
Q 3669 778 3244 343 
Q 2819 -91 2113 -91 
Q 1303 -91 875 529 
Q 447 1150 447 2328 
Q 447 3434 972 4092 
Q 1497 4750 2381 4750 
Q 2619 4750 2861 4703 
Q 3103 4656 3366 4563 
z
" transform="scale(0.015625)"/>
       </defs>
       <use xlink:href="#DejaVuSans-36"/>
      </g>
     </g>
    </g>
    <g id="xtick_5">
     <g id="line2d_5">
      <g>
       <use xlink:href="#m47b8c9d0a2" x="331.739545" y="273.312" style="stroke: #000000; stroke-width: 0.8"/>
      </g>
     </g>
     <g id="text_5">
      <!-- 8 -->
      <g transform="translate(328.558295 287.910437) scale(0.1 -0.1)">
       <defs>
        <path id="DejaVuSans-38" d="M 2034 2216 
Q 1584 2216 1326 1975 
Q 1069 1734 1069 1313 
Q 1069 891 1326 650 
Q 1584 409 2034 409 
Q 2484 409 2743 651 
Q 3003 894 3003 1313 
Q 3003 1734 2745 1975 
Q 2488 2216 2034 2216 
z
M 1403 2484 
Q 997 2584 770 2862 
Q 544 3141 544 3541 
Q 544 4100 942 4425 
Q 1341 4750 2034 4750 
Q 2731 4750 3128 4425 
Q 3525 4100 3525 3541 
Q 3525 3141 3298 2862 
Q 3072 2584 2669 2484 
Q 3125 2378 3379 2068 
Q 3634 1759 3634 1313 
Q 3634 634 3220 271 
Q 2806 -91 2034 -91 
Q 1263 -91 848 271 
Q 434 634 434 1313 
Q 434 1759 690 2068 
Q 947 2378 1403 2484 
z
M 1172 3481 
Q 1172 3119 1398 2916 
Q 1625 2713 2034 2713 
Q 2441 2713 2670 2916 
Q 2900 3119 2900 3481 
Q 2900 3844 2670 4047 
Q 2441 4250 2034 4250 
Q 1625 4250 1398 4047 
Q 1172 3844 1172 3481 
z
" transform="scale(0.015625)"/>
       </defs>
       <use xlink:href="#DejaVuSans-38"/>
      </g>
     </g>
    </g>
   </g>
   <g id="matplotlib.axis_2">
    <g id="ytick_1">
     <g id="line2d_6">
      <defs>
       <path id="m48cd5efcda" d="M 0 0 
L -3.5 0 
" style="stroke: #000000; stroke-width: 0.8"/>
      </defs>
      <g>
       <use xlink:href="#m48cd5efcda" x="26.925" y="239.947476" style="stroke: #000000; stroke-width: 0.8"/>
      </g>
     </g>
     <g id="text_6">
      <!-- 0 -->
      <g transform="translate(13.5625 243.746695) scale(0.1 -0.1)">
       <use xlink:href="#DejaVuSans-30"/>
      </g>
     </g>
    </g>
    <g id="ytick_2">
     <g id="line2d_7">
      <g>
       <use xlink:href="#m48cd5efcda" x="26.925" y="187.025502" style="stroke: #000000; stroke-width: 0.8"/>
      </g>
     </g>
     <g id="text_7">
      <!-- 5 -->
      <g transform="translate(13.5625 190.824721) scale(0.1 -0.1)">
       <defs>
        <path id="DejaVuSans-35" d="M 691 4666 
L 3169 4666 
L 3169 4134 
L 1269 4134 
L 1269 2991 
Q 1406 3038 1543 3061 
Q 1681 3084 1819 3084 
Q 2600 3084 3056 2656 
Q 3513 2228 3513 1497 
Q 3513 744 3044 326 
Q 2575 -91 1722 -91 
Q 1428 -91 1123 -41 
Q 819 9 494 109 
L 494 744 
Q 775 591 1075 516 
Q 1375 441 1709 441 
Q 2250 441 2565 725 
Q 2881 1009 2881 1497 
Q 2881 1984 2565 2268 
Q 2250 2553 1709 2553 
Q 1456 2553 1204 2497 
Q 953 2441 691 2322 
L 691 4666 
z
" transform="scale(0.015625)"/>
       </defs>
       <use xlink:href="#DejaVuSans-35"/>
      </g>
     </g>
    </g>
    <g id="ytick_3">
     <g id="line2d_8">
      <g>
       <use xlink:href="#m48cd5efcda" x="26.925" y="134.103528" style="stroke: #000000; stroke-width: 0.8"/>
      </g>
     </g>
     <g id="text_8">
      <!-- 10 -->
      <g transform="translate(7.2 137.902747) scale(0.1 -0.1)">
       <defs>
        <path id="DejaVuSans-31" d="M 794 531 
L 1825 531 
L 1825 4091 
L 703 3866 
L 703 4441 
L 1819 4666 
L 2450 4666 
L 2450 531 
L 3481 531 
L 3481 0 
L 794 0 
L 794 531 
z
" transform="scale(0.015625)"/>
       </defs>
       <use xlink:href="#DejaVuSans-31"/>
       <use xlink:href="#DejaVuSans-30" x="63.623047"/>
      </g>
     </g>
    </g>
    <g id="ytick_4">
     <g id="line2d_9">
      <g>
       <use xlink:href="#m48cd5efcda" x="26.925" y="81.181554" style="stroke: #000000; stroke-width: 0.8"/>
      </g>
     </g>
     <g id="text_9">
      <!-- 15 -->
      <g transform="translate(7.2 84.980773) scale(0.1 -0.1)">
       <use xlink:href="#DejaVuSans-31"/>
       <use xlink:href="#DejaVuSans-35" x="63.623047"/>
      </g>
     </g>
    </g>
    <g id="ytick_5">
     <g id="line2d_10">
      <g>
       <use xlink:href="#m48cd5efcda" x="26.925" y="28.259581" style="stroke: #000000; stroke-width: 0.8"/>
      </g>
     </g>
     <g id="text_10">
      <!-- 20 -->
      <g transform="translate(7.2 32.058799) scale(0.1 -0.1)">
       <use xlink:href="#DejaVuSans-32"/>
       <use xlink:href="#DejaVuSans-30" x="63.623047"/>
      </g>
     </g>
    </g>
   </g>
   <g id="line2d_11">
    <path d="M 43.157727 248.232233 
L 46.437066 246.02072 
L 49.716405 243.809206 
L 52.995744 241.597693 
L 56.275083 239.38618 
L 59.554421 237.174666 
L 62.83376 234.963153 
L 66.113099 232.75164 
L 69.392438 230.540126 
L 72.671777 228.328613 
L 75.951116 226.1171 
L 79.230455 223.905586 
L 82.509793 221.694073 
L 85.789132 219.482559 
L 89.068471 217.271046 
L 92.34781 215.059533 
L 95.627149 212.848019 
L 98.906488 210.636506 
L 102.185826 208.424993 
L 105.465165 206.213479 
L 108.744504 204.001966 
L 112.023843 201.790453 
L 115.303182 199.578939 
L 118.582521 197.367426 
L 121.86186 195.155913 
L 125.141198 192.944399 
L 128.420537 190.732886 
L 131.699876 188.521373 
L 134.979215 186.309859 
L 138.258554 184.098346 
L 141.537893 181.886833 
L 144.817231 179.675319 
L 148.09657 177.463806 
L 151.375909 175.252293 
L 154.655248 173.040779 
L 157.934587 170.829266 
L 161.213926 168.617753 
L 164.493264 166.406239 
L 167.772603 164.194726 
L 171.051942 161.983213 
L 174.331281 159.771699 
L 177.61062 157.560186 
L 180.889959 155.348673 
L 184.169298 153.137159 
L 187.448636 150.925646 
L 190.727975 148.714133 
L 194.007314 146.502619 
L 197.286653 144.291106 
L 200.565992 142.079592 
L 203.845331 139.868079 
L 207.124669 137.656566 
L 210.404008 135.445052 
L 213.683347 133.233539 
L 216.962686 131.022026 
L 220.242025 128.810512 
L 223.521364 126.598999 
L 226.800702 124.387486 
L 230.080041 122.175972 
L 233.35938 119.964459 
L 236.638719 117.752946 
L 239.918058 115.541432 
L 243.197397 113.329919 
L 246.476736 111.118406 
L 249.756074 108.906892 
L 253.035413 106.695379 
L 256.314752 104.483866 
L 259.594091 102.272352 
L 262.87343 100.060839 
L 266.152769 97.849326 
L 269.432107 95.637812 
L 272.711446 93.426299 
L 275.990785 91.214786 
L 279.270124 89.003272 
L 282.549463 86.791759 
L 285.828802 84.580246 
L 289.10814 82.368732 
L 292.387479 80.157219 
L 295.666818 77.945706 
L 298.946157 75.734192 
L 302.225496 73.522679 
L 305.504835 71.311165 
L 308.784174 69.099652 
L 312.063512 66.888139 
L 315.342851 64.676625 
L 318.62219 62.465112 
L 321.901529 60.253599 
L 325.180868 58.042085 
L 328.460207 55.830572 
L 331.739545 53.619059 
L 335.018884 51.407545 
L 338.298223 49.196032 
L 341.577562 46.984519 
L 344.856901 44.773005 
L 348.13624 42.561492 
L 351.415579 40.349979 
L 354.694917 38.138465 
L 357.974256 35.926952 
L 361.253595 33.715439 
L 364.532934 31.503925 
L 367.812273 29.292412 
" clip-path="url(#p6e63608e17)" style="fill: none; stroke: #1f77b4; stroke-width: 2.25; stroke-linecap: square"/>
   </g>
   <g id="patch_3">
    <path d="M 26.925 273.312 
L 26.925 7.2 
" style="fill: none; stroke: #000000; stroke-width: 0.8; stroke-linejoin: miter; stroke-linecap: square"/>
   </g>
   <g id="patch_4">
    <path d="M 384.045 273.312 
L 384.045 7.2 
" style="fill: none; stroke: #000000; stroke-width: 0.8; stroke-linejoin: miter; stroke-linecap: square"/>
   </g>
   <g id="patch_5">
    <path d="M 26.925 273.312 
L 384.045 273.312 
" style="fill: none; stroke: #000000; stroke-width: 0.8; stroke-linejoin: miter; stroke-linecap: square"/>
   </g>
   <g id="patch_6">
    <path d="M 26.925 7.2 
L 384.045 7.2 
" style="fill: none; stroke: #000000; stroke-width: 0.8; stroke-linejoin: miter; stroke-linecap: square"/>
   </g>
  </g>
 </g>
 <defs>
  <clipPath id="p6e63608e17">
   <rect x="26.925" y="7.2" width="357.12" height="266.112"/>
  </clipPath>
 </defs>
</svg>