<?xml version="1.0" encoding="utf-8" standalone="no"?>
<!DOCTYPE svg PUBLIC "-//W3C//DTD SVG 1.1//EN"
  "http://www.w3.org/Graphics/SVG/1.1/DTD/svg11.dtd">
<svg xmlns:xlink="http://www.w3.org/1999/xlink" width="419.973025pt" height="351.99625pt" viewBox="0 0 419.973025 351.99625" xmlns="http://www.w3.org/2000/svg" version="1.1">
 <metadata>
  <rdf:RDF xmlns:dc="http://purl.org/dc/elements/1.1/" xmlns:cc="http://creativecommons.org/ns#" xmlns:rdf="http://www.w3.org/1999/02/22-rdf-syntax-ns#">
   <cc:Work>
    <dc:type rdf:resource="http://purl.org/dc/dcmitype/StillImage"/>
    <dc:date>2023-12-05T16:27:31.271021</dc:date>
    <dc:format>image/svg+xml</dc:format>
    <dc:creator>
     <cc:Agent>
      <dc:title>Matplotlib v3.7.2, https://matplotlib.org/</dc:title>
     </cc:Agent>
    </dc:creator>
   </cc:Work>
  </rdf:RDF>
 </metadata>
 <defs>
  <style type="text/css">*{stroke-linejoin: round; stroke-linecap: butt}</style>
 </defs>
 <g id="figure_1">
  <g id="patch_1">
   <path d="M 0 351.99625 
L 419.973025 351.99625 
L 419.973025 0 
L 0 0 
z
" style="fill: #ffffff"/>
  </g>
  <g id="axes_1">
   <g id="patch_2">
    <path d="M 47.1875 314.44 
L 341.634825 314.44 
L 341.634825 7.2 
L 47.1875 7.2 
z
" style="fill: #ffffff"/>
   </g>
   <g id="PathCollection_1">
    <defs>
     <path id="m1e2f73c64a" d="M 0 3 
C 0.795609 3 1.55874 2.683901 2.12132 2.12132 
C 2.683901 1.55874 3 0.795609 3 0 
C 3 -0.795609 2.683901 -1.55874 2.12132 -2.12132 
C 1.55874 -2.683901 0.795609 -3 0 -3 
C -0.795609 -3 -1.55874 -2.683901 -2.12132 -2.12132 
C -2.683901 -1.55874 -3 -0.795609 -3 0 
C -3 0.795609 -2.683901 1.55874 -2.12132 2.12132 
C -1.55874 2.683901 -0.795609 3 0 3 
z
" style="stroke: #1f77b4; stroke-opacity: 0.8"/>
    </defs>
    <g clip-path="url(#p5e8f4625c6)">
     <use xlink:href="#m1e2f73c64a" x="60.571469" y="254.192718" style="fill: #1f77b4; fill-opacity: 0.8; stroke: #1f77b4; stroke-opacity: 0.8"/>
     <use xlink:href="#m1e2f73c64a" x="87.726508" y="237.931536" style="fill: #1f77b4; fill-opacity: 0.8; stroke: #1f77b4; stroke-opacity: 0.8"/>
     <use xlink:href="#m1e2f73c64a" x="114.881546" y="212.914332" style="fill: #1f77b4; fill-opacity: 0.8; stroke: #1f77b4; stroke-opacity: 0.8"/>
     <use xlink:href="#m1e2f73c64a" x="142.017229" y="187.897128" style="fill: #1f77b4; fill-opacity: 0.8; stroke: #1f77b4; stroke-opacity: 0.8"/>
     <use xlink:href="#m1e2f73c64a" x="169.172267" y="161.629064" style="fill: #1f77b4; fill-opacity: 0.8; stroke: #1f77b4; stroke-opacity: 0.8"/>
     <use xlink:href="#m1e2f73c64a" x="196.327306" y="139.11358" style="fill: #1f77b4; fill-opacity: 0.8; stroke: #1f77b4; stroke-opacity: 0.8"/>
     <use xlink:href="#m1e2f73c64a" x="223.462989" y="115.347236" style="fill: #1f77b4; fill-opacity: 0.8; stroke: #1f77b4; stroke-opacity: 0.8"/>
     <use xlink:href="#m1e2f73c64a" x="250.618027" y="91.580893" style="fill: #1f77b4; fill-opacity: 0.8; stroke: #1f77b4; stroke-opacity: 0.8"/>
     <use xlink:href="#m1e2f73c64a" x="277.75371" y="70.316269" style="fill: #1f77b4; fill-opacity: 0.8; stroke: #1f77b4; stroke-opacity: 0.8"/>
     <use xlink:href="#m1e2f73c64a" x="304.908749" y="45.299065" style="fill: #1f77b4; fill-opacity: 0.8; stroke: #1f77b4; stroke-opacity: 0.8"/>
     <use xlink:href="#m1e2f73c64a" x="142.017229" y="200.40573" style="fill: #1f77b4; fill-opacity: 0.8; stroke: #1f77b4; stroke-opacity: 0.8"/>
     <use xlink:href="#m1e2f73c64a" x="142.017229" y="231.677235" style="fill: #1f77b4; fill-opacity: 0.8; stroke: #1f77b4; stroke-opacity: 0.8"/>
     <use xlink:href="#m1e2f73c64a" x="169.172267" y="171.635945" style="fill: #1f77b4; fill-opacity: 0.8; stroke: #1f77b4; stroke-opacity: 0.8"/>
     <use xlink:href="#m1e2f73c64a" x="196.327306" y="166.632504" style="fill: #1f77b4; fill-opacity: 0.8; stroke: #1f77b4; stroke-opacity: 0.8"/>
     <use xlink:href="#m1e2f73c64a" x="223.462989" y="160.378203" style="fill: #1f77b4; fill-opacity: 0.8; stroke: #1f77b4; stroke-opacity: 0.8"/>
     <use xlink:href="#m1e2f73c64a" x="180.707836" y="107.842075" style="fill: #1f77b4; fill-opacity: 0.8; stroke: #1f77b4; stroke-opacity: 0.8"/>
     <use xlink:href="#m1e2f73c64a" x="207.862874" y="82.824871" style="fill: #1f77b4; fill-opacity: 0.8; stroke: #1f77b4; stroke-opacity: 0.8"/>
     <use xlink:href="#m1e2f73c64a" x="262.153596" y="60.309388" style="fill: #1f77b4; fill-opacity: 0.8; stroke: #1f77b4; stroke-opacity: 0.8"/>
    </g>
   </g>
   <g id="PolyCollection_1">
    <path d="M 60.571469 250.625158 
L 60.571469 284.857993 
L 63.039523 282.305171 
L 65.507576 279.749917 
L 67.975629 277.227748 
L 70.443683 274.765215 
L 72.911736 272.302683 
L 75.379789 269.838997 
L 77.847843 267.31924 
L 80.315896 264.638119 
L 82.783949 261.999756 
L 85.252003 259.526473 
L 87.720056 256.935728 
L 90.188109 254.29353 
L 92.656163 251.649383 
L 95.124216 249.295308 
L 97.592269 246.728743 
L 100.060323 244.133181 
L 102.528376 241.531474 
L 104.996429 238.929767 
L 107.464483 236.32806 
L 109.932536 233.726353 
L 112.400589 231.162372 
L 114.868643 228.66367 
L 117.336696 226.234675 
L 119.804749 223.80568 
L 122.272802 221.374139 
L 124.740856 218.916462 
L 127.208909 216.493426 
L 129.676962 214.07039 
L 132.145016 211.647354 
L 134.613069 209.236798 
L 137.081122 206.796226 
L 139.549176 204.258116 
L 142.017229 201.766323 
L 144.485282 199.27619 
L 146.953336 197.00114 
L 149.421389 194.679619 
L 151.889442 192.264295 
L 154.357496 189.868747 
L 156.825549 187.648225 
L 159.293602 185.330552 
L 161.761656 182.991332 
L 164.229709 180.747123 
L 166.697762 178.563754 
L 169.165816 176.355524 
L 171.633869 174.161361 
L 174.101922 171.771074 
L 176.569976 169.630325 
L 179.038029 167.38446 
L 181.506082 165.1553 
L 183.974136 162.791809 
L 186.442189 160.686312 
L 188.910242 158.600758 
L 191.378296 156.469496 
L 193.846349 154.407485 
L 196.314402 152.191515 
L 198.782456 149.952285 
L 201.250509 147.752652 
L 203.718562 145.482757 
L 206.186616 143.387105 
L 208.654669 141.268053 
L 211.122722 139.166711 
L 213.590776 137.126672 
L 216.058829 135.036555 
L 218.526882 133.038227 
L 220.994936 130.872928 
L 223.462989 128.717801 
L 225.931042 126.557262 
L 228.399096 124.454341 
L 230.867149 122.351419 
L 233.335202 120.246209 
L 235.803256 118.153509 
L 238.271309 116.078951 
L 240.739362 113.940726 
L 243.207416 111.841754 
L 245.675469 109.739559 
L 248.143522 107.606489 
L 250.611575 105.463233 
L 253.079629 103.409892 
L 255.547682 101.328293 
L 258.015735 99.227511 
L 260.483789 97.126728 
L 262.951842 95.025945 
L 265.419895 92.925163 
L 267.887949 90.824206 
L 270.356002 88.722177 
L 272.824055 86.620147 
L 275.292109 84.518118 
L 277.760162 82.416089 
L 280.228215 80.314059 
L 282.696269 78.21203 
L 285.164322 76.290516 
L 287.632375 74.276937 
L 290.100429 72.179943 
L 292.568482 70.075018 
L 295.036535 67.948329 
L 297.504589 65.864991 
L 299.972642 63.765931 
L 302.440695 61.665583 
L 304.908749 59.565235 
L 304.908749 21.165455 
L 304.908749 21.165455 
L 302.440695 23.671293 
L 299.972642 26.164416 
L 297.504589 28.681258 
L 295.036535 31.182859 
L 292.568482 33.69212 
L 290.100429 36.240691 
L 287.632375 38.7022 
L 285.164322 41.205442 
L 282.696269 43.708683 
L 280.228215 46.211925 
L 277.760162 48.715167 
L 275.292109 51.218408 
L 272.824055 53.667153 
L 270.356002 56.117602 
L 267.887949 58.569159 
L 265.419895 61.020716 
L 262.951842 63.61572 
L 260.483789 66.213614 
L 258.015735 68.754169 
L 255.547682 71.257835 
L 253.079629 73.72569 
L 250.611575 76.117263 
L 248.143522 78.508837 
L 245.675469 80.901973 
L 243.207416 83.323023 
L 240.739362 85.686202 
L 238.271309 88.041526 
L 235.803256 90.531537 
L 233.335202 93.00954 
L 230.867149 95.600519 
L 228.399096 98.066303 
L 225.931042 100.400517 
L 223.462989 102.733801 
L 220.994936 105.246677 
L 218.526882 107.574295 
L 216.058829 109.912859 
L 213.590776 112.33041 
L 211.122722 114.627292 
L 208.654669 117.071838 
L 206.186616 119.217541 
L 203.718562 121.540143 
L 201.250509 123.992193 
L 198.782456 126.38599 
L 196.314402 128.800653 
L 193.846349 131.165578 
L 191.378296 133.543147 
L 188.910242 135.88082 
L 186.442189 138.216877 
L 183.974136 140.521047 
L 181.506082 142.780223 
L 179.038029 144.941856 
L 176.569976 147.273942 
L 174.101922 149.547249 
L 171.633869 151.805697 
L 169.165816 154.064146 
L 166.697762 156.391558 
L 164.229709 158.724539 
L 161.761656 161.056668 
L 159.293602 163.38835 
L 156.825549 165.632753 
L 154.357496 167.874024 
L 151.889442 170.028833 
L 149.421389 172.225216 
L 146.953336 174.526622 
L 144.485282 176.722658 
L 142.017229 178.949518 
L 139.549176 181.141585 
L 137.081122 183.57164 
L 134.613069 185.741703 
L 132.145016 187.970886 
L 129.676962 190.16663 
L 127.208909 192.420952 
L 124.740856 194.634266 
L 122.272802 196.811403 
L 119.804749 198.993335 
L 117.336696 201.28821 
L 114.868643 203.577082 
L 112.400589 205.868956 
L 109.932536 208.015157 
L 107.464483 210.119979 
L 104.996429 212.2248 
L 102.528376 214.329622 
L 100.060323 216.434443 
L 97.592269 218.558409 
L 95.124216 220.771224 
L 92.656163 222.905914 
L 90.188109 225.079062 
L 87.720056 227.254063 
L 85.252003 229.426517 
L 82.783949 231.565784 
L 80.315896 233.685496 
L 77.847843 235.834754 
L 75.379789 237.948403 
L 72.911736 240.042123 
L 70.443683 242.127344 
L 67.975629 244.273967 
L 65.507576 246.399019 
L 63.039523 248.512571 
L 60.571469 250.625158 
z
" clip-path="url(#p5e8f4625c6)" style="fill: #1f77b4; fill-opacity: 0.15"/>
   </g>
   <g id="PathCollection_2">
    <defs>
     <path id="m9747bdfda4" d="M 0 3 
C 0.795609 3 1.55874 2.683901 2.12132 2.12132 
C 2.683901 1.55874 3 0.795609 3 0 
C 3 -0.795609 2.683901 -1.55874 2.12132 -2.12132 
C 1.55874 -2.683901 0.795609 -3 0 -3 
C -0.795609 -3 -1.55874 -2.683901 -2.12132 -2.12132 
C -2.683901 -1.55874 -3 -0.795609 -3 0 
C -3 0.795609 -2.683901 1.55874 -2.12132 2.12132 
C -1.55874 2.683901 -0.795609 3 0 3 
z
" style="stroke: #ff7f0e; stroke-opacity: 0.8"/>
    </defs>
    <g clip-path="url(#p5e8f4625c6)">
     <use xlink:href="#m9747bdfda4" x="138.204298" y="290.467664" style="fill: #ff7f0e; fill-opacity: 0.8; stroke: #ff7f0e; stroke-opacity: 0.8"/>
     <use xlink:href="#m9747bdfda4" x="165.359336" y="249.189277" style="fill: #ff7f0e; fill-opacity: 0.8; stroke: #ff7f0e; stroke-opacity: 0.8"/>
     <use xlink:href="#m9747bdfda4" x="192.514374" y="212.914332" style="fill: #ff7f0e; fill-opacity: 0.8; stroke: #ff7f0e; stroke-opacity: 0.8"/>
     <use xlink:href="#m9747bdfda4" x="219.650058" y="177.890246" style="fill: #ff7f0e; fill-opacity: 0.8; stroke: #ff7f0e; stroke-opacity: 0.8"/>
     <use xlink:href="#m9747bdfda4" x="246.805096" y="146.618741" style="fill: #ff7f0e; fill-opacity: 0.8; stroke: #ff7f0e; stroke-opacity: 0.8"/>
     <use xlink:href="#m9747bdfda4" x="273.960134" y="117.848957" style="fill: #ff7f0e; fill-opacity: 0.8; stroke: #ff7f0e; stroke-opacity: 0.8"/>
     <use xlink:href="#m9747bdfda4" x="301.095817" y="90.330032" style="fill: #ff7f0e; fill-opacity: 0.8; stroke: #ff7f0e; stroke-opacity: 0.8"/>
     <use xlink:href="#m9747bdfda4" x="328.250856" y="65.312828" style="fill: #ff7f0e; fill-opacity: 0.8; stroke: #ff7f0e; stroke-opacity: 0.8"/>
     <use xlink:href="#m9747bdfda4" x="165.359336" y="256.694439" style="fill: #ff7f0e; fill-opacity: 0.8; stroke: #ff7f0e; stroke-opacity: 0.8"/>
     <use xlink:href="#m9747bdfda4" x="219.650058" y="189.147988" style="fill: #ff7f0e; fill-opacity: 0.8; stroke: #ff7f0e; stroke-opacity: 0.8"/>
     <use xlink:href="#m9747bdfda4" x="138.204298" y="300.474545" style="fill: #ff7f0e; fill-opacity: 0.8; stroke: #ff7f0e; stroke-opacity: 0.8"/>
     <use xlink:href="#m9747bdfda4" x="192.514374" y="235.429815" style="fill: #ff7f0e; fill-opacity: 0.8; stroke: #ff7f0e; stroke-opacity: 0.8"/>
    </g>
   </g>
   <g id="PolyCollection_2">
    <path d="M 138.204298 280.425971 
L 138.204298 297.257267 
L 140.12396 294.817038 
L 142.043622 292.37681 
L 143.963284 289.864284 
L 145.882947 287.295829 
L 147.802609 284.678114 
L 149.722271 282.144123 
L 151.641933 279.60507 
L 153.561595 277.016518 
L 155.481258 274.445938 
L 157.40092 271.961996 
L 159.320582 269.425604 
L 161.240244 266.937428 
L 163.159906 264.491333 
L 165.079569 262.031726 
L 166.999231 259.503564 
L 168.918893 256.975726 
L 170.838555 254.521829 
L 172.758217 252.144746 
L 174.67788 249.711527 
L 176.597542 247.16781 
L 178.517204 244.60155 
L 180.436866 242.124319 
L 182.356528 239.647982 
L 184.276191 237.298406 
L 186.195853 234.891328 
L 188.115515 232.430034 
L 190.035177 230.052912 
L 191.954839 227.633703 
L 193.874502 225.205778 
L 195.794164 222.766882 
L 197.713826 220.357372 
L 199.633488 217.947863 
L 201.55315 215.550881 
L 203.472813 213.164453 
L 205.392475 210.72328 
L 207.312137 208.30999 
L 209.231799 205.860433 
L 211.151461 203.469276 
L 213.071124 201.082918 
L 214.990786 198.687567 
L 216.910448 196.286433 
L 218.83011 193.941932 
L 220.749772 191.598843 
L 222.669435 189.254206 
L 224.589097 186.905128 
L 226.508759 184.562799 
L 228.428421 182.145522 
L 230.348083 179.763679 
L 232.267746 177.384764 
L 234.187408 174.968392 
L 236.10707 172.599863 
L 238.026732 170.307046 
L 239.946394 167.984991 
L 241.866057 165.638726 
L 243.785719 163.256525 
L 245.705381 160.785666 
L 247.625043 158.427368 
L 249.544705 156.080994 
L 251.464368 153.788774 
L 253.38403 151.420577 
L 255.303692 149.075389 
L 257.223354 146.749661 
L 259.143016 144.392606 
L 261.062679 142.050482 
L 262.982341 139.744958 
L 264.902003 137.414485 
L 266.821665 135.038911 
L 268.741327 132.73448 
L 270.66099 130.460644 
L 272.580652 128.1855 
L 274.500314 125.838894 
L 276.419976 123.490797 
L 278.339638 121.156316 
L 280.259301 118.912667 
L 282.178963 116.668697 
L 284.098625 114.424636 
L 286.018287 112.180285 
L 287.937949 109.912381 
L 289.857612 107.609063 
L 291.777274 105.305404 
L 293.696936 103.00103 
L 295.616598 100.682981 
L 297.53626 98.385621 
L 299.455923 96.038901 
L 301.375585 93.768312 
L 303.295247 91.482665 
L 305.214909 89.180469 
L 307.134571 86.942923 
L 309.054234 84.617955 
L 310.973896 82.269342 
L 312.893558 79.965073 
L 314.81322 77.665593 
L 316.732882 75.360328 
L 318.652545 73.106136 
L 320.572207 70.795624 
L 322.491869 68.456759 
L 324.411531 66.166834 
L 326.331193 63.876909 
L 328.250856 61.602192 
L 328.250856 38.108466 
L 328.250856 38.108466 
L 326.331193 40.703417 
L 324.411531 43.298368 
L 322.491869 45.893319 
L 320.572207 48.48827 
L 318.652545 51.083221 
L 316.732882 53.678172 
L 314.81322 56.273123 
L 312.893558 58.868074 
L 310.973896 61.46312 
L 309.054234 64.062851 
L 307.134571 66.719735 
L 305.214909 69.32345 
L 303.295247 71.953724 
L 301.375585 74.544898 
L 299.455923 77.12095 
L 297.53626 79.696033 
L 295.616598 82.272751 
L 293.696936 84.849468 
L 291.777274 87.426185 
L 289.857612 90.002903 
L 287.937949 92.595269 
L 286.018287 95.189132 
L 284.098625 97.782995 
L 282.178963 100.376858 
L 280.259301 102.970721 
L 278.339638 105.564584 
L 276.419976 108.158447 
L 274.500314 110.752311 
L 272.580652 113.32669 
L 270.66099 115.89447 
L 268.741327 118.462249 
L 266.821665 121.030029 
L 264.902003 123.597808 
L 262.982341 126.165588 
L 261.062679 128.733367 
L 259.143016 131.301223 
L 257.223354 133.869585 
L 255.303692 136.437946 
L 253.38403 139.024444 
L 251.464368 141.623204 
L 249.544705 144.222641 
L 247.625043 146.8142 
L 245.705381 149.419485 
L 243.785719 152.018246 
L 241.866057 154.598732 
L 239.946394 157.162927 
L 238.026732 159.697153 
L 236.10707 162.277892 
L 234.187408 164.857029 
L 232.267746 167.289877 
L 230.348083 169.823677 
L 228.428421 172.278154 
L 226.508759 174.725199 
L 224.589097 177.099531 
L 222.669435 179.465215 
L 220.749772 181.876392 
L 218.83011 184.314944 
L 216.910448 186.768499 
L 214.990786 189.10886 
L 213.071124 191.523118 
L 211.151461 193.886114 
L 209.231799 196.423887 
L 207.312137 198.715886 
L 205.392475 201.062651 
L 203.472813 203.448413 
L 201.55315 205.724475 
L 199.633488 208.082716 
L 197.713826 210.319301 
L 195.794164 212.575896 
L 193.874502 214.787773 
L 191.954839 217.0213 
L 190.035177 219.256205 
L 188.115515 221.570287 
L 186.195853 223.887607 
L 184.276191 226.26498 
L 182.356528 228.522487 
L 180.436866 230.737812 
L 178.517204 233.04516 
L 176.597542 235.355222 
L 174.67788 237.634108 
L 172.758217 239.885842 
L 170.838555 242.140193 
L 168.918893 244.394545 
L 166.999231 246.673629 
L 165.079569 249.021812 
L 163.159906 251.369996 
L 161.240244 253.675578 
L 159.320582 255.903172 
L 157.40092 258.130765 
L 155.481258 260.358359 
L 153.561595 262.585953 
L 151.641933 264.813546 
L 149.722271 267.04114 
L 147.802609 269.268733 
L 145.882947 271.496327 
L 143.963284 273.72392 
L 142.043622 275.951514 
L 140.12396 278.179108 
L 138.204298 280.425971 
z
" clip-path="url(#p5e8f4625c6)" style="fill: #ff7f0e; fill-opacity: 0.15"/>
   </g>
   <g id="matplotlib.axis_1">
    <g id="xtick_1">
     <g id="line2d_1">
      <defs>
       <path id="m007c972498" d="M 0 0 
L 0 3.5 
" style="stroke: #000000; stroke-width: 0.8"/>
      </defs>
      <g>
       <use xlink:href="#m007c972498" x="75.978034" y="314.44" style="stroke: #000000; stroke-width: 0.8"/>
      </g>
     </g>
     <g id="text_1">
      <!-- 40 -->
      <g transform="translate(69.615534 329.038437) scale(0.1 -0.1)">
       <defs>
        <path id="DejaVuSans-34" d="M 2419 4116 
L 825 1625 
L 2419 1625 
L 2419 4116 
z
M 2253 4666 
L 3047 4666 
L 3047 1625 
L 3713 1625 
L 3713 1100 
L 3047 1100 
L 3047 0 
L 2419 0 
L 2419 1100 
L 313 1100 
L 313 1709 
L 2253 4666 
z
" transform="scale(0.015625)"/>
        <path id="DejaVuSans-30" d="M 2034 4250 
Q 1547 4250 1301 3770 
Q 1056 3291 1056 2328 
Q 1056 1369 1301 889 
Q 1547 409 2034 409 
Q 2525 409 2770 889 
Q 3016 1369 3016 2328 
Q 3016 3291 2770 3770 
Q 2525 4250 2034 4250 
z
M 2034 4750 
Q 2819 4750 3233 4129 
Q 3647 3509 3647 2328 
Q 3647 1150 3233 529 
Q 2819 -91 2034 -91 
Q 1250 -91 836 529 
Q 422 1150 422 2328 
Q 422 3509 836 4129 
Q 1250 4750 2034 4750 
z
" transform="scale(0.015625)"/>
       </defs>
       <use xlink:href="#DejaVuSans-34"/>
       <use xlink:href="#DejaVuSans-30" x="63.623047"/>
      </g>
     </g>
    </g>
    <g id="xtick_2">
     <g id="line2d_2">
      <g>
       <use xlink:href="#m007c972498" x="114.687996" y="314.44" style="stroke: #000000; stroke-width: 0.8"/>
      </g>
     </g>
     <g id="text_2">
      <!-- 60 -->
      <g transform="translate(108.325496 329.038437) scale(0.1 -0.1)">
       <defs>
        <path id="DejaVuSans-36" d="M 2113 2584 
Q 1688 2584 1439 2293 
Q 1191 2003 1191 1497 
Q 1191 994 1439 701 
Q 1688 409 2113 409 
Q 2538 409 2786 701 
Q 3034 994 3034 1497 
Q 3034 2003 2786 2293 
Q 2538 2584 2113 2584 
z
M 3366 4563 
L 3366 3988 
Q 3128 4100 2886 4159 
Q 2644 4219 2406 4219 
Q 1781 4219 1451 3797 
Q 1122 3375 1075 2522 
Q 1259 2794 1537 2939 
Q 1816 3084 2150 3084 
Q 2853 3084 3261 2657 
Q 3669 2231 3669 1497 
Q 3669 778 3244 343 
Q 2819 -91 2113 -91 
Q 1303 -91 875 529 
Q 447 1150 447 2328 
Q 447 3434 972 4092 
Q 1497 4750 2381 4750 
Q 2619 4750 2861 4703 
Q 3103 4656 3366 4563 
z
" transform="scale(0.015625)"/>
       </defs>
       <use xlink:href="#DejaVuSans-36"/>
       <use xlink:href="#DejaVuSans-30" x="63.623047"/>
      </g>
     </g>
    </g>
    <g id="xtick_3">
     <g id="line2d_3">
      <g>
       <use xlink:href="#m007c972498" x="153.397958" y="314.44" style="stroke: #000000; stroke-width: 0.8"/>
      </g>
     </g>
     <g id="text_3">
      <!-- 80 -->
      <g transform="translate(147.035458 329.038437) scale(0.1 -0.1)">
       <defs>
        <path id="DejaVuSans-38" d="M 2034 2216 
Q 1584 2216 1326 1975 
Q 1069 1734 1069 1313 
Q 1069 891 1326 650 
Q 1584 409 2034 409 
Q 2484 409 2743 651 
Q 3003 894 3003 1313 
Q 3003 1734 2745 1975 
Q 2488 2216 2034 2216 
z
M 1403 2484 
Q 997 2584 770 2862 
Q 544 3141 544 3541 
Q 544 4100 942 4425 
Q 1341 4750 2034 4750 
Q 2731 4750 3128 4425 
Q 3525 4100 3525 3541 
Q 3525 3141 3298 2862 
Q 3072 2584 2669 2484 
Q 3125 2378 3379 2068 
Q 3634 1759 3634 1313 
Q 3634 634 3220 271 
Q 2806 -91 2034 -91 
Q 1263 -91 848 271 
Q 434 634 434 1313 
Q 434 1759 690 2068 
Q 947 2378 1403 2484 
z
M 1172 3481 
Q 1172 3119 1398 2916 
Q 1625 2713 2034 2713 
Q 2441 2713 2670 2916 
Q 2900 3119 2900 3481 
Q 2900 3844 2670 4047 
Q 2441 4250 2034 4250 
Q 1625 4250 1398 4047 
Q 1172 3844 1172 3481 
z
" transform="scale(0.015625)"/>
       </defs>
       <use xlink:href="#DejaVuSans-38"/>
       <use xlink:href="#DejaVuSans-30" x="63.623047"/>
      </g>
     </g>
    </g>
    <g id="xtick_4">
     <g id="line2d_4">
      <g>
       <use xlink:href="#m007c972498" x="192.10792" y="314.44" style="stroke: #000000; stroke-width: 0.8"/>
      </g>
     </g>
     <g id="text_4">
      <!-- 100 -->
      <g transform="translate(182.56417 329.038437) scale(0.1 -0.1)">
       <defs>
        <path id="DejaVuSans-31" d="M 794 531 
L 1825 531 
L 1825 4091 
L 703 3866 
L 703 4441 
L 1819 4666 
L 2450 4666 
L 2450 531 
L 3481 531 
L 3481 0 
L 794 0 
L 794 531 
z
" transform="scale(0.015625)"/>
       </defs>
       <use xlink:href="#DejaVuSans-31"/>
       <use xlink:href="#DejaVuSans-30" x="63.623047"/>
       <use xlink:href="#DejaVuSans-30" x="127.246094"/>
      </g>
     </g>
    </g>
    <g id="xtick_5">
     <g id="line2d_5">
      <g>
       <use xlink:href="#m007c972498" x="230.817882" y="314.44" style="stroke: #000000; stroke-width: 0.8"/>
      </g>
     </g>
     <g id="text_5">
      <!-- 120 -->
      <g transform="translate(221.274132 329.038437) scale(0.1 -0.1)">
       <defs>
        <path id="DejaVuSans-32" d="M 1228 531 
L 3431 531 
L 3431 0 
L 469 0 
L 469 531 
Q 828 903 1448 1529 
Q 2069 2156 2228 2338 
Q 2531 2678 2651 2914 
Q 2772 3150 2772 3378 
Q 2772 3750 2511 3984 
Q 2250 4219 1831 4219 
Q 1534 4219 1204 4116 
Q 875 4013 500 3803 
L 500 4441 
Q 881 4594 1212 4672 
Q 1544 4750 1819 4750 
Q 2544 4750 2975 4387 
Q 3406 4025 3406 3419 
Q 3406 3131 3298 2873 
Q 3191 2616 2906 2266 
Q 2828 2175 2409 1742 
Q 1991 1309 1228 531 
z
" transform="scale(0.015625)"/>
       </defs>
       <use xlink:href="#DejaVuSans-31"/>
       <use xlink:href="#DejaVuSans-32" x="63.623047"/>
       <use xlink:href="#DejaVuSans-30" x="127.246094"/>
      </g>
     </g>
    </g>
    <g id="xtick_6">
     <g id="line2d_6">
      <g>
       <use xlink:href="#m007c972498" x="269.527844" y="314.44" style="stroke: #000000; stroke-width: 0.8"/>
      </g>
     </g>
     <g id="text_6">
      <!-- 140 -->
      <g transform="translate(259.984094 329.038437) scale(0.1 -0.1)">
       <use xlink:href="#DejaVuSans-31"/>
       <use xlink:href="#DejaVuSans-34" x="63.623047"/>
       <use xlink:href="#DejaVuSans-30" x="127.246094"/>
      </g>
     </g>
    </g>
    <g id="xtick_7">
     <g id="line2d_7">
      <g>
       <use xlink:href="#m007c972498" x="308.237805" y="314.44" style="stroke: #000000; stroke-width: 0.8"/>
      </g>
     </g>
     <g id="text_7">
      <!-- 160 -->
      <g transform="translate(298.694055 329.038437) scale(0.1 -0.1)">
       <use xlink:href="#DejaVuSans-31"/>
       <use xlink:href="#DejaVuSans-36" x="63.623047"/>
       <use xlink:href="#DejaVuSans-30" x="127.246094"/>
      </g>
     </g>
    </g>
    <g id="text_8">
     <!-- MW, g/mol -->
     <g transform="translate(167.797881 342.716562) scale(0.1 -0.1)">
      <defs>
       <path id="DejaVuSans-4d" d="M 628 4666 
L 1569 4666 
L 2759 1491 
L 3956 4666 
L 4897 4666 
L 4897 0 
L 4281 0 
L 4281 4097 
L 3078 897 
L 2444 897 
L 1241 4097 
L 1241 0 
L 628 0 
L 628 4666 
z
" transform="scale(0.015625)"/>
       <path id="DejaVuSans-57" d="M 213 4666 
L 850 4666 
L 1831 722 
L 2809 4666 
L 3519 4666 
L 4500 722 
L 5478 4666 
L 6119 4666 
L 4947 0 
L 4153 0 
L 3169 4050 
L 2175 0 
L 1381 0 
L 213 4666 
z
" transform="scale(0.015625)"/>
       <path id="DejaVuSans-2c" d="M 750 794 
L 1409 794 
L 1409 256 
L 897 -744 
L 494 -744 
L 750 256 
L 750 794 
z
" transform="scale(0.015625)"/>
       <path id="DejaVuSans-20" transform="scale(0.015625)"/>
       <path id="DejaVuSans-67" d="M 2906 1791 
Q 2906 2416 2648 2759 
Q 2391 3103 1925 3103 
Q 1463 3103 1205 2759 
Q 947 2416 947 1791 
Q 947 1169 1205 825 
Q 1463 481 1925 481 
Q 2391 481 2648 825 
Q 2906 1169 2906 1791 
z
M 3481 434 
Q 3481 -459 3084 -895 
Q 2688 -1331 1869 -1331 
Q 1566 -1331 1297 -1286 
Q 1028 -1241 775 -1147 
L 775 -588 
Q 1028 -725 1275 -790 
Q 1522 -856 1778 -856 
Q 2344 -856 2625 -561 
Q 2906 -266 2906 331 
L 2906 616 
Q 2728 306 2450 153 
Q 2172 0 1784 0 
Q 1141 0 747 490 
Q 353 981 353 1791 
Q 353 2603 747 3093 
Q 1141 3584 1784 3584 
Q 2172 3584 2450 3431 
Q 2728 3278 2906 2969 
L 2906 3500 
L 3481 3500 
L 3481 434 
z
" transform="scale(0.015625)"/>
       <path id="DejaVuSans-2f" d="M 1625 4666 
L 2156 4666 
L 531 -594 
L 0 -594 
L 1625 4666 
z
" transform="scale(0.015625)"/>
       <path id="DejaVuSans-6d" d="M 3328 2828 
Q 3544 3216 3844 3400 
Q 4144 3584 4550 3584 
Q 5097 3584 5394 3201 
Q 5691 2819 5691 2113 
L 5691 0 
L 5113 0 
L 5113 2094 
Q 5113 2597 4934 2840 
Q 4756 3084 4391 3084 
Q 3944 3084 3684 2787 
Q 3425 2491 3425 1978 
L 3425 0 
L 2847 0 
L 2847 2094 
Q 2847 2600 2669 2842 
Q 2491 3084 2119 3084 
Q 1678 3084 1418 2786 
Q 1159 2488 1159 1978 
L 1159 0 
L 581 0 
L 581 3500 
L 1159 3500 
L 1159 2956 
Q 1356 3278 1631 3431 
Q 1906 3584 2284 3584 
Q 2666 3584 2933 3390 
Q 3200 3197 3328 2828 
z
" transform="scale(0.015625)"/>
       <path id="DejaVuSans-6f" d="M 1959 3097 
Q 1497 3097 1228 2736 
Q 959 2375 959 1747 
Q 959 1119 1226 758 
Q 1494 397 1959 397 
Q 2419 397 2687 759 
Q 2956 1122 2956 1747 
Q 2956 2369 2687 2733 
Q 2419 3097 1959 3097 
z
M 1959 3584 
Q 2709 3584 3137 3096 
Q 3566 2609 3566 1747 
Q 3566 888 3137 398 
Q 2709 -91 1959 -91 
Q 1206 -91 779 398 
Q 353 888 353 1747 
Q 353 2609 779 3096 
Q 1206 3584 1959 3584 
z
" transform="scale(0.015625)"/>
       <path id="DejaVuSans-6c" d="M 603 4863 
L 1178 4863 
L 1178 0 
L 603 0 
L 603 4863 
z
" transform="scale(0.015625)"/>
      </defs>
      <use xlink:href="#DejaVuSans-4d"/>
      <use xlink:href="#DejaVuSans-57" x="86.279297"/>
      <use xlink:href="#DejaVuSans-2c" x="185.15625"/>
      <use xlink:href="#DejaVuSans-20" x="216.943359"/>
      <use xlink:href="#DejaVuSans-67" x="248.730469"/>
      <use xlink:href="#DejaVuSans-2f" x="312.207031"/>
      <use xlink:href="#DejaVuSans-6d" x="345.898438"/>
      <use xlink:href="#DejaVuSans-6f" x="443.310547"/>
      <use xlink:href="#DejaVuSans-6c" x="504.492188"/>
     </g>
    </g>
   </g>
   <g id="matplotlib.axis_2">
    <g id="ytick_1">
     <g id="line2d_8">
      <defs>
       <path id="mcf01b66a6c" d="M 0 0 
L -3.5 0 
" style="stroke: #000000; stroke-width: 0.8"/>
      </defs>
      <g>
       <use xlink:href="#mcf01b66a6c" x="47.1875" y="272.955621" style="stroke: #000000; stroke-width: 0.8"/>
      </g>
     </g>
     <g id="text_9">
      <!-- 50 -->
      <g transform="translate(27.4625 276.75484) scale(0.1 -0.1)">
       <defs>
        <path id="DejaVuSans-35" d="M 691 4666 
L 3169 4666 
L 3169 4134 
L 1269 4134 
L 1269 2991 
Q 1406 3038 1543 3061 
Q 1681 3084 1819 3084 
Q 2600 3084 3056 2656 
Q 3513 2228 3513 1497 
Q 3513 744 3044 326 
Q 2575 -91 1722 -91 
Q 1428 -91 1123 -41 
Q 819 9 494 109 
L 494 744 
Q 775 591 1075 516 
Q 1375 441 1709 441 
Q 2250 441 2565 725 
Q 2881 1009 2881 1497 
Q 2881 1984 2565 2268 
Q 2250 2553 1709 2553 
Q 1456 2553 1204 2497 
Q 953 2441 691 2322 
L 691 4666 
z
" transform="scale(0.015625)"/>
       </defs>
       <use xlink:href="#DejaVuSans-35"/>
       <use xlink:href="#DejaVuSans-30" x="63.623047"/>
      </g>
     </g>
    </g>
    <g id="ytick_2">
     <g id="line2d_9">
      <g>
       <use xlink:href="#mcf01b66a6c" x="47.1875" y="210.412611" style="stroke: #000000; stroke-width: 0.8"/>
      </g>
     </g>
     <g id="text_10">
      <!-- 100 -->
      <g transform="translate(21.1 214.21183) scale(0.1 -0.1)">
       <use xlink:href="#DejaVuSans-31"/>
       <use xlink:href="#DejaVuSans-30" x="63.623047"/>
       <use xlink:href="#DejaVuSans-30" x="127.246094"/>
      </g>
     </g>
    </g>
    <g id="ytick_3">
     <g id="line2d_10">
      <g>
       <use xlink:href="#mcf01b66a6c" x="47.1875" y="147.869601" style="stroke: #000000; stroke-width: 0.8"/>
      </g>
     </g>
     <g id="text_11">
      <!-- 150 -->
      <g transform="translate(21.1 151.66882) scale(0.1 -0.1)">
       <use xlink:href="#DejaVuSans-31"/>
       <use xlink:href="#DejaVuSans-35" x="63.623047"/>
       <use xlink:href="#DejaVuSans-30" x="127.246094"/>
      </g>
     </g>
    </g>
    <g id="ytick_4">
     <g id="line2d_11">
      <g>
       <use xlink:href="#mcf01b66a6c" x="47.1875" y="85.326592" style="stroke: #000000; stroke-width: 0.8"/>
      </g>
     </g>
     <g id="text_12">
      <!-- 200 -->
      <g transform="translate(21.1 89.12581) scale(0.1 -0.1)">
       <use xlink:href="#DejaVuSans-32"/>
       <use xlink:href="#DejaVuSans-30" x="63.623047"/>
       <use xlink:href="#DejaVuSans-30" x="127.246094"/>
      </g>
     </g>
    </g>
    <g id="ytick_5">
     <g id="line2d_12">
      <g>
       <use xlink:href="#mcf01b66a6c" x="47.1875" y="22.783582" style="stroke: #000000; stroke-width: 0.8"/>
      </g>
     </g>
     <g id="text_13">
      <!-- 250 -->
      <g transform="translate(21.1 26.5828) scale(0.1 -0.1)">
       <use xlink:href="#DejaVuSans-32"/>
       <use xlink:href="#DejaVuSans-35" x="63.623047"/>
       <use xlink:href="#DejaVuSans-30" x="127.246094"/>
      </g>
     </g>
    </g>
    <g id="text_14">
     <!-- bp, $^o$C -->
     <g transform="translate(15 176.17) rotate(-90) scale(0.1 -0.1)">
      <defs>
       <path id="DejaVuSans-62" d="M 3116 1747 
Q 3116 2381 2855 2742 
Q 2594 3103 2138 3103 
Q 1681 3103 1420 2742 
Q 1159 2381 1159 1747 
Q 1159 1113 1420 752 
Q 1681 391 2138 391 
Q 2594 391 2855 752 
Q 3116 1113 3116 1747 
z
M 1159 2969 
Q 1341 3281 1617 3432 
Q 1894 3584 2278 3584 
Q 2916 3584 3314 3078 
Q 3713 2572 3713 1747 
Q 3713 922 3314 415 
Q 2916 -91 2278 -91 
Q 1894 -91 1617 61 
Q 1341 213 1159 525 
L 1159 0 
L 581 0 
L 581 4863 
L 1159 4863 
L 1159 2969 
z
" transform="scale(0.015625)"/>
       <path id="DejaVuSans-70" d="M 1159 525 
L 1159 -1331 
L 581 -1331 
L 581 3500 
L 1159 3500 
L 1159 2969 
Q 1341 3281 1617 3432 
Q 1894 3584 2278 3584 
Q 2916 3584 3314 3078 
Q 3713 2572 3713 1747 
Q 3713 922 3314 415 
Q 2916 -91 2278 -91 
Q 1894 -91 1617 61 
Q 1341 213 1159 525 
z
M 3116 1747 
Q 3116 2381 2855 2742 
Q 2594 3103 2138 3103 
Q 1681 3103 1420 2742 
Q 1159 2381 1159 1747 
Q 1159 1113 1420 752 
Q 1681 391 2138 391 
Q 2594 391 2855 752 
Q 3116 1113 3116 1747 
z
" transform="scale(0.015625)"/>
       <path id="DejaVuSans-Oblique-6f" d="M 1625 -91 
Q 1009 -91 651 289 
Q 294 669 294 1325 
Q 294 1706 417 2101 
Q 541 2497 738 2766 
Q 1047 3184 1428 3384 
Q 1809 3584 2291 3584 
Q 2888 3584 3255 3212 
Q 3622 2841 3622 2241 
Q 3622 1825 3500 1412 
Q 3378 1000 3181 728 
Q 2875 309 2494 109 
Q 2113 -91 1625 -91 
z
M 891 1344 
Q 891 869 1089 633 
Q 1288 397 1691 397 
Q 2269 397 2648 901 
Q 3028 1406 3028 2181 
Q 3028 2634 2825 2865 
Q 2622 3097 2228 3097 
Q 1903 3097 1650 2945 
Q 1397 2794 1197 2484 
Q 1050 2253 970 1956 
Q 891 1659 891 1344 
z
" transform="scale(0.015625)"/>
       <path id="DejaVuSans-43" d="M 4122 4306 
L 4122 3641 
Q 3803 3938 3442 4084 
Q 3081 4231 2675 4231 
Q 1875 4231 1450 3742 
Q 1025 3253 1025 2328 
Q 1025 1406 1450 917 
Q 1875 428 2675 428 
Q 3081 428 3442 575 
Q 3803 722 4122 1019 
L 4122 359 
Q 3791 134 3420 21 
Q 3050 -91 2638 -91 
Q 1578 -91 968 557 
Q 359 1206 359 2328 
Q 359 3453 968 4101 
Q 1578 4750 2638 4750 
Q 3056 4750 3426 4639 
Q 3797 4528 4122 4306 
z
" transform="scale(0.015625)"/>
      </defs>
      <use xlink:href="#DejaVuSans-62" transform="translate(0 0.51875)"/>
      <use xlink:href="#DejaVuSans-70" transform="translate(63.476562 0.51875)"/>
      <use xlink:href="#DejaVuSans-2c" transform="translate(126.953125 0.51875)"/>
      <use xlink:href="#DejaVuSans-20" transform="translate(158.740234 0.51875)"/>
      <use xlink:href="#DejaVuSans-Oblique-6f" transform="translate(191.484375 38.8) scale(0.7)"/>
      <use xlink:href="#DejaVuSans-43" transform="translate(237.045898 0.51875)"/>
     </g>
    </g>
   </g>
   <g id="line2d_13">
    <path d="M 60.571469 264.813074 
L 63.039523 262.554798 
L 65.507576 260.296521 
L 67.975629 258.038244 
L 70.443683 255.779968 
L 72.911736 253.521691 
L 75.379789 251.263414 
L 77.847843 249.005138 
L 80.315896 246.746861 
L 82.783949 244.488584 
L 85.252003 242.230307 
L 87.720056 239.972031 
L 90.188109 237.713754 
L 92.656163 235.455477 
L 95.124216 233.197201 
L 97.592269 230.938924 
L 100.060323 228.680647 
L 102.528376 226.422371 
L 104.996429 224.164094 
L 107.464483 221.905817 
L 109.932536 219.647541 
L 112.400589 217.389264 
L 114.868643 215.130987 
L 117.336696 212.87271 
L 119.804749 210.614434 
L 122.272802 208.356157 
L 124.740856 206.09788 
L 127.208909 203.839604 
L 129.676962 201.581327 
L 132.145016 199.32305 
L 134.613069 197.064774 
L 137.081122 194.806497 
L 139.549176 192.54822 
L 142.017229 190.289943 
L 144.485282 188.031667 
L 146.953336 185.77339 
L 149.421389 183.515113 
L 151.889442 181.256837 
L 154.357496 178.99856 
L 156.825549 176.740283 
L 159.293602 174.482007 
L 161.761656 172.22373 
L 164.229709 169.965453 
L 166.697762 167.707177 
L 169.165816 165.4489 
L 171.633869 163.190623 
L 174.101922 160.932346 
L 176.569976 158.67407 
L 179.038029 156.415793 
L 181.506082 154.157516 
L 183.974136 151.89924 
L 186.442189 149.640963 
L 188.910242 147.382686 
L 191.378296 145.12441 
L 193.846349 142.866133 
L 196.314402 140.607856 
L 198.782456 138.349579 
L 201.250509 136.091303 
L 203.718562 133.833026 
L 206.186616 131.574749 
L 208.654669 129.316473 
L 211.122722 127.058196 
L 213.590776 124.799919 
L 216.058829 122.541643 
L 218.526882 120.283366 
L 220.994936 118.025089 
L 223.462989 115.766813 
L 225.931042 113.508536 
L 228.399096 111.250259 
L 230.867149 108.991982 
L 233.335202 106.733706 
L 235.803256 104.475429 
L 238.271309 102.217152 
L 240.739362 99.958876 
L 243.207416 97.700599 
L 245.675469 95.442322 
L 248.143522 93.184046 
L 250.611575 90.925769 
L 253.079629 88.667492 
L 255.547682 86.409216 
L 258.015735 84.150939 
L 260.483789 81.892662 
L 262.951842 79.634385 
L 265.419895 77.376109 
L 267.887949 75.117832 
L 270.356002 72.859555 
L 272.824055 70.601279 
L 275.292109 68.343002 
L 277.760162 66.084725 
L 280.228215 63.826449 
L 282.696269 61.568172 
L 285.164322 59.309895 
L 287.632375 57.051618 
L 290.100429 54.793342 
L 292.568482 52.535065 
L 295.036535 50.276788 
L 297.504589 48.018512 
L 299.972642 45.760235 
L 302.440695 43.501958 
L 304.908749 41.243682 
" clip-path="url(#p5e8f4625c6)" style="fill: none; stroke: #1f77b4; stroke-width: 2.25; stroke-linecap: square"/>
   </g>
   <g id="line2d_14">
    <path d="M 138.204298 289.175439 
L 140.12396 286.809361 
L 142.043622 284.443283 
L 143.963284 282.077205 
L 145.882947 279.711127 
L 147.802609 277.345049 
L 149.722271 274.978971 
L 151.641933 272.612893 
L 153.561595 270.246815 
L 155.481258 267.880737 
L 157.40092 265.514659 
L 159.320582 263.148581 
L 161.240244 260.782503 
L 163.159906 258.416425 
L 165.079569 256.050347 
L 166.999231 253.684269 
L 168.918893 251.318191 
L 170.838555 248.952113 
L 172.758217 246.586035 
L 174.67788 244.219957 
L 176.597542 241.853879 
L 178.517204 239.487801 
L 180.436866 237.121723 
L 182.356528 234.755645 
L 184.276191 232.389567 
L 186.195853 230.023489 
L 188.115515 227.657411 
L 190.035177 225.291333 
L 191.954839 222.925255 
L 193.874502 220.559177 
L 195.794164 218.193099 
L 197.713826 215.827021 
L 199.633488 213.460943 
L 201.55315 211.094865 
L 203.472813 208.728787 
L 205.392475 206.362709 
L 207.312137 203.996631 
L 209.231799 201.630553 
L 211.151461 199.264475 
L 213.071124 196.898397 
L 214.990786 194.532319 
L 216.910448 192.166241 
L 218.83011 189.800163 
L 220.749772 187.434085 
L 222.669435 185.068007 
L 224.589097 182.701929 
L 226.508759 180.335851 
L 228.428421 177.969773 
L 230.348083 175.603695 
L 232.267746 173.237617 
L 234.187408 170.871539 
L 236.10707 168.505461 
L 238.026732 166.139383 
L 239.946394 163.773305 
L 241.866057 161.407227 
L 243.785719 159.041149 
L 245.705381 156.675071 
L 247.625043 154.308993 
L 249.544705 151.942915 
L 251.464368 149.576837 
L 253.38403 147.210759 
L 255.303692 144.844681 
L 257.223354 142.478603 
L 259.143016 140.112525 
L 261.062679 137.746447 
L 262.982341 135.380369 
L 264.902003 133.014291 
L 266.821665 130.648213 
L 268.741327 128.282135 
L 270.66099 125.916057 
L 272.580652 123.549979 
L 274.500314 121.183901 
L 276.419976 118.817823 
L 278.339638 116.451745 
L 280.259301 114.085667 
L 282.178963 111.719589 
L 284.098625 109.353511 
L 286.018287 106.987433 
L 287.937949 104.621355 
L 289.857612 102.255277 
L 291.777274 99.889199 
L 293.696936 97.523121 
L 295.616598 95.157043 
L 297.53626 92.790965 
L 299.455923 90.424887 
L 301.375585 88.058809 
L 303.295247 85.692731 
L 305.214909 83.326653 
L 307.134571 80.960575 
L 309.054234 78.594497 
L 310.973896 76.228419 
L 312.893558 73.862341 
L 314.81322 71.496263 
L 316.732882 69.130185 
L 318.652545 66.764107 
L 320.572207 64.398029 
L 322.491869 62.031951 
L 324.411531 59.665873 
L 326.331193 57.299795 
L 328.250856 54.933717 
" clip-path="url(#p5e8f4625c6)" style="fill: none; stroke: #ff7f0e; stroke-width: 2.25; stroke-linecap: square"/>
   </g>
   <g id="patch_3">
    <path d="M 47.1875 314.44 
L 47.1875 7.2 
" style="fill: none; stroke: #000000; stroke-width: 0.8; stroke-linejoin: miter; stroke-linecap: square"/>
   </g>
   <g id="patch_4">
    <path d="M 47.1875 314.44 
L 341.634825 314.44 
" style="fill: none; stroke: #000000; stroke-width: 0.8; stroke-linejoin: miter; stroke-linecap: square"/>
   </g>
  </g>
  <g id="legend_1">
   <g id="text_15">
    <!-- type -->
    <g transform="translate(367.923806 164.079375) scale(0.1 -0.1)">
     <defs>
      <path id="DejaVuSans-74" d="M 1172 4494 
L 1172 3500 
L 2356 3500 
L 2356 3053 
L 1172 3053 
L 1172 1153 
Q 1172 725 1289 603 
Q 1406 481 1766 481 
L 2356 481 
L 2356 0 
L 1766 0 
Q 1100 0 847 248 
Q 594 497 594 1153 
L 594 3053 
L 172 3053 
L 172 3500 
L 594 3500 
L 594 4494 
L 1172 4494 
z
" transform="scale(0.015625)"/>
      <path id="DejaVuSans-79" d="M 2059 -325 
Q 1816 -950 1584 -1140 
Q 1353 -1331 966 -1331 
L 506 -1331 
L 506 -850 
L 844 -850 
Q 1081 -850 1212 -737 
Q 1344 -625 1503 -206 
L 1606 56 
L 191 3500 
L 800 3500 
L 1894 763 
L 2988 3500 
L 3597 3500 
L 2059 -325 
z
" transform="scale(0.015625)"/>
      <path id="DejaVuSans-65" d="M 3597 1894 
L 3597 1613 
L 953 1613 
Q 991 1019 1311 708 
Q 1631 397 2203 397 
Q 2534 397 2845 478 
Q 3156 559 3463 722 
L 3463 178 
Q 3153 47 2828 -22 
Q 2503 -91 2169 -91 
Q 1331 -91 842 396 
Q 353 884 353 1716 
Q 353 2575 817 3079 
Q 1281 3584 2069 3584 
Q 2775 3584 3186 3129 
Q 3597 2675 3597 1894 
z
M 3022 2063 
Q 3016 2534 2758 2815 
Q 2500 3097 2075 3097 
Q 1594 3097 1305 2825 
Q 1016 2553 972 2059 
L 3022 2063 
z
" transform="scale(0.015625)"/>
     </defs>
     <use xlink:href="#DejaVuSans-74"/>
     <use xlink:href="#DejaVuSans-79" x="39.208984"/>
     <use xlink:href="#DejaVuSans-70" x="98.388672"/>
     <use xlink:href="#DejaVuSans-65" x="161.865234"/>
    </g>
   </g>
   <g id="PathCollection_3">
    <g>
     <use xlink:href="#m1e2f73c64a" x="357.215213" y="176.1325" style="fill: #1f77b4; fill-opacity: 0.8; stroke: #1f77b4; stroke-opacity: 0.8"/>
    </g>
   </g>
   <g id="text_16">
    <!-- alcohol -->
    <g transform="translate(375.215213 178.7575) scale(0.1 -0.1)">
     <defs>
      <path id="DejaVuSans-61" d="M 2194 1759 
Q 1497 1759 1228 1600 
Q 959 1441 959 1056 
Q 959 750 1161 570 
Q 1363 391 1709 391 
Q 2188 391 2477 730 
Q 2766 1069 2766 1631 
L 2766 1759 
L 2194 1759 
z
M 3341 1997 
L 3341 0 
L 2766 0 
L 2766 531 
Q 2569 213 2275 61 
Q 1981 -91 1556 -91 
Q 1019 -91 701 211 
Q 384 513 384 1019 
Q 384 1609 779 1909 
Q 1175 2209 1959 2209 
L 2766 2209 
L 2766 2266 
Q 2766 2663 2505 2880 
Q 2244 3097 1772 3097 
Q 1472 3097 1187 3025 
Q 903 2953 641 2809 
L 641 3341 
Q 956 3463 1253 3523 
Q 1550 3584 1831 3584 
Q 2591 3584 2966 3190 
Q 3341 2797 3341 1997 
z
" transform="scale(0.015625)"/>
      <path id="DejaVuSans-63" d="M 3122 3366 
L 3122 2828 
Q 2878 2963 2633 3030 
Q 2388 3097 2138 3097 
Q 1578 3097 1268 2742 
Q 959 2388 959 1747 
Q 959 1106 1268 751 
Q 1578 397 2138 397 
Q 2388 397 2633 464 
Q 2878 531 3122 666 
L 3122 134 
Q 2881 22 2623 -34 
Q 2366 -91 2075 -91 
Q 1284 -91 818 406 
Q 353 903 353 1747 
Q 353 2603 823 3093 
Q 1294 3584 2113 3584 
Q 2378 3584 2631 3529 
Q 2884 3475 3122 3366 
z
" transform="scale(0.015625)"/>
      <path id="DejaVuSans-68" d="M 3513 2113 
L 3513 0 
L 2938 0 
L 2938 2094 
Q 2938 2591 2744 2837 
Q 2550 3084 2163 3084 
Q 1697 3084 1428 2787 
Q 1159 2491 1159 1978 
L 1159 0 
L 581 0 
L 581 4863 
L 1159 4863 
L 1159 2956 
Q 1366 3272 1645 3428 
Q 1925 3584 2291 3584 
Q 2894 3584 3203 3211 
Q 3513 2838 3513 2113 
z
" transform="scale(0.015625)"/>
     </defs>
     <use xlink:href="#DejaVuSans-61"/>
     <use xlink:href="#DejaVuSans-6c" x="61.279297"/>
     <use xlink:href="#DejaVuSans-63" x="89.0625"/>
     <use xlink:href="#DejaVuSans-6f" x="144.042969"/>
     <use xlink:href="#DejaVuSans-68" x="205.224609"/>
     <use xlink:href="#DejaVuSans-6f" x="268.603516"/>
     <use xlink:href="#DejaVuSans-6c" x="329.785156"/>
    </g>
   </g>
   <g id="PathCollection_4">
    <g>
     <use xlink:href="#m9747bdfda4" x="357.215213" y="190.810625" style="fill: #ff7f0e; fill-opacity: 0.8; stroke: #ff7f0e; stroke-opacity: 0.8"/>
    </g>
   </g>
   <g id="text_17">
    <!-- alkane -->
    <g transform="translate(375.215213 193.435625) scale(0.1 -0.1)">
     <defs>
      <path id="DejaVuSans-6b" d="M 581 4863 
L 1159 4863 
L 1159 1991 
L 2875 3500 
L 3609 3500 
L 1753 1863 
L 3688 0 
L 2938 0 
L 1159 1709 
L 1159 0 
L 581 0 
L 581 4863 
z
" transform="scale(0.015625)"/>
      <path id="DejaVuSans-6e" d="M 3513 2113 
L 3513 0 
L 2938 0 
L 2938 2094 
Q 2938 2591 2744 2837 
Q 2550 3084 2163 3084 
Q 1697 3084 1428 2787 
Q 1159 2491 1159 1978 
L 1159 0 
L 581 0 
L 581 3500 
L 1159 3500 
L 1159 2956 
Q 1366 3272 1645 3428 
Q 1925 3584 2291 3584 
Q 2894 3584 3203 3211 
Q 3513 2838 3513 2113 
z
" transform="scale(0.015625)"/>
     </defs>
     <use xlink:href="#DejaVuSans-61"/>
     <use xlink:href="#DejaVuSans-6c" x="61.279297"/>
     <use xlink:href="#DejaVuSans-6b" x="89.0625"/>
     <use xlink:href="#DejaVuSans-61" x="145.222656"/>
     <use xlink:href="#DejaVuSans-6e" x="206.501953"/>
     <use xlink:href="#DejaVuSans-65" x="269.880859"/>
    </g>
   </g>
  </g>
 </g>
 <defs>
  <clipPath id="p5e8f4625c6">
   <rect x="47.1875" y="7.2" width="294.447325" height="307.24"/>
  </clipPath>
 </defs>
</svg>