<?xml version="1.0" encoding="utf-8" standalone="no"?>
<!DOCTYPE svg PUBLIC "-//W3C//DTD SVG 1.1//EN"
  "http://www.w3.org/Graphics/SVG/1.1/DTD/svg11.dtd">
<svg xmlns:xlink="http://www.w3.org/1999/xlink" width="411.285625pt" height="310.86825pt" viewBox="0 0 411.285625 310.86825" xmlns="http://www.w3.org/2000/svg" version="1.1">
 <metadata>
  <rdf:RDF xmlns:dc="http://purl.org/dc/elements/1.1/" xmlns:cc="http://creativecommons.org/ns#" xmlns:rdf="http://www.w3.org/1999/02/22-rdf-syntax-ns#">
   <cc:Work>
    <dc:type rdf:resource="http://purl.org/dc/dcmitype/StillImage"/>
    <dc:date>2023-12-05T16:27:30.556871</dc:date>
    <dc:format>image/svg+xml</dc:format>
    <dc:creator>
     <cc:Agent>
      <dc:title>Matplotlib v3.7.2, https://matplotlib.org/</dc:title>
     </cc:Agent>
    </dc:creator>
   </cc:Work>
  </rdf:RDF>
 </metadata>
 <defs>
  <style type="text/css">*{stroke-linejoin: round; stroke-linecap: butt}</style>
 </defs>
 <g id="figure_1">
  <g id="patch_1">
   <path d="M 0 310.86825 
L 411.285625 310.86825 
L 411.285625 0 
L 0 0 
z
" style="fill: #ffffff"/>
  </g>
  <g id="axes_1">
   <g id="patch_2">
    <path d="M 46.965625 273.312 
L 404.085625 273.312 
L 404.085625 7.2 
L 46.965625 7.2 
z
" style="fill: #ffffff"/>
   </g>
   <g id="PathCollection_1">
    <defs>
     <path id="m6958f86df7" d="M 0 3 
C 0.795609 3 1.55874 2.683901 2.12132 2.12132 
C 2.683901 1.55874 3 0.795609 3 0 
C 3 -0.795609 2.683901 -1.55874 2.12132 -2.12132 
C 1.55874 -2.683901 0.795609 -3 0 -3 
C -0.795609 -3 -1.55874 -2.683901 -2.12132 -2.12132 
C -2.683901 -1.55874 -3 -0.795609 -3 0 
C -3 0.795609 -2.683901 1.55874 -2.12132 2.12132 
C -1.55874 2.683901 -0.795609 3 0 3 
z
" style="stroke: #1f77b4; stroke-opacity: 0.8"/>
    </defs>
    <g clip-path="url(#p60e80b714d)">
     <use xlink:href="#m6958f86df7" x="63.198352" y="198.86688" style="fill: #1f77b4; fill-opacity: 0.8; stroke: #1f77b4; stroke-opacity: 0.8"/>
     <use xlink:href="#m6958f86df7" x="96.1333" y="186.390899" style="fill: #1f77b4; fill-opacity: 0.8; stroke: #1f77b4; stroke-opacity: 0.8"/>
     <use xlink:href="#m6958f86df7" x="129.068248" y="167.19708" style="fill: #1f77b4; fill-opacity: 0.8; stroke: #1f77b4; stroke-opacity: 0.8"/>
     <use xlink:href="#m6958f86df7" x="161.979721" y="148.003262" style="fill: #1f77b4; fill-opacity: 0.8; stroke: #1f77b4; stroke-opacity: 0.8"/>
     <use xlink:href="#m6958f86df7" x="194.914669" y="127.849753" style="fill: #1f77b4; fill-opacity: 0.8; stroke: #1f77b4; stroke-opacity: 0.8"/>
     <use xlink:href="#m6958f86df7" x="227.849616" y="110.575316" style="fill: #1f77b4; fill-opacity: 0.8; stroke: #1f77b4; stroke-opacity: 0.8"/>
     <use xlink:href="#m6958f86df7" x="260.761089" y="92.341189" style="fill: #1f77b4; fill-opacity: 0.8; stroke: #1f77b4; stroke-opacity: 0.8"/>
     <use xlink:href="#m6958f86df7" x="293.696037" y="74.107061" style="fill: #1f77b4; fill-opacity: 0.8; stroke: #1f77b4; stroke-opacity: 0.8"/>
     <use xlink:href="#m6958f86df7" x="326.60751" y="57.792316" style="fill: #1f77b4; fill-opacity: 0.8; stroke: #1f77b4; stroke-opacity: 0.8"/>
     <use xlink:href="#m6958f86df7" x="359.542458" y="38.598497" style="fill: #1f77b4; fill-opacity: 0.8; stroke: #1f77b4; stroke-opacity: 0.8"/>
     <use xlink:href="#m6958f86df7" x="157.355213" y="226.697917" style="fill: #1f77b4; fill-opacity: 0.8; stroke: #1f77b4; stroke-opacity: 0.8"/>
     <use xlink:href="#m6958f86df7" x="190.290161" y="195.028117" style="fill: #1f77b4; fill-opacity: 0.8; stroke: #1f77b4; stroke-opacity: 0.8"/>
     <use xlink:href="#m6958f86df7" x="223.225108" y="167.19708" style="fill: #1f77b4; fill-opacity: 0.8; stroke: #1f77b4; stroke-opacity: 0.8"/>
     <use xlink:href="#m6958f86df7" x="256.136581" y="140.325735" style="fill: #1f77b4; fill-opacity: 0.8; stroke: #1f77b4; stroke-opacity: 0.8"/>
     <use xlink:href="#m6958f86df7" x="289.071529" y="116.333462" style="fill: #1f77b4; fill-opacity: 0.8; stroke: #1f77b4; stroke-opacity: 0.8"/>
     <use xlink:href="#m6958f86df7" x="322.006477" y="94.260571" style="fill: #1f77b4; fill-opacity: 0.8; stroke: #1f77b4; stroke-opacity: 0.8"/>
     <use xlink:href="#m6958f86df7" x="354.91795" y="73.14737" style="fill: #1f77b4; fill-opacity: 0.8; stroke: #1f77b4; stroke-opacity: 0.8"/>
     <use xlink:href="#m6958f86df7" x="387.852898" y="53.953552" style="fill: #1f77b4; fill-opacity: 0.8; stroke: #1f77b4; stroke-opacity: 0.8"/>
     <use xlink:href="#m6958f86df7" x="190.290161" y="200.786262" style="fill: #1f77b4; fill-opacity: 0.8; stroke: #1f77b4; stroke-opacity: 0.8"/>
     <use xlink:href="#m6958f86df7" x="256.136581" y="148.962953" style="fill: #1f77b4; fill-opacity: 0.8; stroke: #1f77b4; stroke-opacity: 0.8"/>
     <use xlink:href="#m6958f86df7" x="157.355213" y="234.375444" style="fill: #1f77b4; fill-opacity: 0.8; stroke: #1f77b4; stroke-opacity: 0.8"/>
     <use xlink:href="#m6958f86df7" x="223.225108" y="184.471517" style="fill: #1f77b4; fill-opacity: 0.8; stroke: #1f77b4; stroke-opacity: 0.8"/>
     <use xlink:href="#m6958f86df7" x="161.979721" y="157.600171" style="fill: #1f77b4; fill-opacity: 0.8; stroke: #1f77b4; stroke-opacity: 0.8"/>
     <use xlink:href="#m6958f86df7" x="161.979721" y="181.592444" style="fill: #1f77b4; fill-opacity: 0.8; stroke: #1f77b4; stroke-opacity: 0.8"/>
     <use xlink:href="#m6958f86df7" x="194.914669" y="135.52728" style="fill: #1f77b4; fill-opacity: 0.8; stroke: #1f77b4; stroke-opacity: 0.8"/>
     <use xlink:href="#m6958f86df7" x="227.849616" y="131.688516" style="fill: #1f77b4; fill-opacity: 0.8; stroke: #1f77b4; stroke-opacity: 0.8"/>
     <use xlink:href="#m6958f86df7" x="260.761089" y="126.890062" style="fill: #1f77b4; fill-opacity: 0.8; stroke: #1f77b4; stroke-opacity: 0.8"/>
     <use xlink:href="#m6958f86df7" x="208.905566" y="86.583043" style="fill: #1f77b4; fill-opacity: 0.8; stroke: #1f77b4; stroke-opacity: 0.8"/>
     <use xlink:href="#m6958f86df7" x="241.840514" y="67.389225" style="fill: #1f77b4; fill-opacity: 0.8; stroke: #1f77b4; stroke-opacity: 0.8"/>
     <use xlink:href="#m6958f86df7" x="307.686934" y="50.114788" style="fill: #1f77b4; fill-opacity: 0.8; stroke: #1f77b4; stroke-opacity: 0.8"/>
    </g>
   </g>
   <g id="PolyCollection_1">
    <path d="M 63.198352 205.091013 
L 63.198352 261.216 
L 66.477691 258.895961 
L 69.75703 256.575922 
L 73.036369 254.255882 
L 76.315708 251.935843 
L 79.595046 249.613652 
L 82.874385 247.224993 
L 86.153724 244.957154 
L 89.433063 242.529897 
L 92.712402 240.102559 
L 95.991741 237.675222 
L 99.27108 235.247885 
L 102.550418 232.964548 
L 105.829757 230.759533 
L 109.109096 228.554518 
L 112.388435 226.349503 
L 115.667774 224.121867 
L 118.947113 221.782321 
L 122.226451 219.228235 
L 125.50579 216.661498 
L 128.785129 214.262974 
L 132.064468 211.757695 
L 135.343807 209.248947 
L 138.623146 206.7402 
L 141.902485 204.231453 
L 145.181823 201.864502 
L 148.461162 199.582619 
L 151.740501 197.300737 
L 155.01984 194.876862 
L 158.299179 192.636259 
L 161.578518 190.412893 
L 164.857856 188.010037 
L 168.137195 185.707951 
L 171.416534 183.4381 
L 174.695873 181.125688 
L 177.975212 178.839096 
L 181.254551 176.551486 
L 184.533889 174.263875 
L 187.813228 171.970271 
L 191.092567 169.533233 
L 194.371906 167.394901 
L 197.651245 165.105493 
L 200.930584 162.803996 
L 204.209923 160.528562 
L 207.489261 158.412589 
L 210.7686 156.174846 
L 214.047939 153.847643 
L 217.327278 151.673965 
L 220.606617 149.503189 
L 223.885956 147.354602 
L 227.165294 145.179318 
L 230.444633 143.019815 
L 233.723972 140.948128 
L 237.003311 139.077486 
L 240.28265 137.048358 
L 243.561989 134.867824 
L 246.841327 132.693584 
L 250.120666 131.10415 
L 253.400005 129.110657 
L 256.679344 127.352334 
L 259.958683 125.373911 
L 263.238022 123.400995 
L 266.517361 121.568468 
L 269.796699 119.655304 
L 273.076038 117.901477 
L 276.355377 116.127601 
L 279.634716 114.448691 
L 282.914055 112.725492 
L 286.193394 111.101524 
L 289.472732 109.532571 
L 292.752071 107.911704 
L 296.03141 106.204461 
L 299.310749 104.488153 
L 302.590088 102.9272 
L 305.869427 101.329837 
L 309.148765 99.574874 
L 312.428104 97.860465 
L 315.707443 96.245775 
L 318.986782 94.627045 
L 322.266121 93.016877 
L 325.54546 91.471254 
L 328.824799 89.790505 
L 332.104137 88.172547 
L 335.383476 86.38858 
L 338.662815 84.634719 
L 341.942154 83.056722 
L 345.221493 81.686874 
L 348.500832 80.108244 
L 351.78017 78.50089 
L 355.059509 76.893536 
L 358.338848 75.280725 
L 361.618187 73.700976 
L 364.897526 72.161845 
L 368.176865 70.622685 
L 371.456204 69.080104 
L 374.735542 67.535809 
L 378.014881 65.894519 
L 381.29422 64.172546 
L 384.573559 62.630923 
L 387.852898 61.086732 
L 387.852898 19.296 
L 387.852898 19.296 
L 384.573559 21.829259 
L 381.29422 24.36389 
L 378.014881 26.898521 
L 374.735542 29.035877 
L 371.456204 31.279002 
L 368.176865 33.414844 
L 364.897526 35.609388 
L 361.618187 37.86413 
L 358.338848 40.231997 
L 355.059509 42.599865 
L 351.78017 44.967733 
L 348.500832 47.311027 
L 345.221493 49.525758 
L 341.942154 51.733403 
L 338.662815 53.748224 
L 335.383476 56.109886 
L 332.104137 58.484585 
L 328.824799 60.849674 
L 325.54546 63.07343 
L 322.266121 65.087037 
L 318.986782 67.281142 
L 315.707443 69.527862 
L 312.428104 71.678352 
L 309.148765 73.772109 
L 305.869427 76.106902 
L 302.590088 78.358471 
L 299.310749 80.544801 
L 296.03141 82.888157 
L 292.752071 84.890903 
L 289.472732 86.901404 
L 286.193394 89.00316 
L 282.914055 90.774157 
L 279.634716 92.737729 
L 276.355377 94.684939 
L 273.076038 96.748626 
L 269.796699 98.68138 
L 266.517361 100.518555 
L 263.238022 102.295702 
L 259.958683 104.341002 
L 256.679344 106.087549 
L 253.400005 107.848465 
L 250.120666 109.830139 
L 246.841327 111.516665 
L 243.561989 113.400087 
L 240.28265 115.29571 
L 237.003311 117.209136 
L 233.723972 119.142738 
L 230.444633 120.973271 
L 227.165294 122.751403 
L 223.885956 124.601674 
L 220.606617 126.218347 
L 217.327278 127.957554 
L 214.047939 129.655487 
L 210.7686 131.211793 
L 207.489261 132.813308 
L 204.209923 134.488975 
L 200.930584 136.069476 
L 197.651245 137.842648 
L 194.371906 139.414781 
L 191.092567 141.139462 
L 187.813228 142.944 
L 184.533889 144.748448 
L 181.254551 146.367581 
L 177.975212 148.257151 
L 174.695873 149.871918 
L 171.416534 151.591204 
L 168.137195 153.350252 
L 164.857856 155.113072 
L 161.578518 156.848272 
L 158.299179 158.434416 
L 155.01984 160.341748 
L 151.740501 162.063597 
L 148.461162 163.641584 
L 145.181823 165.218089 
L 141.902485 166.800668 
L 138.623146 168.558066 
L 135.343807 170.142951 
L 132.064468 171.703346 
L 128.785129 173.475684 
L 125.50579 175.082486 
L 122.226451 176.66207 
L 118.947113 178.243645 
L 115.667774 179.82522 
L 112.388435 181.454032 
L 109.109096 182.984625 
L 105.829757 184.561139 
L 102.550418 186.137653 
L 99.27108 187.717722 
L 95.991741 189.208984 
L 92.712402 190.865835 
L 89.433063 192.454403 
L 86.153724 194.036101 
L 82.874385 195.617081 
L 79.595046 197.195242 
L 76.315708 198.773561 
L 73.036369 200.354339 
L 69.75703 201.931794 
L 66.477691 203.508359 
L 63.198352 205.091013 
z
" clip-path="url(#p60e80b714d)" style="fill: #1f77b4; fill-opacity: 0.15"/>
   </g>
   <g id="matplotlib.axis_1">
    <g id="xtick_1">
     <g id="line2d_1">
      <defs>
       <path id="mc6d7001453" d="M 0 0 
L 0 3.5 
" style="stroke: #000000; stroke-width: 0.8"/>
      </defs>
      <g>
       <use xlink:href="#mc6d7001453" x="81.884181" y="273.312" style="stroke: #000000; stroke-width: 0.8"/>
      </g>
     </g>
     <g id="text_1">
      <!-- 40 -->
      <g transform="translate(75.521681 287.910437) scale(0.1 -0.1)">
       <defs>
        <path id="DejaVuSans-34" d="M 2419 4116 
L 825 1625 
L 2419 1625 
L 2419 4116 
z
M 2253 4666 
L 3047 4666 
L 3047 1625 
L 3713 1625 
L 3713 1100 
L 3047 1100 
L 3047 0 
L 2419 0 
L 2419 1100 
L 313 1100 
L 313 1709 
L 2253 4666 
z
" transform="scale(0.015625)"/>
        <path id="DejaVuSans-30" d="M 2034 4250 
Q 1547 4250 1301 3770 
Q 1056 3291 1056 2328 
Q 1056 1369 1301 889 
Q 1547 409 2034 409 
Q 2525 409 2770 889 
Q 3016 1369 3016 2328 
Q 3016 3291 2770 3770 
Q 2525 4250 2034 4250 
z
M 2034 4750 
Q 2819 4750 3233 4129 
Q 3647 3509 3647 2328 
Q 3647 1150 3233 529 
Q 2819 -91 2034 -91 
Q 1250 -91 836 529 
Q 422 1150 422 2328 
Q 422 3509 836 4129 
Q 1250 4750 2034 4750 
z
" transform="scale(0.015625)"/>
       </defs>
       <use xlink:href="#DejaVuSans-34"/>
       <use xlink:href="#DejaVuSans-30" x="63.623047"/>
      </g>
     </g>
    </g>
    <g id="xtick_2">
     <g id="line2d_2">
      <g>
       <use xlink:href="#mc6d7001453" x="128.833501" y="273.312" style="stroke: #000000; stroke-width: 0.8"/>
      </g>
     </g>
     <g id="text_2">
      <!-- 60 -->
      <g transform="translate(122.471001 287.910437) scale(0.1 -0.1)">
       <defs>
        <path id="DejaVuSans-36" d="M 2113 2584 
Q 1688 2584 1439 2293 
Q 1191 2003 1191 1497 
Q 1191 994 1439 701 
Q 1688 409 2113 409 
Q 2538 409 2786 701 
Q 3034 994 3034 1497 
Q 3034 2003 2786 2293 
Q 2538 2584 2113 2584 
z
M 3366 4563 
L 3366 3988 
Q 3128 4100 2886 4159 
Q 2644 4219 2406 4219 
Q 1781 4219 1451 3797 
Q 1122 3375 1075 2522 
Q 1259 2794 1537 2939 
Q 1816 3084 2150 3084 
Q 2853 3084 3261 2657 
Q 3669 2231 3669 1497 
Q 3669 778 3244 343 
Q 2819 -91 2113 -91 
Q 1303 -91 875 529 
Q 447 1150 447 2328 
Q 447 3434 972 4092 
Q 1497 4750 2381 4750 
Q 2619 4750 2861 4703 
Q 3103 4656 3366 4563 
z
" transform="scale(0.015625)"/>
       </defs>
       <use xlink:href="#DejaVuSans-36"/>
       <use xlink:href="#DejaVuSans-30" x="63.623047"/>
      </g>
     </g>
    </g>
    <g id="xtick_3">
     <g id="line2d_3">
      <g>
       <use xlink:href="#mc6d7001453" x="175.782821" y="273.312" style="stroke: #000000; stroke-width: 0.8"/>
      </g>
     </g>
     <g id="text_3">
      <!-- 80 -->
      <g transform="translate(169.420321 287.910437) scale(0.1 -0.1)">
       <defs>
        <path id="DejaVuSans-38" d="M 2034 2216 
Q 1584 2216 1326 1975 
Q 1069 1734 1069 1313 
Q 1069 891 1326 650 
Q 1584 409 2034 409 
Q 2484 409 2743 651 
Q 3003 894 3003 1313 
Q 3003 1734 2745 1975 
Q 2488 2216 2034 2216 
z
M 1403 2484 
Q 997 2584 770 2862 
Q 544 3141 544 3541 
Q 544 4100 942 4425 
Q 1341 4750 2034 4750 
Q 2731 4750 3128 4425 
Q 3525 4100 3525 3541 
Q 3525 3141 3298 2862 
Q 3072 2584 2669 2484 
Q 3125 2378 3379 2068 
Q 3634 1759 3634 1313 
Q 3634 634 3220 271 
Q 2806 -91 2034 -91 
Q 1263 -91 848 271 
Q 434 634 434 1313 
Q 434 1759 690 2068 
Q 947 2378 1403 2484 
z
M 1172 3481 
Q 1172 3119 1398 2916 
Q 1625 2713 2034 2713 
Q 2441 2713 2670 2916 
Q 2900 3119 2900 3481 
Q 2900 3844 2670 4047 
Q 2441 4250 2034 4250 
Q 1625 4250 1398 4047 
Q 1172 3844 1172 3481 
z
" transform="scale(0.015625)"/>
       </defs>
       <use xlink:href="#DejaVuSans-38"/>
       <use xlink:href="#DejaVuSans-30" x="63.623047"/>
      </g>
     </g>
    </g>
    <g id="xtick_4">
     <g id="line2d_4">
      <g>
       <use xlink:href="#mc6d7001453" x="222.73214" y="273.312" style="stroke: #000000; stroke-width: 0.8"/>
      </g>
     </g>
     <g id="text_4">
      <!-- 100 -->
      <g transform="translate(213.18839 287.910437) scale(0.1 -0.1)">
       <defs>
        <path id="DejaVuSans-31" d="M 794 531 
L 1825 531 
L 1825 4091 
L 703 3866 
L 703 4441 
L 1819 4666 
L 2450 4666 
L 2450 531 
L 3481 531 
L 3481 0 
L 794 0 
L 794 531 
z
" transform="scale(0.015625)"/>
       </defs>
       <use xlink:href="#DejaVuSans-31"/>
       <use xlink:href="#DejaVuSans-30" x="63.623047"/>
       <use xlink:href="#DejaVuSans-30" x="127.246094"/>
      </g>
     </g>
    </g>
    <g id="xtick_5">
     <g id="line2d_5">
      <g>
       <use xlink:href="#mc6d7001453" x="269.68146" y="273.312" style="stroke: #000000; stroke-width: 0.8"/>
      </g>
     </g>
     <g id="text_5">
      <!-- 120 -->
      <g transform="translate(260.13771 287.910437) scale(0.1 -0.1)">
       <defs>
        <path id="DejaVuSans-32" d="M 1228 531 
L 3431 531 
L 3431 0 
L 469 0 
L 469 531 
Q 828 903 1448 1529 
Q 2069 2156 2228 2338 
Q 2531 2678 2651 2914 
Q 2772 3150 2772 3378 
Q 2772 3750 2511 3984 
Q 2250 4219 1831 4219 
Q 1534 4219 1204 4116 
Q 875 4013 500 3803 
L 500 4441 
Q 881 4594 1212 4672 
Q 1544 4750 1819 4750 
Q 2544 4750 2975 4387 
Q 3406 4025 3406 3419 
Q 3406 3131 3298 2873 
Q 3191 2616 2906 2266 
Q 2828 2175 2409 1742 
Q 1991 1309 1228 531 
z
" transform="scale(0.015625)"/>
       </defs>
       <use xlink:href="#DejaVuSans-31"/>
       <use xlink:href="#DejaVuSans-32" x="63.623047"/>
       <use xlink:href="#DejaVuSans-30" x="127.246094"/>
      </g>
     </g>
    </g>
    <g id="xtick_6">
     <g id="line2d_6">
      <g>
       <use xlink:href="#mc6d7001453" x="316.63078" y="273.312" style="stroke: #000000; stroke-width: 0.8"/>
      </g>
     </g>
     <g id="text_6">
      <!-- 140 -->
      <g transform="translate(307.08703 287.910437) scale(0.1 -0.1)">
       <use xlink:href="#DejaVuSans-31"/>
       <use xlink:href="#DejaVuSans-34" x="63.623047"/>
       <use xlink:href="#DejaVuSans-30" x="127.246094"/>
      </g>
     </g>
    </g>
    <g id="xtick_7">
     <g id="line2d_7">
      <g>
       <use xlink:href="#mc6d7001453" x="363.580099" y="273.312" style="stroke: #000000; stroke-width: 0.8"/>
      </g>
     </g>
     <g id="text_7">
      <!-- 160 -->
      <g transform="translate(354.036349 287.910437) scale(0.1 -0.1)">
       <use xlink:href="#DejaVuSans-31"/>
       <use xlink:href="#DejaVuSans-36" x="63.623047"/>
       <use xlink:href="#DejaVuSans-30" x="127.246094"/>
      </g>
     </g>
    </g>
    <g id="text_8">
     <!-- MW -->
     <g transform="translate(216.267813 301.588562) scale(0.1 -0.1)">
      <defs>
       <path id="DejaVuSans-4d" d="M 628 4666 
L 1569 4666 
L 2759 1491 
L 3956 4666 
L 4897 4666 
L 4897 0 
L 4281 0 
L 4281 4097 
L 3078 897 
L 2444 897 
L 1241 4097 
L 1241 0 
L 628 0 
L 628 4666 
z
" transform="scale(0.015625)"/>
       <path id="DejaVuSans-57" d="M 213 4666 
L 850 4666 
L 1831 722 
L 2809 4666 
L 3519 4666 
L 4500 722 
L 5478 4666 
L 6119 4666 
L 4947 0 
L 4153 0 
L 3169 4050 
L 2175 0 
L 1381 0 
L 213 4666 
z
" transform="scale(0.015625)"/>
      </defs>
      <use xlink:href="#DejaVuSans-4d"/>
      <use xlink:href="#DejaVuSans-57" x="86.279297"/>
     </g>
    </g>
   </g>
   <g id="matplotlib.axis_2">
    <g id="ytick_1">
     <g id="line2d_8">
      <defs>
       <path id="m5da285cf1b" d="M 0 0 
L -3.5 0 
" style="stroke: #000000; stroke-width: 0.8"/>
      </defs>
      <g>
       <use xlink:href="#m5da285cf1b" x="46.965625" y="261.24679" style="stroke: #000000; stroke-width: 0.8"/>
      </g>
     </g>
     <g id="text_9">
      <!-- 0 -->
      <g transform="translate(33.603125 265.046009) scale(0.1 -0.1)">
       <use xlink:href="#DejaVuSans-30"/>
      </g>
     </g>
    </g>
    <g id="ytick_2">
     <g id="line2d_9">
      <g>
       <use xlink:href="#m5da285cf1b" x="46.965625" y="213.262244" style="stroke: #000000; stroke-width: 0.8"/>
      </g>
     </g>
     <g id="text_10">
      <!-- 50 -->
      <g transform="translate(27.240625 217.061463) scale(0.1 -0.1)">
       <defs>
        <path id="DejaVuSans-35" d="M 691 4666 
L 3169 4666 
L 3169 4134 
L 1269 4134 
L 1269 2991 
Q 1406 3038 1543 3061 
Q 1681 3084 1819 3084 
Q 2600 3084 3056 2656 
Q 3513 2228 3513 1497 
Q 3513 744 3044 326 
Q 2575 -91 1722 -91 
Q 1428 -91 1123 -41 
Q 819 9 494 109 
L 494 744 
Q 775 591 1075 516 
Q 1375 441 1709 441 
Q 2250 441 2565 725 
Q 2881 1009 2881 1497 
Q 2881 1984 2565 2268 
Q 2250 2553 1709 2553 
Q 1456 2553 1204 2497 
Q 953 2441 691 2322 
L 691 4666 
z
" transform="scale(0.015625)"/>
       </defs>
       <use xlink:href="#DejaVuSans-35"/>
       <use xlink:href="#DejaVuSans-30" x="63.623047"/>
      </g>
     </g>
    </g>
    <g id="ytick_3">
     <g id="line2d_10">
      <g>
       <use xlink:href="#m5da285cf1b" x="46.965625" y="165.277698" style="stroke: #000000; stroke-width: 0.8"/>
      </g>
     </g>
     <g id="text_11">
      <!-- 100 -->
      <g transform="translate(20.878125 169.076917) scale(0.1 -0.1)">
       <use xlink:href="#DejaVuSans-31"/>
       <use xlink:href="#DejaVuSans-30" x="63.623047"/>
       <use xlink:href="#DejaVuSans-30" x="127.246094"/>
      </g>
     </g>
    </g>
    <g id="ytick_4">
     <g id="line2d_11">
      <g>
       <use xlink:href="#m5da285cf1b" x="46.965625" y="117.293153" style="stroke: #000000; stroke-width: 0.8"/>
      </g>
     </g>
     <g id="text_12">
      <!-- 150 -->
      <g transform="translate(20.878125 121.092371) scale(0.1 -0.1)">
       <use xlink:href="#DejaVuSans-31"/>
       <use xlink:href="#DejaVuSans-35" x="63.623047"/>
       <use xlink:href="#DejaVuSans-30" x="127.246094"/>
      </g>
     </g>
    </g>
    <g id="ytick_5">
     <g id="line2d_12">
      <g>
       <use xlink:href="#m5da285cf1b" x="46.965625" y="69.308607" style="stroke: #000000; stroke-width: 0.8"/>
      </g>
     </g>
     <g id="text_13">
      <!-- 200 -->
      <g transform="translate(20.878125 73.107825) scale(0.1 -0.1)">
       <use xlink:href="#DejaVuSans-32"/>
       <use xlink:href="#DejaVuSans-30" x="63.623047"/>
       <use xlink:href="#DejaVuSans-30" x="127.246094"/>
      </g>
     </g>
    </g>
    <g id="ytick_6">
     <g id="line2d_13">
      <g>
       <use xlink:href="#m5da285cf1b" x="46.965625" y="21.324061" style="stroke: #000000; stroke-width: 0.8"/>
      </g>
     </g>
     <g id="text_14">
      <!-- 250 -->
      <g transform="translate(20.878125 25.12328) scale(0.1 -0.1)">
       <use xlink:href="#DejaVuSans-32"/>
       <use xlink:href="#DejaVuSans-35" x="63.623047"/>
       <use xlink:href="#DejaVuSans-30" x="127.246094"/>
      </g>
     </g>
    </g>
    <g id="text_15">
     <!-- bp -->
     <g transform="translate(14.798438 146.604437) rotate(-90) scale(0.1 -0.1)">
      <defs>
       <path id="DejaVuSans-62" d="M 3116 1747 
Q 3116 2381 2855 2742 
Q 2594 3103 2138 3103 
Q 1681 3103 1420 2742 
Q 1159 2381 1159 1747 
Q 1159 1113 1420 752 
Q 1681 391 2138 391 
Q 2594 391 2855 752 
Q 3116 1113 3116 1747 
z
M 1159 2969 
Q 1341 3281 1617 3432 
Q 1894 3584 2278 3584 
Q 2916 3584 3314 3078 
Q 3713 2572 3713 1747 
Q 3713 922 3314 415 
Q 2916 -91 2278 -91 
Q 1894 -91 1617 61 
Q 1341 213 1159 525 
L 1159 0 
L 581 0 
L 581 4863 
L 1159 4863 
L 1159 2969 
z
" transform="scale(0.015625)"/>
       <path id="DejaVuSans-70" d="M 1159 525 
L 1159 -1331 
L 581 -1331 
L 581 3500 
L 1159 3500 
L 1159 2969 
Q 1341 3281 1617 3432 
Q 1894 3584 2278 3584 
Q 2916 3584 3314 3078 
Q 3713 2572 3713 1747 
Q 3713 922 3314 415 
Q 2916 -91 2278 -91 
Q 1894 -91 1617 61 
Q 1341 213 1159 525 
z
M 3116 1747 
Q 3116 2381 2855 2742 
Q 2594 3103 2138 3103 
Q 1681 3103 1420 2742 
Q 1159 2381 1159 1747 
Q 1159 1113 1420 752 
Q 1681 391 2138 391 
Q 2594 391 2855 752 
Q 3116 1113 3116 1747 
z
" transform="scale(0.015625)"/>
      </defs>
      <use xlink:href="#DejaVuSans-62"/>
      <use xlink:href="#DejaVuSans-70" x="63.476562"/>
     </g>
    </g>
   </g>
   <g id="line2d_14">
    <path d="M 63.198352 227.669188 
L 66.477691 225.793247 
L 69.75703 223.917305 
L 73.036369 222.041363 
L 76.315708 220.165422 
L 79.595046 218.28948 
L 82.874385 216.413538 
L 86.153724 214.537596 
L 89.433063 212.661655 
L 92.712402 210.785713 
L 95.991741 208.909771 
L 99.27108 207.033829 
L 102.550418 205.157888 
L 105.829757 203.281946 
L 109.109096 201.406004 
L 112.388435 199.530062 
L 115.667774 197.654121 
L 118.947113 195.778179 
L 122.226451 193.902237 
L 125.50579 192.026295 
L 128.785129 190.150354 
L 132.064468 188.274412 
L 135.343807 186.39847 
L 138.623146 184.522528 
L 141.902485 182.646587 
L 145.181823 180.770645 
L 148.461162 178.894703 
L 151.740501 177.018761 
L 155.01984 175.14282 
L 158.299179 173.266878 
L 161.578518 171.390936 
L 164.857856 169.514995 
L 168.137195 167.639053 
L 171.416534 165.763111 
L 174.695873 163.887169 
L 177.975212 162.011228 
L 181.254551 160.135286 
L 184.533889 158.259344 
L 187.813228 156.383402 
L 191.092567 154.507461 
L 194.371906 152.631519 
L 197.651245 150.755577 
L 200.930584 148.879635 
L 204.209923 147.003694 
L 207.489261 145.127752 
L 210.7686 143.25181 
L 214.047939 141.375868 
L 217.327278 139.499927 
L 220.606617 137.623985 
L 223.885956 135.748043 
L 227.165294 133.872101 
L 230.444633 131.99616 
L 233.723972 130.120218 
L 237.003311 128.244276 
L 240.28265 126.368334 
L 243.561989 124.492393 
L 246.841327 122.616451 
L 250.120666 120.740509 
L 253.400005 118.864568 
L 256.679344 116.988626 
L 259.958683 115.112684 
L 263.238022 113.236742 
L 266.517361 111.360801 
L 269.796699 109.484859 
L 273.076038 107.608917 
L 276.355377 105.732975 
L 279.634716 103.857034 
L 282.914055 101.981092 
L 286.193394 100.10515 
L 289.472732 98.229208 
L 292.752071 96.353267 
L 296.03141 94.477325 
L 299.310749 92.601383 
L 302.590088 90.725441 
L 305.869427 88.8495 
L 309.148765 86.973558 
L 312.428104 85.097616 
L 315.707443 83.221674 
L 318.986782 81.345733 
L 322.266121 79.469791 
L 325.54546 77.593849 
L 328.824799 75.717907 
L 332.104137 73.841966 
L 335.383476 71.966024 
L 338.662815 70.090082 
L 341.942154 68.214141 
L 345.221493 66.338199 
L 348.500832 64.462257 
L 351.78017 62.586315 
L 355.059509 60.710374 
L 358.338848 58.834432 
L 361.618187 56.95849 
L 364.897526 55.082548 
L 368.176865 53.206607 
L 371.456204 51.330665 
L 374.735542 49.454723 
L 378.014881 47.578781 
L 381.29422 45.70284 
L 384.573559 43.826898 
L 387.852898 41.950956 
" clip-path="url(#p60e80b714d)" style="fill: none; stroke: #1f77b4; stroke-width: 2.25; stroke-linecap: square"/>
   </g>
   <g id="patch_3">
    <path d="M 46.965625 273.312 
L 46.965625 7.2 
" style="fill: none; stroke: #000000; stroke-width: 0.8; stroke-linejoin: miter; stroke-linecap: square"/>
   </g>
   <g id="patch_4">
    <path d="M 404.085625 273.312 
L 404.085625 7.2 
" style="fill: none; stroke: #000000; stroke-width: 0.8; stroke-linejoin: miter; stroke-linecap: square"/>
   </g>
   <g id="patch_5">
    <path d="M 46.965625 273.312 
L 404.085625 273.312 
" style="fill: none; stroke: #000000; stroke-width: 0.8; stroke-linejoin: miter; stroke-linecap: square"/>
   </g>
   <g id="patch_6">
    <path d="M 46.965625 7.2 
L 404.085625 7.2 
" style="fill: none; stroke: #000000; stroke-width: 0.8; stroke-linejoin: miter; stroke-linecap: square"/>
   </g>
  </g>
 </g>
 <defs>
  <clipPath id="p60e80b714d">
   <rect x="46.965625" y="7.2" width="357.12" height="266.112"/>
  </clipPath>
 </defs>
</svg>