<?xml version="1.0" encoding="utf-8" standalone="no"?>
<!DOCTYPE svg PUBLIC "-//W3C//DTD SVG 1.1//EN"
  "http://www.w3.org/Graphics/SVG/1.1/DTD/svg11.dtd">
<svg xmlns:xlink="http://www.w3.org/1999/xlink" width="532.5375pt" height="351.99625pt" viewBox="0 0 532.5375 351.99625" xmlns="http://www.w3.org/2000/svg" version="1.1">
 <metadata>
  <rdf:RDF xmlns:dc="http://purl.org/dc/elements/1.1/" xmlns:cc="http://creativecommons.org/ns#" xmlns:rdf="http://www.w3.org/1999/02/22-rdf-syntax-ns#">
   <cc:Work>
    <dc:type rdf:resource="http://purl.org/dc/dcmitype/StillImage"/>
    <dc:date>2023-12-05T16:27:31.614371</dc:date>
    <dc:format>image/svg+xml</dc:format>
    <dc:creator>
     <cc:Agent>
      <dc:title>Matplotlib v3.7.2, https://matplotlib.org/</dc:title>
     </cc:Agent>
    </dc:creator>
   </cc:Work>
  </rdf:RDF>
 </metadata>
 <defs>
  <style type="text/css">*{stroke-linejoin: round; stroke-linecap: butt}</style>
 </defs>
 <g id="figure_1">
  <g id="patch_1">
   <path d="M 0 351.99625 
L 532.5375 351.99625 
L 532.5375 0 
L 0 0 
z
" style="fill: #ffffff"/>
  </g>
  <g id="axes_1">
   <g id="patch_2">
    <path d="M 47.1875 314.44 
L 525.3375 314.44 
L 525.3375 7.2 
L 47.1875 7.2 
z
" style="fill: #ffffff"/>
   </g>
   <g id="PathCollection_1">
    <defs>
     <path id="m4c3da3d5bc" d="M 0 3 
C 0.795609 3 1.55874 2.683901 2.12132 2.12132 
C 2.683901 1.55874 3 0.795609 3 0 
C 3 -0.795609 2.683901 -1.55874 2.12132 -2.12132 
C 1.55874 -2.683901 0.795609 -3 0 -3 
C -0.795609 -3 -1.55874 -2.683901 -2.12132 -2.12132 
C -2.683901 -1.55874 -3 -0.795609 -3 0 
C -3 0.795609 -2.683901 1.55874 -2.12132 2.12132 
C -1.55874 2.683901 -0.795609 3 0 3 
z
" style="stroke: #1f77b4; stroke-opacity: 0.8"/>
    </defs>
    <g clip-path="url(#pe5332a042c)">
     <use xlink:href="#m4c3da3d5bc" x="68.921591" y="254.333786" style="fill: #1f77b4; fill-opacity: 0.8; stroke: #1f77b4; stroke-opacity: 0.8"/>
     <use xlink:href="#m4c3da3d5bc" x="113.01838" y="238.122168" style="fill: #1f77b4; fill-opacity: 0.8; stroke: #1f77b4; stroke-opacity: 0.8"/>
     <use xlink:href="#m4c3da3d5bc" x="157.115169" y="213.181217" style="fill: #1f77b4; fill-opacity: 0.8; stroke: #1f77b4; stroke-opacity: 0.8"/>
     <use xlink:href="#m4c3da3d5bc" x="201.180527" y="188.240267" style="fill: #1f77b4; fill-opacity: 0.8; stroke: #1f77b4; stroke-opacity: 0.8"/>
     <use xlink:href="#m4c3da3d5bc" x="245.277316" y="162.052268" style="fill: #1f77b4; fill-opacity: 0.8; stroke: #1f77b4; stroke-opacity: 0.8"/>
     <use xlink:href="#m4c3da3d5bc" x="289.374105" y="139.605412" style="fill: #1f77b4; fill-opacity: 0.8; stroke: #1f77b4; stroke-opacity: 0.8"/>
     <use xlink:href="#m4c3da3d5bc" x="333.439464" y="115.911509" style="fill: #1f77b4; fill-opacity: 0.8; stroke: #1f77b4; stroke-opacity: 0.8"/>
     <use xlink:href="#m4c3da3d5bc" x="377.536253" y="92.217606" style="fill: #1f77b4; fill-opacity: 0.8; stroke: #1f77b4; stroke-opacity: 0.8"/>
     <use xlink:href="#m4c3da3d5bc" x="421.601611" y="71.017798" style="fill: #1f77b4; fill-opacity: 0.8; stroke: #1f77b4; stroke-opacity: 0.8"/>
     <use xlink:href="#m4c3da3d5bc" x="465.6984" y="46.076847" style="fill: #1f77b4; fill-opacity: 0.8; stroke: #1f77b4; stroke-opacity: 0.8"/>
     <use xlink:href="#m4c3da3d5bc" x="201.180527" y="200.710742" style="fill: #1f77b4; fill-opacity: 0.8; stroke: #1f77b4; stroke-opacity: 0.8"/>
     <use xlink:href="#m4c3da3d5bc" x="201.180527" y="231.886931" style="fill: #1f77b4; fill-opacity: 0.8; stroke: #1f77b4; stroke-opacity: 0.8"/>
     <use xlink:href="#m4c3da3d5bc" x="245.277316" y="172.028649" style="fill: #1f77b4; fill-opacity: 0.8; stroke: #1f77b4; stroke-opacity: 0.8"/>
     <use xlink:href="#m4c3da3d5bc" x="289.374105" y="167.040458" style="fill: #1f77b4; fill-opacity: 0.8; stroke: #1f77b4; stroke-opacity: 0.8"/>
     <use xlink:href="#m4c3da3d5bc" x="333.439464" y="160.805221" style="fill: #1f77b4; fill-opacity: 0.8; stroke: #1f77b4; stroke-opacity: 0.8"/>
     <use xlink:href="#m4c3da3d5bc" x="264.009808" y="108.429224" style="fill: #1f77b4; fill-opacity: 0.8; stroke: #1f77b4; stroke-opacity: 0.8"/>
     <use xlink:href="#m4c3da3d5bc" x="308.106597" y="83.488273" style="fill: #1f77b4; fill-opacity: 0.8; stroke: #1f77b4; stroke-opacity: 0.8"/>
     <use xlink:href="#m4c3da3d5bc" x="396.268745" y="61.041417" style="fill: #1f77b4; fill-opacity: 0.8; stroke: #1f77b4; stroke-opacity: 0.8"/>
    </g>
   </g>
   <g id="PolyCollection_1">
    <path d="M 68.921591 250.562293 
L 68.921591 285.622041 
L 72.929437 282.916219 
L 76.937284 280.325224 
L 80.945131 277.679855 
L 84.952977 275.034486 
L 88.960824 272.389118 
L 92.96867 269.74237 
L 96.976517 267.095319 
L 100.984363 264.741337 
L 104.99221 262.17521 
L 109.000056 259.57608 
L 113.007903 257.250081 
L 117.01575 254.781917 
L 121.023596 252.188582 
L 125.031443 249.600445 
L 129.039289 247.260866 
L 133.047136 244.773959 
L 137.054982 242.13792 
L 141.062829 239.497738 
L 145.070676 237.013135 
L 149.078522 234.371819 
L 153.086369 231.932575 
L 157.094215 229.492872 
L 161.102062 227.042959 
L 165.109908 224.360265 
L 169.117755 221.584272 
L 173.125601 218.808278 
L 177.133448 216.478038 
L 181.141295 214.270976 
L 185.149141 212.063914 
L 189.156988 209.856851 
L 193.164834 207.335974 
L 197.172681 204.637427 
L 201.180527 202.037139 
L 205.188374 199.53321 
L 209.19622 197.003259 
L 213.204067 194.843857 
L 217.211914 192.680986 
L 221.21976 190.396677 
L 225.227607 187.948048 
L 229.235453 185.539397 
L 233.2433 183.098953 
L 237.251146 180.719582 
L 241.258993 178.474993 
L 245.266839 176.331612 
L 249.274686 174.159549 
L 253.282533 172.036505 
L 257.290379 169.78634 
L 261.298226 167.599759 
L 265.306072 165.415562 
L 269.313919 163.339177 
L 273.321765 161.109365 
L 277.329612 159.155526 
L 281.337459 156.883398 
L 285.345305 154.905898 
L 289.353152 152.982734 
L 293.360998 150.766541 
L 297.368845 148.428335 
L 301.376691 146.388239 
L 305.384538 144.348142 
L 309.392384 142.361964 
L 313.400231 140.275331 
L 317.408078 138.21838 
L 321.415924 136.085662 
L 325.423771 134.15614 
L 329.431617 131.999324 
L 333.439464 129.836538 
L 337.44731 127.540023 
L 341.455157 125.43345 
L 345.463003 123.400261 
L 349.47085 121.353914 
L 353.478697 119.166342 
L 357.486543 117.17353 
L 361.49439 115.071576 
L 365.502236 112.916618 
L 369.510083 110.759753 
L 373.517929 108.602888 
L 377.525776 106.447799 
L 381.533622 104.415255 
L 385.541469 102.43897 
L 389.549316 100.462685 
L 393.557162 98.4864 
L 397.565009 96.510115 
L 401.572855 94.53383 
L 405.580702 92.557545 
L 409.588548 90.58126 
L 413.596395 88.604975 
L 417.604242 86.62869 
L 421.612088 84.652404 
L 425.619935 82.673975 
L 429.627781 80.624683 
L 433.635628 78.546671 
L 437.643474 76.468221 
L 441.651321 74.38889 
L 445.659167 72.404716 
L 449.667014 70.477054 
L 453.674861 68.471804 
L 457.682707 66.458138 
L 461.690554 64.494735 
L 465.6984 62.522956 
L 465.6984 21.165455 
L 465.6984 21.165455 
L 461.690554 23.691222 
L 457.682707 26.216215 
L 453.674861 28.740764 
L 449.667014 31.288307 
L 445.659167 33.792377 
L 441.651321 36.31693 
L 437.643474 38.841482 
L 433.635628 41.366034 
L 429.627781 43.890587 
L 425.619935 46.415139 
L 421.612088 48.939691 
L 417.604242 51.464244 
L 413.596395 53.988796 
L 409.588548 56.366565 
L 405.580702 58.919343 
L 401.572855 61.511213 
L 397.565009 64.016718 
L 393.557162 66.44235 
L 389.549316 68.867981 
L 385.541469 71.293613 
L 381.533622 73.752341 
L 377.525776 76.250923 
L 373.517929 78.69161 
L 369.510083 81.046624 
L 365.502236 83.476253 
L 361.49439 85.986307 
L 357.486543 88.496361 
L 353.478697 91.006414 
L 349.47085 93.280206 
L 345.463003 95.777375 
L 341.455157 98.244964 
L 337.44731 100.449213 
L 333.439464 102.801016 
L 329.431617 105.485456 
L 325.423771 108.219908 
L 321.415924 110.684077 
L 317.408078 113.449283 
L 313.400231 115.897362 
L 309.392384 118.062676 
L 305.384538 120.304286 
L 301.376691 122.461301 
L 297.368845 124.81617 
L 293.360998 127.094977 
L 289.353152 129.634231 
L 285.345305 131.888382 
L 281.337459 134.214339 
L 277.329612 136.433777 
L 273.321765 138.657987 
L 269.313919 141.082018 
L 265.306072 143.333165 
L 261.298226 145.509176 
L 257.290379 147.815756 
L 253.282533 150.066926 
L 249.274686 152.485306 
L 245.266839 154.720786 
L 241.258993 156.928039 
L 237.251146 159.135292 
L 233.2433 161.34439 
L 229.235453 163.588339 
L 225.227607 165.841608 
L 221.21976 168.330075 
L 217.211914 170.615313 
L 213.204067 172.607239 
L 209.19622 174.798131 
L 205.188374 177.08097 
L 201.180527 179.237146 
L 197.172681 181.396613 
L 193.164834 183.820672 
L 189.156988 185.999456 
L 185.149141 188.085734 
L 181.141295 190.206285 
L 177.133448 192.329051 
L 173.125601 194.477601 
L 169.117755 196.710788 
L 165.109908 198.918951 
L 161.102062 201.127114 
L 157.094215 203.33587 
L 153.086369 205.601173 
L 149.078522 207.886027 
L 145.070676 210.170881 
L 141.062829 212.31938 
L 137.054982 214.376094 
L 133.047136 216.584257 
L 129.039289 218.79242 
L 125.031443 220.87659 
L 121.023596 223.071392 
L 117.01575 225.230679 
L 113.007903 227.362228 
L 109.000056 229.496553 
L 104.99221 231.630877 
L 100.984363 233.765202 
L 96.976517 235.899526 
L 92.96867 238.020644 
L 88.960824 240.152623 
L 84.952977 242.276976 
L 80.945131 244.268401 
L 76.937284 246.259825 
L 72.929437 248.304121 
L 68.921591 250.562293 
z
" clip-path="url(#pe5332a042c)" style="fill: #1f77b4; fill-opacity: 0.15"/>
   </g>
   <g id="PathCollection_2">
    <defs>
     <path id="me75c25006e" d="M 0 -3 
L -3 3 
L 3 3 
z
" style="stroke: #ff7f0e; stroke-opacity: 0.8"/>
    </defs>
    <g clip-path="url(#pe5332a042c)">
     <use xlink:href="#me75c25006e" x="194.988747" y="290.498165" style="fill: #ff7f0e; fill-opacity: 0.8; stroke: #ff7f0e; stroke-opacity: 0.8"/>
     <use xlink:href="#me75c25006e" x="239.085536" y="249.345596" style="fill: #ff7f0e; fill-opacity: 0.8; stroke: #ff7f0e; stroke-opacity: 0.8"/>
     <use xlink:href="#me75c25006e" x="283.182325" y="213.181217" style="fill: #ff7f0e; fill-opacity: 0.8; stroke: #ff7f0e; stroke-opacity: 0.8"/>
     <use xlink:href="#me75c25006e" x="327.247684" y="178.263886" style="fill: #ff7f0e; fill-opacity: 0.8; stroke: #ff7f0e; stroke-opacity: 0.8"/>
     <use xlink:href="#me75c25006e" x="371.344473" y="147.087698" style="fill: #ff7f0e; fill-opacity: 0.8; stroke: #ff7f0e; stroke-opacity: 0.8"/>
     <use xlink:href="#me75c25006e" x="415.441262" y="118.405604" style="fill: #ff7f0e; fill-opacity: 0.8; stroke: #ff7f0e; stroke-opacity: 0.8"/>
     <use xlink:href="#me75c25006e" x="459.50662" y="90.970558" style="fill: #ff7f0e; fill-opacity: 0.8; stroke: #ff7f0e; stroke-opacity: 0.8"/>
     <use xlink:href="#me75c25006e" x="503.603409" y="66.029607" style="fill: #ff7f0e; fill-opacity: 0.8; stroke: #ff7f0e; stroke-opacity: 0.8"/>
     <use xlink:href="#me75c25006e" x="239.085536" y="256.827881" style="fill: #ff7f0e; fill-opacity: 0.8; stroke: #ff7f0e; stroke-opacity: 0.8"/>
     <use xlink:href="#me75c25006e" x="327.247684" y="189.487314" style="fill: #ff7f0e; fill-opacity: 0.8; stroke: #ff7f0e; stroke-opacity: 0.8"/>
     <use xlink:href="#me75c25006e" x="194.988747" y="300.474545" style="fill: #ff7f0e; fill-opacity: 0.8; stroke: #ff7f0e; stroke-opacity: 0.8"/>
     <use xlink:href="#me75c25006e" x="283.182325" y="235.628073" style="fill: #ff7f0e; fill-opacity: 0.8; stroke: #ff7f0e; stroke-opacity: 0.8"/>
    </g>
   </g>
   <g id="PolyCollection_2">
    <path d="M 194.988747 280.972743 
L 194.988747 296.80847 
L 198.106067 294.385288 
L 201.223387 291.75723 
L 204.340707 289.297889 
L 207.458027 286.871732 
L 210.575346 284.445886 
L 213.692666 282.005218 
L 216.809986 279.60413 
L 219.927306 277.202788 
L 223.044626 274.742961 
L 226.161945 272.205784 
L 229.279265 269.719355 
L 232.396585 267.224619 
L 235.513905 264.742759 
L 238.631225 262.111474 
L 241.748545 259.6723 
L 244.865864 257.219093 
L 247.983184 254.839824 
L 251.100504 252.382928 
L 254.217824 249.857294 
L 257.335144 247.438467 
L 260.452463 245.076902 
L 263.569783 242.670341 
L 266.687103 240.313203 
L 269.804423 237.899767 
L 272.921743 235.392894 
L 276.039063 233.064395 
L 279.156382 230.657749 
L 282.273702 228.100235 
L 285.391022 225.735901 
L 288.508342 223.370435 
L 291.625662 220.968152 
L 294.742981 218.589037 
L 297.860301 216.183162 
L 300.977621 213.83697 
L 304.094941 211.439234 
L 307.212261 209.084142 
L 310.32958 206.728 
L 313.4469 204.360499 
L 316.56422 201.935517 
L 319.68154 199.519661 
L 322.79886 197.179822 
L 325.91618 194.839981 
L 329.033499 192.461809 
L 332.150819 190.062999 
L 335.268139 187.695558 
L 338.385459 185.368913 
L 341.502779 182.949038 
L 344.620098 180.529163 
L 347.737418 178.109288 
L 350.854738 175.778521 
L 353.972058 173.448342 
L 357.089378 171.118162 
L 360.206698 168.713513 
L 363.324017 166.2791 
L 366.441337 163.925173 
L 369.558657 161.575758 
L 372.675977 159.225574 
L 375.793297 156.934259 
L 378.910616 154.596396 
L 382.027936 152.28379 
L 385.145256 149.972062 
L 388.262576 147.661499 
L 391.379896 145.350288 
L 394.497216 143.038684 
L 397.614535 140.697446 
L 400.731855 138.411781 
L 403.849175 136.080452 
L 406.966495 133.792621 
L 410.083815 131.482446 
L 413.201134 129.170628 
L 416.318454 126.858181 
L 419.435774 124.513974 
L 422.553094 122.215609 
L 425.670414 119.913862 
L 428.787734 117.586989 
L 431.905053 115.263762 
L 435.022373 112.989515 
L 438.139693 110.678332 
L 441.257013 108.366628 
L 444.374333 106.043028 
L 447.491652 103.74369 
L 450.608972 101.43259 
L 453.726292 99.12149 
L 456.843612 96.833122 
L 459.960932 94.550985 
L 463.078251 92.271363 
L 466.195571 89.953178 
L 469.312891 87.66137 
L 472.430211 85.394089 
L 475.547531 83.126403 
L 478.664851 80.850801 
L 481.78217 78.55356 
L 484.89949 76.310343 
L 488.01681 74.060642 
L 491.13413 71.785218 
L 494.25145 69.495926 
L 497.368769 67.206635 
L 500.486089 64.946429 
L 503.603409 62.650392 
L 503.603409 39.137544 
L 503.603409 39.137544 
L 500.486089 41.688824 
L 497.368769 44.210192 
L 494.25145 46.73156 
L 491.13413 49.252928 
L 488.01681 51.807744 
L 484.89949 54.39941 
L 481.78217 56.992989 
L 478.664851 59.586724 
L 475.547531 62.180334 
L 472.430211 64.722397 
L 469.312891 67.297039 
L 466.195571 69.860535 
L 463.078251 72.430905 
L 459.960932 75.063446 
L 456.843612 77.695988 
L 453.726292 80.304217 
L 450.608972 82.90543 
L 447.491652 85.506643 
L 444.374333 88.107856 
L 441.257013 90.696913 
L 438.139693 93.271729 
L 435.022373 95.846545 
L 431.905053 98.421406 
L 428.787734 100.996674 
L 425.670414 103.571942 
L 422.553094 106.130033 
L 419.435774 108.677889 
L 416.318454 111.228827 
L 413.201134 113.780597 
L 410.083815 116.454776 
L 406.966495 119.029272 
L 403.849175 121.603769 
L 400.731855 124.108298 
L 397.614535 126.569103 
L 394.497216 129.06251 
L 391.379896 131.608588 
L 388.262576 134.133736 
L 385.145256 136.620482 
L 382.027936 139.213488 
L 378.910616 141.797099 
L 375.793297 144.345474 
L 372.675977 146.927798 
L 369.558657 149.525211 
L 366.441337 152.125287 
L 363.324017 154.737114 
L 360.206698 157.314629 
L 357.089378 159.796464 
L 353.972058 162.263818 
L 350.854738 164.776893 
L 347.737418 167.245392 
L 344.620098 169.815694 
L 341.502779 172.358717 
L 338.385459 174.864237 
L 335.268139 177.383365 
L 332.150819 179.936331 
L 329.033499 182.398935 
L 325.91618 184.819833 
L 322.79886 187.27674 
L 319.68154 189.525312 
L 316.56422 191.772154 
L 313.4469 194.086688 
L 310.32958 196.523657 
L 307.212261 198.836987 
L 304.094941 201.268928 
L 300.977621 203.562782 
L 297.860301 206.014268 
L 294.742981 208.329489 
L 291.625662 210.643351 
L 288.508342 212.986533 
L 285.391022 215.272379 
L 282.273702 217.537801 
L 279.156382 219.803807 
L 276.039063 222.108029 
L 272.921743 224.413073 
L 269.804423 226.71832 
L 266.687103 228.93939 
L 263.569783 231.149669 
L 260.452463 233.359947 
L 257.335144 235.637926 
L 254.217824 237.97453 
L 251.100504 240.198672 
L 247.983184 242.42297 
L 244.865864 244.682567 
L 241.748545 246.984333 
L 238.631225 249.287323 
L 235.513905 251.56948 
L 232.396585 253.890827 
L 229.279265 256.153438 
L 226.161945 258.414318 
L 223.044626 260.675936 
L 219.927306 262.917625 
L 216.809986 265.163486 
L 213.692666 267.39232 
L 210.575346 269.593021 
L 207.458027 271.848827 
L 204.340707 274.112934 
L 201.223387 276.380693 
L 198.106067 278.701654 
L 194.988747 280.972743 
z
" clip-path="url(#pe5332a042c)" style="fill: #ff7f0e; fill-opacity: 0.15"/>
   </g>
   <g id="matplotlib.axis_1">
    <g id="xtick_1">
     <g id="line2d_1">
      <defs>
       <path id="m0176a67a76" d="M 0 0 
L 0 3.5 
" style="stroke: #000000; stroke-width: 0.8"/>
      </defs>
      <g>
       <use xlink:href="#m0176a67a76" x="93.940154" y="314.44" style="stroke: #000000; stroke-width: 0.8"/>
      </g>
     </g>
     <g id="text_1">
      <!-- 40 -->
      <g transform="translate(87.577654 329.038437) scale(0.1 -0.1)">
       <defs>
        <path id="DejaVuSans-34" d="M 2419 4116 
L 825 1625 
L 2419 1625 
L 2419 4116 
z
M 2253 4666 
L 3047 4666 
L 3047 1625 
L 3713 1625 
L 3713 1100 
L 3047 1100 
L 3047 0 
L 2419 0 
L 2419 1100 
L 313 1100 
L 313 1709 
L 2253 4666 
z
" transform="scale(0.015625)"/>
        <path id="DejaVuSans-30" d="M 2034 4250 
Q 1547 4250 1301 3770 
Q 1056 3291 1056 2328 
Q 1056 1369 1301 889 
Q 1547 409 2034 409 
Q 2525 409 2770 889 
Q 3016 1369 3016 2328 
Q 3016 3291 2770 3770 
Q 2525 4250 2034 4250 
z
M 2034 4750 
Q 2819 4750 3233 4129 
Q 3647 3509 3647 2328 
Q 3647 1150 3233 529 
Q 2819 -91 2034 -91 
Q 1250 -91 836 529 
Q 422 1150 422 2328 
Q 422 3509 836 4129 
Q 1250 4750 2034 4750 
z
" transform="scale(0.015625)"/>
       </defs>
       <use xlink:href="#DejaVuSans-34"/>
       <use xlink:href="#DejaVuSans-30" x="63.623047"/>
      </g>
     </g>
    </g>
    <g id="xtick_2">
     <g id="line2d_2">
      <g>
       <use xlink:href="#m0176a67a76" x="156.800865" y="314.44" style="stroke: #000000; stroke-width: 0.8"/>
      </g>
     </g>
     <g id="text_2">
      <!-- 60 -->
      <g transform="translate(150.438365 329.038437) scale(0.1 -0.1)">
       <defs>
        <path id="DejaVuSans-36" d="M 2113 2584 
Q 1688 2584 1439 2293 
Q 1191 2003 1191 1497 
Q 1191 994 1439 701 
Q 1688 409 2113 409 
Q 2538 409 2786 701 
Q 3034 994 3034 1497 
Q 3034 2003 2786 2293 
Q 2538 2584 2113 2584 
z
M 3366 4563 
L 3366 3988 
Q 3128 4100 2886 4159 
Q 2644 4219 2406 4219 
Q 1781 4219 1451 3797 
Q 1122 3375 1075 2522 
Q 1259 2794 1537 2939 
Q 1816 3084 2150 3084 
Q 2853 3084 3261 2657 
Q 3669 2231 3669 1497 
Q 3669 778 3244 343 
Q 2819 -91 2113 -91 
Q 1303 -91 875 529 
Q 447 1150 447 2328 
Q 447 3434 972 4092 
Q 1497 4750 2381 4750 
Q 2619 4750 2861 4703 
Q 3103 4656 3366 4563 
z
" transform="scale(0.015625)"/>
       </defs>
       <use xlink:href="#DejaVuSans-36"/>
       <use xlink:href="#DejaVuSans-30" x="63.623047"/>
      </g>
     </g>
    </g>
    <g id="xtick_3">
     <g id="line2d_3">
      <g>
       <use xlink:href="#m0176a67a76" x="219.661576" y="314.44" style="stroke: #000000; stroke-width: 0.8"/>
      </g>
     </g>
     <g id="text_3">
      <!-- 80 -->
      <g transform="translate(213.299076 329.038437) scale(0.1 -0.1)">
       <defs>
        <path id="DejaVuSans-38" d="M 2034 2216 
Q 1584 2216 1326 1975 
Q 1069 1734 1069 1313 
Q 1069 891 1326 650 
Q 1584 409 2034 409 
Q 2484 409 2743 651 
Q 3003 894 3003 1313 
Q 3003 1734 2745 1975 
Q 2488 2216 2034 2216 
z
M 1403 2484 
Q 997 2584 770 2862 
Q 544 3141 544 3541 
Q 544 4100 942 4425 
Q 1341 4750 2034 4750 
Q 2731 4750 3128 4425 
Q 3525 4100 3525 3541 
Q 3525 3141 3298 2862 
Q 3072 2584 2669 2484 
Q 3125 2378 3379 2068 
Q 3634 1759 3634 1313 
Q 3634 634 3220 271 
Q 2806 -91 2034 -91 
Q 1263 -91 848 271 
Q 434 634 434 1313 
Q 434 1759 690 2068 
Q 947 2378 1403 2484 
z
M 1172 3481 
Q 1172 3119 1398 2916 
Q 1625 2713 2034 2713 
Q 2441 2713 2670 2916 
Q 2900 3119 2900 3481 
Q 2900 3844 2670 4047 
Q 2441 4250 2034 4250 
Q 1625 4250 1398 4047 
Q 1172 3844 1172 3481 
z
" transform="scale(0.015625)"/>
       </defs>
       <use xlink:href="#DejaVuSans-38"/>
       <use xlink:href="#DejaVuSans-30" x="63.623047"/>
      </g>
     </g>
    </g>
    <g id="xtick_4">
     <g id="line2d_4">
      <g>
       <use xlink:href="#m0176a67a76" x="282.522288" y="314.44" style="stroke: #000000; stroke-width: 0.8"/>
      </g>
     </g>
     <g id="text_4">
      <!-- 100 -->
      <g transform="translate(272.978538 329.038437) scale(0.1 -0.1)">
       <defs>
        <path id="DejaVuSans-31" d="M 794 531 
L 1825 531 
L 1825 4091 
L 703 3866 
L 703 4441 
L 1819 4666 
L 2450 4666 
L 2450 531 
L 3481 531 
L 3481 0 
L 794 0 
L 794 531 
z
" transform="scale(0.015625)"/>
       </defs>
       <use xlink:href="#DejaVuSans-31"/>
       <use xlink:href="#DejaVuSans-30" x="63.623047"/>
       <use xlink:href="#DejaVuSans-30" x="127.246094"/>
      </g>
     </g>
    </g>
    <g id="xtick_5">
     <g id="line2d_5">
      <g>
       <use xlink:href="#m0176a67a76" x="345.382999" y="314.44" style="stroke: #000000; stroke-width: 0.8"/>
      </g>
     </g>
     <g id="text_5">
      <!-- 120 -->
      <g transform="translate(335.839249 329.038437) scale(0.1 -0.1)">
       <defs>
        <path id="DejaVuSans-32" d="M 1228 531 
L 3431 531 
L 3431 0 
L 469 0 
L 469 531 
Q 828 903 1448 1529 
Q 2069 2156 2228 2338 
Q 2531 2678 2651 2914 
Q 2772 3150 2772 3378 
Q 2772 3750 2511 3984 
Q 2250 4219 1831 4219 
Q 1534 4219 1204 4116 
Q 875 4013 500 3803 
L 500 4441 
Q 881 4594 1212 4672 
Q 1544 4750 1819 4750 
Q 2544 4750 2975 4387 
Q 3406 4025 3406 3419 
Q 3406 3131 3298 2873 
Q 3191 2616 2906 2266 
Q 2828 2175 2409 1742 
Q 1991 1309 1228 531 
z
" transform="scale(0.015625)"/>
       </defs>
       <use xlink:href="#DejaVuSans-31"/>
       <use xlink:href="#DejaVuSans-32" x="63.623047"/>
       <use xlink:href="#DejaVuSans-30" x="127.246094"/>
      </g>
     </g>
    </g>
    <g id="xtick_6">
     <g id="line2d_6">
      <g>
       <use xlink:href="#m0176a67a76" x="408.24371" y="314.44" style="stroke: #000000; stroke-width: 0.8"/>
      </g>
     </g>
     <g id="text_6">
      <!-- 140 -->
      <g transform="translate(398.69996 329.038437) scale(0.1 -0.1)">
       <use xlink:href="#DejaVuSans-31"/>
       <use xlink:href="#DejaVuSans-34" x="63.623047"/>
       <use xlink:href="#DejaVuSans-30" x="127.246094"/>
      </g>
     </g>
    </g>
    <g id="xtick_7">
     <g id="line2d_7">
      <g>
       <use xlink:href="#m0176a67a76" x="471.104421" y="314.44" style="stroke: #000000; stroke-width: 0.8"/>
      </g>
     </g>
     <g id="text_7">
      <!-- 160 -->
      <g transform="translate(461.560671 329.038437) scale(0.1 -0.1)">
       <use xlink:href="#DejaVuSans-31"/>
       <use xlink:href="#DejaVuSans-36" x="63.623047"/>
       <use xlink:href="#DejaVuSans-30" x="127.246094"/>
      </g>
     </g>
    </g>
    <g id="text_8">
     <!-- MW, g/mol -->
     <g transform="translate(259.649219 342.716562) scale(0.1 -0.1)">
      <defs>
       <path id="DejaVuSans-4d" d="M 628 4666 
L 1569 4666 
L 2759 1491 
L 3956 4666 
L 4897 4666 
L 4897 0 
L 4281 0 
L 4281 4097 
L 3078 897 
L 2444 897 
L 1241 4097 
L 1241 0 
L 628 0 
L 628 4666 
z
" transform="scale(0.015625)"/>
       <path id="DejaVuSans-57" d="M 213 4666 
L 850 4666 
L 1831 722 
L 2809 4666 
L 3519 4666 
L 4500 722 
L 5478 4666 
L 6119 4666 
L 4947 0 
L 4153 0 
L 3169 4050 
L 2175 0 
L 1381 0 
L 213 4666 
z
" transform="scale(0.015625)"/>
       <path id="DejaVuSans-2c" d="M 750 794 
L 1409 794 
L 1409 256 
L 897 -744 
L 494 -744 
L 750 256 
L 750 794 
z
" transform="scale(0.015625)"/>
       <path id="DejaVuSans-20" transform="scale(0.015625)"/>
       <path id="DejaVuSans-67" d="M 2906 1791 
Q 2906 2416 2648 2759 
Q 2391 3103 1925 3103 
Q 1463 3103 1205 2759 
Q 947 2416 947 1791 
Q 947 1169 1205 825 
Q 1463 481 1925 481 
Q 2391 481 2648 825 
Q 2906 1169 2906 1791 
z
M 3481 434 
Q 3481 -459 3084 -895 
Q 2688 -1331 1869 -1331 
Q 1566 -1331 1297 -1286 
Q 1028 -1241 775 -1147 
L 775 -588 
Q 1028 -725 1275 -790 
Q 1522 -856 1778 -856 
Q 2344 -856 2625 -561 
Q 2906 -266 2906 331 
L 2906 616 
Q 2728 306 2450 153 
Q 2172 0 1784 0 
Q 1141 0 747 490 
Q 353 981 353 1791 
Q 353 2603 747 3093 
Q 1141 3584 1784 3584 
Q 2172 3584 2450 3431 
Q 2728 3278 2906 2969 
L 2906 3500 
L 3481 3500 
L 3481 434 
z
" transform="scale(0.015625)"/>
       <path id="DejaVuSans-2f" d="M 1625 4666 
L 2156 4666 
L 531 -594 
L 0 -594 
L 1625 4666 
z
" transform="scale(0.015625)"/>
       <path id="DejaVuSans-6d" d="M 3328 2828 
Q 3544 3216 3844 3400 
Q 4144 3584 4550 3584 
Q 5097 3584 5394 3201 
Q 5691 2819 5691 2113 
L 5691 0 
L 5113 0 
L 5113 2094 
Q 5113 2597 4934 2840 
Q 4756 3084 4391 3084 
Q 3944 3084 3684 2787 
Q 3425 2491 3425 1978 
L 3425 0 
L 2847 0 
L 2847 2094 
Q 2847 2600 2669 2842 
Q 2491 3084 2119 3084 
Q 1678 3084 1418 2786 
Q 1159 2488 1159 1978 
L 1159 0 
L 581 0 
L 581 3500 
L 1159 3500 
L 1159 2956 
Q 1356 3278 1631 3431 
Q 1906 3584 2284 3584 
Q 2666 3584 2933 3390 
Q 3200 3197 3328 2828 
z
" transform="scale(0.015625)"/>
       <path id="DejaVuSans-6f" d="M 1959 3097 
Q 1497 3097 1228 2736 
Q 959 2375 959 1747 
Q 959 1119 1226 758 
Q 1494 397 1959 397 
Q 2419 397 2687 759 
Q 2956 1122 2956 1747 
Q 2956 2369 2687 2733 
Q 2419 3097 1959 3097 
z
M 1959 3584 
Q 2709 3584 3137 3096 
Q 3566 2609 3566 1747 
Q 3566 888 3137 398 
Q 2709 -91 1959 -91 
Q 1206 -91 779 398 
Q 353 888 353 1747 
Q 353 2609 779 3096 
Q 1206 3584 1959 3584 
z
" transform="scale(0.015625)"/>
       <path id="DejaVuSans-6c" d="M 603 4863 
L 1178 4863 
L 1178 0 
L 603 0 
L 603 4863 
z
" transform="scale(0.015625)"/>
      </defs>
      <use xlink:href="#DejaVuSans-4d"/>
      <use xlink:href="#DejaVuSans-57" x="86.279297"/>
      <use xlink:href="#DejaVuSans-2c" x="185.15625"/>
      <use xlink:href="#DejaVuSans-20" x="216.943359"/>
      <use xlink:href="#DejaVuSans-67" x="248.730469"/>
      <use xlink:href="#DejaVuSans-2f" x="312.207031"/>
      <use xlink:href="#DejaVuSans-6d" x="345.898438"/>
      <use xlink:href="#DejaVuSans-6f" x="443.310547"/>
      <use xlink:href="#DejaVuSans-6c" x="504.492188"/>
     </g>
    </g>
   </g>
   <g id="matplotlib.axis_2">
    <g id="ytick_1">
     <g id="line2d_8">
      <defs>
       <path id="m217d7aa0b2" d="M 0 0 
L -3.5 0 
" style="stroke: #000000; stroke-width: 0.8"/>
      </defs>
      <g>
       <use xlink:href="#m217d7aa0b2" x="47.1875" y="273.0395" style="stroke: #000000; stroke-width: 0.8"/>
      </g>
     </g>
     <g id="text_9">
      <!-- 50 -->
      <g transform="translate(27.4625 276.838718) scale(0.1 -0.1)">
       <defs>
        <path id="DejaVuSans-35" d="M 691 4666 
L 3169 4666 
L 3169 4134 
L 1269 4134 
L 1269 2991 
Q 1406 3038 1543 3061 
Q 1681 3084 1819 3084 
Q 2600 3084 3056 2656 
Q 3513 2228 3513 1497 
Q 3513 744 3044 326 
Q 2575 -91 1722 -91 
Q 1428 -91 1123 -41 
Q 819 9 494 109 
L 494 744 
Q 775 591 1075 516 
Q 1375 441 1709 441 
Q 2250 441 2565 725 
Q 2881 1009 2881 1497 
Q 2881 1984 2565 2268 
Q 2250 2553 1709 2553 
Q 1456 2553 1204 2497 
Q 953 2441 691 2322 
L 691 4666 
z
" transform="scale(0.015625)"/>
       </defs>
       <use xlink:href="#DejaVuSans-35"/>
       <use xlink:href="#DejaVuSans-30" x="63.623047"/>
      </g>
     </g>
    </g>
    <g id="ytick_2">
     <g id="line2d_9">
      <g>
       <use xlink:href="#m217d7aa0b2" x="47.1875" y="210.687122" style="stroke: #000000; stroke-width: 0.8"/>
      </g>
     </g>
     <g id="text_10">
      <!-- 100 -->
      <g transform="translate(21.1 214.486341) scale(0.1 -0.1)">
       <use xlink:href="#DejaVuSans-31"/>
       <use xlink:href="#DejaVuSans-30" x="63.623047"/>
       <use xlink:href="#DejaVuSans-30" x="127.246094"/>
      </g>
     </g>
    </g>
    <g id="ytick_3">
     <g id="line2d_10">
      <g>
       <use xlink:href="#m217d7aa0b2" x="47.1875" y="148.334745" style="stroke: #000000; stroke-width: 0.8"/>
      </g>
     </g>
     <g id="text_11">
      <!-- 150 -->
      <g transform="translate(21.1 152.133964) scale(0.1 -0.1)">
       <use xlink:href="#DejaVuSans-31"/>
       <use xlink:href="#DejaVuSans-35" x="63.623047"/>
       <use xlink:href="#DejaVuSans-30" x="127.246094"/>
      </g>
     </g>
    </g>
    <g id="ytick_4">
     <g id="line2d_11">
      <g>
       <use xlink:href="#m217d7aa0b2" x="47.1875" y="85.982368" style="stroke: #000000; stroke-width: 0.8"/>
      </g>
     </g>
     <g id="text_12">
      <!-- 200 -->
      <g transform="translate(21.1 89.781587) scale(0.1 -0.1)">
       <use xlink:href="#DejaVuSans-32"/>
       <use xlink:href="#DejaVuSans-30" x="63.623047"/>
       <use xlink:href="#DejaVuSans-30" x="127.246094"/>
      </g>
     </g>
    </g>
    <g id="ytick_5">
     <g id="line2d_12">
      <g>
       <use xlink:href="#m217d7aa0b2" x="47.1875" y="23.629991" style="stroke: #000000; stroke-width: 0.8"/>
      </g>
     </g>
     <g id="text_13">
      <!-- 250 -->
      <g transform="translate(21.1 27.42921) scale(0.1 -0.1)">
       <use xlink:href="#DejaVuSans-32"/>
       <use xlink:href="#DejaVuSans-35" x="63.623047"/>
       <use xlink:href="#DejaVuSans-30" x="127.246094"/>
      </g>
     </g>
    </g>
    <g id="text_14">
     <!-- bp, $^o$C -->
     <g transform="translate(15 176.17) rotate(-90) scale(0.1 -0.1)">
      <defs>
       <path id="DejaVuSans-62" d="M 3116 1747 
Q 3116 2381 2855 2742 
Q 2594 3103 2138 3103 
Q 1681 3103 1420 2742 
Q 1159 2381 1159 1747 
Q 1159 1113 1420 752 
Q 1681 391 2138 391 
Q 2594 391 2855 752 
Q 3116 1113 3116 1747 
z
M 1159 2969 
Q 1341 3281 1617 3432 
Q 1894 3584 2278 3584 
Q 2916 3584 3314 3078 
Q 3713 2572 3713 1747 
Q 3713 922 3314 415 
Q 2916 -91 2278 -91 
Q 1894 -91 1617 61 
Q 1341 213 1159 525 
L 1159 0 
L 581 0 
L 581 4863 
L 1159 4863 
L 1159 2969 
z
" transform="scale(0.015625)"/>
       <path id="DejaVuSans-70" d="M 1159 525 
L 1159 -1331 
L 581 -1331 
L 581 3500 
L 1159 3500 
L 1159 2969 
Q 1341 3281 1617 3432 
Q 1894 3584 2278 3584 
Q 2916 3584 3314 3078 
Q 3713 2572 3713 1747 
Q 3713 922 3314 415 
Q 2916 -91 2278 -91 
Q 1894 -91 1617 61 
Q 1341 213 1159 525 
z
M 3116 1747 
Q 3116 2381 2855 2742 
Q 2594 3103 2138 3103 
Q 1681 3103 1420 2742 
Q 1159 2381 1159 1747 
Q 1159 1113 1420 752 
Q 1681 391 2138 391 
Q 2594 391 2855 752 
Q 3116 1113 3116 1747 
z
" transform="scale(0.015625)"/>
       <path id="DejaVuSans-Oblique-6f" d="M 1625 -91 
Q 1009 -91 651 289 
Q 294 669 294 1325 
Q 294 1706 417 2101 
Q 541 2497 738 2766 
Q 1047 3184 1428 3384 
Q 1809 3584 2291 3584 
Q 2888 3584 3255 3212 
Q 3622 2841 3622 2241 
Q 3622 1825 3500 1412 
Q 3378 1000 3181 728 
Q 2875 309 2494 109 
Q 2113 -91 1625 -91 
z
M 891 1344 
Q 891 869 1089 633 
Q 1288 397 1691 397 
Q 2269 397 2648 901 
Q 3028 1406 3028 2181 
Q 3028 2634 2825 2865 
Q 2622 3097 2228 3097 
Q 1903 3097 1650 2945 
Q 1397 2794 1197 2484 
Q 1050 2253 970 1956 
Q 891 1659 891 1344 
z
" transform="scale(0.015625)"/>
       <path id="DejaVuSans-43" d="M 4122 4306 
L 4122 3641 
Q 3803 3938 3442 4084 
Q 3081 4231 2675 4231 
Q 1875 4231 1450 3742 
Q 1025 3253 1025 2328 
Q 1025 1406 1450 917 
Q 1875 428 2675 428 
Q 3081 428 3442 575 
Q 3803 722 4122 1019 
L 4122 359 
Q 3791 134 3420 21 
Q 3050 -91 2638 -91 
Q 1578 -91 968 557 
Q 359 1206 359 2328 
Q 359 3453 968 4101 
Q 1578 4750 2638 4750 
Q 3056 4750 3426 4639 
Q 3797 4528 4122 4306 
z
" transform="scale(0.015625)"/>
      </defs>
      <use xlink:href="#DejaVuSans-62" transform="translate(0 0.51875)"/>
      <use xlink:href="#DejaVuSans-70" transform="translate(63.476562 0.51875)"/>
      <use xlink:href="#DejaVuSans-2c" transform="translate(126.953125 0.51875)"/>
      <use xlink:href="#DejaVuSans-20" transform="translate(158.740234 0.51875)"/>
      <use xlink:href="#DejaVuSans-Oblique-6f" transform="translate(191.484375 38.8) scale(0.7)"/>
      <use xlink:href="#DejaVuSans-43" transform="translate(237.045898 0.51875)"/>
     </g>
    </g>
   </g>
   <g id="line2d_13">
    <path d="M 68.921591 264.921772 
L 72.929437 262.670378 
L 76.937284 260.418985 
L 80.945131 258.167591 
L 84.952977 255.916198 
L 88.960824 253.664804 
L 92.96867 251.413411 
L 96.976517 249.162018 
L 100.984363 246.910624 
L 104.99221 244.659231 
L 109.000056 242.407837 
L 113.007903 240.156444 
L 117.01575 237.905051 
L 121.023596 235.653657 
L 125.031443 233.402264 
L 129.039289 231.15087 
L 133.047136 228.899477 
L 137.054982 226.648084 
L 141.062829 224.39669 
L 145.070676 222.145297 
L 149.078522 219.893903 
L 153.086369 217.64251 
L 157.094215 215.391117 
L 161.102062 213.139723 
L 165.109908 210.88833 
L 169.117755 208.636936 
L 173.125601 206.385543 
L 177.133448 204.134149 
L 181.141295 201.882756 
L 185.149141 199.631363 
L 189.156988 197.379969 
L 193.164834 195.128576 
L 197.172681 192.877182 
L 201.180527 190.625789 
L 205.188374 188.374396 
L 209.19622 186.123002 
L 213.204067 183.871609 
L 217.211914 181.620215 
L 221.21976 179.368822 
L 225.227607 177.117429 
L 229.235453 174.866035 
L 233.2433 172.614642 
L 237.251146 170.363248 
L 241.258993 168.111855 
L 245.266839 165.860462 
L 249.274686 163.609068 
L 253.282533 161.357675 
L 257.290379 159.106281 
L 261.298226 156.854888 
L 265.306072 154.603494 
L 269.313919 152.352101 
L 273.321765 150.100708 
L 277.329612 147.849314 
L 281.337459 145.597921 
L 285.345305 143.346527 
L 289.353152 141.095134 
L 293.360998 138.843741 
L 297.368845 136.592347 
L 301.376691 134.340954 
L 305.384538 132.08956 
L 309.392384 129.838167 
L 313.400231 127.586774 
L 317.408078 125.33538 
L 321.415924 123.083987 
L 325.423771 120.832593 
L 329.431617 118.5812 
L 333.439464 116.329807 
L 337.44731 114.078413 
L 341.455157 111.82702 
L 345.463003 109.575626 
L 349.47085 107.324233 
L 353.478697 105.072839 
L 357.486543 102.821446 
L 361.49439 100.570053 
L 365.502236 98.318659 
L 369.510083 96.067266 
L 373.517929 93.815872 
L 377.525776 91.564479 
L 381.533622 89.313086 
L 385.541469 87.061692 
L 389.549316 84.810299 
L 393.557162 82.558905 
L 397.565009 80.307512 
L 401.572855 78.056119 
L 405.580702 75.804725 
L 409.588548 73.553332 
L 413.596395 71.301938 
L 417.604242 69.050545 
L 421.612088 66.799152 
L 425.619935 64.547758 
L 429.627781 62.296365 
L 433.635628 60.044971 
L 437.643474 57.793578 
L 441.651321 55.542184 
L 445.659167 53.290791 
L 449.667014 51.039398 
L 453.674861 48.788004 
L 457.682707 46.536611 
L 461.690554 44.285217 
L 465.6984 42.033824 
" clip-path="url(#pe5332a042c)" style="fill: none; stroke: #1f77b4; stroke-width: 2.25; stroke-linecap: square"/>
   </g>
   <g id="line2d_14">
    <path d="M 194.988747 289.209879 
L 198.106067 286.851013 
L 201.223387 284.492146 
L 204.340707 282.13328 
L 207.458027 279.774414 
L 210.575346 277.415548 
L 213.692666 275.056682 
L 216.809986 272.697816 
L 219.927306 270.33895 
L 223.044626 267.980084 
L 226.161945 265.621217 
L 229.279265 263.262351 
L 232.396585 260.903485 
L 235.513905 258.544619 
L 238.631225 256.185753 
L 241.748545 253.826887 
L 244.865864 251.468021 
L 247.983184 249.109155 
L 251.100504 246.750288 
L 254.217824 244.391422 
L 257.335144 242.032556 
L 260.452463 239.67369 
L 263.569783 237.314824 
L 266.687103 234.955958 
L 269.804423 232.597092 
L 272.921743 230.238226 
L 276.039063 227.879359 
L 279.156382 225.520493 
L 282.273702 223.161627 
L 285.391022 220.802761 
L 288.508342 218.443895 
L 291.625662 216.085029 
L 294.742981 213.726163 
L 297.860301 211.367297 
L 300.977621 209.00843 
L 304.094941 206.649564 
L 307.212261 204.290698 
L 310.32958 201.931832 
L 313.4469 199.572966 
L 316.56422 197.2141 
L 319.68154 194.855234 
L 322.79886 192.496367 
L 325.91618 190.137501 
L 329.033499 187.778635 
L 332.150819 185.419769 
L 335.268139 183.060903 
L 338.385459 180.702037 
L 341.502779 178.343171 
L 344.620098 175.984305 
L 347.737418 173.625438 
L 350.854738 171.266572 
L 353.972058 168.907706 
L 357.089378 166.54884 
L 360.206698 164.189974 
L 363.324017 161.831108 
L 366.441337 159.472242 
L 369.558657 157.113376 
L 372.675977 154.754509 
L 375.793297 152.395643 
L 378.910616 150.036777 
L 382.027936 147.677911 
L 385.145256 145.319045 
L 388.262576 142.960179 
L 391.379896 140.601313 
L 394.497216 138.242447 
L 397.614535 135.88358 
L 400.731855 133.524714 
L 403.849175 131.165848 
L 406.966495 128.806982 
L 410.083815 126.448116 
L 413.201134 124.08925 
L 416.318454 121.730384 
L 419.435774 119.371518 
L 422.553094 117.012651 
L 425.670414 114.653785 
L 428.787734 112.294919 
L 431.905053 109.936053 
L 435.022373 107.577187 
L 438.139693 105.218321 
L 441.257013 102.859455 
L 444.374333 100.500589 
L 447.491652 98.141722 
L 450.608972 95.782856 
L 453.726292 93.42399 
L 456.843612 91.065124 
L 459.960932 88.706258 
L 463.078251 86.347392 
L 466.195571 83.988526 
L 469.312891 81.62966 
L 472.430211 79.270793 
L 475.547531 76.911927 
L 478.664851 74.553061 
L 481.78217 72.194195 
L 484.89949 69.835329 
L 488.01681 67.476463 
L 491.13413 65.117597 
L 494.25145 62.75873 
L 497.368769 60.399864 
L 500.486089 58.040998 
L 503.603409 55.682132 
" clip-path="url(#pe5332a042c)" style="fill: none; stroke: #ff7f0e; stroke-width: 2.25; stroke-linecap: square"/>
   </g>
   <g id="patch_3">
    <path d="M 47.1875 314.44 
L 47.1875 7.2 
" style="fill: none; stroke: #000000; stroke-width: 0.8; stroke-linejoin: miter; stroke-linecap: square"/>
   </g>
   <g id="patch_4">
    <path d="M 47.1875 314.44 
L 525.3375 314.44 
" style="fill: none; stroke: #000000; stroke-width: 0.8; stroke-linejoin: miter; stroke-linecap: square"/>
   </g>
   <g id="legend_1">
    <g id="patch_5">
     <path d="M 54.1875 59.234375 
L 121.945312 59.234375 
Q 123.945312 59.234375 123.945312 57.234375 
L 123.945312 14.2 
Q 123.945312 12.2 121.945312 12.2 
L 54.1875 12.2 
Q 52.1875 12.2 52.1875 14.2 
L 52.1875 57.234375 
Q 52.1875 59.234375 54.1875 59.234375 
z
" style="fill: #ffffff; opacity: 0.8; stroke: #cccccc; stroke-linejoin: miter"/>
    </g>
    <g id="text_15">
     <!-- type -->
     <g transform="translate(76.896094 23.798437) scale(0.1 -0.1)">
      <defs>
       <path id="DejaVuSans-74" d="M 1172 4494 
L 1172 3500 
L 2356 3500 
L 2356 3053 
L 1172 3053 
L 1172 1153 
Q 1172 725 1289 603 
Q 1406 481 1766 481 
L 2356 481 
L 2356 0 
L 1766 0 
Q 1100 0 847 248 
Q 594 497 594 1153 
L 594 3053 
L 172 3053 
L 172 3500 
L 594 3500 
L 594 4494 
L 1172 4494 
z
" transform="scale(0.015625)"/>
       <path id="DejaVuSans-79" d="M 2059 -325 
Q 1816 -950 1584 -1140 
Q 1353 -1331 966 -1331 
L 506 -1331 
L 506 -850 
L 844 -850 
Q 1081 -850 1212 -737 
Q 1344 -625 1503 -206 
L 1606 56 
L 191 3500 
L 800 3500 
L 1894 763 
L 2988 3500 
L 3597 3500 
L 2059 -325 
z
" transform="scale(0.015625)"/>
       <path id="DejaVuSans-65" d="M 3597 1894 
L 3597 1613 
L 953 1613 
Q 991 1019 1311 708 
Q 1631 397 2203 397 
Q 2534 397 2845 478 
Q 3156 559 3463 722 
L 3463 178 
Q 3153 47 2828 -22 
Q 2503 -91 2169 -91 
Q 1331 -91 842 396 
Q 353 884 353 1716 
Q 353 2575 817 3079 
Q 1281 3584 2069 3584 
Q 2775 3584 3186 3129 
Q 3597 2675 3597 1894 
z
M 3022 2063 
Q 3016 2534 2758 2815 
Q 2500 3097 2075 3097 
Q 1594 3097 1305 2825 
Q 1016 2553 972 2059 
L 3022 2063 
z
" transform="scale(0.015625)"/>
      </defs>
      <use xlink:href="#DejaVuSans-74"/>
      <use xlink:href="#DejaVuSans-79" x="39.208984"/>
      <use xlink:href="#DejaVuSans-70" x="98.388672"/>
      <use xlink:href="#DejaVuSans-65" x="161.865234"/>
     </g>
    </g>
    <g id="PathCollection_3">
     <g>
      <use xlink:href="#m4c3da3d5bc" x="66.1875" y="35.851562" style="fill: #1f77b4; fill-opacity: 0.8; stroke: #1f77b4; stroke-opacity: 0.8"/>
     </g>
    </g>
    <g id="text_16">
     <!-- alcohol -->
     <g transform="translate(84.1875 38.476562) scale(0.1 -0.1)">
      <defs>
       <path id="DejaVuSans-61" d="M 2194 1759 
Q 1497 1759 1228 1600 
Q 959 1441 959 1056 
Q 959 750 1161 570 
Q 1363 391 1709 391 
Q 2188 391 2477 730 
Q 2766 1069 2766 1631 
L 2766 1759 
L 2194 1759 
z
M 3341 1997 
L 3341 0 
L 2766 0 
L 2766 531 
Q 2569 213 2275 61 
Q 1981 -91 1556 -91 
Q 1019 -91 701 211 
Q 384 513 384 1019 
Q 384 1609 779 1909 
Q 1175 2209 1959 2209 
L 2766 2209 
L 2766 2266 
Q 2766 2663 2505 2880 
Q 2244 3097 1772 3097 
Q 1472 3097 1187 3025 
Q 903 2953 641 2809 
L 641 3341 
Q 956 3463 1253 3523 
Q 1550 3584 1831 3584 
Q 2591 3584 2966 3190 
Q 3341 2797 3341 1997 
z
" transform="scale(0.015625)"/>
       <path id="DejaVuSans-63" d="M 3122 3366 
L 3122 2828 
Q 2878 2963 2633 3030 
Q 2388 3097 2138 3097 
Q 1578 3097 1268 2742 
Q 959 2388 959 1747 
Q 959 1106 1268 751 
Q 1578 397 2138 397 
Q 2388 397 2633 464 
Q 2878 531 3122 666 
L 3122 134 
Q 2881 22 2623 -34 
Q 2366 -91 2075 -91 
Q 1284 -91 818 406 
Q 353 903 353 1747 
Q 353 2603 823 3093 
Q 1294 3584 2113 3584 
Q 2378 3584 2631 3529 
Q 2884 3475 3122 3366 
z
" transform="scale(0.015625)"/>
       <path id="DejaVuSans-68" d="M 3513 2113 
L 3513 0 
L 2938 0 
L 2938 2094 
Q 2938 2591 2744 2837 
Q 2550 3084 2163 3084 
Q 1697 3084 1428 2787 
Q 1159 2491 1159 1978 
L 1159 0 
L 581 0 
L 581 4863 
L 1159 4863 
L 1159 2956 
Q 1366 3272 1645 3428 
Q 1925 3584 2291 3584 
Q 2894 3584 3203 3211 
Q 3513 2838 3513 2113 
z
" transform="scale(0.015625)"/>
      </defs>
      <use xlink:href="#DejaVuSans-61"/>
      <use xlink:href="#DejaVuSans-6c" x="61.279297"/>
      <use xlink:href="#DejaVuSans-63" x="89.0625"/>
      <use xlink:href="#DejaVuSans-6f" x="144.042969"/>
      <use xlink:href="#DejaVuSans-68" x="205.224609"/>
      <use xlink:href="#DejaVuSans-6f" x="268.603516"/>
      <use xlink:href="#DejaVuSans-6c" x="329.785156"/>
     </g>
    </g>
    <g id="PathCollection_4">
     <g>
      <use xlink:href="#me75c25006e" x="66.1875" y="50.529688" style="fill: #ff7f0e; fill-opacity: 0.8; stroke: #ff7f0e; stroke-opacity: 0.8"/>
     </g>
    </g>
    <g id="text_17">
     <!-- alkane -->
     <g transform="translate(84.1875 53.154688) scale(0.1 -0.1)">
      <defs>
       <path id="DejaVuSans-6b" d="M 581 4863 
L 1159 4863 
L 1159 1991 
L 2875 3500 
L 3609 3500 
L 1753 1863 
L 3688 0 
L 2938 0 
L 1159 1709 
L 1159 0 
L 581 0 
L 581 4863 
z
" transform="scale(0.015625)"/>
       <path id="DejaVuSans-6e" d="M 3513 2113 
L 3513 0 
L 2938 0 
L 2938 2094 
Q 2938 2591 2744 2837 
Q 2550 3084 2163 3084 
Q 1697 3084 1428 2787 
Q 1159 2491 1159 1978 
L 1159 0 
L 581 0 
L 581 3500 
L 1159 3500 
L 1159 2956 
Q 1366 3272 1645 3428 
Q 1925 3584 2291 3584 
Q 2894 3584 3203 3211 
Q 3513 2838 3513 2113 
z
" transform="scale(0.015625)"/>
      </defs>
      <use xlink:href="#DejaVuSans-61"/>
      <use xlink:href="#DejaVuSans-6c" x="61.279297"/>
      <use xlink:href="#DejaVuSans-6b" x="89.0625"/>
      <use xlink:href="#DejaVuSans-61" x="145.222656"/>
      <use xlink:href="#DejaVuSans-6e" x="206.501953"/>
      <use xlink:href="#DejaVuSans-65" x="269.880859"/>
     </g>
    </g>
   </g>
  </g>
 </g>
 <defs>
  <clipPath id="pe5332a042c">
   <rect x="47.1875" y="7.2" width="478.15" height="307.24"/>
  </clipPath>
 </defs>
</svg>